<svg id="Layer_1" data-name="Layer 1" xmlns="http://www.w3.org/2000/svg" xmlns:xlink="http://www.w3.org/1999/xlink" viewBox="0 0 274 568"><defs><style>.cls-1,.cls-2{fill:#fff;}.cls-2,.cls-5,.cls-6,.cls-7{fill-rule:evenodd;}.cls-3{fill:#00423f;}.cls-4{mask:url(#mask);}.cls-5{fill:#00a59e;}.cls-6{fill:#00e49e;}.cls-7{fill:none;stroke:#fff;stroke-miterlimit:5;stroke-dasharray:5;opacity:0.25;}</style><mask id="mask" x="-61.43" y="1" width="370.46" height="646.63" maskUnits="userSpaceOnUse"><g id="a"><rect class="cls-1" y="1" width="274" height="568" rx="10"/></g></mask></defs><title>bg-sidebar-desktop_1</title><path class="cls-1" d="M151.6,482.43v0A8.44,8.44,0,0,1,145,479.7a10.19,10.19,0,0,1-2.44-7.08h0V455.05H134.1v17.57a17.5,17.5,0,0,0,2.35,8.87,16.66,16.66,0,0,0,6.35,6.23,17.8,17.8,0,0,0,8.8,2.23h12.32v-7.52Z"/><path class="cls-1" d="M63.07,489.93a17.59,17.59,0,0,1-8.8-2.23,16.54,16.54,0,0,1-6.35-6.21,17.51,17.51,0,0,1-2.35-9,17.32,17.32,0,0,1,2.35-9,16.75,16.75,0,0,1,6.35-6.21,17.8,17.8,0,0,1,8.8-2.23H75.39v7.52H63.07a8.44,8.44,0,0,0-6.57,2.66,11.83,11.83,0,0,0,0,14.42,8.45,8.45,0,0,0,6.57,2.69v0H75.39v7.51Z"/><path class="cls-2" d="M182.75,462.61h12.32V455.1H182.75a17.82,17.82,0,0,0-8.8,2.22,16.92,16.92,0,0,0-6.35,6.19,18.4,18.4,0,0,0,0,18A16.81,16.81,0,0,0,174,487.7a17.83,17.83,0,0,0,8.8,2.23h12.32v-7.5H182.75v0a8.45,8.45,0,0,1-6.57-2.69,9,9,0,0,1-1.9-3.42h20.8v-7.51H174.25a8.82,8.82,0,0,1,1.93-3.49A8.47,8.47,0,0,1,182.75,462.61Z"/><path class="cls-2" d="M96.05,482.41h0a9.91,9.91,0,1,1,0-19.81,17.48,17.48,0,0,1,8.7,2.31,17.45,17.45,0,0,1,8.7-2.31H114a9.91,9.91,0,0,1,0,19.77h-.55a17.42,17.42,0,0,1-8.69-2.32,17.49,17.49,0,0,1-8.7,2.32m8.7-25a17.47,17.47,0,1,1,0,30.3,17.47,17.47,0,1,1,0-30.3Z"/><polygon class="cls-1" points="97.42 469.38 95.78 475.69 93.92 475.69 92.91 471.54 91.87 475.69 90.01 475.69 88.41 469.38 90.06 469.38 90.96 473.97 92.09 469.38 93.78 469.38 94.85 473.97 95.77 469.38 97.42 469.38"/><path class="cls-1" d="M101.18,474.35a1.51,1.51,0,0,0,1.21-.52,2.16,2.16,0,0,0,0-2.66,1.72,1.72,0,0,0-2.43,0,2.21,2.21,0,0,0,0,2.67,1.57,1.57,0,0,0,1.22.5m0,1.4a3.32,3.32,0,0,1-1.63-.41,3.06,3.06,0,0,1-1.18-1.16,3.4,3.4,0,0,1,0-3.33,3.15,3.15,0,0,1,1.19-1.13,3.43,3.43,0,0,1,3.26,0,3,3,0,0,1,1.17,1.15,3.44,3.44,0,0,1,0,3.32,3,3,0,0,1-1.17,1.16,3.25,3.25,0,0,1-1.64.41Z"/><path class="cls-1" d="M106.8,472.22h1a.88.88,0,0,0,.64-.2.8.8,0,0,0,.21-.59.73.73,0,0,0-.21-.56.89.89,0,0,0-.64-.21h-1Zm1.68,3.47-1.31-2.38h-.37v2.38h-1.54v-6.31h2.58a3,3,0,0,1,1.28.26,1.87,1.87,0,0,1,.78.72,1.85,1.85,0,0,1,.26,1,1.88,1.88,0,0,1-.35,1.12,2,2,0,0,1-1,.7l1.46,2.48Z"/><polygon class="cls-1" points="112.66 474.51 114.68 474.51 114.68 475.69 111.13 475.69 111.13 469.38 112.66 469.38 112.66 474.51"/><path class="cls-1" d="M117.68,474.36a1.84,1.84,0,0,0,1.36-.48,1.8,1.8,0,0,0,.48-1.34,1.69,1.69,0,0,0-1.51-1.85H117v3.67Zm.1-5a3.66,3.66,0,0,1,1.74.42,2.82,2.82,0,0,1,1.16,1.11,3.56,3.56,0,0,1,0,3.3,2.82,2.82,0,0,1-1.16,1.11,3.66,3.66,0,0,1-1.74.42h-2.37v-6.36Z"/><path class="cls-2" d="M209.92,484.39V490h-8.37V478.86h10.71v0h.5a6.85,6.85,0,0,0,5.32-2.17,9.77,9.77,0,0,0,0-11.82,6.86,6.86,0,0,0-5.32-2.15H201.55v-7.53h11.2a15.84,15.84,0,0,1,7.87,2,15,15,0,0,1,5.7,5.56,16.41,16.41,0,0,1,0,16.1,15,15,0,0,1-5.7,5.58l-.15.09,3.11,5.37-8.64.1-2.07-5.58h-3Z"/><path class="cls-1" d="M55.69,494.82a.85.85,0,0,1,.18.51.83.83,0,0,1-.3.67,1.2,1.2,0,0,1-.82.24H53.2V492.9h1.51a1.25,1.25,0,0,1,.79.24.76.76,0,0,1,.29.63.77.77,0,0,1-.15.49.9.9,0,0,1-.42.27A.8.8,0,0,1,55.69,494.82ZM54,494.26h.54a.51.51,0,0,0,.3-.09.3.3,0,0,0,.11-.26.29.29,0,0,0-.11-.26.47.47,0,0,0-.3-.1H54Zm.91,1.23a.29.29,0,0,0,.11-.26.33.33,0,0,0-.11-.28.47.47,0,0,0-.32-.1H54v.74h.6A.5.5,0,0,0,54.93,495.49Z"/><path class="cls-1" d="M59.2,492.9l-1.15,2.24v1.1h-.83v-1.1l-1.16-2.24H57l.64,1.4.64-1.4Z"/><path class="cls-1" d="M62.75,494a.57.57,0,0,0-.26-.25.9.9,0,0,0-1,.17,1.16,1.16,0,0,0,0,1.41.93.93,0,0,0,.69.26.92.92,0,0,0,.51-.15A.89.89,0,0,0,63,495h-1v-.6H63.7v.75a1.67,1.67,0,0,1-.86,1,1.78,1.78,0,0,1-.75.16,1.86,1.86,0,0,1-.89-.22,1.57,1.57,0,0,1-.6-.6,1.95,1.95,0,0,1,0-1.76,1.53,1.53,0,0,1,.6-.61,1.94,1.94,0,0,1,.88-.22,1.78,1.78,0,0,1,1,.29,1.38,1.38,0,0,1,.55.83Z"/><path class="cls-1" d="M65,493.55v.68h1.09v.63H65v.73h1.24v.65h-2V492.9h2v.65Z"/><path class="cls-1" d="M69.13,492.9v.65h-.88v2.69h-.82v-2.69h-.88v-.65Z"/><path class="cls-1" d="M69.58,495.47l.74-.63a3.17,3.17,0,0,0,.45-.52,1,1,0,0,0,.19-.53.47.47,0,0,0-.1-.3.29.29,0,0,0-.26-.11.36.36,0,0,0-.29.13.67.67,0,0,0-.1.39h-.79a1.46,1.46,0,0,1,.17-.68,1.1,1.1,0,0,1,.42-.41,1.34,1.34,0,0,1,.59-.13,1.14,1.14,0,0,1,.85.29,1,1,0,0,1,.29.76,1.47,1.47,0,0,1-.34.94,5,5,0,0,1-.89.83H71.8v.66H69.42v-.57A1,1,0,0,0,69.58,495.47Z"/><path class="cls-1" d="M72.33,493.69a1.53,1.53,0,0,1,.6-.61,1.9,1.9,0,0,1,.87-.22,1.79,1.79,0,0,1,1,.32,1.48,1.48,0,0,1,.56.86h-.89a.65.65,0,0,0-.29-.32.72.72,0,0,0-.41-.11.8.8,0,0,0-.61.26,1.18,1.18,0,0,0,0,1.4.8.8,0,0,0,.61.26.81.81,0,0,0,.41-.11.74.74,0,0,0,.29-.32h.89a1.49,1.49,0,0,1-.56.85,1.65,1.65,0,0,1-1,.32,1.79,1.79,0,0,1-.87-.22,1.57,1.57,0,0,1-.6-.6,1.79,1.79,0,0,1-.21-.88A1.9,1.9,0,0,1,72.33,493.69Z"/><rect class="cls-3" width="274" height="568" rx="10"/><g class="cls-4"><path class="cls-5" d="M-34.69,544.1C3.25,633.54,168.77,686,212,613.52S145.86,527.87,107.23,453,38.57,331.28-17.26,348.34-72.63,454.66-34.69,544.1Z"/><path class="cls-6" d="M224.44,601.46C288.56,582.23,337,472.83,290.63,437.77s-63.66,38.8-117.9,59.6-88.52,37.82-81,77.35S160.31,620.68,224.44,601.46Z"/></g><path class="cls-1" d="M154,524v0a9.82,9.82,0,0,1-7.67-3.15,11.89,11.89,0,0,1-2.85-8.26h0v-20.5h-9.9v20.5a20.36,20.36,0,0,0,2.74,10.36,19.52,19.52,0,0,0,7.41,7.27,20.83,20.83,0,0,0,10.27,2.6h14.38V524Z"/><path class="cls-1" d="M50.71,532.77a20.72,20.72,0,0,1-10.27-2.6A19.47,19.47,0,0,1,33,522.92a21.41,21.41,0,0,1,0-21,19.47,19.47,0,0,1,7.41-7.25,20.72,20.72,0,0,1,10.27-2.6H65.09v8.77H50.71A9.89,9.89,0,0,0,43,504a13.81,13.81,0,0,0,0,16.83A9.89,9.89,0,0,0,50.71,524v0H65.09v8.76Z"/><path class="cls-2" d="M190.4,500.89h14.38v-8.77H190.4a20.71,20.71,0,0,0-10.27,2.59,19.56,19.56,0,0,0-7.41,7.23,21.39,21.39,0,0,0,0,20.95,19.52,19.52,0,0,0,7.41,7.27,20.72,20.72,0,0,0,10.27,2.6h14.38V524H190.4v0a9.84,9.84,0,0,1-7.67-3.15,10.21,10.21,0,0,1-2.22-4h24.28v-8.76H180.47a10.51,10.51,0,0,1,2.26-4.08A9.9,9.9,0,0,1,190.4,500.89Z"/><path class="cls-2" d="M89.2,524h0a11.56,11.56,0,0,1,0-23.12,20.43,20.43,0,0,1,10.16,2.7,20.42,20.42,0,0,1,10.15-2.7h.65a11.56,11.56,0,0,1,0,23.07h-.64a20.33,20.33,0,0,1-10.15-2.71,20.34,20.34,0,0,1-10.16,2.71m10.16-29.23a20.4,20.4,0,1,1,0,35.37,20.39,20.39,0,1,1,0-35.37Z"/><polygon class="cls-1" points="90.81 508.79 88.89 516.15 86.72 516.15 85.54 511.3 84.32 516.15 82.16 516.15 80.29 508.79 82.21 508.79 83.27 514.15 84.58 508.79 86.55 508.79 87.81 514.15 88.88 508.79 90.81 508.79"/><path class="cls-1" d="M95.19,514.59a1.83,1.83,0,0,0,1.42-.61,2.57,2.57,0,0,0,0-3.11,2,2,0,0,0-2.84,0,2.58,2.58,0,0,0,0,3.12,1.83,1.83,0,0,0,1.42.58m0,1.64a3.94,3.94,0,0,1-1.9-.48,3.62,3.62,0,0,1-1.37-1.35,4,4,0,0,1,0-3.89,3.53,3.53,0,0,1,1.38-1.33,4,4,0,0,1,3.8,0,3.55,3.55,0,0,1,1.37,1.35,4,4,0,0,1,0,3.88,3.53,3.53,0,0,1-1.36,1.35,3.8,3.8,0,0,1-1.92.48Z"/><path class="cls-1" d="M101.75,512.1h1.11a1,1,0,0,0,.75-.24.89.89,0,0,0,.24-.68.84.84,0,0,0-.24-.66,1,1,0,0,0-.75-.24h-1.11Zm2,4-1.53-2.78h-.43v2.78H100v-7.36h3a3.27,3.27,0,0,1,1.48.3,2,2,0,0,1,.92.84,2.24,2.24,0,0,1,.31,1.16,2.2,2.2,0,0,1-.42,1.31,2.24,2.24,0,0,1-1.22.82l1.7,2.89Z"/><polygon class="cls-1" points="108.59 514.77 110.94 514.77 110.94 516.15 106.8 516.15 106.8 508.79 108.59 508.79 108.59 514.77"/><path class="cls-1" d="M114.45,514.6A2.18,2.18,0,0,0,116,514a2.11,2.11,0,0,0,.57-1.57,2,2,0,0,0-1.76-2.15,1.27,1.27,0,0,0-.39,0h-.85v4.28Zm.11-5.81a4.26,4.26,0,0,1,2,.48,3.31,3.31,0,0,1,1.35,1.3,4.1,4.1,0,0,1,0,3.85,3.28,3.28,0,0,1-1.36,1.3,4.19,4.19,0,0,1-2,.48H111.8v-7.41Z"/><path class="cls-2" d="M222.11,526.31v6.51h-9.77v-13h12.5v-.05h.59a8,8,0,0,0,6.21-2.53,11.42,11.42,0,0,0,0-13.8,8,8,0,0,0-6.21-2.51H212.34v-8.79h13.07a18.59,18.59,0,0,1,9.19,2.34,17.49,17.49,0,0,1,6.65,6.49,19.17,19.17,0,0,1,0,18.79,17.42,17.42,0,0,1-6.65,6.52l-.18.1,3.63,6.26-10.08.12-2.41-6.51h-3.45Z"/><path class="cls-1" d="M42.1,538.47a1,1,0,0,1,.2.61.93.93,0,0,1-.34.77,1.46,1.46,0,0,1-1,.29H39.2v-3.9H41a1.47,1.47,0,0,1,.93.27.91.91,0,0,1,.34.74.89.89,0,0,1-.19.57.88.88,0,0,1-.48.32A.93.93,0,0,1,42.1,538.47Zm-2-.65h.64a.51.51,0,0,0,.35-.11.37.37,0,0,0,.13-.3.38.38,0,0,0-.13-.3.51.51,0,0,0-.35-.11h-.64Zm1.07,1.44a.36.36,0,0,0,.13-.31.37.37,0,0,0-.14-.32.49.49,0,0,0-.37-.12h-.69v.86h.7A.53.53,0,0,0,41.21,539.26Z"/><path class="cls-1" d="M46.19,536.24l-1.34,2.61v1.29h-1v-1.29l-1.35-2.61h1.08l.76,1.63.74-1.63Z"/><path class="cls-1" d="M50.34,537.47a.7.7,0,0,0-.3-.29,1,1,0,0,0-1.2.2,1.32,1.32,0,0,0,0,1.64,1.08,1.08,0,0,0,.8.31,1,1,0,0,0,.59-.18,1,1,0,0,0,.35-.51h-1.2v-.7h2.06v.88a1.92,1.92,0,0,1-1,1.16,1.88,1.88,0,0,1-.88.18,2.09,2.09,0,0,1-1-.25,1.75,1.75,0,0,1-.7-.7,2,2,0,0,1-.25-1,2.09,2.09,0,0,1,.25-1,1.81,1.81,0,0,1,.7-.7,2.19,2.19,0,0,1,1-.26,2.06,2.06,0,0,1,1.18.34,1.66,1.66,0,0,1,.64,1Z"/><path class="cls-1" d="M52.93,537v.79H54.2v.73H52.93v.85h1.45v.77H52v-3.9h2.39V537Z"/><path class="cls-1" d="M57.79,536.24V537h-1v3.14h-1V537h-1v-.76Z"/><path class="cls-1" d="M58.31,539.24l.86-.74a3.35,3.35,0,0,0,.53-.6,1.08,1.08,0,0,0,.21-.62.51.51,0,0,0-.1-.36.37.37,0,0,0-.31-.12.4.4,0,0,0-.34.15.71.71,0,0,0-.12.45h-.92a1.66,1.66,0,0,1,.2-.79,1.26,1.26,0,0,1,.49-.48,1.62,1.62,0,0,1,.69-.15,1.35,1.35,0,0,1,1,.34,1.14,1.14,0,0,1,.33.88,1.72,1.72,0,0,1-.4,1.11,5.87,5.87,0,0,1-1,1h1.5V540H58.12v-.67Z"/><path class="cls-1" d="M61.52,537.15a1.88,1.88,0,0,1,.7-.7,2.11,2.11,0,0,1,1-.26,2,2,0,0,1,1.19.37,1.74,1.74,0,0,1,.66,1H64a.91.91,0,0,0-.33-.37,1,1,0,0,0-.49-.13.89.89,0,0,0-.71.31,1.37,1.37,0,0,0,0,1.63.91.91,0,0,0,.71.3.94.94,0,0,0,.49-.12.91.91,0,0,0,.33-.37h1a1.72,1.72,0,0,1-.66,1,1.86,1.86,0,0,1-1.19.36,2,2,0,0,1-1-.25,1.81,1.81,0,0,1-.7-.7,2.15,2.15,0,0,1-.25-1A2.21,2.21,0,0,1,61.52,537.15Z"/><path class="cls-7" d="M-.41,107.11A143.6,143.6,0,0,1,71.2,88h4.65a81.56,81.56,0,0,1,0,162.79H71.33A143.47,143.47,0,0,1-.41,232.15m0-187.06a143.83,143.83,0,1,1,0,249.52"/></svg>