<svg id="Layer_1" data-name="Layer 1" xmlns="http://www.w3.org/2000/svg" xmlns:xlink="http://www.w3.org/1999/xlink" viewBox="0 0 274 568"><defs><style>.cls-1,.cls-2{fill:#fff;}.cls-2,.cls-5,.cls-6,.cls-7{fill-rule:evenodd;}.cls-3{fill:#0e4e4d;}.cls-4{mask:url(#mask);}.cls-5{fill:#1d9c9a;}.cls-6{fill:#eeb65e;}.cls-7{fill:none;stroke:#fff;stroke-miterlimit:5;stroke-dasharray:5;opacity:0.25;}</style><mask id="mask" x="-61.43" y="1" width="370.46" height="646.63" maskUnits="userSpaceOnUse"><g id="a"><rect class="cls-1" y="1" width="274" height="568" rx="10"/></g></mask></defs><title>bg-sidebar-desktop_1</title><path class="cls-1" d="M151.6,482.43v0A8.44,8.44,0,0,1,145,479.7a10.19,10.19,0,0,1-2.44-7.08h0V455.05H134.1v17.57a17.5,17.5,0,0,0,2.35,8.87,16.66,16.66,0,0,0,6.35,6.23,17.8,17.8,0,0,0,8.8,2.23h12.32v-7.52Z"/><path class="cls-1" d="M63.07,489.93a17.59,17.59,0,0,1-8.8-2.23,16.54,16.54,0,0,1-6.35-6.21,17.51,17.51,0,0,1-2.35-9,17.32,17.32,0,0,1,2.35-9,16.75,16.75,0,0,1,6.35-6.21,17.8,17.8,0,0,1,8.8-2.23H75.39v7.52H63.07a8.44,8.44,0,0,0-6.57,2.66,11.83,11.83,0,0,0,0,14.42,8.45,8.45,0,0,0,6.57,2.69v0H75.39v7.51Z"/><path class="cls-2" d="M182.75,462.61h12.32V455.1H182.75a17.82,17.82,0,0,0-8.8,2.22,16.92,16.92,0,0,0-6.35,6.19,18.4,18.4,0,0,0,0,18A16.81,16.81,0,0,0,174,487.7a17.83,17.83,0,0,0,8.8,2.23h12.32v-7.5H182.75v0a8.45,8.45,0,0,1-6.57-2.69,9,9,0,0,1-1.9-3.42h20.8v-7.51H174.25a8.82,8.82,0,0,1,1.93-3.49A8.47,8.47,0,0,1,182.75,462.61Z"/><path class="cls-2" d="M96.05,482.41h0a9.91,9.91,0,1,1,0-19.81,17.48,17.48,0,0,1,8.7,2.31,17.45,17.45,0,0,1,8.7-2.31H114a9.91,9.91,0,0,1,0,19.77h-.55a17.42,17.42,0,0,1-8.69-2.32,17.49,17.49,0,0,1-8.7,2.32m8.7-25a17.47,17.47,0,1,1,0,30.3,17.47,17.47,0,1,1,0-30.3Z"/><polygon class="cls-1" points="97.42 469.38 95.78 475.69 93.92 475.69 92.91 471.54 91.87 475.69 90.01 475.69 88.41 469.38 90.06 469.38 90.96 473.97 92.09 469.38 93.78 469.38 94.85 473.97 95.77 469.38 97.42 469.38"/><path class="cls-1" d="M101.18,474.35a1.51,1.51,0,0,0,1.21-.52,2.16,2.16,0,0,0,0-2.66,1.72,1.72,0,0,0-2.43,0,2.21,2.21,0,0,0,0,2.67,1.57,1.57,0,0,0,1.22.5m0,1.4a3.32,3.32,0,0,1-1.63-.41,3.06,3.06,0,0,1-1.18-1.16,3.4,3.4,0,0,1,0-3.33,3.15,3.15,0,0,1,1.19-1.13,3.43,3.43,0,0,1,3.26,0,3,3,0,0,1,1.17,1.15,3.44,3.44,0,0,1,0,3.32,3,3,0,0,1-1.17,1.16,3.25,3.25,0,0,1-1.64.41Z"/><path class="cls-1" d="M106.8,472.22h1a.88.88,0,0,0,.64-.2.8.8,0,0,0,.21-.59.73.73,0,0,0-.21-.56.89.89,0,0,0-.64-.21h-1Zm1.68,3.47-1.31-2.38h-.37v2.38h-1.54v-6.31h2.58a3,3,0,0,1,1.28.26,1.87,1.87,0,0,1,.78.72,1.85,1.85,0,0,1,.26,1,1.88,1.88,0,0,1-.35,1.12,2,2,0,0,1-1,.7l1.46,2.48Z"/><polygon class="cls-1" points="112.66 474.51 114.68 474.51 114.68 475.69 111.13 475.69 111.13 469.38 112.66 469.38 112.66 474.51"/><path class="cls-1" d="M117.68,474.36a1.84,1.84,0,0,0,1.36-.48,1.8,1.8,0,0,0,.48-1.34,1.69,1.69,0,0,0-1.51-1.85H117v3.67Zm.1-5a3.66,3.66,0,0,1,1.74.42,2.82,2.82,0,0,1,1.16,1.11,3.56,3.56,0,0,1,0,3.3,2.82,2.82,0,0,1-1.16,1.11,3.66,3.66,0,0,1-1.74.42h-2.37v-6.36Z"/><path class="cls-2" d="M209.92,484.39V490h-8.37V478.86h10.71v0h.5a6.85,6.85,0,0,0,5.32-2.17,9.77,9.77,0,0,0,0-11.82,6.86,6.86,0,0,0-5.32-2.15H201.55v-7.53h11.2a15.84,15.84,0,0,1,7.87,2,15,15,0,0,1,5.7,5.56,16.41,16.41,0,0,1,0,16.1,15,15,0,0,1-5.7,5.58l-.15.09,3.11,5.37-8.64.1-2.07-5.58h-3Z"/><path class="cls-1" d="M55.69,494.82a.85.85,0,0,1,.18.51.83.83,0,0,1-.3.67,1.2,1.2,0,0,1-.82.24H53.2V492.9h1.51a1.25,1.25,0,0,1,.79.24.76.76,0,0,1,.29.63.77.77,0,0,1-.15.49.9.9,0,0,1-.42.27A.8.8,0,0,1,55.69,494.82ZM54,494.26h.54a.51.51,0,0,0,.3-.09.3.3,0,0,0,.11-.26.29.29,0,0,0-.11-.26.47.47,0,0,0-.3-.1H54Zm.91,1.23a.29.29,0,0,0,.11-.26.33.33,0,0,0-.11-.28.47.47,0,0,0-.32-.1H54v.74h.6A.5.5,0,0,0,54.93,495.49Z"/><path class="cls-1" d="M59.2,492.9l-1.15,2.24v1.1h-.83v-1.1l-1.16-2.24H57l.64,1.4.64-1.4Z"/><path class="cls-1" d="M62.75,494a.57.57,0,0,0-.26-.25.9.9,0,0,0-1,.17,1.16,1.16,0,0,0,0,1.41.93.93,0,0,0,.69.26.92.92,0,0,0,.51-.15A.89.89,0,0,0,63,495h-1v-.6H63.7v.75a1.67,1.67,0,0,1-.86,1,1.78,1.78,0,0,1-.75.16,1.86,1.86,0,0,1-.89-.22,1.57,1.57,0,0,1-.6-.6,1.95,1.95,0,0,1,0-1.76,1.53,1.53,0,0,1,.6-.61,1.94,1.94,0,0,1,.88-.22,1.78,1.78,0,0,1,1,.29,1.38,1.38,0,0,1,.55.83Z"/><path class="cls-1" d="M65,493.55v.68h1.09v.63H65v.73h1.24v.65h-2V492.9h2v.65Z"/><path class="cls-1" d="M69.13,492.9v.65h-.88v2.69h-.82v-2.69h-.88v-.65Z"/><path class="cls-1" d="M69.58,495.47l.74-.63a3.17,3.17,0,0,0,.45-.52,1,1,0,0,0,.19-.53.47.47,0,0,0-.1-.3.29.29,0,0,0-.26-.11.36.36,0,0,0-.29.13.67.67,0,0,0-.1.39h-.79a1.46,1.46,0,0,1,.17-.68,1.1,1.1,0,0,1,.42-.41,1.34,1.34,0,0,1,.59-.13,1.14,1.14,0,0,1,.85.29,1,1,0,0,1,.29.76,1.47,1.47,0,0,1-.34.94,5,5,0,0,1-.89.83H71.8v.66H69.42v-.57A1,1,0,0,0,69.58,495.47Z"/><path class="cls-1" d="M72.33,493.69a1.53,1.53,0,0,1,.6-.61,1.9,1.9,0,0,1,.87-.22,1.79,1.79,0,0,1,1,.32,1.48,1.48,0,0,1,.56.86h-.89a.65.65,0,0,0-.29-.32.72.72,0,0,0-.41-.11.8.8,0,0,0-.61.26,1.18,1.18,0,0,0,0,1.4.8.8,0,0,0,.61.26.81.81,0,0,0,.41-.11.74.74,0,0,0,.29-.32h.89a1.49,1.49,0,0,1-.56.85,1.65,1.65,0,0,1-1,.32,1.79,1.79,0,0,1-.87-.22,1.57,1.57,0,0,1-.6-.6,1.79,1.79,0,0,1-.21-.88A1.9,1.9,0,0,1,72.33,493.69Z"/><rect class="cls-3" width="274" height="568" rx="10"/><g class="cls-4"><path class="cls-5" d="M-34.69,544.1C3.25,633.54,168.77,686,212,613.52S145.86,527.87,107.23,453,38.57,331.28-17.26,348.34-72.63,454.66-34.69,544.1Z"/><path class="cls-6" d="M224.44,601.46C288.56,582.23,337,472.83,290.63,437.77s-63.66,38.8-117.9,59.6-88.52,37.82-81,77.35S160.31,620.68,224.44,601.46Z"/></g><path class="cls-1" d="M151.6,519.43v0A8.44,8.44,0,0,1,145,516.7a10.19,10.19,0,0,1-2.44-7.08h0V492.05H134.1v17.57a17.5,17.5,0,0,0,2.35,8.87,16.66,16.66,0,0,0,6.35,6.23,17.8,17.8,0,0,0,8.8,2.23h12.32v-7.52Z"/><path class="cls-1" d="M63.07,526.93a17.59,17.59,0,0,1-8.8-2.23,16.54,16.54,0,0,1-6.35-6.21,17.51,17.51,0,0,1-2.35-9,17.32,17.32,0,0,1,2.35-9,16.75,16.75,0,0,1,6.35-6.21,17.8,17.8,0,0,1,8.8-2.23H75.39v7.52H63.07a8.44,8.44,0,0,0-6.57,2.66,11.83,11.83,0,0,0,0,14.42,8.45,8.45,0,0,0,6.57,2.69v0H75.39v7.51Z"/><path class="cls-2" d="M182.75,499.61h12.32V492.1H182.75a17.82,17.82,0,0,0-8.8,2.22,16.92,16.92,0,0,0-6.35,6.19,18.4,18.4,0,0,0,0,18A16.81,16.81,0,0,0,174,524.7a17.83,17.83,0,0,0,8.8,2.23h12.32v-7.5H182.75v0a8.45,8.45,0,0,1-6.57-2.69,9,9,0,0,1-1.9-3.42h20.8v-7.51H174.25a8.82,8.82,0,0,1,1.93-3.49A8.47,8.47,0,0,1,182.75,499.61Z"/><path class="cls-2" d="M96.05,519.41h0a9.91,9.91,0,1,1,0-19.81,17.48,17.48,0,0,1,8.7,2.31,17.45,17.45,0,0,1,8.7-2.31H114a9.91,9.91,0,0,1,0,19.77h-.55a17.42,17.42,0,0,1-8.69-2.32,17.49,17.49,0,0,1-8.7,2.32m8.7-25a17.47,17.47,0,1,1,0,30.3,17.47,17.47,0,1,1,0-30.3Z"/><polygon class="cls-1" points="97.42 506.38 95.78 512.69 93.92 512.69 92.91 508.54 91.87 512.69 90.01 512.69 88.41 506.38 90.06 506.38 90.96 510.97 92.09 506.38 93.78 506.38 94.85 510.97 95.77 506.38 97.42 506.38"/><path class="cls-1" d="M101.18,511.35a1.51,1.51,0,0,0,1.21-.52,2.16,2.16,0,0,0,0-2.66,1.72,1.72,0,0,0-2.43,0,2.21,2.21,0,0,0,0,2.67,1.57,1.57,0,0,0,1.22.5m0,1.4a3.32,3.32,0,0,1-1.63-.41,3.06,3.06,0,0,1-1.18-1.16,3.4,3.4,0,0,1,0-3.33,3.15,3.15,0,0,1,1.19-1.13,3.43,3.43,0,0,1,3.26,0,3,3,0,0,1,1.17,1.15,3.44,3.44,0,0,1,0,3.32,3,3,0,0,1-1.17,1.16,3.25,3.25,0,0,1-1.64.41Z"/><path class="cls-1" d="M106.8,509.22h1a.88.88,0,0,0,.64-.2.8.8,0,0,0,.21-.59.73.73,0,0,0-.21-.56.89.89,0,0,0-.64-.21h-1Zm1.68,3.47-1.31-2.38h-.37v2.38h-1.54v-6.31h2.58a3,3,0,0,1,1.28.26,1.87,1.87,0,0,1,.78.72,1.85,1.85,0,0,1,.26,1,1.88,1.88,0,0,1-.35,1.12,2,2,0,0,1-1,.7l1.46,2.48Z"/><polygon class="cls-1" points="112.66 511.51 114.68 511.51 114.68 512.69 111.13 512.69 111.13 506.38 112.66 506.38 112.66 511.51"/><path class="cls-1" d="M117.68,511.36a1.84,1.84,0,0,0,1.36-.48,1.8,1.8,0,0,0,.48-1.34,1.69,1.69,0,0,0-1.51-1.85H117v3.67Zm.1-5a3.66,3.66,0,0,1,1.74.42,2.82,2.82,0,0,1,1.16,1.11,3.56,3.56,0,0,1,0,3.3,2.82,2.82,0,0,1-1.16,1.11,3.66,3.66,0,0,1-1.74.42h-2.37v-6.36Z"/><path class="cls-2" d="M209.92,521.39V527h-8.37V515.86h10.71v0h.5a6.85,6.85,0,0,0,5.32-2.17,9.77,9.77,0,0,0,0-11.82,6.86,6.86,0,0,0-5.32-2.15H201.55v-7.53h11.2a15.84,15.84,0,0,1,7.87,2,15,15,0,0,1,5.7,5.56,16.41,16.41,0,0,1,0,16.1,15,15,0,0,1-5.7,5.58l-.15.09,3.11,5.37-8.64.1-2.07-5.58h-3Z"/><path class="cls-1" d="M55.69,531.82a.85.85,0,0,1,.18.51.83.83,0,0,1-.3.67,1.2,1.2,0,0,1-.82.24H53.2V529.9h1.51a1.25,1.25,0,0,1,.79.24.76.76,0,0,1,.29.63.77.77,0,0,1-.15.49.9.9,0,0,1-.42.27A.8.8,0,0,1,55.69,531.82ZM54,531.26h.54a.51.51,0,0,0,.3-.09.3.3,0,0,0,.11-.26.29.29,0,0,0-.11-.26.47.47,0,0,0-.3-.1H54Zm.91,1.23a.29.29,0,0,0,.11-.26.33.33,0,0,0-.11-.28.47.47,0,0,0-.32-.1H54v.74h.6A.5.5,0,0,0,54.93,532.49Z"/><path class="cls-1" d="M59.2,529.9l-1.15,2.24v1.1h-.83v-1.1l-1.16-2.24H57l.64,1.4.64-1.4Z"/><path class="cls-1" d="M62.75,531a.57.57,0,0,0-.26-.25.9.9,0,0,0-1,.17,1.16,1.16,0,0,0,0,1.41.93.93,0,0,0,.69.26.92.92,0,0,0,.51-.15A.89.89,0,0,0,63,532h-1v-.6H63.7v.75a1.67,1.67,0,0,1-.86,1,1.78,1.78,0,0,1-.75.16,1.86,1.86,0,0,1-.89-.22,1.57,1.57,0,0,1-.6-.6,1.95,1.95,0,0,1,0-1.76,1.53,1.53,0,0,1,.6-.61,1.94,1.94,0,0,1,.88-.22,1.78,1.78,0,0,1,1,.29,1.38,1.38,0,0,1,.55.83Z"/><path class="cls-1" d="M65,530.55v.68h1.09v.63H65v.73h1.24v.65h-2V529.9h2v.65Z"/><path class="cls-1" d="M69.13,529.9v.65h-.88v2.69h-.82v-2.69h-.88v-.65Z"/><path class="cls-1" d="M69.58,532.47l.74-.63a3.17,3.17,0,0,0,.45-.52,1,1,0,0,0,.19-.53.47.47,0,0,0-.1-.3.29.29,0,0,0-.26-.11.36.36,0,0,0-.29.13.67.67,0,0,0-.1.39h-.79a1.46,1.46,0,0,1,.17-.68,1.1,1.1,0,0,1,.42-.41,1.34,1.34,0,0,1,.59-.13,1.14,1.14,0,0,1,.85.29,1,1,0,0,1,.29.76,1.47,1.47,0,0,1-.34.94,5,5,0,0,1-.89.83H71.8v.66H69.42v-.57A1,1,0,0,0,69.58,532.47Z"/><path class="cls-1" d="M72.33,530.69a1.53,1.53,0,0,1,.6-.61,1.9,1.9,0,0,1,.87-.22,1.79,1.79,0,0,1,1,.32,1.48,1.48,0,0,1,.56.86h-.89a.65.65,0,0,0-.29-.32.72.72,0,0,0-.41-.11.8.8,0,0,0-.61.26,1.18,1.18,0,0,0,0,1.4.8.8,0,0,0,.61.26.81.81,0,0,0,.41-.11.74.74,0,0,0,.29-.32h.89a1.49,1.49,0,0,1-.56.85,1.65,1.65,0,0,1-1,.32,1.79,1.79,0,0,1-.87-.22,1.57,1.57,0,0,1-.6-.6,1.79,1.79,0,0,1-.21-.88A1.9,1.9,0,0,1,72.33,530.69Z"/><path class="cls-7" d="M-72,251.14h0a81.55,81.55,0,0,1-81.56-81.56A81.56,81.56,0,0,1-72,88,143.63,143.63,0,0,1-.41,107.11,143.6,143.6,0,0,1,71.2,88h4.65a81.56,81.56,0,0,1,0,162.79H71.33A143.47,143.47,0,0,1-.41,232.15,143.63,143.63,0,0,1-72,251.25M-.41,45.09a143.83,143.83,0,1,1,0,249.52,143.82,143.82,0,0,1-196.32-53.2,143.82,143.82,0,0,1,53.2-196.32A143.83,143.83,0,0,1-.41,45.09Z"/></svg>