<svg xmlns="http://www.w3.org/2000/svg" xmlns:xlink="http://www.w3.org/1999/xlink" viewBox="0 0 375 172"><defs><style>.cls-1,.cls-11{fill:none;}.cls-1{clip-rule:evenodd;}.cls-2{isolation:isolate;}.cls-3{fill:#bde2db;}.cls-4{clip-path:url(#clip-path);}.cls-10,.cls-11,.cls-5,.cls-6,.cls-7,.cls-8,.cls-9{fill-rule:evenodd;}.cls-5,.cls-6,.cls-8{mix-blend-mode:multiply;}.cls-5{fill:url(#linear-gradient);}.cls-6{fill:url(#linear-gradient-2);}.cls-7{fill:#00423f;}.cls-8{fill:url(#linear-gradient-3);}.cls-9{fill:#00a59e;}.cls-10{fill:#00e49e;}.cls-11{stroke:#fff;stroke-miterlimit:5;stroke-dasharray:5;opacity:0.5;}</style><clipPath id="clip-path"><path class="cls-1" d="M0,0H375V172H0Z"/></clipPath><linearGradient id="linear-gradient" x1="182.13" y1="-647.23" x2="182.13" y2="409.21" gradientTransform="translate(186.12 323.03) rotate(-29.55)" gradientUnits="userSpaceOnUse"><stop offset="0" stop-color="#caff3f"/><stop offset="1" stop-color="#0bbcff"/></linearGradient><linearGradient id="linear-gradient-2" x1="33.55" y1="1144.1" x2="33.55" y2="247.9" xlink:href="#linear-gradient"/><linearGradient id="linear-gradient-3" x1="-3664.16" y1="822.41" x2="-2787.45" y2="822.41" gradientTransform="translate(1861.49 2483.66) rotate(72.31)" xlink:href="#linear-gradient"/></defs><title>bg-sidebar-mobile_1</title><g class="cls-2"><g id="Layer_1" data-name="Layer 1"><rect class="cls-3" x="-33" y="-32" width="441" height="220" rx="12"/><g class="cls-4"><path class="cls-5" d="M578,95.23c-117.64,35.44-265.52,21.31-401.84,5.26C108.85,92.57,48.66,88.08-.34,97v77.53H578Z"/><path class="cls-6" d="M-.34,174.57H281.37c-2.39-.46-4.79-.92-7.18-1.4C206.85,159.65,148.46,145.89,98,142.81c-38.62-2.36-73.49,3.57-98.31,16.71Z"/><path class="cls-7" d="M578,144.53C448.15,159.78,295.41,126,153,84.1,97.52,67.79,46.43,52.87-.34,44.32V174.57H578Z"/><path class="cls-8" d="M9.06-.77C31,7,53.47,15.31,76.5,23.55c61.21,21.88,127.64,44,195.41,36.73C308.76,56.37,345,42.76,377.45,19.53a272.7,272.7,0,0,0,25-20.3Z"/><path class="cls-9" d="M578-.77H-.34V12.44C22.63,25.3,46.37,39.7,70.8,55.26c59.38,37.78,122.25,82.91,192,119.31h287A259.77,259.77,0,0,0,578,145.06Z"/><path class="cls-10" d="M-253.31-8.15V4.14c2.65,1.27,5.29,2.5,7.95,3.79C-183.47,38.09-119.1,76-49.52,99.31c36,12,71.87,18.7,105.64,15.74,35.71-3.16,70.24-18.1,99.3-43.37,23.73-20.69,44.35-48,62.13-79.83Z"/><path class="cls-11" d="M-53,34.11h0a61,61,0,0,1-61-61,61,61,0,0,1,61-61A107.31,107.31,0,0,1,.52-73.62,107.27,107.27,0,0,1,54.09-87.91h3.48a61,61,0,0,1,57,64.82,61,61,0,0,1-56.95,57H54.19A107.38,107.38,0,0,1,.52,19.9,107.31,107.31,0,0,1-53,34.19M.52-120a107.59,107.59,0,0,1,146.85,39.8A107.57,107.57,0,0,1,107.58,66.62a107.57,107.57,0,0,1-107.06,0A107.57,107.57,0,0,1-146.32,26.83,107.58,107.58,0,0,1-106.53-120,107.6,107.6,0,0,1,.52-120Z"/></g></g></g></svg>