<svg id="Layer_1" data-name="Layer 1" xmlns="http://www.w3.org/2000/svg" xmlns:xlink="http://www.w3.org/1999/xlink" viewBox="0 0 274 568"><defs><style>.cls-1,.cls-6{fill:#fff;}.cls-2{fill:url(#linear-gradient);}.cls-3{mask:url(#mask);}.cls-4,.cls-5,.cls-6,.cls-7{fill-rule:evenodd;}.cls-4{fill:url(#linear-gradient-2);}.cls-5{fill:url(#linear-gradient-3);}.cls-7{fill:none;stroke:#fff;stroke-miterlimit:5;stroke-dasharray:5;opacity:0.25;}</style><linearGradient id="linear-gradient" x1="137" y1="568" x2="137" gradientUnits="userSpaceOnUse"><stop offset="0.01" stop-color="#ebf0e8"/><stop offset="0.04" stop-color="#dae9e1"/><stop offset="0.1" stop-color="#acd6ce"/><stop offset="0.19" stop-color="#63b7b0"/><stop offset="0.29" stop-color="#008d87"/><stop offset="0.71" stop-color="#00423f"/></linearGradient><mask id="mask" x="-61.43" y="1" width="370.46" height="646.63" maskUnits="userSpaceOnUse"><g id="a"><rect class="cls-1" y="1" width="274" height="568" rx="10"/></g></mask><linearGradient id="linear-gradient-2" x1="80.06" y1="357.48" x2="80.34" y2="594.74" gradientUnits="userSpaceOnUse"><stop offset="0" stop-color="#9cf6d8"/><stop offset="0.3" stop-color="#49cbb9"/><stop offset="0.43" stop-color="#29baad"/><stop offset="0.6" stop-color="#00a59e"/><stop offset="0.87" stop-color="#00625e"/><stop offset="1" stop-color="#00423f"/></linearGradient><linearGradient id="linear-gradient-3" x1="198.82" y1="452.89" x2="201.19" y2="613.63" gradientUnits="userSpaceOnUse"><stop offset="0" stop-color="#00e49e"/><stop offset="0.41" stop-color="#00df9b"/><stop offset="0.49" stop-color="#00cb8f"/><stop offset="0.66" stop-color="#009871"/><stop offset="0.91" stop-color="#004541"/><stop offset="0.91" stop-color="#00423f"/></linearGradient></defs><title>bg-sidebar-desktop_1</title><rect class="cls-2" width="274" height="568" rx="10"/><g class="cls-3"><path class="cls-4" d="M-34.69,544.1C3.25,633.54,168.77,686,212,613.52S145.86,527.87,107.23,453,38.57,331.28-17.26,348.34-72.63,454.66-34.69,544.1Z"/><path class="cls-5" d="M224.44,601.46C288.56,582.23,337,472.83,290.63,437.77s-63.66,38.8-117.9,59.6-88.52,37.82-81,77.35S160.31,620.68,224.44,601.46Z"/></g><path class="cls-1" d="M154,520v0a9.82,9.82,0,0,1-7.67-3.15,11.89,11.89,0,0,1-2.85-8.26h0v-20.5h-9.9v20.5a20.36,20.36,0,0,0,2.74,10.36,19.52,19.52,0,0,0,7.41,7.27,20.83,20.83,0,0,0,10.27,2.6h14.38V520Z"/><path class="cls-1" d="M50.71,528.77a20.72,20.72,0,0,1-10.27-2.6A19.47,19.47,0,0,1,33,518.92a21.41,21.41,0,0,1,0-21,19.47,19.47,0,0,1,7.41-7.25,20.72,20.72,0,0,1,10.27-2.6H65.09v8.77H50.71A9.89,9.89,0,0,0,43,500a13.81,13.81,0,0,0,0,16.83A9.89,9.89,0,0,0,50.71,520v0H65.09v8.76Z"/><path class="cls-6" d="M190.4,496.89h14.38v-8.77H190.4a20.71,20.71,0,0,0-10.27,2.59,19.56,19.56,0,0,0-7.41,7.23,21.39,21.39,0,0,0,0,20.95,19.52,19.52,0,0,0,7.41,7.27,20.72,20.72,0,0,0,10.27,2.6h14.38V520H190.4v0a9.84,9.84,0,0,1-7.67-3.15,10.21,10.21,0,0,1-2.22-4h24.28v-8.76H180.47a10.51,10.51,0,0,1,2.26-4.08A9.9,9.9,0,0,1,190.4,496.89Z"/><path class="cls-6" d="M89.2,520h0a11.56,11.56,0,0,1,0-23.12,20.43,20.43,0,0,1,10.16,2.7,20.42,20.42,0,0,1,10.15-2.7h.65a11.56,11.56,0,0,1,0,23.07h-.64a20.33,20.33,0,0,1-10.15-2.71,20.34,20.34,0,0,1-10.16,2.71m10.16-29.23a20.4,20.4,0,1,1,0,35.37,20.39,20.39,0,1,1,0-35.37Z"/><polygon class="cls-1" points="90.81 504.79 88.89 512.15 86.72 512.15 85.54 507.3 84.32 512.15 82.16 512.15 80.29 504.79 82.21 504.79 83.27 510.15 84.58 504.79 86.55 504.79 87.81 510.15 88.88 504.79 90.81 504.79"/><path class="cls-1" d="M95.19,510.59a1.83,1.83,0,0,0,1.42-.61,2.57,2.57,0,0,0,0-3.11,2,2,0,0,0-2.84,0,2.58,2.58,0,0,0,0,3.12,1.83,1.83,0,0,0,1.42.58m0,1.64a3.94,3.94,0,0,1-1.9-.48,3.62,3.62,0,0,1-1.37-1.35,4,4,0,0,1,0-3.89,3.53,3.53,0,0,1,1.38-1.33,4,4,0,0,1,3.8,0,3.55,3.55,0,0,1,1.37,1.35,4,4,0,0,1,0,3.88,3.53,3.53,0,0,1-1.36,1.35,3.8,3.8,0,0,1-1.92.48Z"/><path class="cls-1" d="M101.75,508.1h1.11a1,1,0,0,0,.75-.24.89.89,0,0,0,.24-.68.84.84,0,0,0-.24-.66,1,1,0,0,0-.75-.24h-1.11Zm2,4-1.53-2.78h-.43v2.78H100v-7.36h3a3.27,3.27,0,0,1,1.48.3,2,2,0,0,1,.92.84,2.24,2.24,0,0,1,.31,1.16,2.2,2.2,0,0,1-.42,1.31,2.24,2.24,0,0,1-1.22.82l1.7,2.89Z"/><polygon class="cls-1" points="108.59 510.77 110.94 510.77 110.94 512.15 106.8 512.15 106.8 504.79 108.59 504.79 108.59 510.77"/><path class="cls-1" d="M114.45,510.6A2.18,2.18,0,0,0,116,510a2.11,2.11,0,0,0,.57-1.57,2,2,0,0,0-1.76-2.15,1.27,1.27,0,0,0-.39,0h-.85v4.28Zm.11-5.81a4.26,4.26,0,0,1,2,.48,3.31,3.31,0,0,1,1.35,1.3,4.1,4.1,0,0,1,0,3.85,3.28,3.28,0,0,1-1.36,1.3,4.19,4.19,0,0,1-2,.48H111.8v-7.41Z"/><path class="cls-6" d="M222.11,522.31v6.51h-9.77v-13h12.5v-.05h.59a8,8,0,0,0,6.21-2.53,11.42,11.42,0,0,0,0-13.8,8,8,0,0,0-6.21-2.51H212.34v-8.79h13.07a18.59,18.59,0,0,1,9.19,2.34,17.49,17.49,0,0,1,6.65,6.49,19.17,19.17,0,0,1,0,18.79,17.42,17.42,0,0,1-6.65,6.52l-.18.1,3.63,6.26-10.08.12-2.41-6.51h-3.45Z"/><path class="cls-1" d="M42.1,534.47a1,1,0,0,1,.2.61.93.93,0,0,1-.34.77,1.46,1.46,0,0,1-1,.29H39.2v-3.9H41a1.47,1.47,0,0,1,.93.27.91.91,0,0,1,.34.74.89.89,0,0,1-.19.57.88.88,0,0,1-.48.32A.93.93,0,0,1,42.1,534.47Zm-2-.65h.64a.51.51,0,0,0,.35-.11.37.37,0,0,0,.13-.3.38.38,0,0,0-.13-.3.51.51,0,0,0-.35-.11h-.64Zm1.07,1.44a.36.36,0,0,0,.13-.31.37.37,0,0,0-.14-.32.49.49,0,0,0-.37-.12h-.69v.86h.7A.53.53,0,0,0,41.21,535.26Z"/><path class="cls-1" d="M46.19,532.24l-1.34,2.61v1.29h-1v-1.29l-1.35-2.61h1.08l.76,1.63.74-1.63Z"/><path class="cls-1" d="M50.34,533.47a.7.7,0,0,0-.3-.29,1,1,0,0,0-1.2.2,1.32,1.32,0,0,0,0,1.64,1.08,1.08,0,0,0,.8.31,1,1,0,0,0,.59-.18,1,1,0,0,0,.35-.51h-1.2v-.7h2.06v.88a1.92,1.92,0,0,1-1,1.16,1.88,1.88,0,0,1-.88.18,2.09,2.09,0,0,1-1-.25,1.75,1.75,0,0,1-.7-.7,2,2,0,0,1-.25-1,2.09,2.09,0,0,1,.25-1,1.81,1.81,0,0,1,.7-.7,2.19,2.19,0,0,1,1-.26,2.06,2.06,0,0,1,1.18.34,1.66,1.66,0,0,1,.64,1Z"/><path class="cls-1" d="M52.93,533v.79H54.2v.73H52.93v.85h1.45v.77H52v-3.9h2.39V533Z"/><path class="cls-1" d="M57.79,532.24V533h-1v3.14h-1V533h-1v-.76Z"/><path class="cls-1" d="M58.31,535.24l.86-.74a3.35,3.35,0,0,0,.53-.6,1.08,1.08,0,0,0,.21-.62.51.51,0,0,0-.1-.36.37.37,0,0,0-.31-.12.4.4,0,0,0-.34.15.71.71,0,0,0-.12.45h-.92a1.66,1.66,0,0,1,.2-.79,1.26,1.26,0,0,1,.49-.48,1.62,1.62,0,0,1,.69-.15,1.35,1.35,0,0,1,1,.34,1.14,1.14,0,0,1,.33.88,1.72,1.72,0,0,1-.4,1.11,5.87,5.87,0,0,1-1,1h1.5V536H58.12v-.67Z"/><path class="cls-1" d="M61.52,533.15a1.88,1.88,0,0,1,.7-.7,2.11,2.11,0,0,1,1-.26,2,2,0,0,1,1.19.37,1.74,1.74,0,0,1,.66,1H64a.91.91,0,0,0-.33-.37,1,1,0,0,0-.49-.13.89.89,0,0,0-.71.31,1.37,1.37,0,0,0,0,1.63.91.91,0,0,0,.71.3.94.94,0,0,0,.49-.12.91.91,0,0,0,.33-.37h1a1.72,1.72,0,0,1-.66,1,1.86,1.86,0,0,1-1.19.36,2,2,0,0,1-1-.25,1.81,1.81,0,0,1-.7-.7,2.15,2.15,0,0,1-.25-1A2.21,2.21,0,0,1,61.52,533.15Z"/><path class="cls-7" d="M-.41,107.11A143.6,143.6,0,0,1,71.2,88h4.65a81.56,81.56,0,0,1,0,162.79H71.33A143.47,143.47,0,0,1-.41,232.15m0-187.06a143.83,143.83,0,1,1,0,249.52"/></svg>