<svg id="Layer_1" data-name="Layer 1" xmlns="http://www.w3.org/2000/svg" xmlns:xlink="http://www.w3.org/1999/xlink" viewBox="0 0 375 172"><defs><style>.cls-1,.cls-5,.cls-6{fill:none;}.cls-2{clip-path:url(#clip-path);}.cls-3{fill:#1d9c9a;}.cls-4{fill:#0e4e4d;}.cls-5{stroke:#fff;stroke-miterlimit:5;stroke-dasharray:5;fill-rule:evenodd;}.cls-6{stroke:#eeb65e;stroke-miterlimit:10;stroke-width:5px;}</style><clipPath id="clip-path"><rect class="cls-1" y="0.31" width="807.04" height="174.1" transform="translate(807.04 174.72) rotate(180)"/></clipPath></defs><title>bg-sidebar-mobile_1</title><g class="cls-2"><path class="cls-3" d="M-143.43-53.24c13.66-16,35.81-21.3,56.53-24.85a748.22,748.22,0,0,1,249-.56c15.58,2.59,33.67,7.81,38.88,22.72,4.8,13.76-4.59,28.83-16.58,37.12S158-6.59,145.4.77C104.76,24.55,93.84,86.91,124,123.08s56.47,36.65,87.16.94C237.08,93.89,278.38,45,313.61,26.55c33.18-17.34,73.9,3.94,99.93,30.86s46.74,60.81,80.24,77.53c30.75,15.36,67.41,13.45,100.84,5.48s65.37-21.53,99-28.78,70.55-7.56,100.26,9.71,48.52,56.08,34.72,87.55l34.51,14C876.43,220.14,889,234.38,887.9,248s-12.39,24.64-25.09,29.63-26.7,5.1-40.34,5.14l-883.73,2.69c-15.66.05-33.36-.78-43.72-12.51-6.72-7.6-8.72-18.15-10.46-28.14L-153.18,28.52C-158.06.53-161.89-31.64-143.43-53.24Z"/><path class="cls-4" d="M46.56,39.39c0,24.69,10.8,50.68,32.12,63.12,27,15.75,61.51,5.59,89.36-8.58s55.6-32.53,86.85-32.55c52.83,0,92.08,51.37,143.71,62.51,45.34,9.78,90.47-12.88,135.53-23.9A273.15,273.15,0,0,1,845.77,248.18,7918.23,7918.23,0,0,1,25,255c-19.63-.86-39.54-1.84-58.21-8S-69.48,228.94-78,211.23c-5.56-11.56-6.9-24.62-8.16-37.39q-5.2-52.69-10.4-105.41C-99,43.51-101.11,16.76-88.76-5-75.89-27.7-49.44-40-23.48-42.44c18.92-1.8,95.34,12,95.34,12S46.56,6.48,46.56,39.39Z"/></g><path class="cls-5" d="M-155.7,225.56h0a76.64,76.64,0,0,1-76.64-76.65A76.64,76.64,0,0,1-155.7,72.27a134.87,134.87,0,0,1,67.29,18,134.86,134.86,0,0,1,67.28-18h4.38A76.65,76.65,0,0,1,54.79,153.7a76.66,76.66,0,0,1-71.54,71.54H-21a134.81,134.81,0,0,1-67.41-17.53,135,135,0,0,1-67.29,17.94M-88.41,31.94a135.14,135.14,0,0,1,184.47,50,135.14,135.14,0,0,1-50,184.47,135.13,135.13,0,0,1-134.48,0,135.15,135.15,0,0,1-184.48-50,135.15,135.15,0,0,1,50-184.47A135.13,135.13,0,0,1-88.41,31.94Z"/><path class="cls-6" d="M310.92,90.66a6,6,0,1,0,6-6h0A6,6,0,0,0,310.92,90.66Z"/><path class="cls-6" d="M283.84,90.66a6,6,0,1,0,6-6h0A6,6,0,0,0,283.84,90.66Z"/><line class="cls-6" x1="310.92" y1="90.66" x2="295.88" y2="90.66"/><path class="cls-6" d="M283.84,90.66h-6V72.6l3.76-9.36A9,9,0,0,1,290,57.55h18.87a9,9,0,0,1,7.73,4.4L323,72.6a9.05,9.05,0,0,1,9,9v9h-9"/><line class="cls-6" x1="322.96" y1="72.6" x2="295.88" y2="72.6"/><line class="cls-6" x1="304.9" y1="63.57" x2="304.9" y2="72.6"/><path class="cls-6" d="M277.83,81.63h-3a9,9,0,0,1-9-9h0V48.53a9,9,0,0,1,9-9h36.11"/><path class="cls-6" d="M323,48.53h-6a6,6,0,0,1-6-6v-6a6,6,0,0,1,6-6h6Z"/><line class="cls-6" x1="335" y1="33.48" x2="322.96" y2="33.48"/><line class="cls-6" x1="335" y1="45.52" x2="322.96" y2="45.52"/></svg>