<?xml version="1.0" encoding="UTF-8"?>
<svg enable-background="new 0 0 466.586 310.268" viewBox="0 0 466.586 310.268" xmlns="http://www.w3.org/2000/svg">
 <path d="m94.689,136.194c-7.524-.792-15.156-1.044-23.436-1.152-8.244-.144-19.26.108-25.848.756-6.768.612-11.268,1.62-14.04,3.024-.576-.612-1.116-1.188-1.62-1.332-.612-.252-1.008-.252-1.584,0l-.288-3.744c2.088.252 3.528,0 4.86-.756 1.224-.864 3.6-2.556 2.412-3.96-1.296-1.476-6.84-4.392-9.972-4.716-3.276-.396-8.172,1.26-9.144,2.628-1.008,1.368.072,3.096 3.24,5.472-.756.972-1.116,1.98-1.08,3.024 .036.972.432,1.98 1.332,3.024-3.492.072-6.048,2.628-7.812,7.524-1.728,4.968-2.304,10.836-2.7,21.888-.576,10.98-.756,25.309-.54,43.561-3.888,1.764-6.264,4.86-7.524,9.432-1.296,4.536-1.26,12.204.252,17.712 1.44,5.364 3.996,11.053 8.64,14.725 4.536,3.672 13.14,6.479 18.864,7.164 5.724.575 10.62-.576 15.084-3.601 .252.433.972.721 2.16,1.008 1.224.217 2.7.396 4.824.54-.612,5.4.828,11.628 4.86,18.685 3.96,7.092 10.116,19.26 18.612,23.58 8.352,4.14 21.78,5.472 31.248,1.512 9.432-4.104 17.46-12.528 24.768-25.668 11.268,2.088 22.536,3.348 34.488,4.176 11.988.685 24.768.288 36.396.36 11.448-.036 22.932.18 31.536-.18 8.315-.324 14.508-1.152 18.577-2.089-1.441,5.977-.037,11.448 4.5,16.416 4.463,4.933 14.508,10.908 22.355,13.212 7.848,2.196 16.955,2.629 24.264.181 7.164-2.628 14.148-9.937 18.324-15.265 4.031-5.399 5.867-10.8 5.652-16.596 5.328-.432 11.879.18 19.943,1.692 8.027,1.548 17.279,3.852 28.045,7.344-1.945-4.284-2.701-7.812-2.701-11.124 .037-3.276.973-6.048 2.953-8.316l-11.844-1.115c4.859-4.141 8.314-8.929 11.051-14.508 2.592-5.761 5.041-14.04 4.572-18.864-.611-4.788-3.275-7.561-7.561-9.433-4.355-1.979-10.223-2.735-18.035-2.268 1.691-1.836 2.771-5.004 3.24-9.648 .432-4.716.252-10.619-.541-18.107 3.6-2.052 6.373-5.328 8.604-9.828 2.125-4.68 4.213-12.6 4.32-17.352-.072-4.717-1.512-8.568-4.031-10.729-2.557-2.196-6.191-3.06-11.053-2.448-1.188-1.656-3.563-2.916-7.271-3.78-3.707-.9-8.604-1.404-14.832-1.512 2.34-4.068 2.34-7.056 0-9.252-2.447-2.232-7.813-4.176-14.291-3.744-6.625.432-16.74,4.824-24.518,6.228-7.848,1.188-17.207.756-21.814,1.476-4.645.72-6.625,1.729-5.941,3.024-3.527-.036-13.932-.108-31.788-.216-18.036-.108-42.552-.288-74.916-.396-1.728-4.536-3.384-8.136-5.112-10.944-1.764-2.844-3.564-4.788-5.4-5.832 1.8-10.404 3.564-19.08 5.148-26.568 1.512-7.524 2.988-13.32 4.284-17.928-6.876-.864-12.78-.468-18,1.332-5.292,1.764-5.868.396-13.248,9.216-7.451,8.819-17.567,22.896-30.923,43.055z" fill-rule="evenodd" stroke="#000" stroke-miterlimit="10" stroke-width=".036"/>
 <path d="m152.289,84.679c-4.536-.36-8.388.072-12.24,1.296-3.888,1.116-4.824.108-10.296,5.868-5.58,5.688-17.424,21.06-22.464,28.476-5.112,7.416-7.668,12.492-7.812,15.624-.252.288 1.188.864 4.32,1.728 3.168.792 7.74,1.908 14.256,3.204 1.044-4.788 2.988-10.008 6.228-16.056 3.168-6.156 7.848-13.284 12.636-19.98 4.68-6.733 9.756-13.357 15.372-20.16z" fill="#d0ccc8" fill-rule="evenodd" stroke="#000" stroke-miterlimit="10" stroke-width=".036"/>
 <path d="m124.281,140.119c2.232-.036 4.248.216 5.904.756 1.62.468 3.024,1.26 4.068,2.232l-10.8.396c.252-1.117.54-2.232.828-3.384z" fill="#d0ccc8" fill-rule="evenodd" stroke="#000" stroke-miterlimit="10" stroke-width=".036"/>
 <path d="m143.937,132.918-7.812,6.228c-2.124-.324-4.104-.576-5.94-.756-1.98-.252-3.636-.324-5.364-.36 2.412-9.576 5.508-17.892 9.432-25.092 3.78-7.344 12.24-20.088 13.716-18.108 1.404,2.088-.252,11.952-5.112,30.168-2.016-.612-3.816-.108-5.94,1.908-2.16,1.836-5.976,8.1-6.444,9.612-.54,1.404 2.34.324 3.78-.756 1.476-1.224 2.988-4.788 4.824-5.832 1.656-1.008 3.456-1.08 5.4-.216-.18,1.044-.36,2.124-.54,3.204z" fill="#c0c0c0" fill-rule="evenodd" stroke="#000" stroke-miterlimit="10" stroke-width=".036"/>
 <path d="m269.506,144.834c-.469-.756 2.016-1.26 5.65-1.512 3.602-.324 10.01.072 15.912-.756 5.797-1.08 13.248-4.176 18.865-5.112 5.543-1.008 10.943-1.476 14.256-.576 3.168.864 5.111,4.068 4.859,5.868-.432,1.656-1.656,4.104-6.732,4.716-5.291.54-16.164-.972-23.723-.936-7.561-.036-16.129,1.548-20.988,1.296-5.003-.36-7.705-2.232-8.099-2.988z" fill="#128080" fill-rule="evenodd" stroke="#000" stroke-miterlimit="10" stroke-width=".036"/>
 <path d="m96.993,137.778c-7.812-.18-15.408-.252-23.184-.36-7.848-.18-15.948-.468-23.184-.18-7.308.288-13.716.864-19.908,1.872l.54,8.1c1.62.576 3.636,1.764 6.192,3.42 2.556,1.512 6.768,2.628 8.892,6.408 1.98,3.816 2.916,9.036 2.952,16.2 1.332-2.628 4.248-5.04 8.892-7.523 4.716-2.521 12.024-6.156 18.864-7.164 6.732-1.009 15.876-.433 21.024.756 4.968,1.116 9.648,5.22 8.604,5.651-1.224.288-9.72-3.563-15.624-3.779-6.048-.36-13.068-.504-19.656,2.088-6.66,2.556-13.824,7.38-19.404,13.355s-10.908,16.2-13.752,22.068c-2.916,5.76-4.032,9.72-3.492,12.276 3.492-.252 6.408.107 8.892,1.224 2.484,1.08 4.356,2.521 5.904,5.292 1.584,2.7 2.448,5.904 2.988,10.729 .288,4.752.144,13.247-.828,17.712-1.008,4.392-2.664,7.235-5.112,8.676 1.26,1.296 2.88,1.691 4.86,1.332 1.944-.433 5.112-.396 6.732-3.78 1.476-3.672 1.764-10.62 2.412-16.956 .504-6.264-.468-14.399 1.368-20.376 1.836-6.12 4.968-11.808 9.972-15.66 5.076-3.924 14.04-7.344 19.944-7.344 5.76.036 11.304,2.7 14.544,7.164 3.06,4.355 2.772,10.439 4.572,18.684 1.764,8.101 4.752,23.004 6.192,29.988 1.26,6.876.504,7.776 1.908,11.592 1.44,3.78 2.34,8.208 6.444,10.944 3.996,2.52 6.048,3.744 17.532,5.076 11.484,1.368 35.532,2.52 50.904,3.023 15.264.252 29.952-.252 40.176-.936 10.044-.648 14.616-.72 19.944-2.844 5.219-2.341 8.207-5.437 11.303-10.549 2.916-5.22 4.465-12.672 6.732-20.016 2.197-7.38 4.393-17.028 7.02-23.544 2.594-6.624 4.213-12.06 8.605-15.48 4.318-3.42 12.707-6.479 17.531-4.896 4.787,1.548 8.928,8.532 11.305,14.148 2.23,5.472 1.979,11.951 2.699,18.468 .721,6.372.973,14.399 1.873,19.62 .936,5.04 1.188,8.64 3.527,10.943 2.305,2.196 8.641,2.988 9.684,2.809 .793-.36-3.131-1.908-4.572-3.96-1.547-1.944-3.6-3.42-4.068-7.92-.539-4.681-1.008-14.616 1.369-19.801 2.34-5.256 9.145-9.035 12.924-11.483 3.672-2.521 7.057-1.872 9.18-3.601 2.053-1.8 2.34-2.052 2.951-7.164 .541-5.292.109-15.983.254-23.76 .07-7.884.395-16.668 0-22.607-.541-5.977.432-9.685-3.205-12.636-3.744-3.024-10.08-4.68-19.152-5.112-1.619,1.548-4.355,2.268-8.352,2.448-4.104.072-9.504-1.692-15.623-1.692-6.193-.108-13.752,1.836-20.736,1.512-7.021-.396-13.932-1.548-21.025-3.6-29.016-.324-54.467-.504-77.615-.54-23.22-.144-43.848-.144-60.084,0-16.308-.036-25.056.252-36.36.468-11.412.252-22.824.576-30.744,1.116-7.884.468-14.292,1.944-16.164,1.908-1.98-.252-1.8-1.692 4.86-2.664 6.696-1.116 23.328-2.34 34.776-2.988 11.376-.648 22.104-.648 32.868-.396-6.265-1.907-12.565-3.814-18.865-5.759z" fill="#2cb0cf" fill-rule="evenodd" stroke="#000" stroke-miterlimit="10" stroke-width=".036"/>
 <path d="m35.001,195.019c-.54,2.664-1.26,5.256-1.872,7.92-.684,2.556-1.404,5.184-2.16,7.74l-4.032-.181c.288-1.584.468-3.456.252-5.472-.144-2.088-.684-4.464-1.332-6.984 .612,1.152 1.692,1.368 3.24.937 1.584-.577 3.42-1.8 5.904-3.96z" fill="#2cb0cf" fill-rule="evenodd" stroke="#000" stroke-miterlimit="10" stroke-width=".036"/>
 <path d="m18.837,209.923 5.112.18c.324-2.7.504-5.185.54-7.74-.036-2.52-.216-4.968-.54-7.344-.756.216-1.692-.036-2.664-.756-1.044-.792-2.268-2.052-3.528-3.78-.756,2.268-.972,5.04-.792,8.316 .18,3.311.756,6.84 1.872,11.124z" fill="#c0c0c0" fill-rule="evenodd" stroke="#000" stroke-miterlimit="10" stroke-width=".036"/>
 <path d="m32.589,194.442c3.708-2.592 6.624-5.724 8.892-9.792 2.304-4.104 4.284-9.72 4.572-14.328 .072-4.716-1.512-10.151-3.78-13.392-2.304-3.276-5.616-5.292-9.936-6.048 1.62,6.156 2.556,12.132 2.952,17.928 .36,5.796-.468,12.168-.828,16.596-.468,4.248-1.044,7.309-1.872,9.036z" fill="#c0c0c0" fill-rule="evenodd" stroke="#000" stroke-miterlimit="10" stroke-width=".036"/>
 <path d="m22.905,148.831c-.144,2.052 1.764,6.3 2.412,12.06 .54,5.724.756,16.452 1.08,21.888 .252,5.292.288,7.596.54,9.972 .108,2.305-.036,3.637.54,3.601 .648-.252 1.908.072 2.952-4.716 .9-5.004 2.304-17.748 2.412-24.336-.072-6.588-1.008-11.628-2.124-14.725-1.224-3.096-3.312-3.384-4.608-3.924-1.368-.756-3.132-1.8-3.204.18z" fill="#c0c0c0" fill-rule="evenodd" stroke="#000" stroke-miterlimit="10" stroke-width=".036"/>
 <path d="m20.997,150.703c-1.368-.108-3.276,6.48-4.32,11.7-1.08,5.184-2.772,13.645-1.872,18.864 .9,5.112 5.364,10.332 7.02,11.483 1.44.973 1.728-.575 2.124-5.472 .288-5.147.468-18.107 0-24.3-.504-6.228-1.764-12.131-2.952-12.275z" fill="#f7f619" fill-rule="evenodd" stroke="#000" stroke-miterlimit="10" stroke-width=".036"/>
 <path d="m21.285,139.398 .252,7.164c.576-.36 1.692-.684 2.952-.576 1.26,0 2.88.252 4.86.756 .576-3.348.216-5.508-1.08-6.768-1.44-1.187-3.636-1.475-6.984-.576z" fill="#c0c0c0" fill-rule="evenodd" stroke="#000" stroke-miterlimit="10" stroke-width=".036"/>
 <path d="m21.537,133.17c-.576.828-.756,1.584-.54,2.268 .18.612 1.224,1.368 1.62,1.692 .252.252.252.252 0,0h3.78l-.54-3.384c-1.44-.18-2.88-.36-4.32-.576z" fill="#c0c0c0" fill-rule="evenodd" stroke="#000" stroke-miterlimit="10" stroke-width=".036"/>
 <path d="m22.365,131.083c1.476.468 5.148.468 6.444,0 1.26-.576 2.088-2.124 1.08-2.988-1.152-.936-6.156-2.34-7.812-2.268-1.728,0-2.484,1.512-2.412,2.448 0,.864 1.08,2.267 2.7,2.808z" fill="#c0c0c0" fill-rule="evenodd" stroke="#000" stroke-miterlimit="10" stroke-width=".036"/>
 <path d="m19.809,142.242-2.232-1.584c-1.296.576-2.232,1.224-2.664,1.8-.54.54-.612,1.152-.216,1.692h4.5c.18-.611.396-1.259.612-1.908z" fill="#c0c0c0" fill-rule="evenodd" stroke="#000" stroke-miterlimit="10" stroke-width=".036"/>
 <path d="m11.349,154.555c.036.396.036.972 0,1.584-.036.576-.108,1.188-.216,1.979 2.412.036 4.032-.216 5.004-.611 .828-.505 1.404-1.621.612-2.088-.9-.541-2.556-.829-5.4-.864z" fill="#c0c0c0" fill-rule="evenodd" stroke="#000" stroke-miterlimit="10" stroke-width=".036"/>
 <path d="m11.025,159.559c-.072.288-.18.899-.18,1.439-.072.648-.108,1.225-.108,2.124l3.24.288c.792-.792 1.188-1.548 1.332-2.124 .036-.684-.18-1.188-.792-1.655-1.152,0-2.304-.036-3.492-.072z" fill="#c0c0c0" fill-rule="evenodd" stroke="#000" stroke-miterlimit="10" stroke-width=".036"/>
 <path d="m10.773,166.11c0,.288-.18.9-.144,1.44-.072.647-.108,1.224-.108,2.124l2.664.288c.684-.792 1.008-1.549 1.116-2.124 .036-.685-.144-1.188-.684-1.656-.936.001-1.872-.036-2.844-.072z" fill="#c0c0c0" fill-rule="evenodd" stroke="#000" stroke-miterlimit="10" stroke-width=".036"/>
 <path d="m10.449,171.547c-.108.323-.108.792-.144,1.403-.036.576-.108,1.296-.072,2.16l2.376.288c.576-.864.9-1.584.972-2.16 0-.684-.108-1.224-.612-1.62-.828,0-1.656-.036-2.52-.071z" fill="#c0c0c0" fill-rule="evenodd" stroke="#000" stroke-miterlimit="10" stroke-width=".036"/>
 <path d="m11.961,150.559c.036.396.036.972 0,1.584-.036.576-.108,1.188-.216,1.98 2.412.036 4.032-.216 5.004-.612 .828-.504 1.404-1.62.612-2.088-.9-.541-2.556-.829-5.4-.864z" fill="#c0c0c0" fill-rule="evenodd" stroke="#000" stroke-miterlimit="10" stroke-width=".036"/>
 <path d="m12.969,145.59c.036.432.036.9 0,1.548-.036.54-.144,1.26-.18,2.016 2.448-.036 3.924-.252 4.968-.648 .828-.504 1.404-1.656.612-2.052-.9-.539-2.556-.828-5.4-.864z" fill="#c0c0c0" fill-rule="evenodd" stroke="#000" stroke-miterlimit="10" stroke-width=".036"/>
 <path d="m9.873,176.442c-.072.36-.18.792-.18,1.44-.036.575-.108,1.296-.072,2.159l2.664.253c.612-.793.972-1.549 1.08-2.124 .036-.685-.18-1.225-.648-1.62l-2.844-.108z" fill="#c0c0c0" fill-rule="evenodd" stroke="#000" stroke-miterlimit="10" stroke-width=".036"/>
 <path d="m9.909,181.519c-.072.288-.18.899-.18,1.439-.072.648-.108,1.225-.108,2.124l3.24.288c.792-.792 1.188-1.548 1.332-2.124 .072-.684-.252-1.188-.828-1.655-1.152,0-2.304-.036-3.456-.072z" fill="#c0c0c0" fill-rule="evenodd" stroke="#000" stroke-miterlimit="10" stroke-width=".036"/>
 <path d="m9.873,186.666c-.144.324-.18.792-.252,1.404-.072.576-.108,1.296-.108,2.16l3.744.288c.936-.864 1.404-1.584 1.548-2.16 .108-.684-.252-1.224-.936-1.62-1.332,0-2.664-.036-3.996-.072z" fill="#c0c0c0" fill-rule="evenodd" stroke="#000" stroke-miterlimit="10" stroke-width=".036"/>
 <path d="m9.945,192.643c-.108.288-.18.899-.216,1.439-.072.648-.108,1.225-.108,2.124l3.744.288c.936-.792 1.404-1.548 1.548-2.124 .072-.684-.252-1.188-.972-1.655-1.332,0-2.664-.036-3.996-.072z" fill="#c0c0c0" fill-rule="evenodd" stroke="#000" stroke-miterlimit="10" stroke-width=".036"/>
 <path d="m9.765,198.078c-.144.324-.18.792-.252,1.404-.072.576-.108,1.296-.108,2.16l3.744.288c.936-.864 1.404-1.584 1.548-2.16 .108-.685-.252-1.224-.936-1.62-1.332,0-2.664-.036-3.996-.072z" fill="#c0c0c0" fill-rule="evenodd" stroke="#000" stroke-miterlimit="10" stroke-width=".036"/>
 <path d="m10.485,203.551c-.144.288-.18.899-.252,1.439-.072.648-.108,1.225-.108,2.124l3.744.288c.936-.792 1.404-1.548 1.548-2.124 .108-.684-.252-1.188-.936-1.656-1.332,0-2.664-.036-3.996-.071z" fill="#c0c0c0" fill-rule="evenodd" stroke="#000" stroke-miterlimit="10" stroke-width=".036"/>
 <path d="m13.869,212.37c-4.464.433-4.824,1.44-6.48,4.141-1.836,2.628-4.392,5.832-3.78,11.7 .612,5.76 2.304,18.107 7.56,23.004 5.148,4.752 17.496,6.479 23.436,5.867 5.796-.684 9.288-4.031 11.592-9.647 2.16-5.94 3.888-18.792 1.872-24.517-2.196-5.724-8.568-7.451-14.256-9.216-5.868-1.8-15.48-1.872-19.944-1.332z" fill="#c0c0c0" fill-rule="evenodd" stroke="#000" stroke-miterlimit="10" stroke-width=".036"/>
 <path d="m338.805,227.131c-2.664,1.655-4.859,3.563-6.443,6.983-1.656,3.492-3.023,9.036-2.988,13.572 .035,4.355.287,9.828 3.527,12.815 3.277,2.916 10.514,4.86 15.877,4.717 5.363-.252 11.268-1.044 15.623-5.832 4.213-4.969 8.748-17.82 9.434-23.4 .504-5.616-1.514-8.028-5.904-10.008-4.428-2.052-15.336-2.521-20.232-2.232-4.933.252-6.375,1.477-8.894,3.385z" fill="#c0c0c0" fill-rule="evenodd" stroke="#000" stroke-miterlimit="10" stroke-width=".036"/>
 <path d="m328.834,268.063c8.891.432 16.523.612 23.184.54 6.588-.072 12.023-.432 16.451-.937-1.367,3.637-1.908,6.408-1.619,8.856 .252,2.34 1.332,3.996 3.24,5.112-5.904-2.088-12.24-3.744-19.404-5.112-7.236-1.332-14.904-2.376-23.436-2.988 .504-1.8 1.043-3.636 1.584-5.471z" fill="#c0c0c0" fill-rule="evenodd" stroke="#000" stroke-miterlimit="10" stroke-width=".036"/>
 <path d="m391.617,256.362c-3.709-.144-6.443.288-8.352,1.692-1.98,1.296-3.529,4.392-2.988,6.228 .504,1.729 2.627,3.168 6.229,4.32-5.221,6.156-6.84,10.548-4.861,13.032s7.309,3.06 16.416,1.872c5.76,4.428 9.938,6.012 12.672,4.896 2.664-1.188 3.889-5.147 3.529-11.88 4.68-1.8 7.775-4.032 9.684-6.984 1.871-3.06 2.447-8.892 1.332-10.548-1.297-1.656-4.213-1.403-8.893.756 2.664-2.844 4.285-5.651 4.861-8.279 .395-2.7-.289-6.624-1.621-7.74-1.332-1.152-3.348-.792-6.191.936-2.016-1.367-4.213-1.943-6.193-1.332-2.016.504-4.211,2.017-6.191,4.536-3.852-1.943-6.947-2.592-9.432-2.088-2.592.54-5.363,3.168-5.4,5.112-.001,1.799 1.8,3.527 5.399,5.471z" fill-rule="evenodd" stroke="#000" stroke-miterlimit="10" stroke-width=".036"/>
 <path d="m396.477,258.234c-4.752-.864-8.207-.756-10.512.18-2.412.937-3.959,3.637-3.24,5.473 .756,1.728 3.313,3.312 7.813,4.896-5.4,5.616-7.236,9.324-5.652,11.521 1.584,2.16 6.697,2.412 15.336,1.151 4.752,3.853 8.172,5.04 10.26,3.96 2.053-1.188 2.773-4.788 2.16-10.943 3.961-1.765 6.697-3.528 8.352-5.688 1.549-2.268 2.773-5.688 1.332-6.948-1.547-1.224-4.822-1.403-10.223-.396 2.088-1.476 3.564-3.42 4.572-5.832 .863-2.556 1.727-7.596 1.08-8.856-.686-1.26-2.34-.756-5.113,1.513-.828-1.836-1.871-2.484-3.527-2.088-1.656.468-3.672,1.8-6.191,4.536-4.465-2.7-7.74-3.78-9.973-3.78-2.305.107-3.852,2.088-3.24,4.14 .609,1.869 2.769,4.209 6.766,7.161z" fill="#c0c0c0" fill-rule="evenodd" stroke="#000" stroke-miterlimit="10" stroke-width=".036"/>
 <path d="m54.801,258.162c-.576,1.404-.108,4.464 1.548,9.324 1.476,4.824 3.384,13.645 8.1,19.368 4.788,5.652 12.744,12.636 20.376,14.436 7.632,1.656 17.208-.071 24.552-4.355 7.056-4.428 13.068-11.556 18.036-21.78-5.4-3.06-9.18-6.876-11.484-11.88-2.268-5.004-1.296-10.224-2.376-17.892-1.296-7.74-3.132-20.557-4.968-28.152-1.944-7.704-2.736-13.932-6.264-17.568-3.708-3.6-10.332-4.932-15.156-4.392-4.788.36-9.648,3.132-13.32,6.768-3.744,3.492-7.164,7.992-8.856,14.616-1.764,6.66-1.404,18.648-1.836,24.696-.612,5.832-.216,7.74-1.584,10.584-1.476,2.771-3.6,4.895-6.768,6.227z" fill="#404040" fill-rule="evenodd" stroke="#000" stroke-miterlimit="10" stroke-width=".036"/>
 <path d="m81.945,242.07c-.468,3.636-.468,3.708.288,6.588 .684,2.844.828,8.101 3.888,10.225 2.916,1.979 9.756,3.563 13.86,1.836 4.068-1.836 9.216-7.057 10.44-12.601 1.044-5.651-.72-16.056-3.636-20.664-2.988-4.716-9.972-6.804-13.608-6.947-3.708-.108-6.228,2.52-8.1,6.228-1.872,3.564-2.772,11.591-3.132,15.335z" fill-rule="evenodd" stroke="#000" stroke-miterlimit="10" stroke-width=".036"/>
 <path d="m84.285,242.034c-.504,3.313-.432,3.349.216,5.94 .576,2.52.936,7.596 3.564,9.252 2.592,1.512 8.46,2.016 11.916.396 3.384-1.691 7.2-5.327 8.1-10.08 .648-4.932-1.404-14.184-3.672-18.432-2.376-4.284-7.092-6.479-9.972-6.588-3.06-.144-5.544,2.196-7.308,5.616-1.728,3.169-2.448,10.585-2.844,13.896z" fill="#c0c0c0" fill-rule="evenodd" stroke="#000" stroke-miterlimit="10" stroke-width=".036"/>
 <path d="m254.564,278.106c-.936.54-1.08,1.98-.287,4.716 .576,2.664 2.053,7.813 4.715,11.16 2.773,3.168 7.201,6.012 11.736,8.244 4.393,2.16 9,4.392 14.652,4.752 5.652.252 13.033.072 18.793-2.916 5.65-3.204 11.412-9.072 14.902-15.372 3.35-6.3 5.041-13.572 5.221-22.104-2.557-.757-4.248-3.024-5.508-6.948-1.26-4.068-1.439-10.908-1.801-16.632-.395-5.761-.107-11.881-.791-17.389-.793-5.58-1.873-11.844-3.924-15.731-2.268-3.96-5.508-6.588-8.893-7.488-3.383-.9-7.813.252-10.943,2.196-3.168,1.836-5.184,3.239-7.848,8.784-2.773,5.399-5.977,16.235-8.102,23.76-2.123,7.452-2.303,14.724-4.715,20.844-2.592,5.94-7.561,11.34-10.439,14.796-2.879,3.384-5.184,5.113-6.768,5.328z" fill="#404040" fill-rule="evenodd" stroke="#000" stroke-miterlimit="10" stroke-width=".036"/>
 <path d="m279.152,244.087c-.576,3.636-.432,3.708.289,6.588 .648,2.844.936,8.1 3.924,10.224 2.951,1.98 9.684,3.564 13.824,1.836 4.068-1.836 9.215-7.056 10.439-12.6 1.045-5.652-.721-16.057-3.637-20.664-2.986-4.716-9.971-6.805-13.607-6.948-3.744-.072-6.156,2.448-8.064,6.192-1.978,3.527-2.664,11.699-3.168,15.372z" fill-rule="evenodd" stroke="#000" stroke-miterlimit="10" stroke-width=".036"/>
 <path d="m281.492,244.051c-.504,3.312-.432,3.348.217,5.939 .576,2.521.936,7.597 3.564,9.252 2.592,1.513 8.459,2.017 11.916.396 3.383-1.692 7.199-5.328 8.1-10.08 .648-4.933-1.404-14.185-3.672-18.433-2.377-4.283-7.092-6.479-9.973-6.588-3.059-.144-5.543,2.196-7.307,5.616-1.728,3.169-2.448,10.585-2.845,13.898z" fill="#c0c0c0" fill-rule="evenodd" stroke="#000" stroke-miterlimit="10" stroke-width=".036"/>
 <path d="m144.981,113.371c-1.764-.432-3.204-.72-4.716-.468-1.62.072-3.096.036-4.032,1.44-.9,1.404-1.296,3.636-1.188,6.84-.936-.18-1.548.18-2.124.936-.684.756-1.26,2.34-1.188,3.78 .108,1.44.612,2.808 1.656,4.5-2.052.036-3.024.792-3.312,2.124-.288,1.368-.432,4.788 1.908,5.94 2.304,1.008 6.192,1.08 11.808.216 .144-3.348.252-6.372.468-9.468 .18-3.168.468-6.408.72-8.748 .144-2.34.396-4.068.468-5.184 .036-1.26-.216-1.764-.468-1.908z" fill-rule="evenodd" stroke="#000" stroke-miterlimit="10" stroke-width=".036"/>
 <path d="m133.353,132.703c1.008.36 2.16,2.484 3.744,2.88 1.44.324 3.852-.936 4.752-.576 .792.252 1.116,1.944 0,2.448-1.224.396-5.328.54-7.056.288-1.944-.36-3.132-1.548-3.708-2.304-.504-.936 0-2.124.54-2.592 .324-.505.756-.649 1.728-.144z" fill="#e2b79c" fill-rule="evenodd" stroke="#000" stroke-miterlimit="10" stroke-width=".036"/>
 <path d="m147.141,116.646c1.152-.072 2.16.36 3.168,1.296 .936.864 2.124,2.052 2.736,4.14 .54,2.088.72,4.644.54,8.064l5.328,3.42c.792-2.52 1.656-5.436 2.736-8.604 1.008-3.384 2.196-7.668 3.564-10.764 1.404-3.096 2.844-6.228 4.608-7.308 1.584-1.08 3.312-.792 5.184.864 5.868-3.456 10.908-7.38 15.516-11.628 4.608-4.32 8.352-8.964 11.772-14.076l2.16-1.728c-.252-.648.324-4.392 1.872-11.088 1.512-6.804 3.852-16.56 7.164-29.412-2.628-1.116-4.392-2.844-5.58-5.04-1.188-2.412-2.124-6.948-1.44-8.46 .612-1.476 3.672-1.296 5.292-.288 1.476.937 2.772,2.808 3.888,5.76-.396-4.32-.252-8.712.288-13.176 .504-4.572 1.548-10.836 2.988-13.788 1.368-3.132 4.536-6.228 5.472-4.14 .864,2.196.864,7.74-.144,17.064 2.268-5.436 4.14-9.072 6.012-10.908 1.764-1.836 4.176-1.512 4.752-.144 .324,1.224-.72,3.852-1.873,7.596-1.116,3.744-2.592,8.496-4.572,14.652 2.7-4.86 5.184-8.063 7.163-9.612 1.98-1.656 4.068-.828 4.896.144 .721.936.793,3.168-.18,5.436-1.045,2.16-2.951,4.608-5.868,7.488 3.024-1.404 5.364-1.836 7.165-1.584 1.871.288 3.203,1.908 3.455,3.312 0,1.296-1.332,2.916-3.168,4.428-2.053,1.332-5.797,1.476-8.316,3.888-2.52,2.448-4.068,4.644-6.876,10.476-2.952,5.724-8.568,17.46-10.62,23.544-2.16,5.976-2.88,9.936-2.16,12.168 1.764-.108 2.628.468 2.736,1.872 .072,1.296-1.296,3.276-2.16,6.336-.972,2.988-1.8,6.264-3.312,11.916-1.656,5.652-4.32,15.732-5.904,21.924-1.548,6.156-2.628,10.944-3.24,14.76h-43.704c-2.196.288-3.96-.252-5.688-1.62-1.62-1.476-3.06-4.572-4.32-6.66-1.404-2.052-2.7-3.924-4.032-5.616 .902-4.967 1.802-9.936 2.702-14.904z" fill-rule="evenodd" stroke="#000" stroke-miterlimit="10" stroke-width=".036"/>
 <path d="m138.249,114.918c-.936.288-1.044,1.764-1.152,3.312-.252,1.548-.9,4.284 0,5.724 .792,1.224 3.852,3.42 4.896,2.16 .864-1.44 1.476-8.028.864-9.9-.756-1.907-3.636-1.692-4.608-1.296z" fill="#e2b79c" fill-rule="evenodd" stroke="#000" stroke-miterlimit="10" stroke-width=".036"/>
 <path d="m135.225,123.811c.792.54 1.332,2.34 2.448,3.456 1.08.972 3.348,1.512 3.744,2.448 .288.828-.936,3.024-2.016,2.844-1.332-.324-4.032-2.916-5.184-4.284-1.188-1.476-1.764-3.096-1.584-3.888 .144-.793 1.656-1.116 2.592-.576z" fill="#e2b79c" fill-rule="evenodd" stroke="#000" stroke-miterlimit="10" stroke-width=".036"/>
 <path d="m149.337,119.382c.288-.504 1.188.756 1.728,1.98 .396,1.116 1.332,3.204 1.296,4.752-.18,1.548-1.08,3.312-1.728,4.032-.792.54-1.98.396-2.304-.576-.36-1.116.252-3.492.432-5.184 .072-1.836.216-4.428.576-5.004z" fill="#e2b79c" fill-rule="evenodd" stroke="#000" stroke-miterlimit="10" stroke-width=".036"/>
 <path d="m153.225,132.415c1.44.54 2.484,1.296 3.276,1.872 .72.54 1.152,1.296 1.296,1.872-.288,2.916-.576,5.076-1.008,6.192-.468,1.08-.936,1.404-1.548.684-.612.54-1.296.36-1.908-.54-.684-1.008-1.296-2.556-1.98-5.04 .252-.576.54-1.152.864-2.016s.612-1.873 1.008-3.024z" fill="#e2b79c" fill-rule="evenodd" stroke="#000" stroke-miterlimit="10" stroke-width=".036"/>
 <path d="m158.661,143.214c.18-2.268.756-5.292 1.872-9.504 1.008-4.248 3.132-11.304 4.572-15.48 1.368-4.212 2.664-7.74 3.888-9.324 1.188-1.656 2.052-.684 3.168-.576 1.008.036 2.052.324 3.132.864 .252.216 1.98-.756 5.328-3.456 3.312-2.772 10.98-8.784 14.652-12.348 3.672-3.42 5.832-6.372 7.02-8.46 .504,1.368 1.8,2.556 3.888,3.564 2.088.792 7.308,1.044 8.46,2.304 .936,1.368-1.404,3.06-2.304,5.904-.864,2.772-1.224,2.988-3.024,10.764-1.944,7.776-4.752,19.332-8.568,35.352-7.452.18-14.616.36-21.636.396-7.056.036-13.824.036-20.448,0z" fill="#f7f619" fill-rule="evenodd" stroke="#000" stroke-miterlimit="10" stroke-width=".036"/>
 <path d="m207.189,118.519c-1.584,1.044-2.916,1.188-3.6.432-.72-.828-1.188-2.412-1.008-5.04-2.484-.648-3.492-1.8-3.168-3.168 .252-1.404 1.98-3.312 5.04-5.436-1.764-2.268-2.34-4.14-2.016-5.616 .36-1.584 2.592-3.6 4.176-3.42 1.548.144 3.168,1.62 5.004,4.428l-4.428,17.82z" fill-rule="evenodd" stroke="#000" stroke-miterlimit="10" stroke-width=".036"/>
 <path d="m207.585,116.07c-1.188,1.188-2.088,1.764-2.7,1.728-.72-.144-1.188-1.188-1.008-2.16 .108-1.044.828-2.196 2.016-3.744-2.304.468-3.6.324-3.888-.288-.324-.756.9-3.096 1.872-3.708 .828-.612 1.98-.756 3.312-.144-2.052-2.988-3.06-5.148-3.168-6.624-.072-1.512 1.44-2.556 2.592-2.16 1.008.252 2.196,1.548 3.564,3.888-.864,4.392-1.728,8.785-2.592,13.212z" fill="#fb0f0c" fill-rule="evenodd" stroke="#000" stroke-miterlimit="10" stroke-width=".036"/>
 <path d="m168.021,82.123c-.324,5.22-.18,10.152.576,14.796 .684,4.572.72,9.576 3.6,12.78 2.808,3.204 9.108,7.2 13.212,6.156 3.996-1.296 8.136-7.596 10.764-13.212 2.556-5.796 3.204-16.02 4.284-20.376 .828-4.284.468-3.132 1.296-5.004 .864-2.016 2.808-4.356 3.6-6.336 .684-2.088.828-4.32.288-5.58-.72-1.296-2.844-1.836-3.888-2.016-1.008-.252-1.728.036-2.16.72l.144-2.016c1.62-1.296 3.06-2.304 4.464-3.024 1.332-.72 2.484-1.152 3.6-1.296l-6.336-.576c.756-.936 1.764-1.836 3.024-2.556 1.26-.792 2.556-1.512 4.284-2.16-1.26-.684-2.448-1.116-3.708-1.296-1.368-.288-2.52-.288-3.888-.144 2.556-.612 4.428-1.188 5.76-1.44 1.296-.324 2.052-.468 2.124-.432-1.944-.54-3.708-.828-5.436-.864-1.764-.144-3.672.18-4.896.288-1.296.036-2.196.036-2.7,0 .684-.756 1.872-1.188 3.708-1.584 1.836-.324 4.14-.612 7.2-.576l-5.184-1.008 4.896-1.548-6.48-2.16c-.648-.9-1.98-1.62-3.852-2.016-1.908-.468-4.5-.612-7.632-.576-.684-1.512-2.16-1.944-4.428-1.584-2.412.396-6.768,1.872-9.324,3.888-2.484,1.872-4.5,4.86-5.76,7.308-1.44,2.34-2.628,4.644-2.448,6.912 .108,2.124 1.116,4.176 3.168,6.156-2.124.396-3.564,1.44-4.176,2.736-.684,1.296-.36,3.708.144,5.292 .432,1.512 1.152,2.664 2.304,3.6-.036,2.916-.072,5.832-.144,8.748z" fill-rule="evenodd" stroke="#000" stroke-miterlimit="10" stroke-width=".036"/>
 <path d="m170.181,75.103c-.288,2.268-.432,4.032-.288,5.436 0,1.26-.036,1.98.864,2.592 .756.54 2.052,1.296 4.32,1.008 2.232-.396 5.94-1.08 9.18-3.024 3.24-2.088 8.064-8.388 9.756-8.748 1.44-.432.324,2.412-.288,6.588-.648,4.176-1.944,13.824-3.312,18.252-1.404,4.248-3.168,7.38-5.148,7.596-2.16.108-5.076-3.384-7.2-6.444-2.16-3.132-3.924-7.056-5.436-11.916h-3.312c.216,5.364.792,9.9 1.872,13.608 .972,3.672 2.448,6.408 4.284,8.352 1.728,1.944 3.564,2.988 6.336,3.132 2.844-.036 7.812-1.08 10.188-3.132 2.232-2.052 1.908-4.752 3.312-9.216 1.404-4.68 3.204-14.04 4.572-18.216 1.224-4.176 2.052-4.428 2.88-6.444 .792-2.052 1.368-4.536 1.584-5.904 .036-1.62-.432-2.52-1.008-2.844-.576-.288-1.44.036-2.448,1.116l-2.304-3.132-6.156-.144c.144,1.728-.288,3.204-1.152,4.284-.972,1.08-2.736,1.8-4.176,2.16-1.584.36-3.24.54-4.572-.144-1.332-.828-2.34-2.304-3.168-4.572h-2.16c.216,1.764.072,3.24-.576,4.572-.684,1.26-1.728,2.268-3.276,3.024-.504,1.26-.504,2.124 0,2.736 .432.504 1.476,1.116 2.988.72 1.368-.396 4.536-3.024 5.616-3.024 1.08-.108 1.548,1.224.72,2.448-1.116,1.188-4.572,3.78-6.336,4.428-1.728.504-2.916-.396-3.708-1.296-.9-.972-1.152-2.448-1.152-4.428-.432.18-.864.359-1.296.576z" fill="#e2b79c" fill-rule="evenodd" stroke="#000" stroke-miterlimit="10" stroke-width=".036"/>
 <path d="m175.185,86.875c.108,1.98.828,3.996 2.16,6.444 1.296,2.34 3.816,7.092 5.616,7.74 1.62.432 2.916-.396 4.428-4.284 1.476-3.96 2.916-10.044 4.464-18.828-4.068,3.492-7.416,5.94-10.188,7.488-2.88,1.476-4.896,1.907-6.48,1.44z" fill="#fff" fill-rule="evenodd" stroke="#000" stroke-miterlimit="10" stroke-width=".036"/>
 <path d="m172.053,60.594c.972-.288 1.656-.144 2.448.144 .684.288 1.296.864 1.836,1.728h2.736c-.18-1.656.252-2.808 1.296-3.6 .972-.792 3.024-1.224 4.752-1.296 1.584-.288 3.852-.468 5.004,0 1.08.396 1.656,1.26 1.728,2.592l4.176-.144c-1.152-1.116-1.728-1.98-1.728-2.592-.036-.72 1.548-.684 1.44-1.296-.288-.828-2.304-1.548-2.592-2.556-.324-.972 1.116-2.484.72-2.88-.612-.396-2.736.252-3.744.144-1.116-.288-1.188-1.656-2.304-1.728-1.224-.18-3.672,1.08-4.428,1.008-.756-.216.36-1.764-.144-1.872-.828-.18-2.124.612-3.744.864-1.584.144-4.14-.36-5.292.144-1.08.468-.864,1.8-1.584,2.592-1.008.576-3.456.036-3.6,1.44-.036,1.512.792,3.817 3.024,7.308z" fill="#e2b79c" fill-rule="evenodd" stroke="#000" stroke-miterlimit="10" stroke-width=".036"/>
 <path d="m170.037,56.851c1.116-.36 2.268-.684 3.456-.576 1.224,0 3.384.288 3.564.72 0,.396-2.016,1.152-3.132,1.584-1.224.324-2.52.468-3.888.432v-2.16z" fill-rule="evenodd" stroke="#000" stroke-miterlimit="10" stroke-width=".036"/>
 <path d="m181.953,54.583c.432-.54 3.672-.828 5.292-.864 1.44-.036 4.356.252 3.888.72-.576.432-5.22,1.548-6.732,1.692-1.584-.037-2.952-1.152-2.448-1.548z" fill-rule="evenodd" stroke="#000" stroke-miterlimit="10" stroke-width=".036"/>
 <path d="m169.749,50.838c.396.108 1.008.108 1.44-.288 .396-.432.828-1.476 1.44-1.872 .54-.396 1.116-.54 1.872-.432 .612-2.16 1.944-4.068 3.996-5.436 2.052-1.404 4.68-2.556 8.172-3.168-.684-.756-1.692-1.044-3.42-.72-1.728.144-4.716,1.044-6.624,2.304-2.052,1.404-4.14,3.816-5.292,5.58-1.152,1.585-1.728,2.881-1.584,4.032z" fill="#edef01" fill-rule="evenodd" stroke="#000" stroke-miterlimit="10" stroke-width=".036"/>
 <path d="m176.481,48.247c-.072-1.476.936-2.808 2.88-3.996 1.908-1.404 5.652-2.88 8.892-3.312 3.168-.396 6.66.036 10.332,1.152-4.464-.576-8.244-.288-11.34.72-3.168,1.044-5.652,2.808-7.452,5.436h-3.312z" fill="#edef01" fill-rule="evenodd" stroke="#000" stroke-miterlimit="10" stroke-width=".036"/>
 <path d="m183.105,47.382c.684-1.044 1.872-1.944 3.564-2.556 1.584-.648 4.392-1.26 6.48-1.44 2.088-.288 3.996-.288 5.868-.144 1.692.072 3.132.216 4.32.576-1.26.468-2.124.792-2.736,1.116-.648.288-.936.576-.864.72-1.296.036-2.628.468-3.996,1.152-1.404.648-2.844,1.656-4.32,3.024-.864-.936-1.728-1.512-2.736-1.728-1.116-.288-2.16.324-3.132.288-1.008-.072-1.692-.539-2.448-1.008z" fill="#edef01" fill-rule="evenodd" stroke="#000" stroke-miterlimit="10" stroke-width=".036"/>
 <path d="m195.741,50.119c3.096-.756 4.86-1.044 5.436-.864 .468.072-1.224.828-2.304,1.584-1.188.684-2.484,1.548-4.284,2.592-.072-.612-.072-1.188.144-1.728s.504-1.117 1.008-1.584z" fill="#edef01" fill-rule="evenodd" stroke="#000" stroke-miterlimit="10" stroke-width=".036"/>
 <path d="m196.173,53.574c1.548-.576 3.024-1.008 4.428-1.152 1.368-.252 2.664-.252 3.888,0-1.656.684-2.952,1.548-3.744,2.448-.936.936-1.692,2.16-1.296,2.844 .324.504 1.476.648 3.456.432l-3.6,2.736-2.304-.72c-.828-.9-1.296-1.764-1.26-2.448-.072-.684 1.188-1.26 1.26-1.872 .072-.719-.252-1.476-.828-2.268z" fill="#edef01" fill-rule="evenodd" stroke="#000" stroke-miterlimit="10" stroke-width=".036"/>
 <path d="m180.657,61.17c-.576,1.008.036,2.628.576,3.888 .468,1.152 1.008,2.52 2.448,2.988 1.404.324 4.752.684 5.868-.72 1.008-1.512 1.152-6.732.288-8.028-.972-1.368-3.708-.54-5.292-.144-1.584.288-3.384,1.009-3.888,2.016z" fill="#a16121" fill-rule="evenodd" stroke="#000" stroke-miterlimit="10" stroke-width=".036"/>
 <path d="m172.629,62.754c-1.224.036-2.7.468-3.6,1.152-.972.648-1.692,1.188-1.872,2.448-.216,1.188-.072,3.312.576,4.428 .468,1.008 1.476,1.584 2.592,1.584 1.152-.18 2.952-1.404 4.032-2.304 .864-1.008 1.476-2.016 1.692-3.168 .216-1.224.072-2.88-.432-3.564-.756-.756-1.8-.72-2.988-.576z" fill="#a16121" fill-rule="evenodd" stroke="#000" stroke-miterlimit="10" stroke-width=".036"/>
 <path d="m188.829,118.23c-.252-1.692-.252-2.952.288-4.176 .504-1.26 1.368-2.592 2.592-2.88 1.116-.432 3.384-.144 3.888.864 .324,1.008-.108,2.736-1.584,5.184 1.26-.612 2.232-.612 3.312.144 1.044.648 2.916,2.628 2.7,4.14-.396,1.368-1.872,2.952-4.716,4.464 .864,1.548 1.296,2.844 1.152,4.032-.216,1.08-1.08,2.808-2.016,2.844-.936-.108-2.232-.972-3.744-2.988-.936,2.016-1.764,3.204-2.88,3.564-1.152.252-2.988-.972-3.564-1.728-.684-.936-.36-2.304 0-3.276 .288-1.008 1.008-1.872 2.016-2.592-2.196-1.584-3.636-3.024-4.464-4.32-.828-1.332-.972-2.844-.432-3.564 .576-.828 2.232-1.44 3.6-1.296 1.26.072 2.448.504 3.852,1.584z" fill-rule="evenodd" stroke="#000" stroke-miterlimit="10" stroke-width=".036"/>
 <path d="m190.125,120.643c-.072-1.8.072-3.276.288-4.572s.252-2.916 1.08-3.204c.684-.54 3.024-.288 3.276.756 .216,1.044-.612,2.916-2.196,5.616 1.476-1.152 2.556-1.584 3.636-1.152 .972.36 2.664,2.376 2.304,3.528-.504,1.044-1.872,2.016-4.644,2.916 1.044,1.764 1.584,2.988 1.62,4.212-.108,1.08-.864,2.592-1.692,2.448-.828-.252-1.908-1.368-3.24-3.636-.72,2.484-1.584,3.96-2.448,4.572-.972.54-2.664-.612-2.988-1.116-.432-.612.324-1.512.864-2.304 .54-.864 1.116-1.728 2.124-2.736-2.484-1.729-4.104-3.132-5.004-4.356-.936-1.26-.864-2.412-.36-3.024 .468-.72 1.764-1.512 3.06-1.116 1.188.323 2.628,1.332 4.32,3.168z" fill="#fb0f0c" fill-rule="evenodd" stroke="#000" stroke-miterlimit="10" stroke-width=".036"/>
 <path d="m171.549,126.079c-.324,1.332-.936,2.448-1.692,3.204-.828.648-2.124,1.476-3.06,1.368-1.044-.216-2.844-1.08-2.772-2.016-.036-.936 1.116-2.124 3.06-3.564-1.224.036-2.088-.396-2.592-1.296-.612-.936-1.44-3.276-.684-4.248 .792-1.08 2.52-1.656 5.328-1.872-.216-1.584 0-2.736.504-3.6 .468-.936 1.8-1.98 2.592-1.584 .792.36 1.296,1.548 1.908,3.708 1.368-1.332 2.556-2.088 3.564-1.872 1.008,0 1.944,1.8 2.232,2.628 .072.792-.504,1.944-1.152,2.628-.648.72-1.44,1.044-2.52,1.368 1.152,2.016 1.836,3.636 2.052,5.004s-.324,2.412-.936,2.988c-.756.324-2.376.252-3.313-.216-1.007-.504-1.799-1.332-2.519-2.628z" fill-rule="evenodd" stroke="#000" stroke-miterlimit="10" stroke-width=".036"/>
 <path d="m171.585,123.882c-.648,1.368-1.26,2.556-1.836,3.564-.684.864-1.296,2.052-1.98,2.16-.792-.072-2.592-.792-2.34-1.728s1.44-2.124 3.708-3.708c-1.548.324-2.7.324-3.312-.396-.684-.684-1.332-2.952-.576-3.6 .648-.684 2.268-1.008 4.716-.684-.324-1.692-.216-3.132.18-3.924 .396-.936 1.512-1.836 2.232-1.332 .576.504 1.008,1.656 1.296,3.996 1.368-1.692 2.592-2.664 3.528-2.772s1.8,1.296 2.016,1.98c0,.468-.828.972-1.512,1.512-.684.432-1.62.9-2.664,1.404 1.404,2.196 2.088,3.888 2.448,5.22 .216,1.26-.216,2.16-.756,2.556-.684.432-1.944.36-2.808-.216-.864-.756-1.692-2.052-2.34-4.032z" fill="#fb0f0c" fill-rule="evenodd" stroke="#000" stroke-miterlimit="10" stroke-width=".036"/>
 <path d="m160.317,144.619c-1.8-2.7-2.448-4.644-1.944-6.12 .432-1.476 2.016-2.304 4.752-2.628 .144-3.42.972-5.04 2.484-5.004 1.512,0 3.492,1.8 6.336,5.256 1.836-2.844 3.492-4.212 5.112-4.104 1.548,0 3.96,2.52 4.176,4.644 .144,2.124-1.044,4.608-3.42,7.848l-17.496.108z" fill-rule="evenodd" stroke="#000" stroke-miterlimit="10" stroke-width=".036"/>
 <path d="m162.333,143.791c-1.656-1.692-2.52-2.844-2.592-3.852-.18-1.044.936-1.872 1.944-1.908s2.304.54 4.032,1.728c-.864-2.952-1.152-4.608-.468-5.256 .576-.648 3.168.468 4.032,1.548 .72,1.008 1.116,2.412.792,4.356 2.52-3.456 4.428-5.436 5.868-5.94 1.332-.576 2.664,1.26 2.592,2.88-.108,1.584-1.26,3.636-3.312,6.444h-12.888z" fill="#fb0f0c" fill-rule="evenodd" stroke="#000" stroke-miterlimit="10" stroke-width=".036"/>
 <path d="m201.393,134.574c-.684-1.8-1.584-3.276-2.844-4.572-1.332-1.296-3.564-3.6-4.608-3.024-1.044.432-1.62,2.448-1.584,5.904-1.368-1.008-2.556-1.296-3.564-1.008-1.044.288-2.736,1.512-2.592,2.7 .072,1.08.936,2.232 2.88,3.6 .504-.036.504-.036 0,0-.648-.072-2.448-.252-3.168.144-.72.36-1.188,1.26-1.008,2.304 .144.9.54,2.232 1.584,3.6h12.636c.756-3.203 1.512-6.408 2.268-9.648z" fill-rule="evenodd" stroke="#000" stroke-miterlimit="10" stroke-width=".036"/>
 <path d="m199.989,135.006-1.728,7.776-10.332.432c-.576-1.116-.72-1.98-.72-2.592 0-.72-.036-1.008.864-1.296 .756-.36 2.088-.504 3.996-.576-2.124-1.188-3.312-2.196-3.708-3.168-.36-1.044.432-2.592 1.404-2.7 .9-.108 2.052.504 3.744,1.98-.108-2.34.18-3.816.72-4.572 .504-.72 1.548-.72 2.592.144 .972.793 1.98,2.269 3.168,4.572z" fill="#fb0f0c" fill-rule="evenodd" stroke="#000" stroke-miterlimit="10" stroke-width=".036"/>
 <path d="m204.093,84.354c.756,1.008 1.764,1.728 3.024,2.448 1.224.576 2.7,1.152 4.428,1.44 .432-4.428 1.44-9.216 3.312-14.364 1.8-5.364 4.932-11.664 7.452-16.668 2.376-5.112 4.86-10.152 6.912-13.032 1.8-2.772 2.952-2.628 4.86-3.744 1.944-1.26 5.579-2.412 6.876-3.6 1.188-1.296 1.188-3.276.576-3.852-.756-.648-2.557,0-4.428.432-2.016.432-6.408,2.808-6.769,2.124-.396-.792 3.312-4.608 4.896-6.732 1.512-2.268 4.105-4.968 4.465-6.3 .252-1.476-.936-2.376-2.447-1.728-1.549.684-4.825,3.564-6.337,5.724-1.62,1.98-2.196,6.084-2.844,6.48-.72.324-1.656-1.62-1.152-4.32 .468-2.844 2.916-9.18 3.852-12.348 .864-3.348 1.296-6.156 1.152-7.02-.288-.9-1.332-.18-2.556,1.872-1.26,2.016-3.816,8.784-4.896,10.044-1.152,1.008-1.548-.144-1.728-3.024-.36-2.916.756-12.096.288-14.076-.576-1.908-2.412-.36-3.168,2.304-.792,2.556-1.116,7.74-1.548,12.78-.54,4.86-.972,10.404-1.44,16.632-1.44-2.231-2.736-3.815-3.744-5.292-1.044-1.512-1.908-2.844-2.592-3.168-.828-.36-2.196-.072-2.304,1.296-.144,1.332.288,4.5 1.44,6.444 1.152,1.836 2.736,3.276 5.184,4.464-.468,3.096-1.476,8.316-3.312,15.804-1.8,7.524-4.284,16.992-7.452,28.98z" fill="#e2b79c" fill-rule="evenodd" stroke="#000" stroke-miterlimit="10" stroke-width=".036"/>
 <path d="m219.429,42.882c-.648,1.44-1.116,3.024-1.404,5.148-.36,2.052-.504,4.356-.576,7.056-1.368-.252-2.232-1.116-2.448-2.592-.324-1.584.108-4.716.864-6.336 .72-1.656 1.908-2.7 3.564-3.276z" fill-rule="evenodd" stroke="#000" stroke-miterlimit="10" stroke-width=".036"/>
 <path d="m436.689,238.255c-4.969-1.404-7.02-3.421-6.588-5.761 .432-2.376 3.635-5.363 9.467-8.676 .072-4.932.828-7.884 2.27-8.855 1.402-1.045 3.42-.036 6.191,2.88-.863-4.032-.611-6.912 1.043-8.641 1.621-1.764 6.156-3.312 8.461-1.872 2.195,1.477 4.141,6.336 4.717,10.116 .432,3.672-.182,7.38-1.836,11.521 .467,5.651-.182,10.008-2.09,13.607-1.979,3.456-4.932,5.868-9.252,7.236-1.799,3.78-3.959,5.652-6.623,5.76-2.736.072-8.531-2.556-9.469-5.364-.935-2.987.252-6.84 3.709-11.951z" fill-rule="evenodd" stroke="#000" stroke-miterlimit="10" stroke-width=".036"/>
 <path d="m440.182,237.643c-5.76-2.052-8.389-3.78-8.029-5.58 .396-1.836 3.637-3.348 10.117-4.932-1.26-5.832-1.297-9.072.18-10.116 1.439-1.08 4.104.432 8.279,4.14-1.404-5.436-1.547-9.036-.432-10.943 1.117-1.944 5.256-2.124 7.02-.396 1.693,1.764 2.701,7.488 2.881,10.512-.037,2.952-.828,5.04-2.664,6.805 .973,6.804.576,11.699-1.045,14.832-1.691,3.096-4.715,4.283-9.07,3.708 .035,4.067-.865,6.336-2.701,6.804-1.871.396-7.74-1.62-8.424-4.104-.792-2.522.503-6.051 3.888-10.73z" fill="#c0c0c0" fill-rule="evenodd" stroke="#000" stroke-miterlimit="10" stroke-width=".036"/>
 <path d="m447.201,265.255c-.684-2.629-.684-4.753 0-6.372 .576-1.729 2.34-3.276 3.924-3.528 1.512-.252 3.348.396 5.363,2.088 2.521-1.26 4.645-1.404 6.373-.432 1.656.936 3.313,2.88 3.707,5.976 .182,3.061-.684,9.648-1.619,11.988-.936,2.231-2.195,2.592-3.924,1.224 .324,3.601-.217,6.372-2.053,8.46-1.943,2.088-6.875,4.824-8.676,3.889-1.764-1.116-2.268-4.5-1.656-10.297-6.516-.575-9.828-1.943-10.08-4.104-.287-2.233 2.592-5.149 8.641-8.892z" fill-rule="evenodd" stroke="#000" stroke-miterlimit="10" stroke-width=".036"/>
 <path d="m448.605,265.614c-.576-2.268-.576-3.888 0-5.292 .576-1.476 1.799-2.628 3.24-2.88 1.223-.144 2.699.288 4.428,1.692 2.123-1.044 3.887-1.116 5.291-.36 1.369.756 2.664,2.412 3.061,4.968 .289,2.448-.721,7.956-1.367,9.864-.793,1.8-1.873,2.196-3.24,1.044 .072,3.672-.504,6.408-1.873,8.352-1.367,1.837-4.859,4.213-6.191,3.097-1.404-1.152-2.123-4.356-2.16-9.756-5.4-.576-8.137-1.584-8.352-3.42-.18-1.872 2.16-4.177 7.163-7.309z" fill="#c0c0c0" fill-rule="evenodd" stroke="#000" stroke-miterlimit="10" stroke-width=".036"/>
 <path d="m354.93 169.57c0 6.948 1.943 12.564 4.32 12.564 2.412 0 4.355-5.616 4.355-12.564s-1.943-12.564-4.355-12.564c-2.377 0-4.32 5.616-4.32 12.564z" fill="#fb0f0c" fill-rule="evenodd" stroke="#000" stroke-miterlimit="10" stroke-width=".036"/>
</svg>
