<?xml version='1.0' encoding='utf-8'?>
<svg xmlns="http://www.w3.org/2000/svg" xmlns:xlink="http://www.w3.org/1999/xlink" width="1641.1" height="2769.8" version="1.1" viewBox="0 0 1641.0978 2769.7764"><defs><linearGradient id="w" x1="-228.07" x2="583.52" y1="446.47" y2="830.69" gradientUnits="userSpaceOnUse" xlink:href="#u"/><linearGradient id="u"><stop stop-color="#0f0" offset="0"/><stop stop-color="#008000" offset="1"/></linearGradient><linearGradient id="s" x1="364.03" x2="384.29" y1="441.62" y2="474.86" gradientTransform="matrix(-.70524 -.70897 .70897 -.70524 406.78 973.09)" gradientUnits="userSpaceOnUse" xlink:href="#v"/><linearGradient id="v"><stop stop-color="#008000" offset="0"/><stop stop-color="#008000" stop-opacity="0" offset="1"/></linearGradient><linearGradient id="t" x1="326.15" x2="358.73" y1="426.23" y2="463.78" gradientTransform="matrix(-.70524 -.70897 .70897 -.70524 406.78 973.09)" gradientUnits="userSpaceOnUse" xlink:href="#v"/><linearGradient id="o" x1="413.44" x2="412.4" y1="395" y2="394.22" gradientTransform="translate(.044194 .011049)" gradientUnits="userSpaceOnUse"><stop stop-color="#afa" offset="0"/><stop stop-color="#afa" stop-opacity="0" offset="1"/></linearGradient><linearGradient id="q" x1="410.25" x2="411.38" y1="392.52" y2="393.32" gradientUnits="userSpaceOnUse"><stop stop-color="#002b00" offset="0"/><stop stop-color="#002b00" stop-opacity="0" offset="1"/></linearGradient><filter id="n" x="-.37533" y="-.37533" width="1.7507" height="1.7507" color-interpolation-filters="sRGB"><feGaussianBlur stdDeviation="0.096759933"/></filter><linearGradient id="z" x1="406.32" x2="395.18" y1="363.99" y2="383.79" gradientTransform="matrix(1.4315 -.17199 .27816 .88509 -284.92 373.32)" gradientUnits="userSpaceOnUse" xlink:href="#u"/><linearGradient id="aa" x1="406.32" x2="395.18" y1="363.99" y2="383.79" gradientTransform="matrix(-.72397 .086984 .14068 .44763 619.9 442.84)" gradientUnits="userSpaceOnUse" xlink:href="#u"/><linearGradient id="x" x1="496.04" x2="1590.3" y1="1422.4" y2="3141.3" gradientUnits="userSpaceOnUse" xlink:href="#u"/><linearGradient id="y" x1="653.86" x2="1869" y1="1553.7" y2="3043.8" gradientUnits="userSpaceOnUse" xlink:href="#u"/></defs><g transform="translate(-407.17 -1399.2)"><path d="m2033 3757.3c-49.965 93.195-1565.3 60.541-1612-34.738-46.756-95.279 241.9-1552 832.76-1553.2 590.85-1.275 829.24 1494.8 779.27 1588z" fill="#003c00" stroke="#000" stroke-linecap="round" stroke-linejoin="bevel" stroke-width="17.714"/><path transform="translate(253.14 1300.1)" d="m851.75 826.62 21.814 56.279c-46.373 15.416-94.478 31.816-94.525 54.242-1.2e-4 17.943 16.48 34.532 44.396 48.01v571.63h386.8v-577.08c21.589-12.397 34.039-26.972 34.039-42.568-0.1055-22.401-54.918-43.803-101.24-59.201l28.525-51.32h-319.81z" fill="#deaa87" stroke="#000" stroke-linecap="round" stroke-width="6.413"/><path d="m1588.8 3045.5q-163.15 61.087-353.86 52.148-190.71 8.9396-353.86-52.148v-47.678q172.83 28.309 346.41 27.564h14.899q173.58 0.745 346.41-27.564v47.678" fill="#666"/><path d="m908.14 3032.1s4.584 431.18-4.2291 483.16c-8.8131 51.984-94.416 484.31-55.642 614.64l223.61-9.492c26.394-175.48 16.724-502.43 37.762-599.09 53.586-246.21 141-367.9 141-367.9s83.583 69.839 114.35 344.51c13.337 119.05-19.996 428.41 11.306 616.55h269.89c38.775-130.33-37.271-464.06-54.897-568.03 0 0-33.954-113.61-11.164-419.69 2.1381-28.716-5.2921-59.127-2.0802-91.297-175.3-13.453-669.91-3.3557-669.91-3.3557z" fill="#fff" stroke="#000" stroke-linecap="round" stroke-linejoin="bevel" stroke-width="11.598"/><path d="m1361.8 4056.1c0 93.108-17.403 109.39 126.31 109.39 143.71 0 206.11-2.7132 206.11-95.679 0-93.108-40.696-177.79-184.41-177.79-143.71 0-148 70.974-148 164.08z" fill="#1a1a1a" stroke="#000" stroke-width="6.9605"/><path transform="translate(407.17 1399.2)" d="m822.7 1790.5c-79.686 69.599-108.05 154.9-117.97 218.43-0.71144 0.0348-1.4888 0.2451-2.3398 0.6524 0 0-40.926 127.82-40.926 260.65s-21.461 241.36 4.8496 241.36c26.311 0 8.0006-108.52 18.068-244.71 5.0944-68.913 16.173-138.78 22.301-188.41 73.67-208 73.443-250.76 121.45-279.03l-5.4375-8.9375z" fill-opacity=".24581" fill-rule="evenodd"/><path d="m1585.4 3052.2-10.266 73.862c-97.342 75.986-186.9 105.67-339.87 105.67-157.93 0-285.57-37.993-382.91-113.98l25.329-65.557c108.77 40.725 226.72 58.107 353.86 52.148 127.14 5.9597 245.09-11.423 353.86-52.148" fill="url(#x)" stroke="#000" stroke-width="10"/><g transform="matrix(-4.941 11.381 10.179 5.047 -5141.7 -3103.3)" fill="#deaa87"><g transform="matrix(.95365 -.27172 .26414 .97335 -181.39 87.689)" fill="#deaa87" stroke="#000"><path d="m239.62 685.95c2.36 1.31 4.275 2.852 4.715 3.7413 1.9 3.77 1.0727 3.7587 1.3463 8.2252-0.84 1.4-1.0791 3.9257-1.8791 6.2957-0.37 1.09-3.0593 2.1526-5.0693 2.1126-0.63-0.01-1.38 0.39-2.08 0.47-1.11 0.11-2.2778-0.26722-3.0678-0.28722-6.233-1.982-0.61968-6.0793-1.4424-5.2076 1.04-4.43 0.15421-4.846-0.30753-7.1892-0.42 1.32 1.0628 3.5844 0.38557 5.837-0.6646 1.0368-0.42522 2.6581-2.0952 1.4181-1.6222-5.4704-4.7941-8.65 2.8059-13.727" stroke-linecap="round" stroke-linejoin="round" stroke-width=".96927"/><path d="m239.9 696.85-0.61865 4.6414-3.7997 5.2881" stroke-width=".93446px"/><path d="m242.67 697.02-0.38935 4.3474-2.8142 4.8362" stroke-width="1px"/><path d="m236.5 696.65-0.66 5.26-3.9617 4.3856" stroke-width="1px"/></g></g><path d="m1577.2 3052.4c-100.34 398.06 64.873 881.92 64.873 881.92l-13.326-184.1c-14.502-85.945-30.542-162.77-37.496-203.79 0 0-33.954-113.61-11.164-419.69 1.7589-23.623-2.9467-48.395-2.8868-74.348z" fill-opacity=".26786" fill-rule="evenodd"/><g transform="matrix(4.941 11.381 -10.179 5.047 7616.4 -3146.1)" fill="#deaa87"><g transform="matrix(.95365 -.27172 .26414 .97335 -181.39 87.689)" fill="#deaa87" stroke="#000"><path d="m239.62 685.95c2.36 1.31 4.275 2.852 4.715 3.7413 1.9 3.77 1.0727 3.7587 1.3463 8.2252-0.84 1.4-1.0791 3.9257-1.8791 6.2957-0.37 1.09-3.0593 2.1526-5.0693 2.1126-0.63-0.01-1.38 0.39-2.08 0.47-1.11 0.11-2.2778-0.26722-3.0678-0.28722-6.233-1.982-0.61968-6.0793-1.4424-5.2076 1.04-4.43 0.15421-4.846-0.30753-7.1892-0.42 1.32 1.0628 3.5844 0.38557 5.837-0.6646 1.0368-0.42522 2.6581-2.0952 1.4181-1.6222-5.4704-4.7941-8.65 2.8059-13.727" stroke-linecap="round" stroke-linejoin="round" stroke-width=".96927"/><path d="m239.9 696.85-0.61865 4.6414-3.7997 5.2881" stroke-width=".93446px"/><path d="m242.67 697.02-0.38935 4.3474-2.8142 4.8362" stroke-width="1px"/><path d="m236.5 696.65-0.66 5.26-3.9617 4.3856" stroke-width="1px"/></g></g><path d="m901.99 2205.8c-78.734 45.321-328.09 413.2-340.86 426.17-60.493 61.416 211.91 388.39 164.56 388.44l157.05-111.02-113.28-239.1s138.87-230.69 207.18-294.66c-56.249 268.94-45.594 365.01-71.142 592.71 3.4346 113.05 127.41 102.55 355.72 88.648 286.62-12.068 290.49-5.4244 284.82-99.117 28.97-245.58 4.5247-363.85-0.135-573.6 64.875 49.296 175.34 224.15 175.34 224.15l-96.429 260.52 103.51 138.01c52.463-105.99 193.93-244.97 191.81-397.96-2.1217-152.98-258.19-370.79-329.84-409.52-22.626-0.1626-117.35-6.7173-145.22 1.1223 0 0-116.3 86.376-184.24 86.315-67.941-0.061-186.41-83.366-186.41-83.366-39.106-1.2516-102.08 2.6299-172.43 2.254z" fill="url(#y)" stroke="#000" stroke-linecap="round" stroke-linejoin="round" stroke-width="11.703"/><path d="m972.35 2370.2c-58.453-11.845-205.72 292.84-205.72 292.84" fill-opacity=".2619" fill-rule="evenodd"/><path d="m1909.4 2700.6c-171.66 172.27-180.05 308.7-180.05 308.7" fill-opacity=".32667" fill-rule="evenodd"/><g transform="matrix(-.52032 -.42898 -.89105 .3054 1270.6 3115.5)"><g transform="translate(5.2157 -.41649)"><ellipse cx="392.26" cy="177.62" rx="1.4322" ry="1.4015"/><path d="m392.54 178.26-0.0877 0.31116 2.2059 0.70647-0.12297 0.38558 0.36062 0.0713 0.14828-0.61731z"/><path d="m392.93 177.74-0.0292 0.32197 2.298 0.29011-0.0502 0.40159 0.36759 4e-3 0.0326-0.63403z"/><path d="m392.7 176.94 0.0535 0.31884 2.2964-0.30274 0.0534 0.40118 0.35657-0.0894-0.12942-0.62153z"/><path d="m392.6 176.52 0.1533 0.28464 2.0766-1.026 0.17973 0.36262 0.3088-0.19944-0.32264-0.54677z"/><path d="m392.09 178.03 0.0877 0.31116-2.2059 0.70647 0.12297 0.38558-0.36062 0.0713-0.14828-0.61731z"/><path d="m392.04 177.8-0.0562 0.31837-2.2937-0.32239-0.0568 0.40071-0.35578-0.0925 0.13473-0.62041z"/><path d="m391.47 176.8-0.0336 0.32154-2.3107-0.1595-0.0284 0.40373-0.36144-0.0671 0.0906-0.62837z"/><path d="m392.07 176.58-0.1533 0.28464-2.0766-1.026-0.17973 0.36262-0.3088-0.19944 0.32264-0.54677z"/><ellipse id="ab" cx="391.81" cy="178.31" rx=".11328" ry=".10938" fill="#fff"/><g id="r"><use width="100%" height="100%" xlink:href="#ab"/><ellipse cx="391.83" cy="178.36" rx=".044922" ry=".03125"/></g><use width="100%" height="100%" xlink:href="#r"/><use transform="translate(0 .24062)" width="100%" height="100%" xlink:href="#r"/><use transform="translate(.27188)" width="100%" height="100%" xlink:href="#r"/><use transform="translate(.27188 .24062)" width="100%" height="100%" xlink:href="#r"/><use transform="translate(.54375)" width="100%" height="100%" xlink:href="#r"/><use transform="translate(.54375 .24062)" width="100%" height="100%" xlink:href="#r"/><use transform="translate(.81562)" width="100%" height="100%" xlink:href="#r"/><use transform="translate(.81562 .24062)" width="100%" height="100%" xlink:href="#r"/></g></g><path d="m918.75 2994.7c-11.667 3.9988-11.695 4.0083-11.695 4.0083" fill-rule="evenodd" stroke="#000" stroke-width=".022069"/><path d="m1107.9 4042.3c0 93.108 17.403 109.39-126.31 109.39-143.71 0-206.11-2.7131-206.11-95.679 0-93.108 40.696-177.79 184.41-177.79 143.71 0 148 70.974 148 164.08z" fill="#1a1a1a" stroke="#000" stroke-width="6.9605"/><path d="m763.15 2664.9c-42.061 30.11 121.87 256.38 121.87 256.38" fill-opacity=".2619" fill-rule="evenodd"/><g transform="matrix(1.7145 0 0 1.7145 591.03 464.94)"><ellipse cx="208.57" cy="770.1" rx="57.073" ry="53.788" fill="#deaa87" stroke="#000" stroke-linecap="round" stroke-linejoin="bevel" stroke-width="4.9832"/><ellipse cx="573.18" cy="775.03" rx="57.073" ry="53.788" fill="#deaa87" stroke="#000" stroke-linecap="round" stroke-linejoin="bevel" stroke-width="4.9832"/><path d="m390.91 641c-70.062 0.15338-136.35 13.475-171.3 76.409-35.11 63.088-20.231 136.43 1.811 205.03 6.9274 21.591 27.501 38.128 41.513 51.604 35.582 34.298 79.167 48.08 129.08 48.233v0h1.5744v0c49.91-0.1533 89.717-13.934 125.3-48.233 14.013-13.475 29.749-30.704 36.676-52.295 22.04-68.6 41.599-141.26 6.6484-204.34-34.953-62.934-101.24-76.256-171.3-76.409z" fill="#deaa87" stroke="#1a1a1a" stroke-linecap="round" stroke-linejoin="bevel" stroke-width="9.3162px"/><path d="m466.8 923.37c0 20.978-35.897 37.822-80.297 37.822-42.982 0-78.249-15.925-80.139-36.138z"/><path d="m466.8 923.37c0 20.978-35.897 37.822-80.297 37.822-42.982 0-78.249-15.925-80.139-36.138" fill="none" stroke="#000" stroke-width="1.8632px"/><path d="m400.04 949.86c9.4467 0.61274 17.161 2.6031 20.94 7.6563-5.9829 0.76561-11.651 1.5313-18.264 1.8375-1.417-4.4406-5.9829-6.5844-11.966-9.0344 2.6766-0.45937 5.8255-0.76567 9.2893-0.45937zm-9.2893 0.45937c-0.1578 0.15337-0.31463 0.15337-0.31463 0.15337 5.8255 2.45 16.217 8.7282 11.808 9.1876-12.753 1.5312-26.608 1.3781-40.778-0.30599-2.0462-0.15338-4.093-0.4594-6.1398-0.7657 1.8893-7.0438 11.965-11.638 24.088-10.872 4.0936 0.306 7.8722 1.3781 11.336 2.6031z" fill="#f00" stroke="#000" stroke-width="2.329px"/><path d="m209.95 734.91c-13.826 33.638-12.785 69.971-8.9861 106.23l378.53-2.0732c3.7719-36.255 2.2308-70.861-11.543-104.5z" fill="url(#w)" stroke="#000" stroke-linecap="round" stroke-linejoin="bevel" stroke-width="4.5049"/><path d="m476.24 814.41c-37.137 1.2393-69.059-17.144-69.059-17.144s27.971-29.537 65.108-30.776c37.137-1.1361 73.641 11.67 73.641 11.67s-32.554 35.01-69.691 36.25z" fill="#fff" stroke="#000" stroke-width="2.044px"/><path d="m464.12 811.89c-13.068 0.61274-24.089-7.9626-24.719-19.293-0.63005-11.178 9.2893-20.825 22.357-21.437 12.91-0.61274 23.932 7.9624 24.561 19.141 0.63005 11.331-9.2892 20.978-22.2 21.59z" fill="#052" stroke="#000" stroke-width="2.1738px"/><path d="m416.89 874.77c0-5.2063-6.1404-10.106-15.902-12.709-9.919-2.6032-22.042-2.6032-31.961 0-9.761 2.6031-15.901 7.5031-15.901 12.709" fill="none" stroke="#000" stroke-linecap="round" stroke-linejoin="bevel" stroke-width="2.9501px"/><path d="m304.79 813.66c37.136 1.6525 69.374-16.422 69.374-16.422s-27.18-29.746-64.475-31.398c-37.136-1.5493-73.957 10.948-73.957 10.948s31.764 35.323 69.058 36.872z" fill="#fff" stroke="#000" stroke-width="2.0441px"/><path d="m316.6 811.89c12.91 0.76562 24.089-7.6563 24.876-18.834 0.94465-11.331-8.9742-21.131-21.885-21.897-13.068-0.76559-24.089 7.6561-25.034 18.834-0.78721 11.178 9.1318 20.978 22.042 21.896z" fill="#052" stroke="#000" stroke-width="2.1738px"/><g transform="matrix(1.1632 -.35062 .56707 .71923 -283.65 502.53)"><path d="m393.32 390.55c20.017 70.764 82.405 66.635 128.41 52.109 46-14.526 48.453 13.26 48.453 13.26s6.4512-52.259-78.304-89.353-98.553 23.984-98.553 23.984z" fill="#00d400"/><path d="m549 405.47c9.6129 10.773 16.243 22.672 19.283 34.606 0.82493 3.2388 1.8836 9.5614 1.5478 9.2439-0.0733-0.0694-0.62072-1.2048-1.2164-2.5233-3.2741-7.247-8.8823-15.855-13.081-20.078-0.59775-0.60112-1.5255-1.6369-2.0615-2.3018l-0.97476-1.2088 0.90294-0.14942c1.3225-0.21885 2.4899-1.254 2.7685-2.455 0.21473-0.92566 0.19401-0.97694-0.40628-1.0084-0.58622-0.0308-0.64784 0.0229-0.84232 0.73408-0.2795 1.0218-1.0887 1.4752-2.7778 1.5564-1.3082 0.0629-1.3876 0.0283-2.4958-1.0857-1.632-1.6407-6.2832-5.3468-9.6113-7.6584-8.7213-6.0576-21.216-12.054-32.066-15.389-1.5422-0.47398-2.7619-0.90376-2.7103-0.95505 0.0516-0.0512 0.61898-0.25505 1.2609-0.45282 1.7851-0.54994 3.6117-2.4517 3.9555-4.1181 0.51081-2.4764-0.55336-5.9521-2.973-9.7096-1.0047-1.5601-1.2214-1.7949-1.583-1.7144-0.73854 0.16442-0.67124 0.4973 0.457 2.2602 1.3286 2.0759 2.1805 3.935 2.7049 5.9028 1.0179 3.8194-0.85365 6.1197-5.4755 6.7298-1.1773 0.1554-2.353-0.0191-5.2146-0.774-11.962-3.1555-26.23-5.4925-40.294-6.5997l-2.6546-0.20899 0.99999-1.2481c2.1863-2.7288 2.776-6.985 1.7366-12.535-0.53979-2.8826-2.4234-9.2436-2.8702-9.6928-0.17696-0.17789-1.2068 0.18537-1.1438 0.40348 0.015 0.0519 0.46331 1.3365 0.99626 2.8545 1.3591 3.8712 2.2648 8.5412 2.2371 11.535-0.0347 3.7477-1.0607 6.2429-3.2196 7.83-0.86181 0.63353-1.2086 0.65694-6.0967 0.41148-7.5807-0.38067-23.793-0.37591-32.009 9e-3 -7.0379 0.33008-17.384 1.0652-20.449 1.453-0.86138 0.109-1.6171 0.15386-1.6793 0.0997-0.35018-0.3048 2.214-6.2229 4.2762-9.8696 2.539-4.4897 3.8096-6.1227 8.0345-10.325 5.0155-4.9892 8.5978-7.4506 14.473-9.9448 18.898-8.0223 44.04-4.8124 75.502 9.6394 22.201 10.198 40.384 22.856 52.77 36.737z" fill="url(#s)"/><path d="m555.37 428.35c3.6583 4.2516 6.6252 8.5106 9.2628 13.297 1.5601 2.8312 4.2147 8.4911 3.9822 8.4905-0.0851-2.3e-4 -0.52842-0.64819-0.98516-1.44-1.1807-2.0467-4.401-5.1906-6.7397-6.5799-5.8965-3.5028-13.785-4.5648-23.701-3.1907-4.6806 0.64857-9.0722 1.6908-17.118 4.0627-11.423 3.3674-20.882 5.5351-29.36 6.7284-40.206 5.6594-69.507-5.7022-86.293-33.461-3.1005-5.1274-5.4577-10.023-7.7114-16.017-1.036-2.755-3.1056-8.9627-3.1563-9.4669-0.0327-0.32518 12.547-1.3616 20.916-1.7233 5.4105-0.23382 5.3911-0.23783 8.2169 1.6913 5.7344 3.9146 8.5725 9.6726 8.4571 17.158-0.0666 4.3218-1.1764 9.2239-3.1101 13.737-0.77948 1.8193-0.82797 2.0978-0.4047 2.3239 0.26451 0.14134 0.51787 0.2603 0.56302 0.26444 0.18431 0.0169 2.2058-5.0345 2.6995-6.7453 2.2777-7.8946 2.0561-14.487-0.67609-20.113-1.0491-2.1602-1.2453-2.4201-3.6862-4.8821-1.5085-1.5222-2.9585-2.8047-3.4952-3.093-0.50439-0.27089-0.91697-0.5363-0.91682-0.58979 5.8e-4 -0.23285 13.919-0.26199 20.194-0.0423 14.293 0.5004 25.15 1.4984 36.726 3.3758l3.4341 0.55696 2.597 2.705c2.1066 2.1941 2.7426 2.9974 3.368 4.2533 2.2595 4.5371 2.3189 10.143 0.17149 16.183-1.5849 4.4582-4.4457 9.4273-7.8156 13.576-1.7776 2.1882-1.8461 2.3151-1.4585 2.7047 0.35171 0.35358 0.49683 0.31815 1.0748-0.2624 1.2152-1.2201 3.8768-4.8982 5.5645-7.6884 3.804-6.2887 5.4451-11.399 5.4465-16.962 1e-3 -4.6931-1.3808-8.257-4.6257-11.929l-1.906-2.1569 4.4433 0.96381c9.4782 2.056 17.503 4.409 25.622 7.5126 5.1166 1.9561 11.319 4.7075 12.382 5.4933 0.42915 0.31713 0.82157 1.0519 1.2918 2.4191 2.0112 5.8472 0.91512 12.101-3.2195 18.37-0.5714 0.86633-1.284 1.8189-1.5835 2.1169-0.42303 0.42081-0.45742 0.58082-0.15419 0.71682 0.21472 0.0963 0.47323 0.25836 0.57446 0.36012 0.21342 0.21455 1.5438-1.4029 2.8214-3.4302 3.6658-5.8169 4.7318-12.14 3.009-17.847l-0.4759-1.5766 1.3271 0.72985c9.1 5.0045 18.424 12.406 24.448 19.407z" fill="url(#t)"/></g><path d="m492.07 595.8c50.526-2.869 73.726 13.389 73.726 13.389s-28.356-4.463-36.09 1.9127c-7.7336 6.3756-7.7336 35.066-32.996 36.023-25.263 0.95637-41.245-4.1442-41.245-4.1442z" opacity=".15"/><g transform="matrix(-1.1632 -.35062 -.56707 .71923 1076.2 505.24)"><path d="m393.32 390.55c20.017 70.764 82.405 66.635 128.41 52.109 46-14.526 48.453 13.26 48.453 13.26s6.4512-52.259-78.304-89.353-98.553 23.984-98.553 23.984z" fill="#00d400"/><path d="m549 405.47c9.6129 10.773 16.243 22.672 19.283 34.606 0.82493 3.2388 1.8836 9.5614 1.5478 9.2439-0.0733-0.0694-0.62072-1.2048-1.2164-2.5233-3.2741-7.247-8.8823-15.855-13.081-20.078-0.59775-0.60112-1.5255-1.6369-2.0615-2.3018l-0.97476-1.2088 0.90294-0.14942c1.3225-0.21885 2.4899-1.254 2.7685-2.455 0.21473-0.92566 0.19401-0.97694-0.40628-1.0084-0.58622-0.0308-0.64784 0.0229-0.84232 0.73408-0.2795 1.0218-1.0887 1.4752-2.7778 1.5564-1.3082 0.0629-1.3876 0.0283-2.4958-1.0857-1.632-1.6407-6.2832-5.3468-9.6113-7.6584-8.7213-6.0576-21.216-12.054-32.066-15.389-1.5422-0.47398-2.7619-0.90376-2.7103-0.95505 0.0516-0.0512 0.61898-0.25505 1.2609-0.45282 1.7851-0.54994 3.6117-2.4517 3.9555-4.1181 0.51081-2.4764-0.55336-5.9521-2.973-9.7096-1.0047-1.5601-1.2214-1.7949-1.583-1.7144-0.73854 0.16442-0.67124 0.4973 0.457 2.2602 1.3286 2.0759 2.1805 3.935 2.7049 5.9028 1.0179 3.8194-0.85365 6.1197-5.4755 6.7298-1.1773 0.1554-2.353-0.0191-5.2146-0.774-11.962-3.1555-26.23-5.4925-40.294-6.5997l-2.6546-0.20899 0.99999-1.2481c2.1863-2.7288 2.776-6.985 1.7366-12.535-0.53979-2.8826-2.4234-9.2436-2.8702-9.6928-0.17696-0.17789-1.2068 0.18537-1.1438 0.40348 0.015 0.0519 0.46331 1.3365 0.99626 2.8545 1.3591 3.8712 2.2648 8.5412 2.2371 11.535-0.0347 3.7477-1.0607 6.2429-3.2196 7.83-0.86181 0.63353-1.2086 0.65694-6.0967 0.41148-7.5807-0.38067-23.793-0.37591-32.009 9e-3 -7.0379 0.33008-17.384 1.0652-20.449 1.453-0.86138 0.109-1.6171 0.15386-1.6793 0.0997-0.35018-0.3048 2.214-6.2229 4.2762-9.8696 2.539-4.4897 3.8096-6.1227 8.0345-10.325 5.0155-4.9892 8.5978-7.4506 14.473-9.9448 18.898-8.0223 44.04-4.8124 75.502 9.6394 22.201 10.198 40.384 22.856 52.77 36.737z" fill="url(#s)"/><path d="m555.37 428.35c3.6583 4.2516 6.6252 8.5106 9.2628 13.297 1.5601 2.8312 4.2147 8.4911 3.9822 8.4905-0.0851-2.3e-4 -0.52842-0.64819-0.98516-1.44-1.1807-2.0467-4.401-5.1906-6.7397-6.5799-5.8965-3.5028-13.785-4.5648-23.701-3.1907-4.6806 0.64857-9.0722 1.6908-17.118 4.0627-11.423 3.3674-20.882 5.5351-29.36 6.7284-40.206 5.6594-69.507-5.7022-86.293-33.461-3.1005-5.1274-5.4577-10.023-7.7114-16.017-1.036-2.755-3.1056-8.9627-3.1563-9.4669-0.0327-0.32518 12.547-1.3616 20.916-1.7233 5.4105-0.23382 5.3911-0.23783 8.2169 1.6913 5.7344 3.9146 8.5725 9.6726 8.4571 17.158-0.0666 4.3218-1.1764 9.2239-3.1101 13.737-0.77948 1.8193-0.82797 2.0978-0.4047 2.3239 0.26451 0.14134 0.51787 0.2603 0.56302 0.26444 0.18431 0.0169 2.2058-5.0345 2.6995-6.7453 2.2777-7.8946 2.0561-14.487-0.67609-20.113-1.0491-2.1602-1.2453-2.4201-3.6862-4.8821-1.5085-1.5222-2.9585-2.8047-3.4952-3.093-0.50439-0.27089-0.91697-0.5363-0.91682-0.58979 5.8e-4 -0.23285 13.919-0.26199 20.194-0.0423 14.293 0.5004 25.15 1.4984 36.726 3.3758l3.4341 0.55696 2.597 2.705c2.1066 2.1941 2.7426 2.9974 3.368 4.2533 2.2595 4.5371 2.3189 10.143 0.17149 16.183-1.5849 4.4582-4.4457 9.4273-7.8156 13.576-1.7776 2.1882-1.8461 2.3151-1.4585 2.7047 0.35171 0.35358 0.49683 0.31815 1.0748-0.2624 1.2152-1.2201 3.8768-4.8982 5.5645-7.6884 3.804-6.2887 5.4451-11.399 5.4465-16.962 1e-3 -4.6931-1.3808-8.257-4.6257-11.929l-1.906-2.1569 4.4433 0.96381c9.4782 2.056 17.503 4.409 25.622 7.5126 5.1166 1.9561 11.319 4.7075 12.382 5.4933 0.42915 0.31713 0.82157 1.0519 1.2918 2.4191 2.0112 5.8472 0.91512 12.101-3.2195 18.37-0.5714 0.86633-1.284 1.8189-1.5835 2.1169-0.42303 0.42081-0.45742 0.58082-0.15419 0.71682 0.21472 0.0963 0.47323 0.25836 0.57446 0.36012 0.21342 0.21455 1.5438-1.4029 2.8214-3.4302 3.6658-5.8169 4.7318-12.14 3.009-17.847l-0.4759-1.5766 1.3271 0.72985c9.1 5.0045 18.424 12.406 24.448 19.407z" fill="url(#t)"/></g><path d="m293.13 599.08c-19.686-0.21245-31.717 7.2234-31.717 7.2234s16.405-3.3993 24.426 5.0989c8.0204 8.4982-4.3748 24.857 29.894 33.78 34.269 8.9231 54.32 5.5238 54.32 5.5238z" opacity=".15"/><g transform="matrix(.59456 -.71069 1.1494 .36762 -289.12 788.57)"><path d="m393.32 390.55c20.017 70.764 82.405 66.635 128.41 52.109 46-14.526 48.453 13.26 48.453 13.26s6.4512-52.259-78.304-89.353-98.553 23.984-98.553 23.984z" fill="#00d400"/><path d="m549 405.47c9.6129 10.773 16.243 22.672 19.283 34.606 0.82493 3.2388 1.8836 9.5614 1.5478 9.2439-0.0733-0.0694-0.62072-1.2048-1.2164-2.5233-3.2741-7.247-8.8823-15.855-13.081-20.078-0.59775-0.60112-1.5255-1.6369-2.0615-2.3018l-0.97476-1.2088 0.90294-0.14942c1.3225-0.21885 2.4899-1.254 2.7685-2.455 0.21473-0.92566 0.19401-0.97694-0.40628-1.0084-0.58622-0.0308-0.64784 0.0229-0.84232 0.73408-0.2795 1.0218-1.0887 1.4752-2.7778 1.5564-1.3082 0.0629-1.3876 0.0283-2.4958-1.0857-1.632-1.6407-6.2832-5.3468-9.6113-7.6584-8.7213-6.0576-21.216-12.054-32.066-15.389-1.5422-0.47398-2.7619-0.90376-2.7103-0.95505 0.0516-0.0512 0.61898-0.25505 1.2609-0.45282 1.7851-0.54994 3.6117-2.4517 3.9555-4.1181 0.51081-2.4764-0.55336-5.9521-2.973-9.7096-1.0047-1.5601-1.2214-1.7949-1.583-1.7144-0.73854 0.16442-0.67124 0.4973 0.457 2.2602 1.3286 2.0759 2.1805 3.935 2.7049 5.9028 1.0179 3.8194-0.85365 6.1197-5.4755 6.7298-1.1773 0.1554-2.353-0.0191-5.2146-0.774-11.962-3.1555-26.23-5.4925-40.294-6.5997l-2.6546-0.20899 0.99999-1.2481c2.1863-2.7288 2.776-6.985 1.7366-12.535-0.53979-2.8826-2.4234-9.2436-2.8702-9.6928-0.17696-0.17789-1.2068 0.18537-1.1438 0.40348 0.015 0.0519 0.46331 1.3365 0.99626 2.8545 1.3591 3.8712 2.2648 8.5412 2.2371 11.535-0.0347 3.7477-1.0607 6.2429-3.2196 7.83-0.86181 0.63353-1.2086 0.65694-6.0967 0.41148-7.5807-0.38067-23.793-0.37591-32.009 9e-3 -7.0379 0.33008-17.384 1.0652-20.449 1.453-0.86138 0.109-1.6171 0.15386-1.6793 0.0997-0.35018-0.3048 2.214-6.2229 4.2762-9.8696 2.539-4.4897 3.8096-6.1227 8.0345-10.325 5.0155-4.9892 8.5978-7.4506 14.473-9.9448 18.898-8.0223 44.04-4.8124 75.502 9.6394 22.201 10.198 40.384 22.856 52.77 36.737z" fill="url(#s)"/><path d="m555.37 428.35c3.6583 4.2516 6.6252 8.5106 9.2628 13.297 1.5601 2.8312 4.2147 8.4911 3.9822 8.4905-0.0851-2.3e-4 -0.52842-0.64819-0.98516-1.44-1.1807-2.0467-4.401-5.1906-6.7397-6.5799-5.8965-3.5028-13.785-4.5648-23.701-3.1907-4.6806 0.64857-9.0722 1.6908-17.118 4.0627-11.423 3.3674-20.882 5.5351-29.36 6.7284-40.206 5.6594-69.507-5.7022-86.293-33.461-3.1005-5.1274-5.4577-10.023-7.7114-16.017-1.036-2.755-3.1056-8.9627-3.1563-9.4669-0.0327-0.32518 12.547-1.3616 20.916-1.7233 5.4105-0.23382 5.3911-0.23783 8.2169 1.6913 5.7344 3.9146 8.5725 9.6726 8.4571 17.158-0.0666 4.3218-1.1764 9.2239-3.1101 13.737-0.77948 1.8193-0.82797 2.0978-0.4047 2.3239 0.26451 0.14134 0.51787 0.2603 0.56302 0.26444 0.18431 0.0169 2.2058-5.0345 2.6995-6.7453 2.2777-7.8946 2.0561-14.487-0.67609-20.113-1.0491-2.1602-1.2453-2.4201-3.6862-4.8821-1.5085-1.5222-2.9585-2.8047-3.4952-3.093-0.50439-0.27089-0.91697-0.5363-0.91682-0.58979 5.8e-4 -0.23285 13.919-0.26199 20.194-0.0423 14.293 0.5004 25.15 1.4984 36.726 3.3758l3.4341 0.55696 2.597 2.705c2.1066 2.1941 2.7426 2.9974 3.368 4.2533 2.2595 4.5371 2.3189 10.143 0.17149 16.183-1.5849 4.4582-4.4457 9.4273-7.8156 13.576-1.7776 2.1882-1.8461 2.3151-1.4585 2.7047 0.35171 0.35358 0.49683 0.31815 1.0748-0.2624 1.2152-1.2201 3.8768-4.8982 5.5645-7.6884 3.804-6.2887 5.4451-11.399 5.4465-16.962 1e-3 -4.6931-1.3808-8.257-4.6257-11.929l-1.906-2.1569 4.4433 0.96381c9.4782 2.056 17.503 4.409 25.622 7.5126 5.1166 1.9561 11.319 4.7075 12.382 5.4933 0.42915 0.31713 0.82157 1.0519 1.2918 2.4191 2.0112 5.8472 0.91512 12.101-3.2195 18.37-0.5714 0.86633-1.284 1.8189-1.5835 2.1169-0.42303 0.42081-0.45742 0.58082-0.15419 0.71682 0.21472 0.0963 0.47323 0.25836 0.57446 0.36012 0.21342 0.21455 1.5438-1.4029 2.8214-3.4302 3.6658-5.8169 4.7318-12.14 3.009-17.847l-0.4759-1.5766 1.3271 0.72985c9.1 5.0045 18.424 12.406 24.448 19.407z" fill="url(#t)"/></g><path d="m214.02 738.4c152.57-2.9304 183.5-34.687 183.5-34.687s-0.48865 7.8184 58.935 21.107c50.168 11.219 90.454-23.55 90.454-23.55l-14.457-17.617-135.06-6.1698-170.39 35.118z" opacity=".15"/><g transform="matrix(1.4218 .1262 -.31205 .89709 -67.816 263.86)"><path d="m393.32 390.55c20.017 70.764 82.405 66.635 128.41 52.109 46-14.526 48.453 13.26 48.453 13.26s6.4512-52.259-78.304-89.353-98.553 23.984-98.553 23.984z" fill="#00d400"/><path d="m549 405.47c9.6129 10.773 16.243 22.672 19.283 34.606 0.82493 3.2388 1.8836 9.5614 1.5478 9.2439-0.0733-0.0694-0.62072-1.2048-1.2164-2.5233-3.2741-7.247-8.8823-15.855-13.081-20.078-0.59775-0.60112-1.5255-1.6369-2.0615-2.3018l-0.97476-1.2088 0.90294-0.14942c1.3225-0.21885 2.4899-1.254 2.7685-2.455 0.21473-0.92566 0.19401-0.97694-0.40628-1.0084-0.58622-0.0308-0.64784 0.0229-0.84232 0.73408-0.2795 1.0218-1.0887 1.4752-2.7778 1.5564-1.3082 0.0629-1.3876 0.0283-2.4958-1.0857-1.632-1.6407-6.2832-5.3468-9.6113-7.6584-8.7213-6.0576-21.216-12.054-32.066-15.389-1.5422-0.47398-2.7619-0.90376-2.7103-0.95505 0.0516-0.0512 0.61898-0.25505 1.2609-0.45282 1.7851-0.54994 3.6117-2.4517 3.9555-4.1181 0.51081-2.4764-0.55336-5.9521-2.973-9.7096-1.0047-1.5601-1.2214-1.7949-1.583-1.7144-0.73854 0.16442-0.67124 0.4973 0.457 2.2602 1.3286 2.0759 2.1805 3.935 2.7049 5.9028 1.0179 3.8194-0.85365 6.1197-5.4755 6.7298-1.1773 0.1554-2.353-0.0191-5.2146-0.774-11.962-3.1555-26.23-5.4925-40.294-6.5997l-2.6546-0.20899 0.99999-1.2481c2.1863-2.7288 2.776-6.985 1.7366-12.535-0.53979-2.8826-2.4234-9.2436-2.8702-9.6928-0.17696-0.17789-1.2068 0.18537-1.1438 0.40348 0.015 0.0519 0.46331 1.3365 0.99626 2.8545 1.3591 3.8712 2.2648 8.5412 2.2371 11.535-0.0347 3.7477-1.0607 6.2429-3.2196 7.83-0.86181 0.63353-1.2086 0.65694-6.0967 0.41148-7.5807-0.38067-23.793-0.37591-32.009 9e-3 -7.0379 0.33008-17.384 1.0652-20.449 1.453-0.86138 0.109-1.6171 0.15386-1.6793 0.0997-0.35018-0.3048 2.214-6.2229 4.2762-9.8696 2.539-4.4897 3.8096-6.1227 8.0345-10.325 5.0155-4.9892 8.5978-7.4506 14.473-9.9448 18.898-8.0223 44.04-4.8124 75.502 9.6394 22.201 10.198 40.384 22.856 52.77 36.737z" fill="url(#s)"/><path d="m555.37 428.35c3.6583 4.2516 6.6252 8.5106 9.2628 13.297 1.5601 2.8312 4.2147 8.4911 3.9822 8.4905-0.0851-2.3e-4 -0.52842-0.64819-0.98516-1.44-1.1807-2.0467-4.401-5.1906-6.7397-6.5799-5.8965-3.5028-13.785-4.5648-23.701-3.1907-4.6806 0.64857-9.0722 1.6908-17.118 4.0627-11.423 3.3674-20.882 5.5351-29.36 6.7284-40.206 5.6594-69.507-5.7022-86.293-33.461-3.1005-5.1274-5.4577-10.023-7.7114-16.017-1.036-2.755-3.1056-8.9627-3.1563-9.4669-0.0327-0.32518 12.547-1.3616 20.916-1.7233 5.4105-0.23382 5.3911-0.23783 8.2169 1.6913 5.7344 3.9146 8.5725 9.6726 8.4571 17.158-0.0666 4.3218-1.1764 9.2239-3.1101 13.737-0.77948 1.8193-0.82797 2.0978-0.4047 2.3239 0.26451 0.14134 0.51787 0.2603 0.56302 0.26444 0.18431 0.0169 2.2058-5.0345 2.6995-6.7453 2.2777-7.8946 2.0561-14.487-0.67609-20.113-1.0491-2.1602-1.2453-2.4201-3.6862-4.8821-1.5085-1.5222-2.9585-2.8047-3.4952-3.093-0.50439-0.27089-0.91697-0.5363-0.91682-0.58979 5.8e-4 -0.23285 13.919-0.26199 20.194-0.0423 14.293 0.5004 25.15 1.4984 36.726 3.3758l3.4341 0.55696 2.597 2.705c2.1066 2.1941 2.7426 2.9974 3.368 4.2533 2.2595 4.5371 2.3189 10.143 0.17149 16.183-1.5849 4.4582-4.4457 9.4273-7.8156 13.576-1.7776 2.1882-1.8461 2.3151-1.4585 2.7047 0.35171 0.35358 0.49683 0.31815 1.0748-0.2624 1.2152-1.2201 3.8768-4.8982 5.5645-7.6884 3.804-6.2887 5.4451-11.399 5.4465-16.962 1e-3 -4.6931-1.3808-8.257-4.6257-11.929l-1.906-2.1569 4.4433 0.96381c9.4782 2.056 17.503 4.409 25.622 7.5126 5.1166 1.9561 11.319 4.7075 12.382 5.4933 0.42915 0.31713 0.82157 1.0519 1.2918 2.4191 2.0112 5.8472 0.91512 12.101-3.2195 18.37-0.5714 0.86633-1.284 1.8189-1.5835 2.1169-0.42303 0.42081-0.45742 0.58082-0.15419 0.71682 0.21472 0.0963 0.47323 0.25836 0.57446 0.36012 0.21342 0.21455 1.5438-1.4029 2.8214-3.4302 3.6658-5.8169 4.7318-12.14 3.009-17.847l-0.4759-1.5766 1.3271 0.72985c9.1 5.0045 18.424 12.406 24.448 19.407z" fill="url(#t)"/></g><path d="m406.22 651.42c32.996-0.79695 37.121-12.911 39.956-15.62 2.8356-2.7096 12.889-4.4629 17.53-3.9847 4.6402 0.47817 5.4135 0.63755 5.4135 0.63755s-10.311-10.839-28.872-9.2446c-18.561 1.5939-28.872 5.1004-28.872 5.1004s-13.663-18.967-25.521-21.677c-11.858-2.7096-11.858 4.1442-11.858 4.1442z" opacity=".15"/><g transform="matrix(.24639 -.25773 .41683 .15234 132.72 693.64)"><path d="m393.32 390.55c20.017 70.764 82.405 66.635 128.41 52.109 46-14.526 48.453 13.26 48.453 13.26s6.4512-52.259-78.304-89.353-98.553 23.984-98.553 23.984z" fill="#00d400"/><path d="m549 405.47c9.6129 10.773 16.243 22.672 19.283 34.606 0.82493 3.2388 1.8836 9.5614 1.5478 9.2439-0.0733-0.0694-0.62072-1.2048-1.2164-2.5233-3.2741-7.247-8.8823-15.855-13.081-20.078-0.59775-0.60112-1.5255-1.6369-2.0615-2.3018l-0.97476-1.2088 0.90294-0.14942c1.3225-0.21885 2.4899-1.254 2.7685-2.455 0.21473-0.92566 0.19401-0.97694-0.40628-1.0084-0.58622-0.0308-0.64784 0.0229-0.84232 0.73408-0.2795 1.0218-1.0887 1.4752-2.7778 1.5564-1.3082 0.0629-1.3876 0.0283-2.4958-1.0857-1.632-1.6407-6.2832-5.3468-9.6113-7.6584-8.7213-6.0576-21.216-12.054-32.066-15.389-1.5422-0.47398-2.7619-0.90376-2.7103-0.95505 0.0516-0.0512 0.61898-0.25505 1.2609-0.45282 1.7851-0.54994 3.6117-2.4517 3.9555-4.1181 0.51081-2.4764-0.55336-5.9521-2.973-9.7096-1.0047-1.5601-1.2214-1.7949-1.583-1.7144-0.73854 0.16442-0.67124 0.4973 0.457 2.2602 1.3286 2.0759 2.1805 3.935 2.7049 5.9028 1.0179 3.8194-0.85365 6.1197-5.4755 6.7298-1.1773 0.1554-2.353-0.0191-5.2146-0.774-11.962-3.1555-26.23-5.4925-40.294-6.5997l-2.6546-0.20899 0.99999-1.2481c2.1863-2.7288 2.776-6.985 1.7366-12.535-0.53979-2.8826-2.4234-9.2436-2.8702-9.6928-0.17696-0.17789-1.2068 0.18537-1.1438 0.40348 0.015 0.0519 0.46331 1.3365 0.99626 2.8545 1.3591 3.8712 2.2648 8.5412 2.2371 11.535-0.0347 3.7477-1.0607 6.2429-3.2196 7.83-0.86181 0.63353-1.2086 0.65694-6.0967 0.41148-7.5807-0.38067-23.793-0.37591-32.009 9e-3 -7.0379 0.33008-17.384 1.0652-20.449 1.453-0.86138 0.109-1.6171 0.15386-1.6793 0.0997-0.35018-0.3048 2.214-6.2229 4.2762-9.8696 2.539-4.4897 3.8096-6.1227 8.0345-10.325 5.0155-4.9892 8.5978-7.4506 14.473-9.9448 18.898-8.0223 44.04-4.8124 75.502 9.6394 22.201 10.198 40.384 22.856 52.77 36.737z" fill="url(#s)"/><path d="m555.37 428.35c3.6583 4.2516 6.6252 8.5106 9.2628 13.297 1.5601 2.8312 4.2147 8.4911 3.9822 8.4905-0.0851-2.3e-4 -0.52842-0.64819-0.98516-1.44-1.1807-2.0467-4.401-5.1906-6.7397-6.5799-5.8965-3.5028-13.785-4.5648-23.701-3.1907-4.6806 0.64857-9.0722 1.6908-17.118 4.0627-11.423 3.3674-20.882 5.5351-29.36 6.7284-40.206 5.6594-69.507-5.7022-86.293-33.461-3.1005-5.1274-5.4577-10.023-7.7114-16.017-1.036-2.755-3.1056-8.9627-3.1563-9.4669-0.0327-0.32518 12.547-1.3616 20.916-1.7233 5.4105-0.23382 5.3911-0.23783 8.2169 1.6913 5.7344 3.9146 8.5725 9.6726 8.4571 17.158-0.0666 4.3218-1.1764 9.2239-3.1101 13.737-0.77948 1.8193-0.82797 2.0978-0.4047 2.3239 0.26451 0.14134 0.51787 0.2603 0.56302 0.26444 0.18431 0.0169 2.2058-5.0345 2.6995-6.7453 2.2777-7.8946 2.0561-14.487-0.67609-20.113-1.0491-2.1602-1.2453-2.4201-3.6862-4.8821-1.5085-1.5222-2.9585-2.8047-3.4952-3.093-0.50439-0.27089-0.91697-0.5363-0.91682-0.58979 5.8e-4 -0.23285 13.919-0.26199 20.194-0.0423 14.293 0.5004 25.15 1.4984 36.726 3.3758l3.4341 0.55696 2.597 2.705c2.1066 2.1941 2.7426 2.9974 3.368 4.2533 2.2595 4.5371 2.3189 10.143 0.17149 16.183-1.5849 4.4582-4.4457 9.4273-7.8156 13.576-1.7776 2.1882-1.8461 2.3151-1.4585 2.7047 0.35171 0.35358 0.49683 0.31815 1.0748-0.2624 1.2152-1.2201 3.8768-4.8982 5.5645-7.6884 3.804-6.2887 5.4451-11.399 5.4465-16.962 1e-3 -4.6931-1.3808-8.257-4.6257-11.929l-1.906-2.1569 4.4433 0.96381c9.4782 2.056 17.503 4.409 25.622 7.5126 5.1166 1.9561 11.319 4.7075 12.382 5.4933 0.42915 0.31713 0.82157 1.0519 1.2918 2.4191 2.0112 5.8472 0.91512 12.101-3.2195 18.37-0.5714 0.86633-1.284 1.8189-1.5835 2.1169-0.42303 0.42081-0.45742 0.58082-0.15419 0.71682 0.21472 0.0963 0.47323 0.25836 0.57446 0.36012 0.21342 0.21455 1.5438-1.4029 2.8214-3.4302 3.6658-5.8169 4.7318-12.14 3.009-17.847l-0.4759-1.5766 1.3271 0.72985c9.1 5.0045 18.424 12.406 24.448 19.407z" fill="url(#t)"/></g><g transform="matrix(1.4583 0 0 .90165 -221.12 322.02)"><g transform="matrix(1.6107 .82757 -.69226 1.3473 61.759 -449.26)"><path d="m413.08 392.24c2.3272 0.75809 2.0937 3.2127 0.86084 3.7173-0.91907 0.37618-2.2112 0.0109-2.2112 0.0109z" opacity=".19731"/><circle cx="412.29" cy="394.06" r="1.9922" fill="#0f0"/><path d="m412.03 395.98c-0.14225-0.0252-0.22768-0.0479-0.35538-0.0943-0.12264-0.0446-0.18592-0.0741-0.18592-0.0868 0-0.0262 0.57503-0.85614 1.0733-1.549 0.24594-0.34201 1.1179-1.5354 1.1335-1.5513 3e-3 -3e-3 0.0376 0.0296 0.0769 0.0725 0.25221 0.27572 0.42528 0.64198 0.48519 1.0268 0.0179 0.11503 0.0179 0.43185 0 0.54687-0.12152 0.78054-0.68658 1.4101-1.4365 1.6003-0.23957 0.0608-0.56438 0.0751-0.79112 0.0349z" fill="url(#o)"/><path d="m412.31 392.09c-1.1002 0-2 0.89975-2 2 0 0.77614 0.44604 1.4524 1.0938 1.7812-0.30615-0.35027-0.5-0.81075-0.5-1.3125 0-1.1002 0.89975-2 2-2 0.32412 0 0.63576 0.0814 0.90625 0.21875-0.36518-0.41781-0.9015-0.6875-1.5-0.6875z" fill="url(#q)"/><circle cx="411.45" cy="393.38" r=".30936" fill="#fff" filter="url(#n)"/></g><g transform="matrix(.98782 .50753 -.42455 .8263 221.22 -112.42)"><path d="m413.08 392.24c2.3272 0.75809 2.0937 3.2127 0.86084 3.7173-0.91907 0.37618-2.2112 0.0109-2.2112 0.0109z" opacity=".19731"/><circle cx="412.29" cy="394.06" r="1.9922" fill="#0f0"/><path d="m412.03 395.98c-0.14225-0.0252-0.22768-0.0479-0.35538-0.0943-0.12264-0.0446-0.18592-0.0741-0.18592-0.0868 0-0.0262 0.57503-0.85614 1.0733-1.549 0.24594-0.34201 1.1179-1.5354 1.1335-1.5513 3e-3 -3e-3 0.0376 0.0296 0.0769 0.0725 0.25221 0.27572 0.42528 0.64198 0.48519 1.0268 0.0179 0.11503 0.0179 0.43185 0 0.54687-0.12152 0.78054-0.68658 1.4101-1.4365 1.6003-0.23957 0.0608-0.56438 0.0751-0.79112 0.0349z" fill="url(#o)"/><path d="m412.31 392.09c-1.1002 0-2 0.89975-2 2 0 0.77614 0.44604 1.4524 1.0938 1.7812-0.30615-0.35027-0.5-0.81075-0.5-1.3125 0-1.1002 0.89975-2 2-2 0.32412 0 0.63576 0.0814 0.90625 0.21875-0.36518-0.41781-0.9015-0.6875-1.5-0.6875z" fill="url(#q)"/><circle cx="411.45" cy="393.38" r=".30936" fill="#fff" filter="url(#n)"/></g><g transform="matrix(.54844 .28178 -.23571 .45876 316.62 131.03)"><path d="m413.08 392.24c2.3272 0.75809 2.0937 3.2127 0.86084 3.7173-0.91907 0.37618-2.2112 0.0109-2.2112 0.0109z" opacity=".19731"/><circle cx="412.29" cy="394.06" r="1.9922" fill="#0f0"/><path d="m412.03 395.98c-0.14225-0.0252-0.22768-0.0479-0.35538-0.0943-0.12264-0.0446-0.18592-0.0741-0.18592-0.0868 0-0.0262 0.57503-0.85614 1.0733-1.549 0.24594-0.34201 1.1179-1.5354 1.1335-1.5513 3e-3 -3e-3 0.0376 0.0296 0.0769 0.0725 0.25221 0.27572 0.42528 0.64198 0.48519 1.0268 0.0179 0.11503 0.0179 0.43185 0 0.54687-0.12152 0.78054-0.68658 1.4101-1.4365 1.6003-0.23957 0.0608-0.56438 0.0751-0.79112 0.0349z" fill="url(#o)"/><path d="m412.31 392.09c-1.1002 0-2 0.89975-2 2 0 0.77614 0.44604 1.4524 1.0938 1.7812-0.30615-0.35027-0.5-0.81075-0.5-1.3125 0-1.1002 0.89975-2 2-2 0.32412 0 0.63576 0.0814 0.90625 0.21875-0.36518-0.41781-0.9015-0.6875-1.5-0.6875z" fill="url(#q)"/><circle cx="411.45" cy="393.38" r=".30936" fill="#fff" filter="url(#n)"/></g></g><g transform="matrix(1.4583 0 0 .90165 -192.1 306.81)"><g transform="matrix(1.1517 .59175 -.495 .96342 201.17 -235.44)"><path d="m413.08 392.24c2.3272 0.75809 2.0937 3.2127 0.86084 3.7173-0.91907 0.37618-2.2112 0.0109-2.2112 0.0109z" opacity=".19731"/><circle cx="412.29" cy="394.06" r="1.9922" fill="#0f0"/><path d="m412.03 395.98c-0.14225-0.0252-0.22768-0.0479-0.35538-0.0943-0.12264-0.0446-0.18592-0.0741-0.18592-0.0868 0-0.0262 0.57503-0.85614 1.0733-1.549 0.24594-0.34201 1.1179-1.5354 1.1335-1.5513 3e-3 -3e-3 0.0376 0.0296 0.0769 0.0725 0.25221 0.27572 0.42528 0.64198 0.48519 1.0268 0.0179 0.11503 0.0179 0.43185 0 0.54687-0.12152 0.78054-0.68658 1.4101-1.4365 1.6003-0.23957 0.0608-0.56438 0.0751-0.79112 0.0349z" fill="url(#o)"/><path d="m412.31 392.09c-1.1002 0-2 0.89975-2 2 0 0.77614 0.44604 1.4524 1.0938 1.7812-0.30615-0.35027-0.5-0.81075-0.5-1.3125 0-1.1002 0.89975-2 2-2 0.32412 0 0.63576 0.0814 0.90625 0.21875-0.36518-0.41781-0.9015-0.6875-1.5-0.6875z" fill="url(#q)"/><circle cx="411.45" cy="393.38" r=".30936" fill="#fff" filter="url(#n)"/></g><g transform="matrix(.41944 .2155 -.18027 .35086 376.04 163.11)"><path d="m413.08 392.24c2.3272 0.75809 2.0937 3.2127 0.86084 3.7173-0.91907 0.37618-2.2112 0.0109-2.2112 0.0109z" opacity=".19731"/><circle cx="412.29" cy="394.06" r="1.9922" fill="#0f0"/><path d="m412.03 395.98c-0.14225-0.0252-0.22768-0.0479-0.35538-0.0943-0.12264-0.0446-0.18592-0.0741-0.18592-0.0868 0-0.0262 0.57503-0.85614 1.0733-1.549 0.24594-0.34201 1.1179-1.5354 1.1335-1.5513 3e-3 -3e-3 0.0376 0.0296 0.0769 0.0725 0.25221 0.27572 0.42528 0.64198 0.48519 1.0268 0.0179 0.11503 0.0179 0.43185 0 0.54687-0.12152 0.78054-0.68658 1.4101-1.4365 1.6003-0.23957 0.0608-0.56438 0.0751-0.79112 0.0349z" fill="url(#o)"/><path d="m412.31 392.09c-1.1002 0-2 0.89975-2 2 0 0.77614 0.44604 1.4524 1.0938 1.7812-0.30615-0.35027-0.5-0.81075-0.5-1.3125 0-1.1002 0.89975-2 2-2 0.32412 0 0.63576 0.0814 0.90625 0.21875-0.36518-0.41781-0.9015-0.6875-1.5-0.6875z" fill="url(#q)"/><circle cx="411.45" cy="393.38" r=".30936" fill="#fff" filter="url(#n)"/></g><g transform="matrix(.66532 .34183 -.28594 .55653 320.53 32.804)"><path d="m413.08 392.24c2.3272 0.75809 2.0937 3.2127 0.86084 3.7173-0.91907 0.37618-2.2112 0.0109-2.2112 0.0109z" opacity=".19731"/><circle cx="412.29" cy="394.06" r="1.9922" fill="#0f0"/><path d="m412.03 395.98c-0.14225-0.0252-0.22768-0.0479-0.35538-0.0943-0.12264-0.0446-0.18592-0.0741-0.18592-0.0868 0-0.0262 0.57503-0.85614 1.0733-1.549 0.24594-0.34201 1.1179-1.5354 1.1335-1.5513 3e-3 -3e-3 0.0376 0.0296 0.0769 0.0725 0.25221 0.27572 0.42528 0.64198 0.48519 1.0268 0.0179 0.11503 0.0179 0.43185 0 0.54687-0.12152 0.78054-0.68658 1.4101-1.4365 1.6003-0.23957 0.0608-0.56438 0.0751-0.79112 0.0349z" fill="url(#o)"/><path d="m412.31 392.09c-1.1002 0-2 0.89975-2 2 0 0.77614 0.44604 1.4524 1.0938 1.7812-0.30615-0.35027-0.5-0.81075-0.5-1.3125 0-1.1002 0.89975-2 2-2 0.32412 0 0.63576 0.0814 0.90625 0.21875-0.36518-0.41781-0.9015-0.6875-1.5-0.6875z" fill="url(#q)"/><circle cx="411.45" cy="393.38" r=".30936" fill="#fff" filter="url(#n)"/></g></g><g transform="matrix(-.45282 -.47365 -.76605 .27998 867.1 728.23)"><path d="m393.32 390.55c20.017 70.764 82.405 66.635 128.41 52.109 46-14.526 48.453 13.26 48.453 13.26s6.4512-52.259-78.304-89.353-98.553 23.984-98.553 23.984z" fill="#00d400"/><path d="m549 405.47c9.6129 10.773 16.243 22.672 19.283 34.606 0.82493 3.2388 1.8836 9.5614 1.5478 9.2439-0.0733-0.0694-0.62072-1.2048-1.2164-2.5233-3.2741-7.247-8.8823-15.855-13.081-20.078-0.59775-0.60112-1.5255-1.6369-2.0615-2.3018l-0.97476-1.2088 0.90294-0.14942c1.3225-0.21885 2.4899-1.254 2.7685-2.455 0.21473-0.92566 0.19401-0.97694-0.40628-1.0084-0.58622-0.0308-0.64784 0.0229-0.84232 0.73408-0.2795 1.0218-1.0887 1.4752-2.7778 1.5564-1.3082 0.0629-1.3876 0.0283-2.4958-1.0857-1.632-1.6407-6.2832-5.3468-9.6113-7.6584-8.7213-6.0576-21.216-12.054-32.066-15.389-1.5422-0.47398-2.7619-0.90376-2.7103-0.95505 0.0516-0.0512 0.61898-0.25505 1.2609-0.45282 1.7851-0.54994 3.6117-2.4517 3.9555-4.1181 0.51081-2.4764-0.55336-5.9521-2.973-9.7096-1.0047-1.5601-1.2214-1.7949-1.583-1.7144-0.73854 0.16442-0.67124 0.4973 0.457 2.2602 1.3286 2.0759 2.1805 3.935 2.7049 5.9028 1.0179 3.8194-0.85365 6.1197-5.4755 6.7298-1.1773 0.1554-2.353-0.0191-5.2146-0.774-11.962-3.1555-26.23-5.4925-40.294-6.5997l-2.6546-0.20899 0.99999-1.2481c2.1863-2.7288 2.776-6.985 1.7366-12.535-0.53979-2.8826-2.4234-9.2436-2.8702-9.6928-0.17696-0.17789-1.2068 0.18537-1.1438 0.40348 0.015 0.0519 0.46331 1.3365 0.99626 2.8545 1.3591 3.8712 2.2648 8.5412 2.2371 11.535-0.0347 3.7477-1.0607 6.2429-3.2196 7.83-0.86181 0.63353-1.2086 0.65694-6.0967 0.41148-7.5807-0.38067-23.793-0.37591-32.009 9e-3 -7.0379 0.33008-17.384 1.0652-20.449 1.453-0.86138 0.109-1.6171 0.15386-1.6793 0.0997-0.35018-0.3048 2.214-6.2229 4.2762-9.8696 2.539-4.4897 3.8096-6.1227 8.0345-10.325 5.0155-4.9892 8.5978-7.4506 14.473-9.9448 18.898-8.0223 44.04-4.8124 75.502 9.6394 22.201 10.198 40.384 22.856 52.77 36.737z" fill="url(#s)"/><path d="m555.37 428.35c3.6583 4.2516 6.6252 8.5106 9.2628 13.297 1.5601 2.8312 4.2147 8.4911 3.9822 8.4905-0.0851-2.3e-4 -0.52842-0.64819-0.98516-1.44-1.1807-2.0467-4.401-5.1906-6.7397-6.5799-5.8965-3.5028-13.785-4.5648-23.701-3.1907-4.6806 0.64857-9.0722 1.6908-17.118 4.0627-11.423 3.3674-20.882 5.5351-29.36 6.7284-40.206 5.6594-69.507-5.7022-86.293-33.461-3.1005-5.1274-5.4577-10.023-7.7114-16.017-1.036-2.755-3.1056-8.9627-3.1563-9.4669-0.0327-0.32518 12.547-1.3616 20.916-1.7233 5.4105-0.23382 5.3911-0.23783 8.2169 1.6913 5.7344 3.9146 8.5725 9.6726 8.4571 17.158-0.0666 4.3218-1.1764 9.2239-3.1101 13.737-0.77948 1.8193-0.82797 2.0978-0.4047 2.3239 0.26451 0.14134 0.51787 0.2603 0.56302 0.26444 0.18431 0.0169 2.2058-5.0345 2.6995-6.7453 2.2777-7.8946 2.0561-14.487-0.67609-20.113-1.0491-2.1602-1.2453-2.4201-3.6862-4.8821-1.5085-1.5222-2.9585-2.8047-3.4952-3.093-0.50439-0.27089-0.91697-0.5363-0.91682-0.58979 5.8e-4 -0.23285 13.919-0.26199 20.194-0.0423 14.293 0.5004 25.15 1.4984 36.726 3.3758l3.4341 0.55696 2.597 2.705c2.1066 2.1941 2.7426 2.9974 3.368 4.2533 2.2595 4.5371 2.3189 10.143 0.17149 16.183-1.5849 4.4582-4.4457 9.4273-7.8156 13.576-1.7776 2.1882-1.8461 2.3151-1.4585 2.7047 0.35171 0.35358 0.49683 0.31815 1.0748-0.2624 1.2152-1.2201 3.8768-4.8982 5.5645-7.6884 3.804-6.2887 5.4451-11.399 5.4465-16.962 1e-3 -4.6931-1.3808-8.257-4.6257-11.929l-1.906-2.1569 4.4433 0.96381c9.4782 2.056 17.503 4.409 25.622 7.5126 5.1166 1.9561 11.319 4.7075 12.382 5.4933 0.42915 0.31713 0.82157 1.0519 1.2918 2.4191 2.0112 5.8472 0.91512 12.101-3.2195 18.37-0.5714 0.86633-1.284 1.8189-1.5835 2.1169-0.42303 0.42081-0.45742 0.58082-0.15419 0.71682 0.21472 0.0963 0.47323 0.25836 0.57446 0.36012 0.21342 0.21455 1.5438-1.4029 2.8214-3.4302 3.6658-5.8169 4.7318-12.14 3.009-17.847l-0.4759-1.5766 1.3271 0.72985c9.1 5.0045 18.424 12.406 24.448 19.407z" fill="url(#t)"/></g><path d="m387.14 650.93c-4.6979-23.304 11.345-36.598 11.345-36.598s0.943 30.575-7.8238 38.61c-4.0344-1.139-3.5211-2.0125-3.5211-2.0125z" fill="url(#z)"/><path d="m389.77 651.73c-4.9356-11.479-16.531-15.834-16.531-15.834s8.9236 14.448 15.495 17.19c1.543-1.0066 1.0347-1.3561 1.0347-1.3561z" fill="url(#aa)"/><g transform="matrix(-1.2497 .1492 .72377 .62359 604.47 363.65)"><path d="m393.32 390.55c20.017 70.764 82.405 66.635 128.41 52.109 46-14.526 48.453 13.26 48.453 13.26s6.4512-52.259-78.304-89.353-98.553 23.984-98.553 23.984z" fill="#00d400"/><path d="m549 405.47c9.6129 10.773 16.243 22.672 19.283 34.606 0.82493 3.2388 1.8836 9.5614 1.5478 9.2439-0.0733-0.0694-0.62072-1.2048-1.2164-2.5233-3.2741-7.247-8.8823-15.855-13.081-20.078-0.59775-0.60112-1.5255-1.6369-2.0615-2.3018l-0.97476-1.2088 0.90294-0.14942c1.3225-0.21885 2.4899-1.254 2.7685-2.455 0.21473-0.92566 0.19401-0.97694-0.40628-1.0084-0.58622-0.0308-0.64784 0.0229-0.84232 0.73408-0.2795 1.0218-1.0887 1.4752-2.7778 1.5564-1.3082 0.0629-1.3876 0.0283-2.4958-1.0857-1.632-1.6407-6.2832-5.3468-9.6113-7.6584-8.7213-6.0576-21.216-12.054-32.066-15.389-1.5422-0.47398-2.7619-0.90376-2.7103-0.95505 0.0516-0.0512 0.61898-0.25505 1.2609-0.45282 1.7851-0.54994 3.6117-2.4517 3.9555-4.1181 0.51081-2.4764-0.55336-5.9521-2.973-9.7096-1.0047-1.5601-1.2214-1.7949-1.583-1.7144-0.73854 0.16442-0.67124 0.4973 0.457 2.2602 1.3286 2.0759 2.1805 3.935 2.7049 5.9028 1.0179 3.8194-0.85365 6.1197-5.4755 6.7298-1.1773 0.1554-2.353-0.0191-5.2146-0.774-11.962-3.1555-26.23-5.4925-40.294-6.5997l-2.6546-0.20899 0.99999-1.2481c2.1863-2.7288 2.776-6.985 1.7366-12.535-0.53979-2.8826-2.4234-9.2436-2.8702-9.6928-0.17696-0.17789-1.2068 0.18537-1.1438 0.40348 0.015 0.0519 0.46331 1.3365 0.99626 2.8545 1.3591 3.8712 2.2648 8.5412 2.2371 11.535-0.0347 3.7477-1.0607 6.2429-3.2196 7.83-0.86181 0.63353-1.2086 0.65694-6.0967 0.41148-7.5807-0.38067-23.793-0.37591-32.009 9e-3 -7.0379 0.33008-17.384 1.0652-20.449 1.453-0.86138 0.109-1.6171 0.15386-1.6793 0.0997-0.35018-0.3048 2.214-6.2229 4.2762-9.8696 2.539-4.4897 3.8096-6.1227 8.0345-10.325 5.0155-4.9892 8.5978-7.4506 14.473-9.9448 18.898-8.0223 44.04-4.8124 75.502 9.6394 22.201 10.198 40.384 22.856 52.77 36.737z" fill="url(#s)"/><path d="m555.37 428.35c3.6583 4.2516 6.6252 8.5106 9.2628 13.297 1.5601 2.8312 4.2147 8.4911 3.9822 8.4905-0.0851-2.3e-4 -0.52842-0.64819-0.98516-1.44-1.1807-2.0467-4.401-5.1906-6.7397-6.5799-5.8965-3.5028-13.785-4.5648-23.701-3.1907-4.6806 0.64857-9.0722 1.6908-17.118 4.0627-11.423 3.3674-20.882 5.5351-29.36 6.7284-40.206 5.6594-69.507-5.7022-86.293-33.461-3.1005-5.1274-5.4577-10.023-7.7114-16.017-1.036-2.755-3.1056-8.9627-3.1563-9.4669-0.0327-0.32518 12.547-1.3616 20.916-1.7233 5.4105-0.23382 5.3911-0.23783 8.2169 1.6913 5.7344 3.9146 8.5725 9.6726 8.4571 17.158-0.0666 4.3218-1.1764 9.2239-3.1101 13.737-0.77948 1.8193-0.82797 2.0978-0.4047 2.3239 0.26451 0.14134 0.51787 0.2603 0.56302 0.26444 0.18431 0.0169 2.2058-5.0345 2.6995-6.7453 2.2777-7.8946 2.0561-14.487-0.67609-20.113-1.0491-2.1602-1.2453-2.4201-3.6862-4.8821-1.5085-1.5222-2.9585-2.8047-3.4952-3.093-0.50439-0.27089-0.91697-0.5363-0.91682-0.58979 5.8e-4 -0.23285 13.919-0.26199 20.194-0.0423 14.293 0.5004 25.15 1.4984 36.726 3.3758l3.4341 0.55696 2.597 2.705c2.1066 2.1941 2.7426 2.9974 3.368 4.2533 2.2595 4.5371 2.3189 10.143 0.17149 16.183-1.5849 4.4582-4.4457 9.4273-7.8156 13.576-1.7776 2.1882-1.8461 2.3151-1.4585 2.7047 0.35171 0.35358 0.49683 0.31815 1.0748-0.2624 1.2152-1.2201 3.8768-4.8982 5.5645-7.6884 3.804-6.2887 5.4451-11.399 5.4465-16.962 1e-3 -4.6931-1.3808-8.257-4.6257-11.929l-1.906-2.1569 4.4433 0.96381c9.4782 2.056 17.503 4.409 25.622 7.5126 5.1166 1.9561 11.319 4.7075 12.382 5.4933 0.42915 0.31713 0.82157 1.0519 1.2918 2.4191 2.0112 5.8472 0.91512 12.101-3.2195 18.37-0.5714 0.86633-1.284 1.8189-1.5835 2.1169-0.42303 0.42081-0.45742 0.58082-0.15419 0.71682 0.21472 0.0963 0.47323 0.25836 0.57446 0.36012 0.21342 0.21455 1.5438-1.4029 2.8214-3.4302 3.6658-5.8169 4.7318-12.14 3.009-17.847l-0.4759-1.5766 1.3271 0.72985c9.1 5.0045 18.424 12.406 24.448 19.407z" fill="url(#t)"/></g><g transform="matrix(1.4583 0 0 .90165 -263.56 281.12)"><g transform="matrix(-.98116 .50412 .42169 .82074 588.1 -144.15)"><path d="m413.08 392.24c2.3272 0.75809 2.0937 3.2127 0.86084 3.7173-0.91907 0.37618-2.2112 0.0109-2.2112 0.0109z" opacity=".19731"/><circle cx="412.29" cy="394.06" r="1.9922" fill="#0f0"/><path d="m412.03 395.98c-0.14225-0.0252-0.22768-0.0479-0.35538-0.0943-0.12264-0.0446-0.18592-0.0741-0.18592-0.0868 0-0.0262 0.57503-0.85614 1.0733-1.549 0.24594-0.34201 1.1179-1.5354 1.1335-1.5513 3e-3 -3e-3 0.0376 0.0296 0.0769 0.0725 0.25221 0.27572 0.42528 0.64198 0.48519 1.0268 0.0179 0.11503 0.0179 0.43185 0 0.54687-0.12152 0.78054-0.68658 1.4101-1.4365 1.6003-0.23957 0.0608-0.56438 0.0751-0.79112 0.0349z" fill="url(#o)"/><path d="m412.31 392.09c-1.1002 0-2 0.89975-2 2 0 0.77614 0.44604 1.4524 1.0938 1.7812-0.30615-0.35027-0.5-0.81075-0.5-1.3125 0-1.1002 0.89975-2 2-2 0.32412 0 0.63576 0.0814 0.90625 0.21875-0.36518-0.41781-0.9015-0.6875-1.5-0.6875z" fill="url(#q)"/><circle cx="411.45" cy="393.38" r=".30936" fill="#fff" filter="url(#n)"/></g><g transform="matrix(-.48364 .24849 .20786 .40456 464.82 128.9)"><path d="m413.08 392.24c2.3272 0.75809 2.0937 3.2127 0.86084 3.7173-0.91907 0.37618-2.2112 0.0109-2.2112 0.0109z" opacity=".19731"/><circle cx="412.29" cy="394.06" r="1.9922" fill="#0f0"/><path d="m412.03 395.98c-0.14225-0.0252-0.22768-0.0479-0.35538-0.0943-0.12264-0.0446-0.18592-0.0741-0.18592-0.0868 0-0.0262 0.57503-0.85614 1.0733-1.549 0.24594-0.34201 1.1179-1.5354 1.1335-1.5513 3e-3 -3e-3 0.0376 0.0296 0.0769 0.0725 0.25221 0.27572 0.42528 0.64198 0.48519 1.0268 0.0179 0.11503 0.0179 0.43185 0 0.54687-0.12152 0.78054-0.68658 1.4101-1.4365 1.6003-0.23957 0.0608-0.56438 0.0751-0.79112 0.0349z" fill="url(#o)"/><path d="m412.31 392.09c-1.1002 0-2 0.89975-2 2 0 0.77614 0.44604 1.4524 1.0938 1.7812-0.30615-0.35027-0.5-0.81075-0.5-1.3125 0-1.1002 0.89975-2 2-2 0.32412 0 0.63576 0.0814 0.90625 0.21875-0.36518-0.41781-0.9015-0.6875-1.5-0.6875z" fill="url(#q)"/><circle cx="411.45" cy="393.38" r=".30936" fill="#fff" filter="url(#n)"/></g><g transform="matrix(-.25642 .13175 .11021 .2145 415.47 248.67)"><path d="m413.08 392.24c2.3272 0.75809 2.0937 3.2127 0.86084 3.7173-0.91907 0.37618-2.2112 0.0109-2.2112 0.0109z" opacity=".19731"/><circle cx="412.29" cy="394.06" r="1.9922" fill="#0f0"/><path d="m412.03 395.98c-0.14225-0.0252-0.22768-0.0479-0.35538-0.0943-0.12264-0.0446-0.18592-0.0741-0.18592-0.0868 0-0.0262 0.57503-0.85614 1.0733-1.549 0.24594-0.34201 1.1179-1.5354 1.1335-1.5513 3e-3 -3e-3 0.0376 0.0296 0.0769 0.0725 0.25221 0.27572 0.42528 0.64198 0.48519 1.0268 0.0179 0.11503 0.0179 0.43185 0 0.54687-0.12152 0.78054-0.68658 1.4101-1.4365 1.6003-0.23957 0.0608-0.56438 0.0751-0.79112 0.0349z" fill="url(#o)"/><path d="m412.31 392.09c-1.1002 0-2 0.89975-2 2 0 0.77614 0.44604 1.4524 1.0938 1.7812-0.30615-0.35027-0.5-0.81075-0.5-1.3125 0-1.1002 0.89975-2 2-2 0.32412 0 0.63576 0.0814 0.90625 0.21875-0.36518-0.41781-0.9015-0.6875-1.5-0.6875z" fill="url(#q)"/><circle cx="411.45" cy="393.38" r=".30936" fill="#fff" filter="url(#n)"/></g></g><g transform="matrix(1.4583 0 0 .90165 -246.75 323.39)"><g transform="matrix(-1.6107 .82757 .69226 1.3473 743.55 -455.4)"><path d="m413.08 392.24c2.3272 0.75809 2.0937 3.2127 0.86084 3.7173-0.91907 0.37618-2.2112 0.0109-2.2112 0.0109z" opacity=".19731"/><circle cx="412.29" cy="394.06" r="1.9922" fill="#0f0"/><path d="m412.03 395.98c-0.14225-0.0252-0.22768-0.0479-0.35538-0.0943-0.12264-0.0446-0.18592-0.0741-0.18592-0.0868 0-0.0262 0.57503-0.85614 1.0733-1.549 0.24594-0.34201 1.1179-1.5354 1.1335-1.5513 3e-3 -3e-3 0.0376 0.0296 0.0769 0.0725 0.25221 0.27572 0.42528 0.64198 0.48519 1.0268 0.0179 0.11503 0.0179 0.43185 0 0.54687-0.12152 0.78054-0.68658 1.4101-1.4365 1.6003-0.23957 0.0608-0.56438 0.0751-0.79112 0.0349z" fill="url(#o)"/><path d="m412.31 392.09c-1.1002 0-2 0.89975-2 2 0 0.77614 0.44604 1.4524 1.0938 1.7812-0.30615-0.35027-0.5-0.81075-0.5-1.3125 0-1.1002 0.89975-2 2-2 0.32412 0 0.63576 0.0814 0.90625 0.21875-0.36518-0.41781-0.9015-0.6875-1.5-0.6875z" fill="url(#q)"/><circle cx="411.45" cy="393.38" r=".30936" fill="#fff" filter="url(#n)"/></g><g transform="matrix(-.66803 .34323 .28711 .5588 518.97 58.309)"><path d="m413.08 392.24c2.3272 0.75809 2.0937 3.2127 0.86084 3.7173-0.91907 0.37618-2.2112 0.0109-2.2112 0.0109z" opacity=".19731"/><circle cx="412.29" cy="394.06" r="1.9922" fill="#0f0"/><path d="m412.03 395.98c-0.14225-0.0252-0.22768-0.0479-0.35538-0.0943-0.12264-0.0446-0.18592-0.0741-0.18592-0.0868 0-0.0262 0.57503-0.85614 1.0733-1.549 0.24594-0.34201 1.1179-1.5354 1.1335-1.5513 3e-3 -3e-3 0.0376 0.0296 0.0769 0.0725 0.25221 0.27572 0.42528 0.64198 0.48519 1.0268 0.0179 0.11503 0.0179 0.43185 0 0.54687-0.12152 0.78054-0.68658 1.4101-1.4365 1.6003-0.23957 0.0608-0.56438 0.0751-0.79112 0.0349z" fill="url(#o)"/><path d="m412.31 392.09c-1.1002 0-2 0.89975-2 2 0 0.77614 0.44604 1.4524 1.0938 1.7812-0.30615-0.35027-0.5-0.81075-0.5-1.3125 0-1.1002 0.89975-2 2-2 0.32412 0 0.63576 0.0814 0.90625 0.21875-0.36518-0.41781-0.9015-0.6875-1.5-0.6875z" fill="url(#q)"/><circle cx="411.45" cy="393.38" r=".30936" fill="#fff" filter="url(#n)"/></g><g transform="matrix(-.5371 .27596 .23084 .44928 477.84 131.07)"><path d="m413.08 392.24c2.3272 0.75809 2.0937 3.2127 0.86084 3.7173-0.91907 0.37618-2.2112 0.0109-2.2112 0.0109z" opacity=".19731"/><circle cx="412.29" cy="394.06" r="1.9922" fill="#0f0"/><path d="m412.03 395.98c-0.14225-0.0252-0.22768-0.0479-0.35538-0.0943-0.12264-0.0446-0.18592-0.0741-0.18592-0.0868 0-0.0262 0.57503-0.85614 1.0733-1.549 0.24594-0.34201 1.1179-1.5354 1.1335-1.5513 3e-3 -3e-3 0.0376 0.0296 0.0769 0.0725 0.25221 0.27572 0.42528 0.64198 0.48519 1.0268 0.0179 0.11503 0.0179 0.43185 0 0.54687-0.12152 0.78054-0.68658 1.4101-1.4365 1.6003-0.23957 0.0608-0.56438 0.0751-0.79112 0.0349z" fill="url(#o)"/><path d="m412.31 392.09c-1.1002 0-2 0.89975-2 2 0 0.77614 0.44604 1.4524 1.0938 1.7812-0.30615-0.35027-0.5-0.81075-0.5-1.3125 0-1.1002 0.89975-2 2-2 0.32412 0 0.63576 0.0814 0.90625 0.21875-0.36518-0.41781-0.9015-0.6875-1.5-0.6875z" fill="url(#q)"/><circle cx="411.45" cy="393.38" r=".30936" fill="#fff" filter="url(#n)"/></g></g><g transform="matrix(1.4583 0 0 .90165 -159.1 227.76)"><g transform="matrix(.88947 .457 -.38228 .74403 294.85 -50.753)"><path d="m413.08 392.24c2.3272 0.75809 2.0937 3.2127 0.86084 3.7173-0.91907 0.37618-2.2112 0.0109-2.2112 0.0109z" opacity=".19731"/><circle cx="412.29" cy="394.06" r="1.9922" fill="#0f0"/><path d="m412.03 395.98c-0.14225-0.0252-0.22768-0.0479-0.35538-0.0943-0.12264-0.0446-0.18592-0.0741-0.18592-0.0868 0-0.0262 0.57503-0.85614 1.0733-1.549 0.24594-0.34201 1.1179-1.5354 1.1335-1.5513 3e-3 -3e-3 0.0376 0.0296 0.0769 0.0725 0.25221 0.27572 0.42528 0.64198 0.48519 1.0268 0.0179 0.11503 0.0179 0.43185 0 0.54687-0.12152 0.78054-0.68658 1.4101-1.4365 1.6003-0.23957 0.0608-0.56438 0.0751-0.79112 0.0349z" fill="url(#o)"/><path d="m412.31 392.09c-1.1002 0-2 0.89975-2 2 0 0.77614 0.44604 1.4524 1.0938 1.7812-0.30615-0.35027-0.5-0.81075-0.5-1.3125 0-1.1002 0.89975-2 2-2 0.32412 0 0.63576 0.0814 0.90625 0.21875-0.36518-0.41781-0.9015-0.6875-1.5-0.6875z" fill="url(#q)"/><circle cx="411.45" cy="393.38" r=".30936" fill="#fff" filter="url(#n)"/></g><g transform="matrix(.49248 .25303 -.21166 .41195 395.16 169.54)"><path d="m413.08 392.24c2.3272 0.75809 2.0937 3.2127 0.86084 3.7173-0.91907 0.37618-2.2112 0.0109-2.2112 0.0109z" opacity=".19731"/><circle cx="412.29" cy="394.06" r="1.9922" fill="#0f0"/><path d="m412.03 395.98c-0.14225-0.0252-0.22768-0.0479-0.35538-0.0943-0.12264-0.0446-0.18592-0.0741-0.18592-0.0868 0-0.0262 0.57503-0.85614 1.0733-1.549 0.24594-0.34201 1.1179-1.5354 1.1335-1.5513 3e-3 -3e-3 0.0376 0.0296 0.0769 0.0725 0.25221 0.27572 0.42528 0.64198 0.48519 1.0268 0.0179 0.11503 0.0179 0.43185 0 0.54687-0.12152 0.78054-0.68658 1.4101-1.4365 1.6003-0.23957 0.0608-0.56438 0.0751-0.79112 0.0349z" fill="url(#o)"/><path d="m412.31 392.09c-1.1002 0-2 0.89975-2 2 0 0.77614 0.44604 1.4524 1.0938 1.7812-0.30615-0.35027-0.5-0.81075-0.5-1.3125 0-1.1002 0.89975-2 2-2 0.32412 0 0.63576 0.0814 0.90625 0.21875-0.36518-0.41781-0.9015-0.6875-1.5-0.6875z" fill="url(#q)"/><circle cx="411.45" cy="393.38" r=".30936" fill="#fff" filter="url(#n)"/></g><g transform="matrix(.49248 .25303 -.21166 .41195 388.49 168)"><path d="m413.08 392.24c2.3272 0.75809 2.0937 3.2127 0.86084 3.7173-0.91907 0.37618-2.2112 0.0109-2.2112 0.0109z" opacity=".19731"/><circle cx="412.29" cy="394.06" r="1.9922" fill="#0f0"/><path d="m412.03 395.98c-0.14225-0.0252-0.22768-0.0479-0.35538-0.0943-0.12264-0.0446-0.18592-0.0741-0.18592-0.0868 0-0.0262 0.57503-0.85614 1.0733-1.549 0.24594-0.34201 1.1179-1.5354 1.1335-1.5513 3e-3 -3e-3 0.0376 0.0296 0.0769 0.0725 0.25221 0.27572 0.42528 0.64198 0.48519 1.0268 0.0179 0.11503 0.0179 0.43185 0 0.54687-0.12152 0.78054-0.68658 1.4101-1.4365 1.6003-0.23957 0.0608-0.56438 0.0751-0.79112 0.0349z" fill="url(#o)"/><path d="m412.31 392.09c-1.1002 0-2 0.89975-2 2 0 0.77614 0.44604 1.4524 1.0938 1.7812-0.30615-0.35027-0.5-0.81075-0.5-1.3125 0-1.1002 0.89975-2 2-2 0.32412 0 0.63576 0.0814 0.90625 0.21875-0.36518-0.41781-0.9015-0.6875-1.5-0.6875z" fill="url(#q)"/><circle cx="411.45" cy="393.38" r=".30936" fill="#fff" filter="url(#n)"/></g><g transform="matrix(.28535 .14661 -.12264 .23869 437.38 276.79)"><path d="m413.08 392.24c2.3272 0.75809 2.0937 3.2127 0.86084 3.7173-0.91907 0.37618-2.2112 0.0109-2.2112 0.0109z" opacity=".19731"/><circle cx="412.29" cy="394.06" r="1.9922" fill="#0f0"/><path d="m412.03 395.98c-0.14225-0.0252-0.22768-0.0479-0.35538-0.0943-0.12264-0.0446-0.18592-0.0741-0.18592-0.0868 0-0.0262 0.57503-0.85614 1.0733-1.549 0.24594-0.34201 1.1179-1.5354 1.1335-1.5513 3e-3 -3e-3 0.0376 0.0296 0.0769 0.0725 0.25221 0.27572 0.42528 0.64198 0.48519 1.0268 0.0179 0.11503 0.0179 0.43185 0 0.54687-0.12152 0.78054-0.68658 1.4101-1.4365 1.6003-0.23957 0.0608-0.56438 0.0751-0.79112 0.0349z" fill="url(#o)"/><path d="m412.31 392.09c-1.1002 0-2 0.89975-2 2 0 0.77614 0.44604 1.4524 1.0938 1.7812-0.30615-0.35027-0.5-0.81075-0.5-1.3125 0-1.1002 0.89975-2 2-2 0.32412 0 0.63576 0.0814 0.90625 0.21875-0.36518-0.41781-0.9015-0.6875-1.5-0.6875z" fill="url(#q)"/><circle cx="411.45" cy="393.38" r=".30936" fill="#fff" filter="url(#n)"/></g></g><g transform="matrix(.64041 0 0 .39597 123.8 470.73)"><g transform="matrix(1.1517 .59175 -.495 .96342 201.17 -235.44)"><path d="m413.08 392.24c2.3272 0.75809 2.0937 3.2127 0.86084 3.7173-0.91907 0.37618-2.2112 0.0109-2.2112 0.0109z" opacity=".19731"/><circle cx="412.29" cy="394.06" r="1.9922" fill="#0f0"/><path d="m412.03 395.98c-0.14225-0.0252-0.22768-0.0479-0.35538-0.0943-0.12264-0.0446-0.18592-0.0741-0.18592-0.0868 0-0.0262 0.57503-0.85614 1.0733-1.549 0.24594-0.34201 1.1179-1.5354 1.1335-1.5513 3e-3 -3e-3 0.0376 0.0296 0.0769 0.0725 0.25221 0.27572 0.42528 0.64198 0.48519 1.0268 0.0179 0.11503 0.0179 0.43185 0 0.54687-0.12152 0.78054-0.68658 1.4101-1.4365 1.6003-0.23957 0.0608-0.56438 0.0751-0.79112 0.0349z" fill="url(#o)"/><path d="m412.31 392.09c-1.1002 0-2 0.89975-2 2 0 0.77614 0.44604 1.4524 1.0938 1.7812-0.30615-0.35027-0.5-0.81075-0.5-1.3125 0-1.1002 0.89975-2 2-2 0.32412 0 0.63576 0.0814 0.90625 0.21875-0.36518-0.41781-0.9015-0.6875-1.5-0.6875z" fill="url(#q)"/><circle cx="411.45" cy="393.38" r=".30936" fill="#fff" filter="url(#n)"/></g><g transform="matrix(.41944 .2155 -.18027 .35086 376.04 163.11)"><path d="m413.08 392.24c2.3272 0.75809 2.0937 3.2127 0.86084 3.7173-0.91907 0.37618-2.2112 0.0109-2.2112 0.0109z" opacity=".19731"/><circle cx="412.29" cy="394.06" r="1.9922" fill="#0f0"/><path d="m412.03 395.98c-0.14225-0.0252-0.22768-0.0479-0.35538-0.0943-0.12264-0.0446-0.18592-0.0741-0.18592-0.0868 0-0.0262 0.57503-0.85614 1.0733-1.549 0.24594-0.34201 1.1179-1.5354 1.1335-1.5513 3e-3 -3e-3 0.0376 0.0296 0.0769 0.0725 0.25221 0.27572 0.42528 0.64198 0.48519 1.0268 0.0179 0.11503 0.0179 0.43185 0 0.54687-0.12152 0.78054-0.68658 1.4101-1.4365 1.6003-0.23957 0.0608-0.56438 0.0751-0.79112 0.0349z" fill="url(#o)"/><path d="m412.31 392.09c-1.1002 0-2 0.89975-2 2 0 0.77614 0.44604 1.4524 1.0938 1.7812-0.30615-0.35027-0.5-0.81075-0.5-1.3125 0-1.1002 0.89975-2 2-2 0.32412 0 0.63576 0.0814 0.90625 0.21875-0.36518-0.41781-0.9015-0.6875-1.5-0.6875z" fill="url(#q)"/><circle cx="411.45" cy="393.38" r=".30936" fill="#fff" filter="url(#n)"/></g><g transform="matrix(.66532 .34183 -.28594 .55653 320.53 32.804)"><path d="m413.08 392.24c2.3272 0.75809 2.0937 3.2127 0.86084 3.7173-0.91907 0.37618-2.2112 0.0109-2.2112 0.0109z" opacity=".19731"/><circle cx="412.29" cy="394.06" r="1.9922" fill="#0f0"/><path d="m412.03 395.98c-0.14225-0.0252-0.22768-0.0479-0.35538-0.0943-0.12264-0.0446-0.18592-0.0741-0.18592-0.0868 0-0.0262 0.57503-0.85614 1.0733-1.549 0.24594-0.34201 1.1179-1.5354 1.1335-1.5513 3e-3 -3e-3 0.0376 0.0296 0.0769 0.0725 0.25221 0.27572 0.42528 0.64198 0.48519 1.0268 0.0179 0.11503 0.0179 0.43185 0 0.54687-0.12152 0.78054-0.68658 1.4101-1.4365 1.6003-0.23957 0.0608-0.56438 0.0751-0.79112 0.0349z" fill="url(#o)"/><path d="m412.31 392.09c-1.1002 0-2 0.89975-2 2 0 0.77614 0.44604 1.4524 1.0938 1.7812-0.30615-0.35027-0.5-0.81075-0.5-1.3125 0-1.1002 0.89975-2 2-2 0.32412 0 0.63576 0.0814 0.90625 0.21875-0.36518-0.41781-0.9015-0.6875-1.5-0.6875z" fill="url(#q)"/><circle cx="411.45" cy="393.38" r=".30936" fill="#fff" filter="url(#n)"/></g></g><g transform="matrix(1.1609 0 0 .71776 -265.75 311.15)"><g transform="matrix(1.1517 .59175 -.495 .96342 201.17 -235.44)"><path d="m413.08 392.24c2.3272 0.75809 2.0937 3.2127 0.86084 3.7173-0.91907 0.37618-2.2112 0.0109-2.2112 0.0109z" opacity=".19731"/><circle cx="412.29" cy="394.06" r="1.9922" fill="#0f0"/><path d="m412.03 395.98c-0.14225-0.0252-0.22768-0.0479-0.35538-0.0943-0.12264-0.0446-0.18592-0.0741-0.18592-0.0868 0-0.0262 0.57503-0.85614 1.0733-1.549 0.24594-0.34201 1.1179-1.5354 1.1335-1.5513 3e-3 -3e-3 0.0376 0.0296 0.0769 0.0725 0.25221 0.27572 0.42528 0.64198 0.48519 1.0268 0.0179 0.11503 0.0179 0.43185 0 0.54687-0.12152 0.78054-0.68658 1.4101-1.4365 1.6003-0.23957 0.0608-0.56438 0.0751-0.79112 0.0349z" fill="url(#o)"/><path d="m412.31 392.09c-1.1002 0-2 0.89975-2 2 0 0.77614 0.44604 1.4524 1.0938 1.7812-0.30615-0.35027-0.5-0.81075-0.5-1.3125 0-1.1002 0.89975-2 2-2 0.32412 0 0.63576 0.0814 0.90625 0.21875-0.36518-0.41781-0.9015-0.6875-1.5-0.6875z" fill="url(#q)"/><circle cx="411.45" cy="393.38" r=".30936" fill="#fff" filter="url(#n)"/></g><g transform="matrix(.41944 .2155 -.18027 .35086 376.04 163.11)"><path d="m413.08 392.24c2.3272 0.75809 2.0937 3.2127 0.86084 3.7173-0.91907 0.37618-2.2112 0.0109-2.2112 0.0109z" opacity=".19731"/><circle cx="412.29" cy="394.06" r="1.9922" fill="#0f0"/><path d="m412.03 395.98c-0.14225-0.0252-0.22768-0.0479-0.35538-0.0943-0.12264-0.0446-0.18592-0.0741-0.18592-0.0868 0-0.0262 0.57503-0.85614 1.0733-1.549 0.24594-0.34201 1.1179-1.5354 1.1335-1.5513 3e-3 -3e-3 0.0376 0.0296 0.0769 0.0725 0.25221 0.27572 0.42528 0.64198 0.48519 1.0268 0.0179 0.11503 0.0179 0.43185 0 0.54687-0.12152 0.78054-0.68658 1.4101-1.4365 1.6003-0.23957 0.0608-0.56438 0.0751-0.79112 0.0349z" fill="url(#o)"/><path d="m412.31 392.09c-1.1002 0-2 0.89975-2 2 0 0.77614 0.44604 1.4524 1.0938 1.7812-0.30615-0.35027-0.5-0.81075-0.5-1.3125 0-1.1002 0.89975-2 2-2 0.32412 0 0.63576 0.0814 0.90625 0.21875-0.36518-0.41781-0.9015-0.6875-1.5-0.6875z" fill="url(#q)"/><circle cx="411.45" cy="393.38" r=".30936" fill="#fff" filter="url(#n)"/></g><g transform="matrix(.66532 .34183 -.28594 .55653 320.53 32.804)"><path d="m413.08 392.24c2.3272 0.75809 2.0937 3.2127 0.86084 3.7173-0.91907 0.37618-2.2112 0.0109-2.2112 0.0109z" opacity=".19731"/><circle cx="412.29" cy="394.06" r="1.9922" fill="#0f0"/><path d="m412.03 395.98c-0.14225-0.0252-0.22768-0.0479-0.35538-0.0943-0.12264-0.0446-0.18592-0.0741-0.18592-0.0868 0-0.0262 0.57503-0.85614 1.0733-1.549 0.24594-0.34201 1.1179-1.5354 1.1335-1.5513 3e-3 -3e-3 0.0376 0.0296 0.0769 0.0725 0.25221 0.27572 0.42528 0.64198 0.48519 1.0268 0.0179 0.11503 0.0179 0.43185 0 0.54687-0.12152 0.78054-0.68658 1.4101-1.4365 1.6003-0.23957 0.0608-0.56438 0.0751-0.79112 0.0349z" fill="url(#o)"/><path d="m412.31 392.09c-1.1002 0-2 0.89975-2 2 0 0.77614 0.44604 1.4524 1.0938 1.7812-0.30615-0.35027-0.5-0.81075-0.5-1.3125 0-1.1002 0.89975-2 2-2 0.32412 0 0.63576 0.0814 0.90625 0.21875-0.36518-0.41781-0.9015-0.6875-1.5-0.6875z" fill="url(#q)"/><circle cx="411.45" cy="393.38" r=".30936" fill="#fff" filter="url(#n)"/></g></g><g transform="matrix(1.1609 0 0 .71776 -31.69 281.85)"><g transform="matrix(1.1517 .59175 -.495 .96342 201.17 -235.44)"><path d="m413.08 392.24c2.3272 0.75809 2.0937 3.2127 0.86084 3.7173-0.91907 0.37618-2.2112 0.0109-2.2112 0.0109z" opacity=".19731"/><circle cx="412.29" cy="394.06" r="1.9922" fill="#0f0"/><path d="m412.03 395.98c-0.14225-0.0252-0.22768-0.0479-0.35538-0.0943-0.12264-0.0446-0.18592-0.0741-0.18592-0.0868 0-0.0262 0.57503-0.85614 1.0733-1.549 0.24594-0.34201 1.1179-1.5354 1.1335-1.5513 3e-3 -3e-3 0.0376 0.0296 0.0769 0.0725 0.25221 0.27572 0.42528 0.64198 0.48519 1.0268 0.0179 0.11503 0.0179 0.43185 0 0.54687-0.12152 0.78054-0.68658 1.4101-1.4365 1.6003-0.23957 0.0608-0.56438 0.0751-0.79112 0.0349z" fill="url(#o)"/><path d="m412.31 392.09c-1.1002 0-2 0.89975-2 2 0 0.77614 0.44604 1.4524 1.0938 1.7812-0.30615-0.35027-0.5-0.81075-0.5-1.3125 0-1.1002 0.89975-2 2-2 0.32412 0 0.63576 0.0814 0.90625 0.21875-0.36518-0.41781-0.9015-0.6875-1.5-0.6875z" fill="url(#q)"/><circle cx="411.45" cy="393.38" r=".30936" fill="#fff" filter="url(#n)"/></g><g transform="matrix(.41944 .2155 -.18027 .35086 376.04 163.11)"><path d="m413.08 392.24c2.3272 0.75809 2.0937 3.2127 0.86084 3.7173-0.91907 0.37618-2.2112 0.0109-2.2112 0.0109z" opacity=".19731"/><circle cx="412.29" cy="394.06" r="1.9922" fill="#0f0"/><path d="m412.03 395.98c-0.14225-0.0252-0.22768-0.0479-0.35538-0.0943-0.12264-0.0446-0.18592-0.0741-0.18592-0.0868 0-0.0262 0.57503-0.85614 1.0733-1.549 0.24594-0.34201 1.1179-1.5354 1.1335-1.5513 3e-3 -3e-3 0.0376 0.0296 0.0769 0.0725 0.25221 0.27572 0.42528 0.64198 0.48519 1.0268 0.0179 0.11503 0.0179 0.43185 0 0.54687-0.12152 0.78054-0.68658 1.4101-1.4365 1.6003-0.23957 0.0608-0.56438 0.0751-0.79112 0.0349z" fill="url(#o)"/><path d="m412.31 392.09c-1.1002 0-2 0.89975-2 2 0 0.77614 0.44604 1.4524 1.0938 1.7812-0.30615-0.35027-0.5-0.81075-0.5-1.3125 0-1.1002 0.89975-2 2-2 0.32412 0 0.63576 0.0814 0.90625 0.21875-0.36518-0.41781-0.9015-0.6875-1.5-0.6875z" fill="url(#q)"/><circle cx="411.45" cy="393.38" r=".30936" fill="#fff" filter="url(#n)"/></g><g transform="matrix(.66532 .34183 -.28594 .55653 320.53 32.804)"><path d="m413.08 392.24c2.3272 0.75809 2.0937 3.2127 0.86084 3.7173-0.91907 0.37618-2.2112 0.0109-2.2112 0.0109z" opacity=".19731"/><circle cx="412.29" cy="394.06" r="1.9922" fill="#0f0"/><path d="m412.03 395.98c-0.14225-0.0252-0.22768-0.0479-0.35538-0.0943-0.12264-0.0446-0.18592-0.0741-0.18592-0.0868 0-0.0262 0.57503-0.85614 1.0733-1.549 0.24594-0.34201 1.1179-1.5354 1.1335-1.5513 3e-3 -3e-3 0.0376 0.0296 0.0769 0.0725 0.25221 0.27572 0.42528 0.64198 0.48519 1.0268 0.0179 0.11503 0.0179 0.43185 0 0.54687-0.12152 0.78054-0.68658 1.4101-1.4365 1.6003-0.23957 0.0608-0.56438 0.0751-0.79112 0.0349z" fill="url(#o)"/><path d="m412.31 392.09c-1.1002 0-2 0.89975-2 2 0 0.77614 0.44604 1.4524 1.0938 1.7812-0.30615-0.35027-0.5-0.81075-0.5-1.3125 0-1.1002 0.89975-2 2-2 0.32412 0 0.63576 0.0814 0.90625 0.21875-0.36518-0.41781-0.9015-0.6875-1.5-0.6875z" fill="url(#q)"/><circle cx="411.45" cy="393.38" r=".30936" fill="#fff" filter="url(#n)"/></g></g><g transform="matrix(1.1609 0 0 .71776 -83.458 283.65)"><g transform="matrix(1.1517 .59175 -.495 .96342 201.17 -235.44)"><path d="m413.08 392.24c2.3272 0.75809 2.0937 3.2127 0.86084 3.7173-0.91907 0.37618-2.2112 0.0109-2.2112 0.0109z" opacity=".19731"/><circle cx="412.29" cy="394.06" r="1.9922" fill="#0f0"/><path d="m412.03 395.98c-0.14225-0.0252-0.22768-0.0479-0.35538-0.0943-0.12264-0.0446-0.18592-0.0741-0.18592-0.0868 0-0.0262 0.57503-0.85614 1.0733-1.549 0.24594-0.34201 1.1179-1.5354 1.1335-1.5513 3e-3 -3e-3 0.0376 0.0296 0.0769 0.0725 0.25221 0.27572 0.42528 0.64198 0.48519 1.0268 0.0179 0.11503 0.0179 0.43185 0 0.54687-0.12152 0.78054-0.68658 1.4101-1.4365 1.6003-0.23957 0.0608-0.56438 0.0751-0.79112 0.0349z" fill="url(#o)"/><path d="m412.31 392.09c-1.1002 0-2 0.89975-2 2 0 0.77614 0.44604 1.4524 1.0938 1.7812-0.30615-0.35027-0.5-0.81075-0.5-1.3125 0-1.1002 0.89975-2 2-2 0.32412 0 0.63576 0.0814 0.90625 0.21875-0.36518-0.41781-0.9015-0.6875-1.5-0.6875z" fill="url(#q)"/><circle cx="411.45" cy="393.38" r=".30936" fill="#fff" filter="url(#n)"/></g><g transform="matrix(.41944 .2155 -.18027 .35086 376.04 163.11)"><path d="m413.08 392.24c2.3272 0.75809 2.0937 3.2127 0.86084 3.7173-0.91907 0.37618-2.2112 0.0109-2.2112 0.0109z" opacity=".19731"/><circle cx="412.29" cy="394.06" r="1.9922" fill="#0f0"/><path d="m412.03 395.98c-0.14225-0.0252-0.22768-0.0479-0.35538-0.0943-0.12264-0.0446-0.18592-0.0741-0.18592-0.0868 0-0.0262 0.57503-0.85614 1.0733-1.549 0.24594-0.34201 1.1179-1.5354 1.1335-1.5513 3e-3 -3e-3 0.0376 0.0296 0.0769 0.0725 0.25221 0.27572 0.42528 0.64198 0.48519 1.0268 0.0179 0.11503 0.0179 0.43185 0 0.54687-0.12152 0.78054-0.68658 1.4101-1.4365 1.6003-0.23957 0.0608-0.56438 0.0751-0.79112 0.0349z" fill="url(#o)"/><path d="m412.31 392.09c-1.1002 0-2 0.89975-2 2 0 0.77614 0.44604 1.4524 1.0938 1.7812-0.30615-0.35027-0.5-0.81075-0.5-1.3125 0-1.1002 0.89975-2 2-2 0.32412 0 0.63576 0.0814 0.90625 0.21875-0.36518-0.41781-0.9015-0.6875-1.5-0.6875z" fill="url(#q)"/><circle cx="411.45" cy="393.38" r=".30936" fill="#fff" filter="url(#n)"/></g><g transform="matrix(.66532 .34183 -.28594 .55653 320.53 32.804)"><path d="m413.08 392.24c2.3272 0.75809 2.0937 3.2127 0.86084 3.7173-0.91907 0.37618-2.2112 0.0109-2.2112 0.0109z" opacity=".19731"/><circle cx="412.29" cy="394.06" r="1.9922" fill="#0f0"/><path d="m412.03 395.98c-0.14225-0.0252-0.22768-0.0479-0.35538-0.0943-0.12264-0.0446-0.18592-0.0741-0.18592-0.0868 0-0.0262 0.57503-0.85614 1.0733-1.549 0.24594-0.34201 1.1179-1.5354 1.1335-1.5513 3e-3 -3e-3 0.0376 0.0296 0.0769 0.0725 0.25221 0.27572 0.42528 0.64198 0.48519 1.0268 0.0179 0.11503 0.0179 0.43185 0 0.54687-0.12152 0.78054-0.68658 1.4101-1.4365 1.6003-0.23957 0.0608-0.56438 0.0751-0.79112 0.0349z" fill="url(#o)"/><path d="m412.31 392.09c-1.1002 0-2 0.89975-2 2 0 0.77614 0.44604 1.4524 1.0938 1.7812-0.30615-0.35027-0.5-0.81075-0.5-1.3125 0-1.1002 0.89975-2 2-2 0.32412 0 0.63576 0.0814 0.90625 0.21875-0.36518-0.41781-0.9015-0.6875-1.5-0.6875z" fill="url(#q)"/><circle cx="411.45" cy="393.38" r=".30936" fill="#fff" filter="url(#n)"/></g></g><rect transform="matrix(.99139 .13092 .51883 .85488 0 0)" x="-242.19" y="899.74" width="140.24" height="25.867" fill="#009400" stroke="#000" stroke-linecap="round" stroke-linejoin="bevel" stroke-width="5.4787"/><rect transform="matrix(-.99139 .13092 -.51883 .85488 0 0)" x="-1097.1" y="1018.1" width="140.24" height="25.867" fill="#009400" stroke="#000" stroke-linecap="round" stroke-linejoin="bevel" stroke-width="5.4787"/><path d="m461.71 924.79-149.27 1.5674v9.3644h149.27v-10.932z" fill="#fff" stroke="#000" stroke-linecap="round" stroke-linejoin="bevel" stroke-width="1.2093"/><path d="m466.8 923.37c0 20.978-35.897 37.822-80.297 37.822-42.982 0-78.249-15.925-80.139-36.138" fill="none" stroke="#000" stroke-width="1.8632px"/></g><ellipse cx="1234.3" cy="2565.7" rx="236.41" ry="225.22" fill="#fff" stroke="#000" stroke-linecap="round" stroke-width="10"/><g transform="translate(-24.991 33.052)"><g transform="matrix(.35121 -.20122 .20122 .35121 648.48 2658.4)"><path d="m1075.8 473h193v-319c38.94 20.73 76.16 47.72 113 72 8.92 5.88 18.02 11.52 27 17.31 2.92 1.88 8.54 4.07 9.47 7.78 0.95 3.77-3.6 9.66-5.22 12.91-5.37 10.73-12.92 21.44-16.25 33l115-56.25 31-15.5 11.97-6.89 1.61-11.36 1.44-37 4.98-120c-10.24 8.279-18.29 21.59-26.35 32-2.76 3.565-6.85 11.408-11.67 12.273-3.22 0.579-7.24-2.647-9.98-4.025-9-4.529-18.22-8.726-27-13.672-25.71-14.494-52.61-27.595-79-40.823-7.85-3.933-22.18-14.896-31-14.241-7.48 0.555-15.28 6.633-22 9.627-18.15 8.089-36.22 16.731-54 25.614-51.47 25.72-104.51 48.317-156 73.997-16.45 8.21-33.15 16.47-50 23.83-5.042 2.2-16.927 5.56-19.397 10.81-2.987 6.35-0.603 18.63-0.603 25.61v282z" fill="#33a101"/><path d="m1101.8 439 139 1v-283c0-5.66 2.03-16.06-2.32-20.39-12.11-12.09-21.61-5.3-34.68 0.53-23.45 10.45-46.67 21.46-70 32.17-7.48 3.43-25.52 8.11-29.97 15.08-2.907 4.55-1.03 14.37-1.03 19.61v50c0 61.71-1 123.35-1 185z" fill="#fff"/></g><g transform="matrix(.35121 -.20122 .20122 .35121 648.48 2658.4)"><path d="m1687.6 166-25.6 44-42 71-17.8 30-5.6 11.9 16 11.9 48 29.15 142 86.25 44 26.8 23 13v2l-67 35.69-70 38.31-29-55h-1l-3.04 50-4.96 89-2 33 1.03 11.61 11.97 7.14 28 14.5 107 53.75c-4.84-16.8-15.21-35.88-24-51l108-52.75 28-14 11.97-6.89 1.03-20.36v-283l-1.03-18.37-19.97-12.21-50-28.57-143-81.7-42-24-22-11.15z" fill="#33a101"/><path d="m1697.6 207c-15.61 25.5-30.62 51.36-46 77-3.62 6.04-16.13 20.83-15 27.9 0.75 4.7 10.34 8.3 14 10.5l44 26.4 157 94.2 39 23.4c4.16 2.5 10.86 8.52 16 7.3 5.57-1.32 24.11-10.67 26.4-15.91 3.14-7.23-0.31-18.21-0.4-25.79-0.25-20.99 0-42 0-63 0-7.11 2.9-22.42-1.03-28.47-3.26-5.03-12.85-8.34-17.97-11.25l-44-25.13c-38.3-21.86-76.66-43.63-115-65.43-17.94-10.2-37.34-25.5-57-31.72z" fill="#fff"/></g><g transform="matrix(.35121 -.20122 .20122 .35121 648.48 2658.4)"><path d="m1046.6 622v1h68v138l0.603 13.67 15.397 11.33 40 26 156 101 46 29.81 17 9.28 26-11.83 56-26.95 133-64.05 81-39.26-26.69-51-44.89-84-16.64-31-6.99-10.18-19.79 8.04-57 27.89-116 56.5-100 48.75v-150h57l-36-21.8-76-44.78-27-15.82-13-6.11-14 6.65-32 17.86-110 61z" fill="#33a101"/><path d="m1274.6 829v1c30.58 17.04 59.16 40.14 88 60.02 9.49 6.55 23.59 21 35 23.06 5.7 1.04 14.06-5.37 19-7.83 15.73-7.87 31.26-16.13 47-24l123-61.5c18.95-9.47 37.43-20.6 57-28.75l-15.69-30-45.31-84-26 11.75-52 25.94-230 114.31z" fill="#fff"/></g></g><rect transform="matrix(.82585 -.56389 .50555 .8628 0 0)" x="-898.17" y="2844.7" width="195.25" height="70.553" fill="#fff" stroke="#000" stroke-linecap="round" stroke-width="10.847"/><path d="m1537.1 2383.3c0.2214-3.181 9.4921-1.1865 9.4921-1.1865s33.626 428.2-1.1865 645.46c-1.7521 10.934-10.476 11.072-10.679 0-3.5064-191.54-6.4994-516.78 2.373-644.27z" fill-opacity=".31285"/><g transform="matrix(4.941 11.381 -10.179 5.047 7609.3 -3146.1)" fill="#deaa87"><g transform="matrix(.95365 -.27172 .26414 .97335 -181.39 87.689)" fill="#deaa87" stroke="#000"><path d="m239.62 685.95c2.36 1.31 4.275 2.852 4.715 3.7413 1.9 3.77 1.0727 3.7587 1.3463 8.2252-0.84 1.4-1.0791 3.9257-1.8791 6.2957-0.37 1.09-3.0593 2.1526-5.0693 2.1126-0.63-0.01-1.38 0.39-2.08 0.47-1.11 0.11-2.2778-0.26722-3.0678-0.28722-6.233-1.982-0.61968-6.0793-1.4424-5.2076 1.04-4.43 0.15421-4.846-0.30753-7.1892-0.42 1.32 1.0628 3.5844 0.38557 5.837-0.6646 1.0368-0.42522 2.6581-2.0952 1.4181-1.6222-5.4704-4.7941-8.65 2.8059-13.727" stroke-linecap="round" stroke-linejoin="round" stroke-width=".96927"/><path d="m239.9 696.85-0.61865 4.6414-3.7997 5.2881" stroke-width=".93446px"/><path d="m242.67 697.02-0.38935 4.3474-2.8142 4.8362" stroke-width="1px"/><path d="m236.5 696.65-0.66 5.26-3.9617 4.3856" stroke-width="1px"/></g></g><rect transform="matrix(.66186 .74962 -.79352 .60855 0 0)" x="3248.8" y="634" width="195.25" height="70.553" fill="#fff" stroke="#000" stroke-linecap="round" stroke-width="10.847"/></g></svg>