<svg xmlns="http://www.w3.org/2000/svg" xmlns:xlink="http://www.w3.org/1999/xlink" version="1.1" x="0px" y="0px" viewBox="0 0 100 100" enable-background="new 0 0 100 100" xml:space="preserve"><g><circle fill="#000000" cx="49.854" cy="10.348" r="7.639"></circle><path fill="#000000" d="M50.497,56.806v34.662c0,2.421,1.963,4.384,4.385,4.384c2.421,0,4.384-1.963,4.384-4.384V32.209   c0-0.449,0.362-0.812,0.812-0.812c0.447,0,0.812,0.364,0.812,0.812l-0.036,21.356c0,1.835,1.487,3.321,3.322,3.321   c1.833,0,3.32-1.486,3.32-3.321V30.682c0-5.917-4.798-10.715-10.715-10.715l-5.028-0.049c-0.628,0-1.136,0.509-1.136,1.137   L50.497,56.806z"></path><path fill="#000000" d="M32.726,64.43l9.704-33.358c0.036-0.093,0.055-0.192,0.055-0.296c0-0.459-0.373-0.832-0.831-0.832   c-0.362,0-0.671,0.23-0.785,0.552l-5.836,20.287c-0.366,1.392-1.634,2.419-3.141,2.419c-1.793,0-3.247-1.454-3.247-3.247   c0-0.448,0.092-0.875,0.256-1.263l6.075-19.762c0.649-4.505,5.333-9.011,10.311-9.011h2.651c0.627,0,1.136,0.509,1.136,1.137   l0.027,70.869c0,2.017-1.636,3.651-3.653,3.651s-3.653-1.635-3.653-3.651V65.648l-8.181,0.004c-0.516,0-0.934-0.418-0.934-0.935   C32.68,64.617,32.695,64.52,32.726,64.43z"></path></g></svg>