<?xml version="1.0" encoding="utf-8"?><svg version="1.1" id="Layer_1" xmlns="http://www.w3.org/2000/svg" xmlns:xlink="http://www.w3.org/1999/xlink" x="0px" y="0px" viewBox="0 0 109.68 122.88" style="enable-background:new 0 0 109.68 122.88" xml:space="preserve"><style type="text/css">.st0{fill-rule:evenodd;clip-rule:evenodd;}</style><g><path class="st0" d="M25.02,90.59c9.73,9.45,19.51,14.73,29.37,15.03c9.88,0.3,19.97-4.42,30.31-14.97 c-1.5-0.35-3.1-0.69-4.79-1.03l0,0.01l-0.24-0.05c-2.96-0.59-8.37-1.68-11.78-3.75c-1.94-1.18-3.04-2.33-3.01-3.91 c-2.56,1.53-5.25,2.51-8.01,2.9c-4.21,0.6-8.53-0.19-12.77-2.5c0.21,1.77-0.77,3.01-2.65,4.15c-2.92,1.77-7.61,2.54-11.04,3.1 c-0.8,0.13-1.53,0.25-2.23,0.39C27.08,90.15,26.03,90.36,25.02,90.59L25.02,90.59z M38.06,25.98 c6.61,11.54,19.36,19.25,43.05,20.13c0.69,2.01,0.47,4.12,0,6.24c-9.72,33.2-34.62,42.57-51.83,8.7l-2.58-6.92 c-5.27-10.77,4.55-6.38,8.14-14.01l1.51-6.63L38.06,25.98L38.06,25.98z M84.7,58.7c9.06-35.18,0.08-50.06-16.43-52.87 C64.76,1.99,58.22,0.25,53.6,0C13.7,2.02,11.88,44.53,21.87,72.53l9.8-2.16c2.89,4.18,5.93,7.41,9.04,9.75l0.1,0.16 c1.02,1.68,0.41,2.82-0.92,3.62c-2.41,1.47-6.78,2.18-9.98,2.7c-0.91,0.15-1.74,0.28-2.32,0.4c-10.48,2.05-17.33,4.49-21.66,9.6 C1.62,101.69,0,109.22,0,121.39c0,0.83,0.67,1.49,1.49,1.49h106.7c0.83,0,1.49-0.67,1.49-1.49c0-12.5-1.71-20.02-6.3-25.07 c-4.57-5.03-11.8-7.39-22.9-9.62l0,0l0-0.01l-0.24-0.05c-2.79-0.56-7.89-1.58-10.83-3.36c-1.5-0.91-2.35-2.05-1.55-3.45 c0.88-0.7,1.74-1.47,2.58-2.31c4.35-4.32,8.17-10.46,11.12-18.12L84.7,58.7L84.7,58.7z M88.67,91.67 c-11.57,12.35-23.02,17.86-34.38,17.52c-11.36-0.34-22.46-6.54-33.33-17.6c-5.84,1.62-9.97,3.68-12.74,6.94 c-3.63,4.28-5.1,10.82-5.22,21.36h103.69c-0.13-10.81-1.66-17.33-5.51-21.57C98.41,95.26,94.34,93.29,88.67,91.67L88.67,91.67z"/></g></svg>