<?xml version="1.0" encoding="UTF-8"?>
<svg viewBox="0 0 521.21063 506.86475" xmlns="http://www.w3.org/2000/svg" xmlns:xlink="http://www.w3.org/1999/xlink">
 <defs>
  <filter id="b">
   <feGaussianBlur stdDeviation=".63354"/>
  </filter>
  <filter id="p">
   <feGaussianBlur stdDeviation=".59599"/>
  </filter>
  <filter id="c" x="-.0592" y="-.11753" width="1.1184" height="1.2351">
   <feGaussianBlur stdDeviation="1.2766"/>
  </filter>
  <filter id="q" x="-.03712" y="-.15635" width="1.0742" height="1.3127">
   <feGaussianBlur stdDeviation=".81945"/>
  </filter>
  <filter id="o" x="-.4291" y="-.3065" width="1.8582" height="1.613">
   <feGaussianBlur stdDeviation="2.89015"/>
  </filter>
  <filter id="n" x="-.24548" y="-.17534" width="1.491" height="1.3507">
   <feGaussianBlur stdDeviation="1.65338"/>
  </filter>
  <filter id="m" x="-.28404" y="-.20289" width="1.5681" height="1.4058">
   <feGaussianBlur stdDeviation="1.91311"/>
  </filter>
  <filter id="l" x="-.61354" y="-.43824" width="2.2271" height="1.8765">
   <feGaussianBlur stdDeviation="4.13235"/>
  </filter>
  <filter id="k" x="-.60758" y="-.43399" width="2.2152" height="1.868">
   <feGaussianBlur stdDeviation="4.09224"/>
  </filter>
  <filter id="j" x="-.305" y="-.24889" width="1.61" height="1.4978">
   <feGaussianBlur stdDeviation="2.25986"/>
  </filter>
  <linearGradient id="d">
   <stop offset="0"/>
   <stop stop-opacity="0" offset="1"/>
  </linearGradient>
  <linearGradient id="h" x1="209.26" x2="238.13" gradientUnits="userSpaceOnUse">
   <stop stop-color="#b4b4b4" offset="0"/>
   <stop stop-color="#969696" stop-opacity="0" offset="1"/>
  </linearGradient>
  <linearGradient id="g" x1="210.27" x2="237.12" gradientUnits="userSpaceOnUse">
   <stop offset="0"/>
   <stop stop-opacity=".49804" offset=".29091"/>
   <stop stop-opacity="0" offset="1"/>
  </linearGradient>
  <linearGradient id="i" x1="250.08" x2="478.67" y1="157.58" y2="352.53" gradientTransform="matrix(1.0641 0 0 1 -26.581 -1.3681)" gradientUnits="userSpaceOnUse">
   <stop stop-color="#fff" stop-opacity=".2931" offset="0"/>
   <stop stop-opacity="0" offset="1"/>
  </linearGradient>
  <linearGradient id="f" x1="210.27" x2="237.12" gradientUnits="userSpaceOnUse" xlink:href="#d"/>
  <radialGradient id="e" cx="-356.49" cy="165.72" r="208.73" gradientTransform="matrix(1.3641 .69115 -.42178 1.0198 875.52 367.92)" gradientUnits="userSpaceOnUse">
   <stop stop-color="#2a2a2a" offset="0"/>
   <stop stop-opacity=".23276" offset="1"/>
  </radialGradient>
  <radialGradient id="a" cx="261.87" cy="215.03" r="8.0824" gradientTransform="matrix(1 0 0 1.4 0 -86.012)" gradientUnits="userSpaceOnUse" xlink:href="#d"/>
 </defs>
 <g transform="translate(-121.73 -70.051)">
  <path d="m243.78 170.65c-9.7904 8.7368-23.18-0.23734-34.174 6.5217-12.381 7.612-26.657 14.345-22.39 44.348 0.76364 16.345 27.486 21.483 28.282 37.826 1.3429 27.575-47.701 42.456-41.245 69.13 5.6824 23.477 54.379 8.8292 58.921 32.609 4.8479 25.381-47.31 34.21-44.78 60 1.2384 12.624 16.258 19.339 27.104 23.478 18.568 7.086 47.329-17.548 58.921 0 10.706 16.205-25.155 39.75-16.498 57.391 12.053 24.562 47.967 25.292 73.063 22.174 19.036-2.3649 31.517-30.111 50.672-30 27.775 0.16048 45.603 48.977 73.063 44.348 29.661-5.0006 36.275-55.52 62.457-71.739 17.549-10.871 49.707 5.4372 58.921-14.348 9.1932-19.74-25.216-39.171-23.569-61.304 2.1027-28.249 42.754-43.444 41.245-71.739-1.4637-27.454-47.892-36.424-47.137-63.913 0.84496-30.754 65.523-38.699 56.565-67.826-10.531-34.238-70.861 3.9772-96.631-18.261-11.512-9.9344-5.8422-34.888-17.676-44.348-23.353-18.667-60.308-23.496-86.025-9.1304-14.314 7.9958-9.0884 41.838-24.747 45.652-23.196 5.6498-35.697-49.853-58.921-44.348-17.589 4.1696-10.776 46.295-28.282 50.87-13.049 3.4095-34.712-53.836-47.137-48.261-10.507 4.7146 8.8259 42.993 0 50.87z" fill="url(#e)"/>
  <path d="m244.64 178.68c-9.557 8.1963-22.628-0.22266-33.36 6.1183-12.086 7.1411-26.021 13.457-21.856 41.605 0.74543 15.334 26.831 20.154 27.608 35.486 1.3108 25.869-46.564 39.83-40.262 64.854 5.547 22.025 53.083 8.2831 57.517 30.592 4.7324 23.811-46.182 32.094-43.713 56.289 1.2088 11.843 15.87 18.143 26.458 22.026 18.125 6.6477 46.2-16.463 57.517 0 10.45 15.203-24.555 37.291-16.105 53.841 11.766 23.043 46.823 23.727 71.321 20.802 18.582-2.2186 30.766-28.248 49.464-28.144 27.113 0.15055 44.516 45.948 71.321 41.605 28.954-4.6913 35.41-52.086 60.968-67.302 17.13-10.198 48.522 5.1008 57.517-13.46 8.9741-18.519-24.615-36.748-23.007-57.512 2.0526-26.501 41.734-40.757 40.262-67.302-1.4288-25.756-46.751-34.171-46.013-59.96 0.8248-28.852 63.961-36.306 55.216-63.631-10.28-32.12-69.172 3.7312-94.327-17.131-11.238-9.3199-5.703-32.73-17.255-41.605-22.797-17.513-58.87-22.043-83.974-8.5657-13.972 7.5012-8.8718 39.25-24.157 42.828-22.643 5.3003-34.846-46.77-57.517-41.605-17.17 3.9116-10.519 43.432-27.608 47.723-12.738 3.1986-33.884-50.506-46.013-45.276-10.256 4.423 8.6155 40.334 0 47.723z" fill="url(#i)"/>
  <g transform="matrix(.76774 0 0 -.81831 50.771 539.52)" filter="url(#p)" stroke-linecap="round">
   <path d="m235.22 233.23c-13.616-15.856-19.344-22.558-38.195-31.484" fill="none" stroke="#313131" stroke-width="8"/>
   <g transform="matrix(1.3988 0 0 1.4397 16.341 -110.41)" stroke="#212121" stroke-width="1.4093">
    <path d="m121.43 212.18-3.75-1.7857"/>
    <path d="m116.96 209.42c0 0.83829-0.59962 1.5178-1.3393 1.5178s-1.3393-0.67956-1.3393-1.5178 0.59962-1.5179 1.3393-1.5179 1.3393 0.67957 1.3393 1.5179z"/>
   </g>
   <g transform="matrix(.24808 1.4169 -1.3766 .25534 459.09 -37.882)" stroke="#212121" stroke-width="1.4093">
    <path d="m121.43 212.18-3.75-1.7857"/>
    <path d="m116.96 209.42c0 0.83829-0.59962 1.5178-1.3393 1.5178s-1.3393-0.67956-1.3393-1.5178 0.59962-1.5179 1.3393-1.5179 1.3393 0.67957 1.3393 1.5179z"/>
   </g>
   <g transform="matrix(.8476 -1.1453 1.1128 .87241 -157.42 160.45)" stroke="#212121" stroke-width="1.4093">
    <path d="m121.43 212.18-3.75-1.7857"/>
    <path d="m116.96 209.42c0 0.83829-0.59962 1.5178-1.3393 1.5178s-1.3393-0.67956-1.3393-1.5178 0.59962-1.5179 1.3393-1.5179 1.3393 0.67957 1.3393 1.5179z"/>
   </g>
   <g transform="matrix(-1.1135 .87144 -.84666 -1.1461 519.49 332.07)" stroke="#212121" stroke-width="1.4093">
    <path d="m121.43 212.18-3.75-1.7857"/>
    <path d="m116.96 209.42c0 0.83829-0.59962 1.5178-1.3393 1.5178s-1.3393-0.67956-1.3393-1.5178 0.59962-1.5179 1.3393-1.5179 1.3393 0.67957 1.3393 1.5179z"/>
   </g>
   <g transform="matrix(-.80442 -1.1778 1.1444 -.82797 49.633 530.43)" stroke="#212121" stroke-width="1.4093">
    <path d="m121.43 212.18-3.75-1.7857"/>
    <path d="m116.96 209.42c0 0.83829-0.59962 1.5178-1.3393 1.5178s-1.3393-0.67956-1.3393-1.5178 0.59962-1.5179 1.3393-1.5179 1.3393 0.67957 1.3393 1.5179z"/>
   </g>
   <path transform="matrix(.91828 -1.5635 1.5231 .94163 -283.29 217.2)" d="m152.86 225.93c0 2.3819-3.0381 4.3128-6.7857 4.3128s-6.7857-1.9309-6.7857-4.3128 3.0381-4.3128 6.7857-4.3128 6.7857 1.9309 6.7857 4.3128z" stroke="#212121" stroke-width="1.5347"/>
   <path transform="matrix(.91828 -1.5635 1.5231 .94163 -285.7 216.11)" d="m152.86 225.93c0 2.3819-3.0381 4.3128-6.7857 4.3128s-6.7857-1.9309-6.7857-4.3128 3.0381-4.3128 6.7857-4.3128 6.7857 1.9309 6.7857 4.3128z" stroke="#000" stroke-width="1.5347"/>
  </g>
  <path d="m333.74 133.75c1.8429-14.955 2.6451-21.262-5.4714-35.359" fill="none" stroke="#313131" stroke-linecap="round" stroke-width="8"/>
  <path transform="matrix(-1.0783 0 0 1.0684 556.89 62.64)" d="m234.36 363.44c-12.274 0-22.223-15.829-22.223-35.355s9.9497-35.355 22.223-35.355c0.29943 0 0.59883 0.01 0.89802 0.0289" fill="none" stroke="url(#g)" stroke-linecap="round" stroke-width="3.7267"/>
  <path transform="matrix(1.0783 0 0 1.0684 202.03 74.669)" d="m234.36 363.44c-12.274 0-22.223-15.829-22.223-35.355s9.9497-35.355 22.223-35.355c0.29943 0 0.59883 0.01 0.89802 0.0289" fill="none" stroke="url(#f)" stroke-linecap="round" stroke-width="3.7267"/>
  <path transform="matrix(1.0783 0 0 1.0684 58.91 60.629)" d="m276.78 189.69c0 25.105-9.9497 45.457-22.223 45.457s-22.223-20.352-22.223-45.457 9.9497-45.457 22.223-45.457 22.223 20.352 22.223 45.457z" fill="none" stroke="#000" stroke-linecap="round" stroke-width="3.7267"/>
  <path transform="matrix(1.3234 0 0 1.1634 105.49 53.45)" d="m276.78 189.69c0 25.105-9.9497 45.457-22.223 45.457s-22.223-20.352-22.223-45.457 9.9497-45.457 22.223-45.457 22.223 20.352 22.223 45.457z" fill="none" stroke="#000" stroke-linecap="round" stroke-width="3.2237"/>
  <path d="m350.83 451.08s11.224 14.131 21.785 15.109 33.767-15.109 33.767-15.109" fill="none" stroke="#000" stroke-width="3"/>
  <path transform="matrix(1.3938 0 0 1.2452 -32.781 -3.6313)" d="m310.12 339.7c0 13.11-7.6884 23.739-17.173 23.739s-17.173-10.628-17.173-23.739 7.6884-23.739 17.173-23.739 17.173 10.628 17.173 23.739z" fill="#232323" stroke="#232323" stroke-linecap="round" stroke-width="2.2772"/>
  <path transform="matrix(1.0215 .34072 .19464 -.48167 80.11 424.05)" d="m234.36 363.44c-12.274 0-22.223-15.829-22.223-35.355s9.9497-35.355 22.223-35.355c0.29943 0 0.59883 0.01 0.89802 0.0289" fill="none" stroke="url(#h)" stroke-linecap="round" stroke-width="5.3533"/>
  <path d="m326 306.45c-4.382-3.6533-8.4349-10.593-11.114-19.03-2.446-7.7023-3.8295-30.652-2.3267-38.596l0.9188-4.8566 19.573 0.4058c12.196 0.25285 19.851 0.83832 20.31 1.5533 1.5789 2.4606 2.1339 18.894 0.93022 27.545-3.8764 27.861-16.616 42.711-28.291 32.978z" fill="#fff"/>
  <path d="m433.61 321.67c-13.831-8.9829-21.729-39.226-16.812-64.382 1.6484-8.4339 3.71-14.631 3.8294-11.511 0.0509 1.3311 2.9998 2.6988 11.234 5.2106 6.1407 1.8731 17.047 5.2262 24.236 7.4514l13.071 4.0457 0.35883 9.0908c0.83267 21.095-6.47 41.707-17.61 49.702-5.5861 4.0093-12.51 4.1578-18.308 0.39255z" fill="#fff"/>
  <path transform="matrix(.68598 0 0 .8159 126.32 .79602)" d="m310.12 339.7c0 13.11-7.6884 23.739-17.173 23.739s-17.173-10.628-17.173-23.739 7.6884-23.739 17.173-23.739 17.173 10.628 17.173 23.739z" fill="#232323" stroke="#232323" stroke-linecap="round" stroke-width="4.01"/>
  <path transform="matrix(.68598 0 0 .8159 249.75 14.693)" d="m310.12 339.7c0 13.11-7.6884 23.739-17.173 23.739s-17.173-10.628-17.173-23.739 7.6884-23.739 17.173-23.739 17.173 10.628 17.173 23.739z" fill="#232323" stroke="#232323" stroke-linecap="round" stroke-width="4.01"/>
  <path transform="matrix(.10063 0 0 .19145 293.35 223.11)" d="m310.12 339.7c0 13.11-7.6884 23.739-17.173 23.739s-17.173-10.628-17.173-23.739 7.6884-23.739 17.173-23.739 17.173 10.628 17.173 23.739z" fill="#fff" stroke="#fff" stroke-linecap="round" stroke-width="21.613"/>
  <path transform="matrix(.14147 0 0 .17194 415.34 243.64)" d="m310.12 339.7c0 13.11-7.6884 23.739-17.173 23.739s-17.173-10.628-17.173-23.739 7.6884-23.739 17.173-23.739 17.173 10.628 17.173 23.739z" fill="#fff" stroke="#fff" stroke-linecap="round" stroke-width="19.235"/>
  <path d="m420.08 244.79 49.484 15.804" stroke="#000" stroke-linecap="round" stroke-width="4"/>
  <path d="m312.24 242.12 41.389 1.1791" stroke="#000" stroke-linecap="round" stroke-width="4"/>
  <path d="m356.73 402.1 5.1429 17.603s10.608-21.501 6.0779-27.794" fill="#fff" stroke="#fff"/>
  <g transform="matrix(1.1429 0 0 1.1413 -40.274 -43.606)" stroke-linecap="round">
   <path d="m235.22 233.23c-13.616-15.856-19.344-22.558-38.195-31.484" fill="none" stroke="#313131" stroke-width="8"/>
   <g transform="matrix(1.3988 0 0 1.4397 16.341 -110.41)" stroke="#212121" stroke-width="1.4093">
    <path d="m121.43 212.18-3.75-1.7857"/>
    <path d="m116.96 209.42c0 0.83829-0.59962 1.5178-1.3393 1.5178s-1.3393-0.67956-1.3393-1.5178 0.59962-1.5179 1.3393-1.5179 1.3393 0.67957 1.3393 1.5179z"/>
   </g>
   <g transform="matrix(.24808 1.4169 -1.3766 .25534 459.09 -37.882)" stroke="#212121" stroke-width="1.4093">
    <path d="m121.43 212.18-3.75-1.7857"/>
    <path d="m116.96 209.42c0 0.83829-0.59962 1.5178-1.3393 1.5178s-1.3393-0.67956-1.3393-1.5178 0.59962-1.5179 1.3393-1.5179 1.3393 0.67957 1.3393 1.5179z"/>
   </g>
   <g transform="matrix(.8476 -1.1453 1.1128 .87241 -157.42 160.45)" stroke="#212121" stroke-width="1.4093">
    <path d="m121.43 212.18-3.75-1.7857"/>
    <path d="m116.96 209.42c0 0.83829-0.59962 1.5178-1.3393 1.5178s-1.3393-0.67956-1.3393-1.5178 0.59962-1.5179 1.3393-1.5179 1.3393 0.67957 1.3393 1.5179z"/>
   </g>
   <g transform="matrix(-1.1135 .87144 -.84666 -1.1461 519.49 332.07)" stroke="#212121" stroke-width="1.4093">
    <path d="m121.43 212.18-3.75-1.7857"/>
    <path d="m116.96 209.42c0 0.83829-0.59962 1.5178-1.3393 1.5178s-1.3393-0.67956-1.3393-1.5178 0.59962-1.5179 1.3393-1.5179 1.3393 0.67957 1.3393 1.5179z"/>
   </g>
   <g transform="matrix(-.80442 -1.1778 1.1444 -.82797 49.633 530.43)" stroke="#212121" stroke-width="1.4093">
    <path d="m121.43 212.18-3.75-1.7857"/>
    <path d="m116.96 209.42c0 0.83829-0.59962 1.5178-1.3393 1.5178s-1.3393-0.67956-1.3393-1.5178 0.59962-1.5179 1.3393-1.5179 1.3393 0.67957 1.3393 1.5179z"/>
   </g>
   <path transform="matrix(.91828 -1.5635 1.5231 .94163 -283.29 217.2)" d="m152.86 225.93c0 2.3819-3.0381 4.3128-6.7857 4.3128s-6.7857-1.9309-6.7857-4.3128 3.0381-4.3128 6.7857-4.3128 6.7857 1.9309 6.7857 4.3128z" stroke="#212121" stroke-width="1.5347"/>
   <path transform="matrix(.91828 -1.5635 1.5231 .94163 -285.7 216.11)" d="m152.86 225.93c0 2.3819-3.0381 4.3128-6.7857 4.3128s-6.7857-1.9309-6.7857-4.3128 3.0381-4.3128 6.7857-4.3128 6.7857 1.9309 6.7857 4.3128z" stroke="#000" stroke-width="1.5347"/>
  </g>
  <g transform="matrix(-.16909 .91019 .76873 .20021 162.63 -70.528)" stroke-linecap="round">
   <path d="m235.22 233.23c-13.616-15.856-19.344-22.558-38.195-31.484" fill="none" stroke="#313131" stroke-width="8"/>
   <g transform="matrix(1.3988 0 0 1.4397 16.341 -110.41)" stroke="#212121" stroke-width="1.4093">
    <path d="m121.43 212.18-3.75-1.7857"/>
    <path d="m116.96 209.42c0 0.83829-0.59962 1.5178-1.3393 1.5178s-1.3393-0.67956-1.3393-1.5178 0.59962-1.5179 1.3393-1.5179 1.3393 0.67957 1.3393 1.5179z"/>
   </g>
   <g transform="matrix(.24808 1.4169 -1.3766 .25534 459.09 -37.882)" stroke="#212121" stroke-width="1.4093">
    <path d="m121.43 212.18-3.75-1.7857"/>
    <path d="m116.96 209.42c0 0.83829-0.59962 1.5178-1.3393 1.5178s-1.3393-0.67956-1.3393-1.5178 0.59962-1.5179 1.3393-1.5179 1.3393 0.67957 1.3393 1.5179z"/>
   </g>
   <g transform="matrix(.8476 -1.1453 1.1128 .87241 -157.42 160.45)" stroke="#212121" stroke-width="1.4093">
    <path d="m121.43 212.18-3.75-1.7857"/>
    <path d="m116.96 209.42c0 0.83829-0.59962 1.5178-1.3393 1.5178s-1.3393-0.67956-1.3393-1.5178 0.59962-1.5179 1.3393-1.5179 1.3393 0.67957 1.3393 1.5179z"/>
   </g>
   <g transform="matrix(-1.1135 .87144 -.84666 -1.1461 519.49 332.07)" stroke="#212121" stroke-width="1.4093">
    <path d="m121.43 212.18-3.75-1.7857"/>
    <path d="m116.96 209.42c0 0.83829-0.59962 1.5178-1.3393 1.5178s-1.3393-0.67956-1.3393-1.5178 0.59962-1.5179 1.3393-1.5179 1.3393 0.67957 1.3393 1.5179z"/>
   </g>
   <g transform="matrix(-.80442 -1.1778 1.1444 -.82797 49.633 530.43)" stroke="#212121" stroke-width="1.4093">
    <path d="m121.43 212.18-3.75-1.7857"/>
    <path d="m116.96 209.42c0 0.83829-0.59962 1.5178-1.3393 1.5178s-1.3393-0.67956-1.3393-1.5178 0.59962-1.5179 1.3393-1.5179 1.3393 0.67957 1.3393 1.5179z"/>
   </g>
   <path transform="matrix(.91828 -1.5635 1.5231 .94163 -283.29 217.2)" d="m152.86 225.93c0 2.3819-3.0381 4.3128-6.7857 4.3128s-6.7857-1.9309-6.7857-4.3128 3.0381-4.3128 6.7857-4.3128 6.7857 1.9309 6.7857 4.3128z" stroke="#212121" stroke-width="1.5347"/>
   <path transform="matrix(.91828 -1.5635 1.5231 .94163 -285.7 216.11)" d="m152.86 225.93c0 2.3819-3.0381 4.3128-6.7857 4.3128s-6.7857-1.9309-6.7857-4.3128 3.0381-4.3128 6.7857-4.3128 6.7857 1.9309 6.7857 4.3128z" stroke="#000" stroke-width="1.5347"/>
  </g>
  <path d="m457.92 147.43c-1.9341-20.81-2.7714-29.587 3.9147-49.343" fill="none" stroke="#313131" stroke-linecap="round" stroke-width="8"/>
  <g transform="matrix(.97231 1.0056 -1.035 1.0008 561.35 -248.79)" stroke="#212121" stroke-linecap="round" stroke-width="1.4093">
   <path d="m121.43 212.18-3.75-1.7857"/>
   <path d="m116.96 209.42c0 0.83829-0.59962 1.5178-1.3393 1.5178s-1.3393-0.67956-1.3393-1.5178 0.59962-1.5179 1.3393-1.5179 1.3393 0.67957 1.3393 1.5179z"/>
  </g>
  <g transform="matrix(-.84621 1.1632 -1.1405 -.81219 816.97 119.93)" stroke="#212121" stroke-linecap="round" stroke-width="1.4093">
   <path d="m121.43 212.18-3.75-1.7857"/>
   <path d="m116.96 209.42c0 0.83829-0.59962 1.5178-1.3393 1.5178s-1.3393-0.67956-1.3393-1.5178 0.59962-1.5179 1.3393-1.5179 1.3393 0.67957 1.3393 1.5179z"/>
  </g>
  <g transform="matrix(1.4126 -.18676 .14628 1.4064 245.85 -185.43)" stroke="#212121" stroke-linecap="round" stroke-width="1.4093">
   <path d="m121.43 212.18-3.75-1.7857"/>
   <path d="m116.96 209.42c0 0.83829-0.59962 1.5178-1.3393 1.5178s-1.3393-0.67956-1.3393-1.5178 0.59962-1.5179 1.3393-1.5179 1.3393 0.67957 1.3393 1.5179z"/>
  </g>
  <g transform="matrix(-1.4005 -.19475 .2354 -1.4053 592.99 420.5)" stroke="#212121" stroke-linecap="round" stroke-width="1.4093">
   <path d="m121.43 212.18-3.75-1.7857"/>
   <path d="m116.96 209.42c0 0.83829-0.59962 1.5178-1.3393 1.5178s-1.3393-0.67956-1.3393-1.5178 0.59962-1.5179 1.3393-1.5179 1.3393 0.67957 1.3393 1.5179z"/>
  </g>
  <g transform="matrix(.28762 -1.397 1.3907 .24717 123.78 220.6)" stroke="#212121" stroke-linecap="round" stroke-width="1.4093">
   <path d="m121.43 212.18-3.75-1.7857"/>
   <path d="m116.96 209.42c0 0.83829-0.59962 1.5178-1.3393 1.5178s-1.3393-0.67956-1.3393-1.5178 0.59962-1.5179 1.3393-1.5179 1.3393 0.67957 1.3393 1.5179z"/>
  </g>
  <path transform="matrix(1.7623 -.4266 .38174 1.7495 117.56 -236.48)" d="m152.86 225.93c0 2.3819-3.0381 4.3128-6.7857 4.3128s-6.7857-1.9309-6.7857-4.3128 3.0381-4.3128 6.7857-4.3128 6.7857 1.9309 6.7857 4.3128z" stroke="#212121" stroke-linecap="round" stroke-width="1.5347"/>
  <path transform="matrix(1.7623 -.4266 .38174 1.7495 116.66 -238.96)" d="m152.86 225.93c0 2.3819-3.0381 4.3128-6.7857 4.3128s-6.7857-1.9309-6.7857-4.3128 3.0381-4.3128 6.7857-4.3128 6.7857 1.9309 6.7857 4.3128z" fill="#555" stroke="#000" stroke-linecap="round" stroke-width="1.5347"/>
  <g transform="matrix(.05167 1.1925 -1.1234 .05485 770.68 -82.912)" stroke-linecap="round">
   <path d="m235.22 233.23c-13.616-15.856-19.344-22.558-38.195-31.484" fill="none" stroke="#313131" stroke-width="8"/>
   <g transform="matrix(1.3988 0 0 1.4397 16.341 -110.41)" stroke="#212121" stroke-width="1.4093">
    <path d="m121.43 212.18-3.75-1.7857"/>
    <path d="m116.96 209.42c0 0.83829-0.59962 1.5178-1.3393 1.5178s-1.3393-0.67956-1.3393-1.5178 0.59962-1.5179 1.3393-1.5179 1.3393 0.67957 1.3393 1.5179z"/>
   </g>
   <g transform="matrix(.24808 1.4169 -1.3766 .25534 459.09 -37.882)" stroke="#212121" stroke-width="1.4093">
    <path d="m121.43 212.18-3.75-1.7857"/>
    <path d="m116.96 209.42c0 0.83829-0.59962 1.5178-1.3393 1.5178s-1.3393-0.67956-1.3393-1.5178 0.59962-1.5179 1.3393-1.5179 1.3393 0.67957 1.3393 1.5179z"/>
   </g>
   <g transform="matrix(.8476 -1.1453 1.1128 .87241 -157.42 160.45)" stroke="#212121" stroke-width="1.4093">
    <path d="m121.43 212.18-3.75-1.7857"/>
    <path d="m116.96 209.42c0 0.83829-0.59962 1.5178-1.3393 1.5178s-1.3393-0.67956-1.3393-1.5178 0.59962-1.5179 1.3393-1.5179 1.3393 0.67957 1.3393 1.5179z"/>
   </g>
   <g transform="matrix(-1.1135 .87144 -.84666 -1.1461 519.49 332.07)" stroke="#212121" stroke-width="1.4093">
    <path d="m121.43 212.18-3.75-1.7857"/>
    <path d="m116.96 209.42c0 0.83829-0.59962 1.5178-1.3393 1.5178s-1.3393-0.67956-1.3393-1.5178 0.59962-1.5179 1.3393-1.5179 1.3393 0.67957 1.3393 1.5179z"/>
   </g>
   <g transform="matrix(-.80442 -1.1778 1.1444 -.82797 49.633 530.43)" stroke="#212121" stroke-width="1.4093">
    <path d="m121.43 212.18-3.75-1.7857"/>
    <path d="m116.96 209.42c0 0.83829-0.59962 1.5178-1.3393 1.5178s-1.3393-0.67956-1.3393-1.5178 0.59962-1.5179 1.3393-1.5179 1.3393 0.67957 1.3393 1.5179z"/>
   </g>
   <path transform="matrix(.91828 -1.5635 1.5231 .94163 -283.29 217.2)" d="m152.86 225.93c0 2.3819-3.0381 4.3128-6.7857 4.3128s-6.7857-1.9309-6.7857-4.3128 3.0381-4.3128 6.7857-4.3128 6.7857 1.9309 6.7857 4.3128z" stroke="#212121" stroke-width="1.5347"/>
   <path transform="matrix(.91828 -1.5635 1.5231 .94163 -285.7 216.11)" d="m152.86 225.93c0 2.3819-3.0381 4.3128-6.7857 4.3128s-6.7857-1.9309-6.7857-4.3128 3.0381-4.3128 6.7857-4.3128 6.7857 1.9309 6.7857 4.3128z" stroke="#000" stroke-width="1.5347"/>
  </g>
  <g transform="matrix(.88761 0 0 .97981 69.677 3.9886)" stroke-linecap="round">
   <path d="m551.6 292.65c19.942-15.856 28.33-22.558 55.937-31.484" fill="none" stroke="#313131" stroke-width="8"/>
   <g transform="matrix(-2.0486 0 0 1.4397 872.16 -50.989)" stroke="#212121" stroke-width="1.1646">
    <path d="m121.43 212.18-3.75-1.7857"/>
    <path d="m116.96 209.42c0 0.83829-0.59962 1.5178-1.3393 1.5178s-1.3393-0.67956-1.3393-1.5178 0.59962-1.5179 1.3393-1.5179 1.3393 0.67957 1.3393 1.5179z"/>
   </g>
   <g transform="matrix(-.36331 1.4169 2.0161 .25534 223.73 21.535)" stroke="#212121" stroke-width="1.1646">
    <path d="m121.43 212.18-3.75-1.7857"/>
    <path d="m116.96 209.42c0 0.83829-0.59962 1.5178-1.3393 1.5178s-1.3393-0.67956-1.3393-1.5178 0.59962-1.5179 1.3393-1.5179 1.3393 0.67957 1.3393 1.5179z"/>
   </g>
   <g transform="matrix(-1.2413 -1.1453 -1.6296 .87241 1126.6 219.87)" stroke="#212121" stroke-width="1.1646">
    <path d="m121.43 212.18-3.75-1.7857"/>
    <path d="m116.96 209.42c0 0.83829-0.59962 1.5178-1.3393 1.5178s-1.3393-0.67956-1.3393-1.5178 0.59962-1.5179 1.3393-1.5179 1.3393 0.67957 1.3393 1.5179z"/>
   </g>
   <g transform="matrix(1.6307 .87144 1.24 -1.1461 135.28 391.49)" stroke="#212121" stroke-width="1.1646">
    <path d="m121.43 212.18-3.75-1.7857"/>
    <path d="m116.96 209.42c0 0.83829-0.59962 1.5178-1.3393 1.5178s-1.3393-0.67956-1.3393-1.5178 0.59962-1.5179 1.3393-1.5179 1.3393 0.67957 1.3393 1.5179z"/>
   </g>
   <g transform="matrix(1.1781 -1.1778 -1.6759 -.82797 823.4 589.85)" stroke="#212121" stroke-width="1.1646">
    <path d="m121.43 212.18-3.75-1.7857"/>
    <path d="m116.96 209.42c0 0.83829-0.59962 1.5178-1.3393 1.5178s-1.3393-0.67956-1.3393-1.5178 0.59962-1.5179 1.3393-1.5179 1.3393 0.67957 1.3393 1.5179z"/>
   </g>
   <path transform="matrix(-1.3448 -1.5635 -2.2306 .94163 1311 276.61)" d="m152.86 225.93c0 2.3819-3.0381 4.3128-6.7857 4.3128s-6.7857-1.9309-6.7857-4.3128 3.0381-4.3128 6.7857-4.3128 6.7857 1.9309 6.7857 4.3128z" stroke="#212121" stroke-width="1.2682"/>
   <path transform="matrix(-1.3448 -1.5635 -2.2306 .94163 1314.5 275.53)" d="m152.86 225.93c0 2.3819-3.0381 4.3128-6.7857 4.3128s-6.7857-1.9309-6.7857-4.3128 3.0381-4.3128 6.7857-4.3128 6.7857 1.9309 6.7857 4.3128z" fill="#484848" stroke="#000" stroke-width="1.2682"/>
  </g>
  <g transform="matrix(-.56596 -.94883 -.82444 .65135 894.32 443.15)" stroke-linecap="round">
   <path d="m235.22 233.23c-13.616-15.856-19.344-22.558-38.195-31.484" fill="none" stroke="#313131" stroke-width="8"/>
   <g transform="matrix(1.3988 0 0 1.4397 16.341 -110.41)" stroke="#212121" stroke-width="1.4093">
    <path d="m121.43 212.18-3.75-1.7857"/>
    <path d="m116.96 209.42c0 0.83829-0.59962 1.5178-1.3393 1.5178s-1.3393-0.67956-1.3393-1.5178 0.59962-1.5179 1.3393-1.5179 1.3393 0.67957 1.3393 1.5179z"/>
   </g>
   <g transform="matrix(.24808 1.4169 -1.3766 .25534 459.09 -37.882)" stroke="#212121" stroke-width="1.4093">
    <path d="m121.43 212.18-3.75-1.7857"/>
    <path d="m116.96 209.42c0 0.83829-0.59962 1.5178-1.3393 1.5178s-1.3393-0.67956-1.3393-1.5178 0.59962-1.5179 1.3393-1.5179 1.3393 0.67957 1.3393 1.5179z"/>
   </g>
   <g transform="matrix(.8476 -1.1453 1.1128 .87241 -157.42 160.45)" stroke="#212121" stroke-width="1.4093">
    <path d="m121.43 212.18-3.75-1.7857"/>
    <path d="m116.96 209.42c0 0.83829-0.59962 1.5178-1.3393 1.5178s-1.3393-0.67956-1.3393-1.5178 0.59962-1.5179 1.3393-1.5179 1.3393 0.67957 1.3393 1.5179z"/>
   </g>
   <g transform="matrix(-1.1135 .87144 -.84666 -1.1461 519.49 332.07)" stroke="#212121" stroke-width="1.4093">
    <path d="m121.43 212.18-3.75-1.7857"/>
    <path d="m116.96 209.42c0 0.83829-0.59962 1.5178-1.3393 1.5178s-1.3393-0.67956-1.3393-1.5178 0.59962-1.5179 1.3393-1.5179 1.3393 0.67957 1.3393 1.5179z"/>
   </g>
   <g transform="matrix(-.80442 -1.1778 1.1444 -.82797 49.633 530.43)" stroke="#212121" stroke-width="1.4093">
    <path d="m121.43 212.18-3.75-1.7857"/>
    <path d="m116.96 209.42c0 0.83829-0.59962 1.5178-1.3393 1.5178s-1.3393-0.67956-1.3393-1.5178 0.59962-1.5179 1.3393-1.5179 1.3393 0.67957 1.3393 1.5179z"/>
   </g>
   <path transform="matrix(.91828 -1.5635 1.5231 .94163 -283.29 217.2)" d="m152.86 225.93c0 2.3819-3.0381 4.3128-6.7857 4.3128s-6.7857-1.9309-6.7857-4.3128 3.0381-4.3128 6.7857-4.3128 6.7857 1.9309 6.7857 4.3128z" stroke="#212121" stroke-width="1.5347"/>
   <path transform="matrix(.91828 -1.5635 1.5231 .94163 -285.7 216.11)" d="m152.86 225.93c0 2.3819-3.0381 4.3128-6.7857 4.3128s-6.7857-1.9309-6.7857-4.3128 3.0381-4.3128 6.7857-4.3128 6.7857 1.9309 6.7857 4.3128z" stroke="#000" stroke-width="1.5347"/>
  </g>
  <g transform="matrix(-1.2691 0 0 -1.0606 814.48 697.66)" stroke-linecap="round">
   <path d="m235.22 233.23c-13.616-15.856-19.344-22.558-38.195-31.484" fill="none" stroke="#313131" stroke-width="7.4429"/>
   <g transform="matrix(1.3988 0 0 1.4397 16.341 -110.41)" stroke="#212121" stroke-width="1.3112">
    <path d="m121.43 212.18-3.75-1.7857"/>
    <path d="m116.96 209.42c0 0.83829-0.59962 1.5178-1.3393 1.5178s-1.3393-0.67956-1.3393-1.5178 0.59962-1.5179 1.3393-1.5179 1.3393 0.67957 1.3393 1.5179z"/>
   </g>
   <g transform="matrix(.24808 1.4169 -1.3766 .25534 459.09 -37.882)" stroke="#212121" stroke-width="1.3112">
    <path d="m121.43 212.18-3.75-1.7857"/>
    <path d="m116.96 209.42c0 0.83829-0.59962 1.5178-1.3393 1.5178s-1.3393-0.67956-1.3393-1.5178 0.59962-1.5179 1.3393-1.5179 1.3393 0.67957 1.3393 1.5179z"/>
   </g>
   <g transform="matrix(.8476 -1.1453 1.1128 .87241 -157.42 160.45)" stroke="#212121" stroke-width="1.3112">
    <path d="m121.43 212.18-3.75-1.7857"/>
    <path d="m116.96 209.42c0 0.83829-0.59962 1.5178-1.3393 1.5178s-1.3393-0.67956-1.3393-1.5178 0.59962-1.5179 1.3393-1.5179 1.3393 0.67957 1.3393 1.5179z"/>
   </g>
   <g transform="matrix(-1.1135 .87144 -.84666 -1.1461 519.49 332.07)" stroke="#212121" stroke-width="1.3112">
    <path d="m121.43 212.18-3.75-1.7857"/>
    <path d="m116.96 209.42c0 0.83829-0.59962 1.5178-1.3393 1.5178s-1.3393-0.67956-1.3393-1.5178 0.59962-1.5179 1.3393-1.5179 1.3393 0.67957 1.3393 1.5179z"/>
   </g>
   <g transform="matrix(-.80442 -1.1778 1.1444 -.82797 49.633 530.43)" stroke="#212121" stroke-width="1.3112">
    <path d="m121.43 212.18-3.75-1.7857"/>
    <path d="m116.96 209.42c0 0.83829-0.59962 1.5178-1.3393 1.5178s-1.3393-0.67956-1.3393-1.5178 0.59962-1.5179 1.3393-1.5179 1.3393 0.67957 1.3393 1.5179z"/>
   </g>
   <path transform="matrix(.91828 -1.5635 1.5231 .94163 -283.29 217.2)" d="m152.86 225.93c0 2.3819-3.0381 4.3128-6.7857 4.3128s-6.7857-1.9309-6.7857-4.3128 3.0381-4.3128 6.7857-4.3128 6.7857 1.9309 6.7857 4.3128z" stroke="#212121" stroke-width="1.4278"/>
   <path transform="matrix(.91828 -1.5635 1.5231 .94163 -285.7 216.11)" d="m152.86 225.93c0 2.3819-3.0381 4.3128-6.7857 4.3128s-6.7857-1.9309-6.7857-4.3128 3.0381-4.3128 6.7857-4.3128 6.7857 1.9309 6.7857 4.3128z" stroke="#000" stroke-width="1.4278"/>
  </g>
  <g transform="matrix(.95084 0 0 .92094 12.549 24.128)" stroke-linecap="round">
   <path d="m191.9 304.56c-26.555-4.334-19.05-2.6728-45.544 1.6776" fill="none" stroke="#313131" stroke-width="8"/>
   <g transform="matrix(1.4437 -.84915 1.1352 1.1441 -286.25 167.87)" stroke="#212121" stroke-width="1.2366">
    <path d="m121.43 212.18-3.75-1.7857"/>
    <path d="m116.96 209.42c0 0.83829-0.59962 1.5178-1.3393 1.5178s-1.3393-0.67956-1.3393-1.5178 0.59962-1.5179 1.3393-1.5179 1.3393 0.67957 1.3393 1.5179z"/>
   </g>
   <g transform="matrix(1.3732 .97537 -1.2195 1.0386 227.9 -43.276)" stroke="#212121" stroke-width="1.2366">
    <path d="m121.43 212.18-3.75-1.7857"/>
    <path d="m116.96 209.42c0 0.83829-0.59962 1.5178-1.3393 1.5178s-1.3393-0.67956-1.3393-1.5178 0.59962-1.5179 1.3393-1.5179 1.3393 0.67957 1.3393 1.5179z"/>
   </g>
   <g transform="matrix(-.0282 -1.4247 1.8363 .01777 -252.03 488.59)" stroke="#212121" stroke-width="1.2366">
    <path d="m121.43 212.18-3.75-1.7857"/>
    <path d="m116.96 209.42c0 0.83829-0.59962 1.5178-1.3393 1.5178s-1.3393-0.67956-1.3393-1.5178 0.59962-1.5179 1.3393-1.5179 1.3393 0.67957 1.3393 1.5179z"/>
   </g>
   <g transform="matrix(-.46213 1.3684 -1.7774 -.39675 581.92 214.05)" stroke="#212121" stroke-width="1.2366">
    <path d="m121.43 212.18-3.75-1.7857"/>
    <path d="m116.96 209.42c0 0.83829-0.59962 1.5178-1.3393 1.5178s-1.3393-0.67956-1.3393-1.5178 0.59962-1.5179 1.3393-1.5179 1.3393 0.67957 1.3393 1.5179z"/>
   </g>
   <g transform="matrix(-1.7589 -.44766 .52829 -1.3526 253.38 656.91)" stroke="#212121" stroke-width="1.2366">
    <path d="m121.43 212.18-3.75-1.7857"/>
    <path d="m116.96 209.42c0 0.83829-0.59962 1.5178-1.3393 1.5178s-1.3393-0.67956-1.3393-1.5178 0.59962-1.5179 1.3393-1.5179 1.3393 0.67957 1.3393 1.5179z"/>
   </g>
   <path transform="matrix(-.28494 -1.7999 2.3144 -.17632 -337.21 610.1)" d="m152.86 225.93c0 2.3819-3.0381 4.3128-6.7857 4.3128s-6.7857-1.9309-6.7857-4.3128 3.0381-4.3128 6.7857-4.3128 6.7857 1.9309 6.7857 4.3128z" stroke="#212121" stroke-width="1.3466"/>
   <path transform="matrix(-.28494 -1.7999 2.3144 -.17632 -340.55 610.7)" d="m152.86 225.93c0 2.3819-3.0381 4.3128-6.7857 4.3128s-6.7857-1.9309-6.7857-4.3128 3.0381-4.3128 6.7857-4.3128 6.7857 1.9309 6.7857 4.3128z" fill="#969696" stroke="#000" stroke-width="1.3466"/>
  </g>
  <g transform="matrix(.86075 .50902 .50902 -.86075 -45.934 581.4)" stroke-linecap="round">
   <path d="m235.22 233.23c-13.616-15.856-19.344-22.558-38.195-31.484" fill="none" stroke="#313131" stroke-width="8"/>
   <g transform="matrix(1.3988 0 0 1.4397 16.341 -110.41)" stroke="#212121" stroke-width="1.4093">
    <path d="m121.43 212.18-3.75-1.7857"/>
    <path d="m116.96 209.42c0 0.83829-0.59962 1.5178-1.3393 1.5178s-1.3393-0.67956-1.3393-1.5178 0.59962-1.5179 1.3393-1.5179 1.3393 0.67957 1.3393 1.5179z"/>
   </g>
   <g transform="matrix(.24808 1.4169 -1.3766 .25534 459.09 -37.882)" stroke="#212121" stroke-width="1.4093">
    <path d="m121.43 212.18-3.75-1.7857"/>
    <path d="m116.96 209.42c0 0.83829-0.59962 1.5178-1.3393 1.5178s-1.3393-0.67956-1.3393-1.5178 0.59962-1.5179 1.3393-1.5179 1.3393 0.67957 1.3393 1.5179z"/>
   </g>
   <g transform="matrix(.8476 -1.1453 1.1128 .87241 -157.42 160.45)" stroke="#212121" stroke-width="1.4093">
    <path d="m121.43 212.18-3.75-1.7857"/>
    <path d="m116.96 209.42c0 0.83829-0.59962 1.5178-1.3393 1.5178s-1.3393-0.67956-1.3393-1.5178 0.59962-1.5179 1.3393-1.5179 1.3393 0.67957 1.3393 1.5179z"/>
   </g>
   <g transform="matrix(-1.1135 .87144 -.84666 -1.1461 519.49 332.07)" stroke="#212121" stroke-width="1.4093">
    <path d="m121.43 212.18-3.75-1.7857"/>
    <path d="m116.96 209.42c0 0.83829-0.59962 1.5178-1.3393 1.5178s-1.3393-0.67956-1.3393-1.5178 0.59962-1.5179 1.3393-1.5179 1.3393 0.67957 1.3393 1.5179z"/>
   </g>
   <g transform="matrix(-.80442 -1.1778 1.1444 -.82797 49.633 530.43)" stroke="#212121" stroke-width="1.4093">
    <path d="m121.43 212.18-3.75-1.7857"/>
    <path d="m116.96 209.42c0 0.83829-0.59962 1.5178-1.3393 1.5178s-1.3393-0.67956-1.3393-1.5178 0.59962-1.5179 1.3393-1.5179 1.3393 0.67957 1.3393 1.5179z"/>
   </g>
   <path transform="matrix(.91828 -1.5635 1.5231 .94163 -283.29 217.2)" d="m152.86 225.93c0 2.3819-3.0381 4.3128-6.7857 4.3128s-6.7857-1.9309-6.7857-4.3128 3.0381-4.3128 6.7857-4.3128 6.7857 1.9309 6.7857 4.3128z" stroke="#212121" stroke-width="1.5347"/>
   <path transform="matrix(.91828 -1.5635 1.5231 .94163 -285.7 216.11)" d="m152.86 225.93c0 2.3819-3.0381 4.3128-6.7857 4.3128s-6.7857-1.9309-6.7857-4.3128 3.0381-4.3128 6.7857-4.3128 6.7857 1.9309 6.7857 4.3128z" stroke="#000" stroke-width="1.5347"/>
  </g>
  <g transform="matrix(-1.1307 -.50291 .5872 -.99251 337.22 816.1)" stroke="#212121" stroke-linecap="round" stroke-width="1.6798">
   <path d="m121.43 212.18-3.75-1.7857"/>
   <path d="m116.96 209.42c0 0.83829-0.59962 1.5178-1.3393 1.5178s-1.3393-0.67956-1.3393-1.5178 0.59962-1.5179 1.3393-1.5179 1.3393 0.67957 1.3393 1.5179z"/>
  </g>
  <g transform="matrix(.84697 0 0 .87112 50.578 69.38)" stroke-linecap="round">
   <path d="m337.48 500.76c-11.702 12.87-16.653 18.288-21.497 34.283" fill="none" stroke="#313131" stroke-width="8"/>
   <g transform="matrix(-.21802 -1.0943 1.2553 -.20135 71.988 720.05)" stroke="#212121" stroke-width="1.6798">
    <path d="m121.43 212.18-3.75-1.7857"/>
    <path d="m116.96 209.42c0 0.83829-0.59962 1.5178-1.3393 1.5178s-1.3393-0.67956-1.3393-1.5178 0.59962-1.5179 1.3393-1.5179 1.3393 0.67957 1.3393 1.5179z"/>
   </g>
   <g transform="matrix(1.1967 -.39222 .43718 1.0412 66.212 363.54)" stroke="#212121" stroke-width="1.6798">
    <path d="m121.43 212.18-3.75-1.7857"/>
    <path d="m116.96 209.42c0 0.83829-0.59962 1.5178-1.3393 1.5178s-1.3393-0.67956-1.3393-1.5178 0.59962-1.5179 1.3393-1.5179 1.3393 0.67957 1.3393 1.5179z"/>
   </g>
   <g transform="matrix(.93333 .74919 -.86725 .82262 379.35 264.56)" stroke="#212121" stroke-width="1.6798">
    <path d="m121.43 212.18-3.75-1.7857"/>
    <path d="m116.96 209.42c0 0.83829-0.59962 1.5178-1.3393 1.5178s-1.3393-0.67956-1.3393-1.5178 0.59962-1.5179 1.3393-1.5179 1.3393 0.67957 1.3393 1.5179z"/>
   </g>
   <g transform="matrix(-.90155 .79402 -.90024 -.77944 625.53 604.38)" stroke="#212121" stroke-width="1.6798">
    <path d="m121.43 212.18-3.75-1.7857"/>
    <path d="m116.96 209.42c0 0.83829-0.59962 1.5178-1.3393 1.5178s-1.3393-0.67956-1.3393-1.5178 0.59962-1.5179 1.3393-1.5179 1.3393 0.67957 1.3393 1.5179z"/>
   </g>
   <path transform="matrix(-1.5063 -.49972 .58359 -1.3232 404.32 908.64)" d="m152.86 225.93c0 2.3819-3.0381 4.3128-6.7857 4.3128s-6.7857-1.9309-6.7857-4.3128 3.0381-4.3128 6.7857-4.3128 6.7857 1.9309 6.7857 4.3128z" stroke="#212121" stroke-width="1.8293"/>
   <path transform="matrix(-1.5063 -.49972 .58359 -1.3232 403.75 910.67)" d="m152.86 225.93c0 2.3819-3.0381 4.3128-6.7857 4.3128s-6.7857-1.9309-6.7857-4.3128 3.0381-4.3128 6.7857-4.3128 6.7857 1.9309 6.7857 4.3128z" fill="#858585" stroke="#000" stroke-width="1.8293"/>
  </g>
  <path d="m442.24 511.27c7.4647 19.522 10.594 27.764 25.325 42.529" fill="none" stroke="#313131" stroke-linecap="round" stroke-width="8"/>
  <path d="m475.51 563.73 4.0697 4.1908" stroke="#212121" stroke-linecap="round" stroke-width="2"/>
  <path transform="matrix(-1.3167 -.47219 .48602 -1.3552 532.27 908.63)" d="m116.96 209.42c0 0.83829-0.59962 1.5178-1.3393 1.5178s-1.3393-0.67956-1.3393-1.5178 0.59962-1.5179 1.3393-1.5179 1.3393 0.67957 1.3393 1.5179z" stroke="#212121" stroke-linecap="round" stroke-width="1.4093"/>
  <path d="m462.96 566.38-3.3859 4.9149" stroke="#212121" stroke-linecap="round" stroke-width="2"/>
  <path transform="matrix(.2448 -1.4175 1.382 .22436 139.99 690.9)" d="m116.96 209.42c0 0.83829-0.59962 1.5178-1.3393 1.5178s-1.3393-0.67956-1.3393-1.5178 0.59962-1.5179 1.3393-1.5179 1.3393 0.67957 1.3393 1.5179z" stroke="#212121" stroke-linecap="round" stroke-width="1.4093"/>
  <path d="m483.67 554.54 5.7863-0.83266" stroke="#212121" stroke-linecap="round" stroke-width="2"/>
  <path transform="matrix(-1.1845 .79196 -.75293 -1.1968 787.26 712.32)" d="m116.96 209.42c0 0.83829-0.59962 1.5178-1.3393 1.5178s-1.3393-0.67956-1.3393-1.5178 0.59962-1.5179 1.3393-1.5179 1.3393 0.67957 1.3393 1.5179z" stroke="#212121" stroke-linecap="round" stroke-width="1.4093"/>
  <path d="m458.03 557.86-5.7658-0.7702" stroke="#212121" stroke-linecap="round" stroke-width="2"/>
  <path transform="matrix(1.3423 -.44442 .41009 1.3646 208.03 322.28)" d="m116.96 209.42c0 0.83829-0.59962 1.5178-1.3393 1.5178s-1.3393-0.67956-1.3393-1.5178 0.59962-1.5179 1.3393-1.5179 1.3393 0.67957 1.3393 1.5179z" stroke="#212121" stroke-linecap="round" stroke-width="1.4093"/>
  <path d="m473.06 545.17 1.0741-5.8779" stroke="#212121" stroke-linecap="round" stroke-width="2"/>
  <path transform="matrix(.3596 1.3803 -1.3567 .39307 717.26 294.17)" d="m116.96 209.42c0 0.83829-0.59962 1.5178-1.3393 1.5178s-1.3393-0.67956-1.3393-1.5178 0.59962-1.5179 1.3393-1.5179 1.3393 0.67957 1.3393 1.5179z" stroke="#212121" stroke-linecap="round" stroke-width="1.4093"/>
  <path transform="matrix(-1.3922 1.1617 -1.1158 -1.4005 924.91 701.4)" d="m152.86 225.93c0 2.3819-3.0381 4.3128-6.7857 4.3128s-6.7857-1.9309-6.7857-4.3128 3.0381-4.3128 6.7857-4.3128 6.7857 1.9309 6.7857 4.3128z" stroke="#212121" stroke-linecap="round" stroke-width="1.5347"/>
  <path transform="matrix(-1.3922 1.1617 -1.1158 -1.4005 926.81 703.23)" d="m152.86 225.93c0 2.3819-3.0381 4.3128-6.7857 4.3128s-6.7857-1.9309-6.7857-4.3128 3.0381-4.3128 6.7857-4.3128 6.7857 1.9309 6.7857 4.3128z" fill="#505050" stroke="#000" stroke-linecap="round" stroke-width="1.5347"/>
  <g transform="matrix(1.1448 1.178 -1.1792 1.2115 436.06 -316.45)" stroke="#212121" stroke-linecap="round" stroke-width="1.2004">
   <path d="m121.43 212.18-3.75-1.7857"/>
   <path d="m116.96 209.42c0 0.83829-0.59962 1.5178-1.3393 1.5178s-1.3393-0.67956-1.3393-1.5178 0.59962-1.5179 1.3393-1.5179 1.3393 0.67957 1.3393 1.5179z"/>
  </g>
  <g transform="matrix(-.95749 1.4012 -1.3358 -.94448 739.01 117.45)" stroke="#212121" stroke-linecap="round" stroke-width="1.2004">
   <path d="m121.43 212.18-3.75-1.7857"/>
   <path d="m116.96 209.42c0 0.83829-0.59962 1.5178-1.3393 1.5178s-1.3393-0.67956-1.3393-1.5178 0.59962-1.5179 1.3393-1.5179 1.3393 0.67957 1.3393 1.5179z"/>
  </g>
  <g transform="matrix(1.6317 -.24996 .19612 1.6712 72.019 -234.85)" stroke="#212121" stroke-linecap="round" stroke-width="1.2004">
   <path d="m121.43 212.18-3.75-1.7857"/>
   <path d="m116.96 209.42c0 0.83829-0.59962 1.5178-1.3393 1.5178s-1.3393-0.67956-1.3393-1.5178 0.59962-1.5179 1.3393-1.5179 1.3393 0.67957 1.3393 1.5179z"/>
  </g>
  <g transform="matrix(-1.625 -.2044 .24576 -1.6774 485.43 479.62)" stroke="#212121" stroke-linecap="round" stroke-width="1.2004">
   <path d="m121.43 212.18-3.75-1.7857"/>
   <path d="m116.96 209.42c0 0.83829-0.59962 1.5178-1.3393 1.5178s-1.3393-0.67956-1.3393-1.5178 0.59962-1.5179 1.3393-1.5179 1.3393 0.67957 1.3393 1.5179z"/>
  </g>
  <g transform="matrix(.30637 -1.6686 1.6147 .267 -61.563 250.85)" stroke="#212121" stroke-linecap="round" stroke-width="1.2004">
   <path d="m121.43 212.18-3.75-1.7857"/>
   <path d="m116.96 209.42c0 0.83829-0.59962 1.5178-1.3393 1.5178s-1.3393-0.67956-1.3393-1.5178 0.59962-1.5179 1.3393-1.5179 1.3393 0.67957 1.3393 1.5179z"/>
  </g>
  <path transform="matrix(2.032 -.54231 .47524 2.0751 -77.475 -293.11)" d="m152.86 225.93c0 2.3819-3.0381 4.3128-6.7857 4.3128s-6.7857-1.9309-6.7857-4.3128 3.0381-4.3128 6.7857-4.3128 6.7857 1.9309 6.7857 4.3128z" stroke="#212121" stroke-linecap="round" stroke-width="1.3072"/>
  <path transform="matrix(2.032 -.54231 .47524 2.0751 -78.559 -296.05)" d="m152.86 225.93c0 2.3819-3.0381 4.3128-6.7857 4.3128s-6.7857-1.9309-6.7857-4.3128 3.0381-4.3128 6.7857-4.3128 6.7857 1.9309 6.7857 4.3128z" stroke="#000" stroke-linecap="round" stroke-width="1.3072"/>
  <path d="m534.64 321.84s-20.211 2.0568-25.974 9.2103c-5.9815 7.4246 5.4896 25.506-3.6028 28.375l-31.14 9.8264" fill="none" filter="url(#b)" stroke="#fff"/>
  <path d="m540.07 326.41s-20.211 2.0568-25.974 9.2103c-5.9815 7.4246 5.4896 25.506-3.6028 28.375l-31.14 9.8264" fill="none" filter="url(#b)" stroke="#fff"/>
  <path d="m542.52 332.54s-20.211 2.0568-25.974 9.2103c-5.9815 7.4246 5.4896 25.506-3.6028 28.375l-31.14 9.8264" fill="none" filter="url(#b)" stroke="#fff"/>
  <path d="m238.17 316.55s12.346-10.887 19.548-9.4383c11.511 2.3159 10.101 28.889 21.345 25.665l10.857-3.1128" fill="none" filter="url(#c)" stroke="#fff"/>
  <path d="m243.92 321.38s12.346-10.887 19.548-9.4383c11.511 2.3159 10.101 28.889 21.345 25.665l10.857-3.1128" fill="none" filter="url(#c)" stroke="#fff"/>
  <path d="m237.88 334.82s12.346-10.887 19.548-9.4383c11.511 2.3159 10.101 28.889 21.345 25.665l10.857-3.1128" fill="none" filter="url(#c)" stroke="#fff"/>
  <path d="m323.52 170.12s12.638-5.2534 20.012-4.5542c11.784 1.1175 10.34 13.94 21.851 12.384l11.114-1.502" fill="none" filter="url(#q)" stroke="#fff"/>
  <path transform="translate(2,-2)" d="m269.95 215.03c0 6.2493-3.6186 11.315-8.0824 11.315s-8.0824-5.066-8.0824-11.315 3.6186-11.315 8.0824-11.315 8.0824 5.066 8.0824 11.315z" fill="url(#a)"/>
  <path transform="matrix(.78384 .1512 -.26605 .74558 138.81 84.189)" d="m269.95 215.03c0 6.2493-3.6186 11.315-8.0824 11.315s-8.0824-5.066-8.0824-11.315 3.6186-11.315 8.0824-11.315 8.0824 5.066 8.0824 11.315z" fill="url(#a)" filter="url(#j)"/>
  <path transform="matrix(.95395 0 0 .89898 168.92 -21.356)" d="m269.95 215.03c0 6.2493-3.6186 11.315-8.0824 11.315s-8.0824-5.066-8.0824-11.315 3.6186-11.315 8.0824-11.315 8.0824 5.066 8.0824 11.315z" fill="url(#a)" filter="url(#n)"/>
  <path transform="matrix(1.15 0 0 .78571 -65.164 236.44)" d="m269.95 215.03c0 6.2493-3.6186 11.315-8.0824 11.315s-8.0824-5.066-8.0824-11.315 3.6186-11.315 8.0824-11.315 8.0824 5.066 8.0824 11.315z" fill="url(#a)" filter="url(#m)"/>
  <path transform="translate(282.46 207.33)" d="m269.95 215.03c0 6.2493-3.6186 11.315-8.0824 11.315s-8.0824-5.066-8.0824-11.315 3.6186-11.315 8.0824-11.315 8.0824 5.066 8.0824 11.315z" fill="url(#a)"/>
  <path transform="matrix(2 0 0 1.8214 5.1755 -121.18)" d="m269.95 215.03c0 6.2493-3.6186 11.315-8.0824 11.315s-8.0824-5.066-8.0824-11.315 3.6186-11.315 8.0824-11.315 8.0824 5.066 8.0824 11.315z" fill="url(#a)" filter="url(#o)"/>
  <path transform="matrix(1.8103 0 0 1.0922 -42.494 258.63)" d="m269.95 215.03c0 6.2493-3.6186 11.315-8.0824 11.315s-8.0824-5.066-8.0824-11.315 3.6186-11.315 8.0824-11.315 8.0824 5.066 8.0824 11.315z" fill="url(#a)" filter="url(#l)"/>
  <path transform="matrix(.70652 0 0 .48701 237.87 269.9)" d="m269.95 215.03c0 6.2493-3.6186 11.315-8.0824 11.315s-8.0824-5.066-8.0824-11.315 3.6186-11.315 8.0824-11.315 8.0824 5.066 8.0824 11.315z" fill="url(#a)" filter="url(#k)"/>
  <path d="m549.79 288.83s6.5786 0.13055 9.7049 2.8576c2.8729 2.5059 3.1541 10.287 3.1541 10.287" fill="none" stroke="#313131" stroke-linecap="round" stroke-width="6"/>
  <path d="m562.85 363.7s4.3475 4.23 3.5232 7.305c-0.75747 2.8257-9.0049 6.1134-9.0049 6.1134" fill="none" stroke="#313131" stroke-linecap="round" stroke-width="6"/>
  <path d="m451.3 155.26s3.5553-5.5366 7.5154-6.7726c3.6391-1.1358 10.416 2.6983 10.416 2.6983" fill="none" stroke="#313131" stroke-linecap="round" stroke-width="6"/>
 </g>
</svg>
