<svg id="Layer_1" data-name="Layer 1" xmlns="http://www.w3.org/2000/svg" xmlns:xlink="http://www.w3.org/1999/xlink" viewBox="0 0 800 1170"><defs><style>.cls-1,.cls-10,.cls-14,.cls-16,.cls-18,.cls-19,.cls-6,.cls-7,.cls-8{fill:none;}.cls-2{opacity:0.2;}.cls-3{clip-path:url(#clip-path);}.cls-4{fill:#1b9b99;}.cls-5{fill:#ffad84;}.cls-6,.cls-7,.cls-8{stroke:#cc7c5b;}.cls-10,.cls-14,.cls-16,.cls-18,.cls-19,.cls-6,.cls-7,.cls-8{stroke-miterlimit:10;}.cls-14,.cls-16,.cls-19,.cls-6{stroke-width:0.44px;}.cls-7{stroke-width:0.4px;}.cls-18,.cls-8{stroke-width:0.44px;}.cls-9{fill:#082f2e;}.cls-10{stroke:#136d6b;stroke-width:0.25px;}.cls-11{fill:#431815;}.cls-12{fill:#9f9f9f;}.cls-13{fill:#d0d0d0;}.cls-14{stroke:#a4a4a4;}.cls-15{fill:#1a74b5;}.cls-16{stroke:#215689;}.cls-17{fill:#441714;}.cls-18{stroke:#cd7c59;}.cls-19{stroke:#562f2d;}.cls-20{fill:#e4e4e4;}.cls-21{fill:#51cf36;}.cls-22{fill:#41bb24;}.cls-23{fill:#35a61a;}.cls-24{fill:#1d800c;}.cls-25{fill:#fb5634;}.cls-26{fill:#e7351e;}.cls-27{opacity:0.21;}.cls-28{clip-path:url(#clip-path-2);}.cls-29{fill:#fff;}.cls-30{clip-path:url(#clip-path-3);}.cls-31{fill:#cf2b03;}.cls-32{opacity:0.51;}.cls-33{clip-path:url(#clip-path-4);}.cls-34{fill:#63eb41;}.cls-35{clip-path:url(#clip-path-5);}.cls-36{fill:#00f8ff;}.cls-37{opacity:0.26;}.cls-38{clip-path:url(#clip-path-6);}.cls-39{fill:#dfdfdf;}.cls-40{opacity:0.69;}.cls-41{clip-path:url(#clip-path-7);}.cls-42{fill:#ececec;}.cls-43{fill:#d2d2d2;}.cls-44{fill:#c8c8c8;}.cls-45{opacity:0.48;}.cls-46{clip-path:url(#clip-path-8);}.cls-47{clip-path:url(#clip-path-9);}.cls-48{fill:#a9a9a9;}.cls-49{fill:#ffc300;}.cls-50{opacity:0.73;}.cls-51{clip-path:url(#clip-path-10);}.cls-52{fill:#ffdf00;}.cls-53{fill:#ffad00;}.cls-54{opacity:0.59;}.cls-55{clip-path:url(#clip-path-11);}.cls-56{fill:#fffba3;}.cls-57{fill:#ff9f00;}.cls-58{fill:#ffc600;}.cls-59{fill:#b5e8ff;}.cls-60{fill:#a3dbff;}.cls-61{fill:#96caff;}.cls-62{fill:#87b4ff;}.cls-63{opacity:0.28;}.cls-64{clip-path:url(#clip-path-12);}.cls-65{fill:#498dff;}.cls-66{fill:#447dff;}.cls-67{fill:#4061ff;}.cls-68{fill:#48a3ff;}.cls-69{opacity:0.33;}.cls-70{clip-path:url(#clip-path-13);}.cls-71{fill:#caebff;}.cls-72{opacity:0.39;}.cls-73{clip-path:url(#clip-path-14);}.cls-74{clip-path:url(#clip-path-15);}.cls-75{clip-path:url(#clip-path-16);}.cls-76{fill:#2a481e;}.cls-77{fill:#3b6e2b;}.cls-78{fill:#365f27;}.cls-79{fill:#498236;}.cls-80{fill:#de3a36;}.cls-81{fill:#c72620;}.cls-82{fill:#ff4541;}.cls-83{fill:#ae1d13;}.cls-84{fill:#7b3430;}.cls-85{fill:#58963f;}.cls-86{opacity:0.11;}.cls-87{clip-path:url(#clip-path-17);}.cls-88{fill:#f7cd00;}.cls-89{fill:#f5b300;}.cls-90{opacity:0.44;}.cls-91{clip-path:url(#clip-path-18);}.cls-92{fill:#ffe900;}.cls-93{clip-path:url(#clip-path-19);}.cls-94{clip-path:url(#clip-path-20);}.cls-95{fill:#a17e4c;}.cls-96{fill:#85653a;}.cls-97{fill:#d4ab70;}.cls-98{fill:#bf985f;}.cls-99{fill:#cfa467;}.cls-100{fill:#e6bd82;}.cls-101{fill:#e4e6e7;}.cls-102{fill:#dadcdd;}.cls-103{fill:#caced0;}.cls-104{fill:#727678;}.cls-105{fill:#c5c9cb;}.cls-106{fill:#ba8144;}.cls-107{opacity:0.02;}.cls-108{clip-path:url(#clip-path-21);}.cls-109{fill:#231f20;}.cls-110{clip-path:url(#clip-path-22);}.cls-111{fill:#fbf0e4;}.cls-112{fill:#e6ccb0;}.cls-113{fill:#c9a586;}.cls-114{clip-path:url(#clip-path-23);}.cls-115{fill:#70aa33;}.cls-116{fill:#ebffb4;}.cls-117{fill:#ff3f0b;}.cls-118{fill:#ff5631;}.cls-119{opacity:0.16;}.cls-120{clip-path:url(#clip-path-24);}.cls-121{clip-path:url(#clip-path-25);}.cls-122{clip-path:url(#clip-path-26);}.cls-123{clip-path:url(#clip-path-27);}.cls-124{opacity:0.5;}.cls-125{clip-path:url(#clip-path-28);}.cls-126{opacity:0.14;}.cls-127{clip-path:url(#clip-path-29);}.cls-128{fill:#979797;}.cls-129{clip-path:url(#clip-path-30);}.cls-130{fill:#b1b1b1;}.cls-131{opacity:0.32;}.cls-132{clip-path:url(#clip-path-31);}.cls-133{clip-path:url(#clip-path-32);}.cls-134{opacity:0.15;}.cls-135{clip-path:url(#clip-path-33);}.cls-136{opacity:0.34;}.cls-137{clip-path:url(#clip-path-34);}.cls-138{fill:#2978ec;}.cls-139{clip-path:url(#clip-path-35);}.cls-140{fill:gray;}.cls-141{clip-path:url(#clip-path-36);}.cls-142{clip-path:url(#clip-path-37);}.cls-143{clip-path:url(#clip-path-38);}.cls-144{fill:#bcc8d6;}.cls-145{clip-path:url(#clip-path-39);}.cls-146{clip-path:url(#clip-path-40);}.cls-147{clip-path:url(#clip-path-41);}.cls-148{clip-path:url(#clip-path-42);}.cls-149{clip-path:url(#clip-path-43);}.cls-150{clip-path:url(#clip-path-44);}.cls-151{clip-path:url(#clip-path-45);}</style><clipPath id="clip-path"><rect class="cls-1" x="4.5" y="38.15" width="791" height="1093.71"/></clipPath><clipPath id="clip-path-2"><rect class="cls-1" x="492.64" y="644.71" width="8.26" height="2.15"/></clipPath><clipPath id="clip-path-3"><rect class="cls-1" x="496.44" y="634.96" width="1.54" height="9.57"/></clipPath><clipPath id="clip-path-4"><rect class="cls-1" x="497.77" y="677.01" width="12.25" height="40.86"/></clipPath><clipPath id="clip-path-5"><rect class="cls-1" x="521.66" y="693.18" width="72.45" height="89.48"/></clipPath><clipPath id="clip-path-6"><rect class="cls-1" x="499.22" y="688.03" width="3.79" height="24.96"/></clipPath><clipPath id="clip-path-7"><rect class="cls-1" x="650.51" y="738.54" width="71.73" height="37.02"/></clipPath><clipPath id="clip-path-8"><rect class="cls-1" x="718.42" y="737.33" width="9.49" height="21.33"/></clipPath><clipPath id="clip-path-9"><rect class="cls-1" x="648.04" y="762.88" width="10.34" height="23.66"/></clipPath><clipPath id="clip-path-10"><rect class="cls-1" x="651.09" y="738.58" width="61.25" height="31.85"/></clipPath><clipPath id="clip-path-11"><rect class="cls-1" x="691.94" y="741.13" width="23.86" height="8.53"/></clipPath><clipPath id="clip-path-12"><rect class="cls-1" x="692.44" y="618.51" width="8.71" height="3.1"/></clipPath><clipPath id="clip-path-13"><rect class="cls-1" x="690.34" y="609.14" width="7.54" height="2.55"/></clipPath><clipPath id="clip-path-14"><rect class="cls-1" x="696.72" y="634.56" width="6.73" height="25.36"/></clipPath><clipPath id="clip-path-15"><rect class="cls-1" x="690.85" y="630.03" width="7.89" height="40.83"/></clipPath><clipPath id="clip-path-16"><rect class="cls-1" x="705.68" y="678.34" width="13.29" height="4.85"/></clipPath><clipPath id="clip-path-17"><rect class="cls-1" x="543.55" y="523.37" width="28.11" height="11.34"/></clipPath><clipPath id="clip-path-18"><rect class="cls-1" x="542.91" y="606.11" width="6.59" height="33.54"/></clipPath><clipPath id="clip-path-19"><rect class="cls-1" x="503.42" y="604.64" width="38.69" height="14.28"/></clipPath><clipPath id="clip-path-20"><rect class="cls-1" x="566.21" y="482.63" width="29.52" height="5.12"/></clipPath><clipPath id="clip-path-21"><rect class="cls-1" x="515.4" y="754.05" width="29.26" height="39.56"/></clipPath><clipPath id="clip-path-22"><rect class="cls-1" x="510.89" y="754.46" width="33.76" height="39.74"/></clipPath><clipPath id="clip-path-23"><rect class="cls-1" x="508.29" y="755.24" width="8.56" height="20.3"/></clipPath><clipPath id="clip-path-24"><rect class="cls-1" x="580.72" y="618.64" width="3.33" height="12.9"/></clipPath><clipPath id="clip-path-25"><rect class="cls-1" x="577.87" y="650.67" width="1.69" height="4.58"/></clipPath><clipPath id="clip-path-26"><rect class="cls-1" x="583.07" y="635.05" width="6.92" height="6.07"/></clipPath><clipPath id="clip-path-27"><rect class="cls-1" x="582.36" y="603.49" width="4.8" height="7.8"/></clipPath><clipPath id="clip-path-28"><rect class="cls-1" x="479.61" y="437.98" width="292.85" height="372.31"/></clipPath><clipPath id="clip-path-29"><rect class="cls-1" x="479.86" y="505.15" width="292.85" height="305.87"/></clipPath><clipPath id="clip-path-30"><rect class="cls-1" x="515.13" y="446.25" width="153.58" height="194.05"/></clipPath><clipPath id="clip-path-31"><rect class="cls-1" x="518.05" y="535.24" width="128" height="201.48"/></clipPath><clipPath id="clip-path-32"><rect class="cls-1" x="490.27" y="516.36" width="42.93" height="150.52"/></clipPath><clipPath id="clip-path-33"><rect class="cls-1" x="603.98" y="507.89" width="110.01" height="213.31"/></clipPath><clipPath id="clip-path-34"><rect class="cls-1" x="482.08" y="676.84" width="290.7" height="133.62"/></clipPath><clipPath id="clip-path-35"><rect class="cls-1" x="544.68" y="468.7" width="62.93" height="75.17"/></clipPath><clipPath id="clip-path-36"><rect class="cls-1" x="577.96" y="439.93" width="13.31" height="34.04"/></clipPath><clipPath id="clip-path-37"><rect class="cls-1" x="605.8" y="456.08" width="20.48" height="5.46"/></clipPath><clipPath id="clip-path-38"><rect class="cls-1" x="553.65" y="453.95" width="18.33" height="24.4"/></clipPath><clipPath id="clip-path-39"><rect class="cls-1" x="566.11" y="482.61" width="29.52" height="5.12"/></clipPath><clipPath id="clip-path-40"><rect class="cls-1" x="548.13" y="437.96" width="83.48" height="49.1"/></clipPath><clipPath id="clip-path-41"><rect class="cls-1" x="560.84" y="446.23" width="63.44" height="39.93"/></clipPath><clipPath id="clip-path-42"><rect class="cls-1" x="574.17" y="468.68" width="18.39" height="20.26"/></clipPath><clipPath id="clip-path-43"><rect class="cls-1" x="577.86" y="439.91" width="13.31" height="34.04"/></clipPath><clipPath id="clip-path-44"><rect class="cls-1" x="605.71" y="456.06" width="20.48" height="5.46"/></clipPath><clipPath id="clip-path-45"><rect class="cls-1" x="553.55" y="453.93" width="18.32" height="24.4"/></clipPath></defs><title>ico_form_eco-carefree</title><g class="cls-2"><g class="cls-3"><path class="cls-4" d="M241.34,180.79h.32c2.25-.14,4.55-.26,6.89-.38A62.46,62.46,0,0,1,240,163.88c-11.53-17.74-13.28-44.76-7.45-63.42a43.3,43.3,0,0,1,8.66-29.37c11.15-15,29.54-22.06,44.26-24,10.79-5.85,23.84-8.92,38.19-8.92,19.41,0,39.6,5.63,50.68,13.93a41.19,41.19,0,0,1,18.42,24.11c5.69,19.48-2.07,42-10.81,59.13.07,2.55.15,5.05.22,7.49.5,15.77.88,28.23-2.36,39.51q-.07.27-.15.51c.87.15,1.72.3,2.57.47A40,40,0,0,1,389,185a59,59,0,0,1,33.6,25.48c8,12.91,16.46,37,27.52,69.71l.54,1.62a22.67,22.67,0,0,1,1.18,8.51q1.83,5.49,3.68,11.25c12-8.79,25.62-19.55,36.41-28.37A48,48,0,0,1,511.8,262a66.6,66.6,0,0,1,19-2.61,86.18,86.18,0,0,1,21,2.72,55.21,55.21,0,0,1,15.68-2.78,29.16,29.16,0,0,1,16,4.63,26.39,26.39,0,0,1,14.94,6.1c3.82,3.2,11.73,12,8.31,27.59.36.51.7,1,1,1.54a96.7,96.7,0,0,1,11,13.86,108.93,108.93,0,0,1,17.61,66.82c-.7,10.43-2.82,20-4.88,29.18q-.75,3.33-1.46,6.64c-.82,3.89-1.56,7.8-2.24,11.64a43.33,43.33,0,0,1,11.52,11.83c.54.79,1,1.56,1.48,2.33a43.67,43.67,0,0,1,6,6.8,42,42,0,0,1,8.07,21.94,22.67,22.67,0,0,1-1.63,10.17,176.29,176.29,0,0,1,57.87,48.27c13.58,17.68,24.68,39,34.93,67q2.16,5.86,4.19,11.4c15.17,41.22,26.13,71,31.8,119.05.31,2.63.77,6.48,1.31,7.62.75,1.43,1.79,3.06,2.9,4.79,4.93,7.66,14.09,21.91,6.05,40.56a23.07,23.07,0,0,1-3.67,5.87c-9.19,10.68-23.6,20.29-42.82,28.57A216.75,216.75,0,0,1,696.75,828c-27.47,4.39-55.15,5-78.6,5-7.56,0-15-.07-22.27-.13l-89-.78c-29.87-.26-41.08-13.94-45.24-25.37-4.72-13-.45-24.61,2.11-31.55.38-1,.76-2,1.09-3,2.64-8.15.71-19.37-1.34-31.24-.24-1.37-.48-2.74-.71-4.11-8.54-50.73-7.06-99.45,4.39-144.82a289.45,289.45,0,0,1,30.57-75.22c11.05-18.92,29.43-32.26,41.31-39.43a22.71,22.71,0,0,1-8.41-6.66,22.86,22.86,0,0,1,0-29.15l.07-.09c-2.63-9.88-5.27-19.44-8.25-28.93-4.1-13.05-8.28-26.34-11.64-40.06v0c-11,14.45-24.72,32.4-41.14,42.73a51.1,51.1,0,0,1-29,9.26,52.09,52.09,0,0,1-23.27-5.61c-1.36,43.35-2.72,83.75-2.74,84.32a22.65,22.65,0,0,1-1.2,6.58c.41,2.89.81,5.74,1.22,8.6C423,576.64,431.55,637,451.37,1037c3.35,2.82,6.84,5.47,10.11,8,12,9.08,25.54,19.38,23.55,36.7a43.8,43.8,0,0,1-5.87,17.27c-9.6,16.28-37.61,23.7-59.59,23.7-29.31,0-55.28-11.87-73.13-33.41a32.53,32.53,0,0,1-7.1-26.67,22.81,22.81,0,0,1-4.51-11.17L308,823.92,285.46,1050c2.94,3.13,6,6.12,8.94,8.93,10.8,10.44,23.05,22.28,19,39.24a43.8,43.8,0,0,1-7.9,16.45c-12.18,15.95-40.62,17.19-49,17.19-34.37,0-64.1-15.55-81.58-42.66-4-6.27-7.54-16.09-3.37-28.93a22.82,22.82,0,0,1-2.15-10.65L191,512.54a22.82,22.82,0,0,1-1.85-8.56c0-.46-.69-35.09-1.34-77.21A45.89,45.89,0,0,1,177.26,428c-30.52,0-52.4-28.68-70-51.72l-1.15-1.51a280.77,280.77,0,0,0-25.28-28.6,33.5,33.5,0,0,1-14.77,3.39A35.31,35.31,0,0,1,50.68,346a28.94,28.94,0,0,1-3.89-.64,61.44,61.44,0,0,1-13,1.56c-14.52,0-21.77-7.34-24.8-11.71A25.9,25.9,0,0,1,6.3,311a42.45,42.45,0,0,1,5-9.52c-3.41-15.64,4.49-24.4,8.32-27.61a26.42,26.42,0,0,1,14.93-6.09,29.17,29.17,0,0,1,16-4.64,54.21,54.21,0,0,1,15.25,2.66,76.06,76.06,0,0,1,22.34-3.53,59.22,59.22,0,0,1,17,2.39,47.5,47.5,0,0,1,21.19,12.62c5.2,4.24,18.63,15.1,32.1,25.15q1-4.05,2.09-8a23,23,0,0,1,.67-8.57l1.64-6c7.85-28.75,14.93-53.64,22.06-66.86a58.71,58.71,0,0,1,31-27,43.32,43.32,0,0,1,13.39-4.31c.57-.08,1.14-.15,1.72-.2,2.81-.21,5.68-.4,8.6-.59l1.51-.09"/></g></g><path class="cls-5" d="M427.17,289.07c15.13,44.16,29,95.47,31.07,106.08-26.49,19.78-57-6.42-84.83-75.47a168.62,168.62,0,0,1,53.76-30.61"/><path class="cls-5" d="M534.58,313.43a304.33,304.33,0,0,0-41,43.59c-19.2,25.15-45,60.16-71.37,36.28s14.08-51.18,32.39-63.28c22-14.53,54.41-41.39,54.41-41.39Z"/><path class="cls-5" d="M518.19,283.87c13.27-4,29.14.2,31.73,1.77s20-8.05,22.38-.69c2.24,6.77-13.21,11.23-13.21,11.23s8.77,7.77,17.51,10c6.51-2.18,11.48,3.28,13.64,9,3,8.06-15.54,4.79-23.3.84s-35.2,1.4-51.93-5.44-13.87-21.63,3.18-26.71"/><path class="cls-5" d="M560.12,316.48c4.29,7.52,13.8-1.24,17.25-8s9.69-18.07,6.25-20.95c-5.71-4.8-15,12.78-15,12.78"/><path class="cls-5" d="M542.06,316.57c4,8.17,15.74,9.42,23.35-2.83s8.09-18.13,4.58-20.92-13.59,12.05-13.59,12.05"/><path class="cls-5" d="M561.89,297.8a81.63,81.63,0,0,0-5.48,7.07"/><path class="cls-6" d="M561.89,297.8a81.63,81.63,0,0,0-5.48,7.07"/><path class="cls-5" d="M561.86,318.26a24.6,24.6,0,0,0,3.55-4.52c6-9.62,7.56-15.34,6.24-18.69"/><path class="cls-6" d="M561.86,318.26a24.6,24.6,0,0,0,3.55-4.52c6-9.62,7.56-15.34,6.24-18.69"/><path class="cls-5" d="M518.28,311.87c11.51,9.42,22.89,8.26,29.09,5.14s8.31-6.12,9.77-16.56-5.68-10.93-11.81,4.92a39.66,39.66,0,0,0-11.71-4.15S529,292,524.76,290"/><path class="cls-5" d="M543.73,318.48a24.19,24.19,0,0,0,3.64-1.47c6.2-3.12,8.31-6.12,9.77-16.56s-5.33-9.86-9.36,4.94c-5.38-2.69-14.16-4.17-14.16-4.17S529,292,524.76,290"/><path class="cls-7" d="M543.73,318.48a24.19,24.19,0,0,0,3.64-1.47c6.2-3.12,8.31-6.12,9.77-16.56s-5.33-9.86-9.36,4.94c-5.38-2.69-14.16-4.17-14.16-4.17S529,292,524.76,290"/><path class="cls-5" d="M579.17,304.94s-4.19,9.2-9.41,12.57"/><path class="cls-6" d="M579.17,304.94s-4.19,9.2-9.41,12.57"/><path class="cls-5" d="M549.38,296.9a12.47,12.47,0,0,1-12.61-3"/><path class="cls-6" d="M549.38,296.9a12.47,12.47,0,0,1-12.61-3"/><path class="cls-8" d="M525.21,316a62.61,62.61,0,0,1-15.93-11.44"/><line class="cls-8" x1="482.68" y1="309.92" x2="435.72" y2="342.66"/><path class="cls-9" d="M355.21,290.44c-17.28-41.49-29.36-77.89-29.36-77.89s56.49-23.41,77.2,10c7.4,11.93,17.51,42,25.83,66.61-16.76,15.51-41.63,20.93-57.28,34.17-2.53-6.35-13.92-25.81-16.39-32.87"/><path class="cls-10" d="M427.36,284.63c-7.74,2.63-17.53,10.17-30.49,14.65-15.36,5.31-30.49,14.65-30.49,14.65"/><path class="cls-11" d="M281.16,180.36c-9.41-5.7-18.22-16.29-20.36-26.56-9.9-11.82-11.34-38.2-4.86-50.78-5.56-21.12,19.72-33.08,36.73-33.66,22.41-15.5,60.07-6.09,68.62,1.66,26.35,14.18-5.49,64.35-6.09,64.8s-74,44.54-74,44.54"/><path class="cls-12" d="M462.17,1079a20.84,20.84,0,0,1-2.86,8.27c-6.09,10.32-62.52,27-95.42-12.69-5.05-6.09-.18-13.53-.72-14.1,15.52,9.11,77.07,38.48,99,18.52"/><path class="cls-13" d="M387.49,1036.87c2.18-8.63,25.1-11.67,31.2-1.91,14.35,23,44.53,34.87,43.48,44-11.81,10.76-28.06,14.77-43.77,13.59-13.47-1-26.46-6.09-36.9-11.09-30.7-14.69-14-42.59-14-43.25,10.52,8.11,16.82,11.2,20-1.38"/><path class="cls-14" d="M446,1062.52c-21.33-3.19-33.71,12.33-31.23,29.75"/><path class="cls-14" d="M363.49,1050.64s12.19,6.47,6.87,22.63"/><path class="cls-14" d="M420,1070.2s-19.1-11.8-22.6-31.8"/><path class="cls-14" d="M435.5,1062.08s-19.1-11.8-22.6-31.8"/><path class="cls-12" d="M291,1092.91a20.63,20.63,0,0,1-3.82,7.87c-7.27,9.53-65.29,19.35-93.23-24-4.28-6.66,1.44-13.46,1-14.09,14.32,10.9,71.92,47.39,96.07,30.19"/><path class="cls-13" d="M221.89,1042.17c3.21-8.31,26.32-8.6,31.21,1.82,11.51,24.51,40.06,39.93,37.92,48.92-13,9.27-29.63,11.31-45.09,8.26-13.24-2.61-25.53-9.2-35.31-15.41-28.73-18.24-8.82-44-8.76-44.61,9.48,9.31,15.36,13.13,20,1"/><path class="cls-14" d="M251,1079.49s-19.46-11.18-23.6-31"/><path class="cls-14" d="M266.78,1073.34s-19.46-11.18-23.6-31"/><path class="cls-14" d="M276.91,1074.61c-20.79-5.71-34.94,8.22-34.56,25.81"/><path class="cls-14" d="M196.46,1052s11.43,10,4.14,24.25"/><path class="cls-15" d="M214.37,495.94l-22.31,554.59,70.06,1.65L306,612.54l51.42,436.12,71.25-5.39c-23.21-469.66-31.11-475-40.78-551.18"/><line class="cls-16" x1="305.98" y1="612.55" x2="325.32" y2="602.92"/><line class="cls-16" x1="231.49" y1="498.01" x2="202" y2="1010.92"/><line class="cls-16" x1="319.49" y1="606.17" x2="361.21" y2="1011.78"/><line class="cls-16" x1="425.78" y1="1005.46" x2="352.11" y2="1011.04"/><line class="cls-16" x1="266.94" y1="1013.78" x2="196.25" y2="1010.67"/><path class="cls-16" d="M229,558.08c17.74,1.77,40.22-14.2,35.49-45"/><path class="cls-16" d="M367.4,507.8s.46,45.28,27.67,42.32"/><path class="cls-16" d="M325.4,511.35c-.59,2.36,8.88,63.29-13,62.69V512.53"/><path class="cls-9" d="M211.84,503.53s-2.54-128-2.54-193.63c0-51.59-4.52-101.36,23.36-105.61,49-3.71,116.93-2.54,145.64,1.56,28.25,4,18.83,72.64,18.83,109,0,24.74-5.48,187.54-5.48,187.54-3.47,2.17-42.33,11.91-83.3,12.88-43.49,1-89.32-6.9-96.51-11.69"/><path class="cls-5" d="M281.13,203l-4.23-60.57,60.69,18.11,4.35,42A15.64,15.64,0,0,1,333.87,218a39.08,39.08,0,0,1-27.5,4c-16.19-3.77-23.94-16.76-25.24-19"/><path class="cls-5" d="M275.05,145.92c6.62,21.86,14,52.54,58.78,44.91,31-.67,25.49-22.36,25-62.44,3.35-44.37-29.18-56.07-52.65-46.53S260.51,108,275.05,145.92"/><path class="cls-17" d="M342.84,130.61A3.39,3.39,0,1,0,346,127a3.4,3.4,0,0,0-3.18,3.59"/><path class="cls-17" d="M311.29,134.15a3.39,3.39,0,1,0,3.18-3.59,3.41,3.41,0,0,0-3.18,3.59"/><path class="cls-18" d="M337.33,139.23c9.65-2.37,7.18,9.29.74,11.11"/><path class="cls-18" d="M351,117.49a12.22,12.22,0,0,0-10.89-.76"/><path class="cls-18" d="M321.35,124.24a53.1,53.1,0,0,0-12-1.87"/><path class="cls-18" d="M328.4,162.94s6.68,2.9,16.19-4.24"/><path class="cls-8" d="M340.68,189.31c-12,4.53-23.66,1.58-32.53-5.13"/><path class="cls-11" d="M269.35,125.15c6.31-.79,13,8.85,13.56,17.91.2,5.13,6.11,3.75,6.31-7.69s7.69-17.74,1.38-26.61c19.51,1,33.71,2.37,40.61-5.13,13.61,4.34,29,8.88,31.75,2.76S352.31,68.24,316.82,70.8s-57.13,23.59-47.47,54.35"/><path class="cls-19" d="M287,95.06s14.2,8.87,27.5,4.73"/><path class="cls-19" d="M298.19,90s19.22-6.51,32.23,1.78"/><path class="cls-19" d="M337.52,86.18s12.13,10.65,21.59,7.4"/><path class="cls-19" d="M277.49,100.68s-2.37,10.94,3.84,15.67"/><path class="cls-19" d="M269.5,94.46c-.89.6-7.69,16.57-1.78,24.55"/><path class="cls-10" d="M212.62,497c9,5.91,53.37,12.82,94.39,11.55,43.89-1.37,84.25-11.15,84.25-11.15"/><path class="cls-5" d="M184.87,291.73c-12.44,45-23.14,97-24.61,107.76,27.64,18.15,56.51-9.84,80.12-80.45a168.73,168.73,0,0,0-55.51-27.31"/><path class="cls-9" d="M256.79,288.75c14.74-42.45,25.94-79.52,25.94-79.52s-59.15-20-77.8,14.62c-6.67,12.36-15,43-21.77,68.06,20.28,10.79,39.15,20.53,59.28,31,2.15-6.5,12.3-26.93,14.35-34.13"/><path class="cls-10" d="M184.8,285.88c8,2.36,60.51,29.93,60.51,29.93"/><path class="cls-10" d="M258.45,283.79c-3,10-15.15,36.9-15.15,36.9"/><path class="cls-10" d="M396.77,321.32s1.09-28.65,1.21-45"/><path class="cls-10" d="M275.07,202.32c1.44,33.79,73.9,41,73.64.94"/><path class="cls-5" d="M83.22,317.29a303.54,303.54,0,0,1,40.94,43.58c19.2,25.16,45,60.17,71.38,36.29S181.46,346,163.15,333.88c-22-14.53-54.41-41.4-54.41-41.4Z"/><path class="cls-5" d="M98.52,286.56c-13.27-4-28.06,1.36-30.65,2.94s-19.94-8.06-22.38-.7C43.26,295.57,58.71,300,58.71,300s-8.77,7.77-17.51,10c-6.52-2.18-11.49,3.29-13.64,9-3,8.07,15.53,4.79,23.29.85s35.2,1.39,51.94-5.45,12.78-22.79-4.27-27.87"/><path class="cls-5" d="M57.68,320.34c-4.29,7.51-13.8-1.25-17.25-8s-9.69-18.07-6.25-20.95c5.71-4.79,15,12.78,15,12.78"/><path class="cls-5" d="M75.74,320.43c-4,8.17-15.74,9.41-23.35-2.83s-8.1-18.13-4.59-20.92,13.59,12,13.59,12"/><path class="cls-5" d="M55.91,301.65a81.63,81.63,0,0,1,5.48,7.07"/><path class="cls-6" d="M55.91,301.65a81.63,81.63,0,0,1,5.48,7.07"/><path class="cls-5" d="M55.94,322.11a24.63,24.63,0,0,1-3.56-4.52c-6-9.62-7.55-15.33-6.24-18.69"/><path class="cls-6" d="M55.94,322.11a24.63,24.63,0,0,1-3.56-4.52c-6-9.62-7.55-15.33-6.24-18.69"/><path class="cls-5" d="M99.52,315.73C88,325.14,76.63,324,70.43,320.87s-8.31-6.13-9.77-16.57,5.68-10.92,11.81,4.92a39.66,39.66,0,0,1,11.71-4.15s4.6-9.24,8.86-11.18"/><path class="cls-5" d="M74.07,322.34a24.19,24.19,0,0,1-3.64-1.47c-6.21-3.12-8.32-6.13-9.77-16.57s5.68-10.93,11.8,4.92a39.66,39.66,0,0,1,11.71-4.15s4.61-9.24,8.87-11.19"/><path class="cls-6" d="M74.07,322.34a24.19,24.19,0,0,1-3.64-1.47c-6.21-3.12-8.32-6.13-9.77-16.57s5.68-10.93,11.8,4.92a39.66,39.66,0,0,1,11.71-4.15s4.61-9.24,8.87-11.19"/><path class="cls-5" d="M38.63,308.8S42.82,318,48,321.36"/><path class="cls-6" d="M38.63,308.8S42.82,318,48,321.36"/><path class="cls-5" d="M68.42,300.76a12.5,12.5,0,0,0,12.61-3"/><path class="cls-6" d="M68.42,300.76a12.5,12.5,0,0,0,12.61-3"/><path class="cls-8" d="M92.59,319.88a62.76,62.76,0,0,0,15.92-11.43"/><line class="cls-8" x1="135.12" y1="313.77" x2="182.07" y2="346.51"/><path class="cls-5" d="M280.17,154.41c-6.65,7.74-12.58-7.67-14.78-13.72-4.45-12.25,6.65-26.31,14.72-4.78"/><path class="cls-20" d="M763,744.28c-2.49-4.74-3.12-10.21-3.75-15.53-5.84-49.51-17.62-78.44-34.75-125.28-7.88-21.56-17.59-42.69-31.59-60.92-23-29.94-57.63-50.48-94.77-57.4a10.73,10.73,0,0,1,1.59-10.08c3.72-4.57,10.08-6,16-6.46,5.63-.44,11.69-.13,16.29,3.11A20.11,20.11,0,0,0,616.88,454a7.73,7.73,0,0,1,4.59-.12c-4.68-9.15-15.91-12.53-26-14.45-4.11-.78-8.38-1.46-12.45-.47s-7.91,4.11-8.44,8.24a27.56,27.56,0,0,0-25.93,9.3A23.84,23.84,0,0,1,568,468.44c2.43,4.34,4.49,13.49,1.95,19.05a105.39,105.39,0,0,0-13.23,6c-15.17,8-31,20.59-39.3,34.75a267.34,267.34,0,0,0-28.14,69.29c-11.14,44.12-11.56,90.58-4,135.42,2.59,15.36,6.06,31.38,1.26,46.2-2.11,6.5-5.8,13.33-3.46,19.74,3.16,8.7,14.64,10.24,23.94,10.32l89,.77c32.42.29,65,.55,97.06-4.57C719.8,801.12,756.5,787,771.17,770c4.28-9.91-3.21-16.15-8.22-25.71"/><path class="cls-21" d="M545.76,676.48c-3.82-.38-7.27.61-10.87,1.07s-7.7.3-11.27-2-8.75-7.47-10.75-11.09c-2.11-3.81-1.22-6.29-3.33-10.11a4,4,0,0,0-1.93-2,2.41,2.41,0,0,0-1.72.24l-10.08,4.26a5.42,5.42,0,0,0-3.05,2.22,6.56,6.56,0,0,0-.34,3.34c.48,7.83,1.51,15.71,2.23,23.57.77,8.48.59,16.77,1.49,25.28.35,3.27,1.57,10,5.46,11.62,1.73.73,8.59,1.06,14,4.67,7.59,5,37.29,41,59,62.78,3.09,3.09,6.52,6.29,10.44,7.33,4.69,1.24,22.09-16.92,24.78-19.91,14.51-16.16,23.92-24.6,21.85-30.16-1.78-4.78-43.92-42.75-65.89-60.35-6.17-4.94-13-10-20.06-10.72"/><path class="cls-22" d="M545.76,676.48c-3.82-.38-7.27.61-10.87,1.07s-7.7.3-11.27-2-8.75-7.47-10.75-11.09c-2.11-3.81-1.22-6.29-3.33-10.11l-.16-.26a149,149,0,0,0-16.66,12.36c.15,1.87.33,3.73.52,5.6a16.63,16.63,0,0,1,2.57-.3c4.35.29,8.47,2.56,11.92,5,5.2,3.76,10.37,8.42,16.78,8.81,5.59.33,11-2.74,16.56-2.43,5,.29,9.41,3.22,13.47,6.13,18.13,13,35.13,27.74,49.22,45,3.42,4.19,6.73,8.66,8.14,13.88,1.92,7.14,0,14.88-3.67,21.33s-8.91,11.82-14.09,17.12c-3.61,3.69-7.79,7.57-12.42,9.53a13.74,13.74,0,0,0,3.36,1.44c4.69,1.24,22.09-16.92,24.78-19.91,14.51-16.16,23.92-24.6,21.85-30.16-1.78-4.78-43.92-42.75-65.89-60.35-6.17-4.94-13-10-20.06-10.72"/><path class="cls-23" d="M510.39,664.2c2,3.61,7.22,8.8,10.76,11.08a14.46,14.46,0,0,0,7.46,2.2,13.65,13.65,0,0,1-5-1.93c-3.53-2.29-8.75-7.48-10.75-11.09-2.11-3.81-1.22-6.29-3.33-10.1l-.15-.27-1.77,1.15c1.39,3.19.88,5.54,2.77,9"/><path class="cls-23" d="M545.76,676.48c-.37,0-.73-.06-1.1-.07,6.55,1.16,12.92,5.92,18.69,10.54,22,17.59,64.11,55.55,65.89,60.33,2.07,5.56-7.34,14-21.86,30.16-2.46,2.75-17.28,18.23-23.34,19.84.34.12.69.24,1,.34,4.69,1.24,22.09-16.92,24.78-19.91,14.51-16.16,23.92-24.6,21.85-30.16-1.78-4.78-43.92-42.75-65.89-60.35-6.17-4.94-13-10-20.06-10.72"/><path class="cls-24" d="M493,669.84s4.84-4.12,15.11-3.22c6.63.59,8.55,2.84,8.55,2.84s-1.62-1.88-2.53-3.25a12.86,12.86,0,0,1-1.91-4.42l-19.74,3.14Z"/><rect class="cls-25" x="490.34" y="649.32" width="21.97" height="16.32" transform="translate(-99.61 89.6) rotate(-9.29)"/><polygon class="cls-25" points="492.6 645.58 491.09 650.89 500 649.42 508.91 647.97 505.79 643.42 499.19 644.5 492.6 645.58"/><polygon class="cls-25" points="496.36 644.97 502.02 644.04 499.39 634.25 495.73 634.85 496.36 644.97"/><path class="cls-26" d="M505.69,652a14.72,14.72,0,0,1,.42,5.08,24.36,24.36,0,0,1-1.92,8.25l9.41-1.54L511,647.63l-7,1.15a8.1,8.1,0,0,1,1.72,3.17"/><path class="cls-26" d="M491.28,652.24a.76.76,0,0,0-.63.87l2.3,14,1.5-.25-2.3-14a.75.75,0,0,0-.87-.62"/><path class="cls-26" d="M494,651.8a.76.76,0,0,0-.62.87l2.29,14,1.51-.25-2.3-14a.76.76,0,0,0-.88-.62"/><path class="cls-26" d="M496.81,651.33a.76.76,0,0,0-.63.88l2.3,14L500,666l-2.3-14a.76.76,0,0,0-.87-.63"/><path class="cls-26" d="M499.66,650.87a.75.75,0,0,0-.62.87l2.29,14,1.51-.24-2.3-14a.76.76,0,0,0-.88-.62"/><path class="cls-26" d="M502.35,650.43a.76.76,0,0,0-.63.87l2.3,14,1.5-.24-2.3-14a.75.75,0,0,0-.87-.62"/><path class="cls-26" d="M502,645.41a2.64,2.64,0,0,1-.44,2.43,6.53,6.53,0,0,1-2,1.63l-.09,0,.59-.1,8.91-1.46-3.12-4.54-4.84.79a3,3,0,0,1,1,1.2"/><polygon class="cls-26" points="500.43 644.3 502.03 644.04 499.39 634.25 498.44 634.41 500.43 644.3"/><g class="cls-27"><g class="cls-28"><path class="cls-29" d="M500.61,644.72l-6.64,1c-.42.07-1.06.06-1.28.5a.4.4,0,0,0,.11.53.59.59,0,0,0,.37.06,11.89,11.89,0,0,0,2.13-.38c1.72-.41,3.45-.81,5.17-1.23a.61.61,0,0,0,.36-.17c.09-.1.09-.29,0-.34a.27.27,0,0,0-.18,0"/></g></g><g class="cls-27"><g class="cls-30"><path class="cls-29" d="M496.55,635.17a1.05,1.05,0,0,0-.1.49c0,.6,0,1.2.07,1.8q.23,3.19.47,6.39c0,.25.07.55.3.65a.47.47,0,0,0,.57-.23,1.24,1.24,0,0,0,.13-.66c0-.52-.08-1.05-.15-1.57-.18-1.32-.35-2.64-.52-3.95-.08-.65-.17-1.31-.26-2,0-.2-.1-1.7-.51-1"/></g></g><polygon class="cls-31" points="511.83 664.03 513.6 663.74 510.96 647.63 509.18 647.92 511.83 664.03"/><polygon class="cls-31" points="507.25 647.8 491.09 650.88 508.94 647.96 505.82 643.42 505.44 643.48 507.25 647.8"/><polygon class="cls-31" points="501.24 643.66 496.36 644.97 502.03 644.04 499.39 634.25 499.11 634.3 501.24 643.66"/><g class="cls-32"><g class="cls-33"><path class="cls-34" d="M497.94,683.23c.27,6.48-.13,13,.21,19.45a55.76,55.76,0,0,0,1.46,10.61c.49,1.94,1.44,4.16,3.42,4.53a3.77,3.77,0,0,0,3.44-1.46,9.58,9.58,0,0,0,1.63-3.55,56.9,56.9,0,0,0,1.66-20.47,27.76,27.76,0,0,0-1.71-8.17c-1.22-3-3.6-6.1-6.87-7-4.31-1.15-3.35,3.28-3.24,6"/></g></g><g class="cls-32"><g class="cls-35"><path class="cls-34" d="M530.51,693.18c-2.74.1-11.87,13.71-7.85,29,1.16,4.38,4,8.1,6.82,11.67,12,15.35,25.11,30.06,40.27,42.39a32.77,32.77,0,0,0,8.4,5.41,12.58,12.58,0,0,0,9.78.11c3.64-1.7,5.87-5.68,6.15-9.67a19.18,19.18,0,0,0-3.28-11.34,62,62,0,0,0-7.68-9.22,520.86,520.86,0,0,1-38.41-45.77c-3.43-4.59-7-9.42-12.13-12a4.53,4.53,0,0,0-2.07-.59"/></g></g><path class="cls-36" d="M537.46,706.71c-9,9.26-12.59,20.25-8.1,24.56,1.61,1.54,4,2,6.89,1.56l41.17,39.51a6.45,6.45,0,0,0,9.1-.17L605,753.11a6.39,6.39,0,0,0-.17-9.06l-41.16-39.51c.34-2.86-.22-5.25-1.83-6.8-4.49-4.3-15.39-.29-24.35,9"/><path class="cls-29" d="M582.57,774.42a6.78,6.78,0,0,1-5.38-1.85l-41.05-39.39c-3,.43-5.41-.15-7-1.68-4.6-4.42-1-15.64,8.1-25a39.22,39.22,0,0,1,14-9.64c4.72-1.74,8.57-1.5,10.84.68,1.59,1.53,2.26,3.91,1.94,6.9l41,39.39a6.7,6.7,0,0,1,.17,9.52l-18.45,19.06a6.77,6.77,0,0,1-4.18,2m-46.21-41.93.12.12,41.16,39.49a6.14,6.14,0,0,0,8.65-.16l18.45-19.05a6.07,6.07,0,0,0-.16-8.61L563.3,704.67v-.17c.35-2.85-.25-5.11-1.72-6.52-2.08-2-5.69-2.19-10.17-.54a38.8,38.8,0,0,0-13.73,9.49c-8.82,9.12-12.46,19.93-8.11,24.11,1.48,1.41,3.77,1.92,6.62,1.48Z"/><g class="cls-37"><g class="cls-38"><path class="cls-29" d="M499.82,692.07a49,49,0,0,0,.27,16.85c.29,1.53.75,3.19,2,4.07.88-.64.92-1.92.86-3q-.51-10.11-1-20.22a2.4,2.4,0,0,0-.33-1.35c-1.24-1.75-1.72,3-1.83,3.65"/></g></g><path class="cls-25" d="M539.38,709c-7.55,7.8-11.07,16.62-7.85,19.71s12-.73,19.5-8.54,11.06-16.62,7.84-19.71-11.94.74-19.49,8.54"/><path class="cls-29" d="M535.5,730.07a5.09,5.09,0,0,1-4.19-1.13c-1.66-1.59-1.73-4.58-.2-8.44a38.09,38.09,0,0,1,8-11.73c7.79-8,16.56-11.8,20-8.54s-.05,12.12-7.84,20.17c-5.51,5.69-11.52,9.24-15.76,9.67M555,699.73c-4.05.42-10,3.95-15.37,9.49a37.26,37.26,0,0,0-7.9,11.52c-1.42,3.59-1.41,6.34,0,7.74,3.07,3,11.62-.87,19-8.53s10.94-16.29,7.86-19.25a4.5,4.5,0,0,0-3.67-1"/><polygon class="cls-25" points="547.47 739.57 570.52 715.76 565.72 711.16 542.67 734.97 547.47 739.57"/><polygon class="cls-25" points="556.23 739.64 571.71 723.64 569.35 721.38 553.87 737.37 556.23 739.64"/><polygon class="cls-29" points="580.11 768.28 600.6 747.11 598.67 745.25 578.18 766.42 580.11 768.28"/><polygon class="cls-29" points="583.19 771.23 603.68 750.06 601.75 748.21 581.25 769.38 583.19 771.23"/><path class="cls-39" d="M725.24,768.65c.23-1.53,2.64-4.74,2.64-4.74l-3.75-8.8L721,747.8l-3.76-8.8s-4.08-.7-5.37-1.64c-2.62-1.92-3.84-1.94-6.29-1.49s-53.37,20.66-53.37,20.66a5.83,5.83,0,0,0-2.7,2.55c-1.11,2.14-.1,5.67-.1,5.67l3.94,9.24,3.12,7.31,3.94,9.24s1.87,3.2,4.23,4a6.07,6.07,0,0,0,3.8,0s51.29-19.35,53.37-20.66,2.94-2.14,3.42-5.25"/><g class="cls-40"><g class="cls-41"><path class="cls-42" d="M717,748.43c1.24.82,5.24,1.33,5.24,1.33l-.22-.51-3.38-7.94s-4-.51-5.24-1.33c-2.52-1.67-3.72-1.64-6.15-1.16s-53.37,20.67-53.37,20.67a6.12,6.12,0,0,0-2.75,2.42c-1.18,2-.31,5.19-.31,5.19l3.55,8.34,0,.12s-.86-3.21.31-5.2a6.18,6.18,0,0,1,2.75-2.42s50.94-20.18,53.37-20.67,3.64-.51,6.15,1.16"/></g></g><path class="cls-43" d="M725.24,768.65c.23-1.53,2.64-4.74,2.64-4.74l-3.3-7.73s-2.41,3.21-2.65,4.74c-.47,3.12-1.33,3.94-3.41,5.25s-53.37,20.66-53.37,20.66a6.16,6.16,0,0,1-3.8,0c-2.36-.78-4.23-4-4.23-4l3.3,7.73s1.87,3.2,4.23,4a6.07,6.07,0,0,0,3.8,0s51.29-19.35,53.37-20.66,2.94-2.14,3.42-5.25"/><path class="cls-39" d="M661.44,792l-12.36-29a1.19,1.19,0,0,0-1.5-.65,1.09,1.09,0,0,0-.59,1.46l12.36,29a1.18,1.18,0,0,0,1.49.65,1.09,1.09,0,0,0,.6-1.46"/><path class="cls-39" d="M730.78,763.18,719.86,737.6a1.36,1.36,0,0,0-1.73-.76l-.33.13a1.26,1.26,0,0,0-.69,1.69L728,764.24a1.38,1.38,0,0,0,1.74.76l.33-.13a1.26,1.26,0,0,0,.69-1.69"/><path class="cls-44" d="M730.78,763.18,729,759.07a1.22,1.22,0,0,1-.6.49l-.34.13a1.36,1.36,0,0,1-1.73-.76l-9.16-21.47a1.27,1.27,0,0,0-.09,1.2L728,764.24a1.38,1.38,0,0,0,1.74.76l.33-.13a1.26,1.26,0,0,0,.69-1.69"/><g class="cls-45"><g class="cls-46"><path class="cls-29" d="M727.79,758c-1.3-2.81-2.42-5.7-3.54-8.58s-2.24-5.81-3.53-8.66c-.35-.78-.74-1.55-1.1-2.33-.19-.4-.59-1.31-1-1-.23.14-.14.59,0,.94.76,2.23,1.7,4.41,2.64,6.58,1.49,3.46,3,6.92,4.57,10.35a20.16,20.16,0,0,0,1.69,3.14c.08.12.2.26.32.26s.16-.42,0-.68"/></g></g><path class="cls-39" d="M661.44,792l-12.37-29a1.2,1.2,0,0,0-1.5-.65,1.1,1.1,0,0,0-.6,1.46l12.38,29a1.18,1.18,0,0,0,1.49.65,1.09,1.09,0,0,0,.6-1.46"/><path class="cls-44" d="M661.31,791.68l-1.95-4.55a.71.71,0,0,1-.42.44l-.25.11c-.51.19-1.18-.26-1.5-1L647,762.84a1.71,1.71,0,0,0,.09,1.26l12.11,28.39c.32.76,1,1.21,1.5,1l.25-.1c.51-.2.66-1,.34-1.72"/><g class="cls-45"><g class="cls-47"><path class="cls-29" d="M658.23,785.82c-1.42-3.13-2.7-6.32-4-9.5s-2.56-6.43-4-9.59c-.4-.88-.81-1.73-1.2-2.61-.2-.44-.65-1.45-1-1.2-.17.13,0,.62.1,1,.9,2.45,1.94,4.87,3,7.28,1.65,3.85,3.3,7.69,5,11.5a34.2,34.2,0,0,0,1.77,3.53c.09.15.2.31.3.31s.07-.42-.06-.72"/></g></g><path class="cls-48" d="M717.25,739l-.52-.1s2.65,5.71,4.71,11.55,5.17,15.31,5.17,15.31l1.27-1.85Z"/><path class="cls-49" d="M723.34,772.82l-15.87-37.18a11.69,11.69,0,0,0-1.88.23c-2.45.45-53.37,20.66-53.37,20.66a5.79,5.79,0,0,0-2.51,2.23L665,794.63a6.17,6.17,0,0,0,3.43-.07s51.29-19.35,53.37-20.66a13.14,13.14,0,0,0,1.52-1.08"/><g class="cls-50"><g class="cls-51"><path class="cls-52" d="M657.48,767.93s50.94-20.17,53.37-20.66c.54-.1,1-.19,1.48-.24l-3.61-8.45c-.45,0-.93.14-1.47.24-2.44.49-53.37,20.67-53.37,20.67a6.12,6.12,0,0,0-2.75,2.42l0,.07,3.61,8.45a.16.16,0,0,0,0-.07,6.24,6.24,0,0,1,2.75-2.43"/></g></g><path class="cls-53" d="M723.34,772.82,720,765.09a12.15,12.15,0,0,1-1.51,1.08c-2.08,1.3-53.37,20.66-53.37,20.66a6.06,6.06,0,0,1-3.43.07l3.3,7.73a6.17,6.17,0,0,0,3.43-.07s51.29-19.35,53.37-20.66a13.14,13.14,0,0,0,1.52-1.08"/><g class="cls-54"><g class="cls-55"><path class="cls-29" d="M713.47,741.75a7.46,7.46,0,0,0-3.75-.59,18,18,0,0,0-5.43,1.7L696.9,746c-1.37.59-2.74,1.18-4,1.87a1.75,1.75,0,0,0-.77.59.72.72,0,0,0,0,.92,1,1,0,0,0,.53.21,5.84,5.84,0,0,0,3-.63l11.8-4.81c1.9-.78,4.1-1.55,6-.62a6.29,6.29,0,0,0,1.14.55,1,1,0,0,0,1.11-.31c.44-.74-1.73-1.8-2.27-2"/></g></g><path class="cls-56" d="M704.13,758.73a16.32,16.32,0,0,0-20.65-9,15,15,0,0,0-8.19,20.17,16.33,16.33,0,0,0,20.65,9,15,15,0,0,0,8.19-20.18"/><path class="cls-56" d="M693,769.77a20,20,0,0,1-6.09-14.47c0-1.84.34-3.66.44-5.5a11.85,11.85,0,0,0-.77-5.46,7.12,7.12,0,0,0-.59-1.08c-4.35,1.69-9,3.5-13.33,5.22a7.59,7.59,0,0,1,1,.49,7.9,7.9,0,0,1,3.71,5.25c.37,1.93,0,3.89,0,5.84a16.45,16.45,0,0,0,2.56,8.14,30.69,30.69,0,0,0,5.65,6.61,51.06,51.06,0,0,1,4.7,4.48,10.1,10.1,0,0,1,2.62,5.77,1.93,1.93,0,0,0,0,.24L704,781a16.17,16.17,0,0,0-2.83-4.36c-2.4-2.64-5.6-4.42-8.17-6.9"/><path class="cls-57" d="M680.27,760.46a10.09,10.09,0,0,0,2.14,14,9.93,9.93,0,0,0,14-1.54Z"/><path class="cls-56" d="M680.8,760.87a9.42,9.42,0,0,0,2,13.12,9.29,9.29,0,0,0,13.1-1.44Z"/><path class="cls-58" d="M681.17,761.16a9,9,0,0,0,1.9,12.44,8.82,8.82,0,0,0,12.44-1.36Z"/><path class="cls-56" d="M689.27,767.42l-1.95-1.51a1.2,1.2,0,0,0,.08,1.52,1.21,1.21,0,0,0,1.7.16.91.91,0,0,0,.17-.17"/><path class="cls-56" d="M687.61,766.33c-2.63-.85-5.25-1.94-7.93-2.61-.18-.05-.25.24-.08.31a58.22,58.22,0,0,0,8,2.48c.11,0,.15-.14.05-.18"/><path class="cls-56" d="M687.73,767.35c.06-.09-.08-.21-.15-.11-1.55,2.15-3.33,4.21-4.72,6.48a.17.17,0,0,0,.26.21,52.08,52.08,0,0,0,4.61-6.58"/><path class="cls-56" d="M693.71,773.93a61.09,61.09,0,0,0-5.15-6.58c-.08-.09-.22,0-.15.11,1.69,2.2,3.22,4.59,5.05,6.67a.16.16,0,1,0,.25-.2"/><path class="cls-56" d="M688.5,775.88a55,55,0,0,0-.26-8.21c0-.13-.19-.1-.19,0,.06,2.71-.12,5.48.13,8.18,0,.19.31.2.32,0"/><path class="cls-56" d="M687.63,767c-2.67.4-5.44.58-8.07,1.16a.17.17,0,0,0,0,.34,57.85,57.85,0,0,0,8.06-1.31c.11,0,.09-.21,0-.19"/><path class="cls-56" d="M687.71,767s0,0,0,0h0"/><path class="cls-57" d="M685.33,752.84a7,7,0,0,0-.76,9.95,7.2,7.2,0,0,0,10,1.18Z"/><path class="cls-56" d="M685.64,753.21a6.52,6.52,0,0,0-.71,9.29,6.75,6.75,0,0,0,9.38,1.11Z"/><path class="cls-58" d="M685.85,753.46a6.21,6.21,0,0,0-.68,8.82,6.4,6.4,0,0,0,8.91,1.05Z"/><path class="cls-56" d="M689.38,757.69a.85.85,0,0,0-.19,1.06.88.88,0,0,0,1.16.38l.15-.09Z"/><path class="cls-56" d="M689.5,758c-1.7-1-3.35-2.14-5.1-3-.12-.07-.22.11-.11.19a44.77,44.77,0,0,0,5.16,3c.08,0,.13-.08,0-.12"/><path class="cls-56" d="M689.43,758.75c.06,0,0-.16-.08-.11-1.44,1.24-3,2.39-4.34,3.68a.12.12,0,0,0,.15.19,44.85,44.85,0,0,0,4.27-3.76"/><path class="cls-56" d="M692.55,764.21a50.87,50.87,0,0,0-2.53-5.33c0-.07-.16,0-.13,0,.83,1.78,1.55,3.62,2.45,5.37a.11.11,0,0,0,.21-.09"/><path class="cls-56" d="M689.74,759c0-.08-.11-.1-.13,0-.4,1.87-.94,3.73-1.24,5.62,0,.13.19.19.23.07a45.16,45.16,0,0,0,1.14-5.67"/><path class="cls-56" d="M689.42,758.51c-1.95-.15-3.91-.42-5.86-.48-.13,0-.12.21,0,.23a47.42,47.42,0,0,0,5.83.38.07.07,0,0,0,0-.13"/><path class="cls-56" d="M689.48,758.52s0,0,0,0,0,0,0,0"/><path class="cls-49" d="M685.26,778.1a15.45,15.45,0,0,1-8.87-8.43,14.38,14.38,0,0,1-.17-11.13,13.66,13.66,0,0,1,7.8-7.67,15.23,15.23,0,0,1,19.23,8.41,14,14,0,0,1-7.63,18.8,14.67,14.67,0,0,1-10.36,0m8.88-26.53a13.87,13.87,0,0,0-9.81,0,13.28,13.28,0,0,0-7.23,17.8,14.42,14.42,0,0,0,18.22,8,13.28,13.28,0,0,0,7.22-17.8,14.65,14.65,0,0,0-8.4-8"/><path class="cls-57" d="M694.87,753.89a1.66,1.66,0,0,1-1,2.23,1.78,1.78,0,0,1-2.32-1,1.62,1.62,0,0,1,.94-2.24,1.82,1.82,0,0,1,2.33,1m-2.58,1a.94.94,0,0,0,1.29.46.89.89,0,0,0,.6-1.19,1,1,0,0,0-1.3-.46.86.86,0,0,0-.59,1.19"/><path class="cls-57" d="M696.12,757a1,1,0,0,1-.49,1.41,1,1,0,0,1-1.2-.3l-.83,1.61-.4-.93.83-1.46-1.24.48-.31-.73,3.15-1.22Zm-1.54.22c.12.27.28.6.67.44s.28-.48.15-.76l0-.09-.83.32Z"/><path class="cls-57" d="M694.9,762.74l-.34-.78.53-.48-.51-1.22h-.73l-.34-.78,3.71.07.29.67Zm1.49-2.47h-1.08l.31.72Z"/><polygon class="cls-57" points="695.26 763.59 694.95 762.86 698.11 761.64 698.42 762.37 697 764.4 697.01 764.4 698.97 763.64 699.28 764.38 696.12 765.6 695.81 764.87 697.23 762.84 697.22 762.83 695.26 763.59"/><path class="cls-57" d="M698.63,768.53a1.65,1.65,0,0,1-1.77-1,1.67,1.67,0,0,1,1-2.2,1.79,1.79,0,0,1,2.31.93,1.58,1.58,0,0,1,0,1.44l-.72-.27a.84.84,0,0,0,.1-.88,1,1,0,0,0-1.33-.43.94.94,0,0,0-.63,1.19.73.73,0,0,0,.91.46l-.31-.73.55-.22.63,1.47Z"/><polygon class="cls-57" points="700.99 770.12 700.52 769.02 699.9 769.26 700.35 770.32 699.72 770.56 699.26 769.5 698.63 769.75 699.1 770.85 698.47 771.1 697.69 769.27 700.84 768.05 701.63 769.87 700.99 770.12"/><path class="cls-49" d="M686.61,747a4.88,4.88,0,0,0-1.72-2.92s-.06,0,0,0a5.25,5.25,0,0,1,1.26,3.52c0,1-.55,1.91-.37,2.88,0,.13.23.22.31.09a5.92,5.92,0,0,0,.55-3.61"/><path class="cls-49" d="M678.79,755.07a7.59,7.59,0,0,0-4.67-6.67c-.07,0-.13.07-.07.11a10.16,10.16,0,0,1,2.85,2.69,9.75,9.75,0,0,1,1.39,3.86c.05.26.48.31.5,0"/><path class="cls-49" d="M699.56,776.06a.19.19,0,0,0,.09-.12l-.45.12.11.07a.29.29,0,0,0,.25-.07"/><path class="cls-49" d="M702.94,780.71a7.45,7.45,0,0,0-3.46-5.15c-.42-.25-.48.51-.17.57l-.11-.07.45-.12a.19.19,0,0,1-.09.12.29.29,0,0,1-.25.07,9.35,9.35,0,0,1,2.15,1.92,10.81,10.81,0,0,1,1.38,2.68.05.05,0,0,0,.1,0"/><path class="cls-49" d="M691.7,778.4c-.26-.19-.61.13-.39.39,1.34,1.63,2.52,3.41,2.12,5.58,0,0,.05.08.07,0,1-1.74-.17-4.86-1.8-6"/><path class="cls-56" d="M668.86,759.44a3.52,3.52,0,0,1-1.92,4.78,3.81,3.81,0,0,1-4.88-2.15l-.85-2,6.8-2.62Zm-5.49,1.91a2.17,2.17,0,0,0,2.85,1.18,2,2,0,0,0,1.18-2.74l-.11-.24-4,1.56Z"/><path class="cls-56" d="M671.69,766.06c.54,1.28.27,2.51-1.06,3a2.18,2.18,0,0,1-2.58-.64l-1.8,3.45-.84-2,1.79-3.14-2.69,1-.67-1.57,6.8-2.63Zm-3.32.46c.25.59.59,1.28,1.44,1s.59-1.05.33-1.64l-.07-.19-1.78.69Z"/><polygon class="cls-56" points="667.06 773.77 666.39 772.2 673.18 769.57 673.85 771.14 667.06 773.77"/><polygon class="cls-56" points="668.15 776.34 667.49 774.77 674.28 772.14 674.95 773.71 671.9 778.08 671.9 778.09 676.12 776.46 676.79 778.02 670 780.65 669.33 779.09 672.38 774.72 672.37 774.7 668.15 776.34"/><polygon class="cls-56" points="672.17 785.76 673.98 782.11 671.09 783.22 670.42 781.66 677.22 779.03 677.89 780.59 675.11 781.67 678.9 782.95 679.7 784.85 675.3 783.33 673.1 787.91 672.17 785.76"/><path class="cls-59" d="M711.9,720.44c.09.19,1.78,1.3,1.88,1.49l29.82-8.84c0-.22.79-2.06.76-2.28a32.65,32.65,0,0,0-1.2-4.82c-.28-.9-.55-1.79-.82-2.68l-.05,0c-.83-2.83-1.22-4-2.19-6.73l-6.75-18.84a8.84,8.84,0,0,0-2.12-3.81c-.59-.51-1.28-.79-1.86-1.31-1.77-1.54-1.42-4.44-.49-6.52a6.55,6.55,0,0,0,.7-5c-.38-2.25-4.25-13.42-6.41-19.66-1.53-4.38-3.2-9-6.41-12-2.85-2.65-6.61-3.73-9.23-6.61-1.2-3.07-2.3-6.2-3.4-9.4l-12.21,3.62c.85,3.32,1.74,6.56,2.42,9.83-.65,3.76-3.16,6.69-4.07,10.41-1,4.25.1,9,1.23,13.52,1.61,6.41,4.52,17.87,5.43,20a8,8,0,0,0,3.31,3.77c2,1.08,3.81,3.46,3.18,5.72-.21.74-.63,1.36-.84,2.1a8.94,8.94,0,0,0,.32,4.35l4.71,19.44c.68,2.8,1,4,1.86,6.83l.78,2.68a34.88,34.88,0,0,0,1.65,4.7"/><path class="cls-60" d="M736.19,714.25l-23.36,6.92a7.27,7.27,0,0,1,.95.76l29.82-8.84c0-.22.79-2.06.76-2.28a31.9,31.9,0,0,0-1.21-4.83c-.27-.89-.54-1.77-.82-2.67l0,0c-.83-2.83-1.22-4-2.19-6.73l-6.75-18.84a8.75,8.75,0,0,0-2.13-3.81c-.58-.5-1.27-.79-1.85-1.31-1.76-1.54-1.46-4.47-.48-6.52a6.63,6.63,0,0,0,.7-5c-.39-2.25-4.25-13.42-6.42-19.66-1.52-4.38-3.2-9-6.41-12-2.85-2.65-6.61-3.73-9.23-6.61-1.21-3.07-2.3-6.2-3.4-9.4l-5.82,1.72c1,2.88,2,5.7,3.08,8.46,2.61,2.88,6.38,4,9.23,6.61,3.21,3,4.88,7.61,6.4,12,2.17,6.24,6,17.41,6.42,19.66a6,6,0,0,1-2,5.34c-1.54,1.47-1.28,5,.49,6.51.58.51,1.27.8,1.85,1.3a8.89,8.89,0,0,1,2.13,3.82l6.75,18.84c1,2.72,1.36,3.89,2.18,6.72h0c.28.89.55,1.79.82,2.67A32.63,32.63,0,0,1,737,712c0,.21-.78,2-.76,2.27"/><path class="cls-60" d="M743.61,713.09c0-.21.78-2.06.75-2.27a31.28,31.28,0,0,0-1.2-4.83,24,24,0,0,1,.75,3.31c0,.22-.77,2.06-.76,2.28l-29.81,8.84c-.11-.2-1.79-1.3-1.89-1.5a24.72,24.72,0,0,1-1.19-3.18,31.39,31.39,0,0,0,1.65,4.69c.09.2,1.77,1.31,1.87,1.5Z"/><path class="cls-61" d="M727.19,666.63c1.59-1.51,1-3.11.7-5-.38-2.25-4.25-13.41-6.42-19.66-1.52-4.38-3.19-9-6.4-12-2.85-2.65-6.62-3.73-9.24-6.61-1.19-3.07-2.3-6.2-3.39-9.4l-1.68.49c1.09,3.21,2.19,6.34,3.39,9.41,2.62,2.88,6.39,4,9.24,6.61,3.21,3,4.88,7.61,6.4,12,2.17,6.24,6,17.41,6.42,19.66.31,1.85.89,3.45-.7,5s-1.28,5,.48,6.51c.59.51,0,1.18.59,1.68a9,9,0,0,1,2.13,3.82c2.24,6.28,5.77,12.18,8,18.46,1,2.72,1.37,3.9,2.19,6.73l.05,0c.27.9.55,1.79.82,2.67a31.69,31.69,0,0,1,1.2,4.84c0,.21-2,2.43-2,2.65l3-.88c0-.21.79-2.06.75-2.27a30.17,30.17,0,0,0-1.2-4.83c-.27-.89-.55-1.79-.81-2.67h0c-.83-2.83-1.22-4-2.2-6.73q-3.36-9.42-6.74-18.84a8.9,8.9,0,0,0-2.12-3.81c-.59-.51-1.28-.8-1.86-1.3-1.77-1.56-2-5-.49-6.52"/><path class="cls-59" d="M706.13,618.45a.73.73,0,0,0,.4-1l0-.16a.74.74,0,0,0-.87-.57l-13,3.85a.74.74,0,0,0-.41,1l0,.16a.74.74,0,0,0,.86.57Z"/><path class="cls-61" d="M705.88,618.52l-12.63,3.75.2.85s6.37-1.84,9.54-1.85a20.86,20.86,0,0,1,4,.21Z"/><polygon class="cls-62" points="705.88 618.52 693.25 622.27 693.32 622.5 706.3 619.65 705.88 618.52"/><g class="cls-63"><g class="cls-64"><path class="cls-29" d="M701,619.19a.31.31,0,0,0,.18-.41.34.34,0,0,0-.38-.26l-8.12,2.41a.32.32,0,0,0-.18.42.33.33,0,0,0,.38.25Z"/></g></g><path class="cls-65" d="M701.92,606.76l-11.69,3.47a1.38,1.38,0,0,0-.76,1.78l2.48,8.27L706,616.11l-2.47-8.27a1.4,1.4,0,0,0-1.62-1.08"/><path class="cls-66" d="M697,618.78l9-2.67-2.47-8.27a1.38,1.38,0,0,0-1.61-1.07l-3.11.92a3,3,0,0,1,1.08,1.69,7.22,7.22,0,0,1-.27,3.89,19.3,19.3,0,0,1-2.61,5.51"/><path class="cls-67" d="M706,616.11l-2.47-8.27a1.4,1.4,0,0,0-1.62-1.08L701,607a1.38,1.38,0,0,1,1.61,1.07l2.48,8.28Z"/><path class="cls-68" d="M690.39,612.35a1.26,1.26,0,0,0,.58,0,10.4,10.4,0,0,0,1.47-.32c.71-.21,1.38-.48,2.07-.75,1.15-.46,2.3-.93,3.44-1.42a7.25,7.25,0,0,0,1.14-.59.58.58,0,0,0,.31-.4.61.61,0,0,0-.32-.57,1.2,1.2,0,0,0-.93,0q-1.83.51-3.66,1.08l-1.77.58a14.61,14.61,0,0,1-1.8.6c-.24,0-.42,0-.63.17a1.38,1.38,0,0,0-.42.71.92.92,0,0,0,0,.52.73.73,0,0,0,.48.4"/><g class="cls-69"><g class="cls-70"><path class="cls-29" d="M690.69,611.68a30.41,30.41,0,0,0,5.88-1.71,2.53,2.53,0,0,0,1.31-.83c-.11.16-.77.21-1,.26l-1,.28-2,.56-2,.55c-.17.05-1.82.36-1.44.82a.3.3,0,0,0,.29.07"/></g></g><polygon class="cls-67" points="691.78 619.73 691.95 620.28 706.01 616.12 705.85 615.56 691.78 619.73"/><path class="cls-60" d="M703.06,672.62c4.49-.44,8.79-2,13.33-2.06.94,0,4.07.4,5,2.6.57,1.36.13-.69.83.6a12.27,12.27,0,0,1,0-4.32,6.26,6.26,0,0,1,1.39-2.87,10.17,10.17,0,0,0,1.41-2.86,4.44,4.44,0,0,0-.35-3.25c-.48-.79-.86-.8-1.07,0a7.27,7.27,0,0,1-.79,2.53,6,6,0,0,1-2.36,1.76,81.7,81.7,0,0,1-16.4,6.34,11.73,11.73,0,0,0-2.64.89c-.09.06-.19.13-.2.24s.19.3.35.34a4.27,4.27,0,0,0,1.47,0"/><path class="cls-71" d="M703.69,665.09a9.36,9.36,0,0,0,3.67-.87,6.11,6.11,0,0,0,2.89-2c1.09-1.57,1-3.9.71-6-1.12-7-4.87-13.37-7.46-20a10.21,10.21,0,0,0-1.94-3.61c-1.29-1.28-3.55-2.37-4.71-.92s-1.78,4-2,6.11c-.84,7.15,1.14,14.66,3.36,21.79a10.44,10.44,0,0,0,1.89,4,5,5,0,0,0,3.63,1.6"/><g class="cls-72"><g class="cls-73"><path class="cls-29" d="M703.35,658.59a6.78,6.78,0,0,0-.37-3.3,104.92,104.92,0,0,1-3.39-18c-.09-.89-.1-2.71-1.18-2.7-.93,0-1.24,1.47-1.41,2.28a20.73,20.73,0,0,0,.14,7.44c.49,3.22,1.11,6.44,1.86,9.63a24.21,24.21,0,0,0,1.54,4.8,2.55,2.55,0,0,0,.63.93c.8.69,1.92,0,2.18-1"/></g></g><g class="cls-72"><g class="cls-74"><path class="cls-29" d="M692.55,639.41c.28-3.43,1.67-6.45,3-9.38-.31.63-2.47,2.71-2.8,3.35a17.09,17.09,0,0,0-1.74,4.85,22.14,22.14,0,0,0,.49,8.07c.41,2,.9,4,1.4,6s1,4.11,1.54,6.17,1,4,1.64,6a45.64,45.64,0,0,0,2.63,6.43,123.67,123.67,0,0,1-5.94-25.65,28.19,28.19,0,0,1-.26-5.79"/></g></g><path class="cls-71" d="M720.82,715.53a7.59,7.59,0,0,0,1.1-3.86c.54-6.81-1.39-13.81-2.37-20.74-.46-3.28-.65-6.88.94-9.38.63-1,1.76-2.2,1-3.68-.56-1.16-1.82-1.13-2.72-1a43.52,43.52,0,0,0-9.8,2.76c-1.62.68-3.6.71-4.1,2.62-.32,1.26.56,4.18.84,5.53,1.46,7.14,2.07,14.49,4.61,21.33.95,2.53,2.23,5.08,4.23,6.62s4.82,1.72,6.23-.21"/><path class="cls-65" d="M742.68,704.51c-.13-.4-.25-.79-.37-1.19l0,0c-.82-2.84-1.21-4-2.19-6.73q-3.12-8.73-6.25-17.46l-30.6,9.07q2.17,9,4.37,18c.67,2.8,1,4,1.86,6.82.12.4.23.8.35,1.19Z"/><path class="cls-66" d="M740.08,696.61l-6.26-17.46-7.05,2.09q3,8.26,5.91,16.52c1,2.71,1.37,3.9,2.19,6.73l0,0c.22.72.44,1.43.65,2.14l7.11-2.1c-.13-.4-.24-.79-.37-1.19h0c-.82-2.84-1.21-4-2.18-6.73"/><path class="cls-67" d="M738.43,697.1l-6.25-17.46-2.95.87c2.08,5.82,5.43,11.27,7.52,17.08,1,2.72,1.36,3.9,2.19,6.73l0,0,.36,1.19L741,705l-.36-1.18h0c-.82-2.83-1.21-4-2.19-6.72"/><path class="cls-68" d="M722,710.65c.28-6.48-1.5-13.14-2.43-19.71a18.44,18.44,0,0,1,.14-7.6l-14,4.16c0,.09,0,.19.07.29,1.46,7.14,2.07,14.5,4.61,21.34a20.78,20.78,0,0,0,2.14,4.33Z"/><path class="cls-61" d="M726.06,659.83l-.08.29a5.55,5.55,0,0,1-.34,2.66,3.47,3.47,0,0,1-1.06,1.16,20.72,20.72,0,0,1-4.46,2.42q-2.34,1-4.73,1.95c.07.27.39.29.61.24q3-.66,5.91-1.49a8,8,0,0,1,2.51-.44.74.74,0,0,1,.45.13c.13.1,1.48,0,1.4.09.93-.76.34-1.53.65-2.84a7.76,7.76,0,0,0-.2-4.13c-.07-.2-.17-.42-.34-.45s-.2.05-.25.17L726,660a1.23,1.23,0,0,1,0-.19"/><path class="cls-61" d="M726.06,659.83l.06-.23a1.55,1.55,0,0,0-.06.23"/><path class="cls-61" d="M726.13,659.6v0Z"/><path class="cls-61" d="M726.06,659.83a1.23,1.23,0,0,0,0,.19l.09-.43h0Z"/><g class="cls-72"><g class="cls-75"><path class="cls-29" d="M706.35,683.16a77.57,77.57,0,0,0,12.09-3.84.9.9,0,0,0,.45-.31.5.5,0,0,0,0-.6.51.51,0,0,0-.48,0l-4.54,1.54a22,22,0,0,1-2.48.74c-1.39.31-2.82.38-4.2.72a2.12,2.12,0,0,0-1.2.47c-.26.29-.48,1.18.12,1.32a.72.72,0,0,0,.29,0"/></g></g><path class="cls-76" d="M521.39,535q2.93,3.33,5.56,6.89c-1.16,2.69-2.44,5.33-3.82,7.91a75.56,75.56,0,0,1,11.15,7.51,4.59,4.59,0,0,1,1.05,1.06,4.9,4.9,0,0,1,.49,1.18,43.82,43.82,0,0,1,1.6,7.94,48.9,48.9,0,0,1,6.74-.27,20.58,20.58,0,0,0-.85,2.66A6.34,6.34,0,0,0,547,568a6,6,0,0,0,.67-1.22c2.18-4.79,4.39-9.74,4.62-15a5,5,0,0,0-.39-2.59,5.66,5.66,0,0,0-1.38-1.59L546,543.51A127.7,127.7,0,0,0,534.68,534a4.73,4.73,0,0,0-1.73-.91,5.76,5.76,0,0,0-2.33.14,23.16,23.16,0,0,1-5.45.32,8.66,8.66,0,0,0-2.31-.19c-.72.18-1.08,1.06-1.47,1.62"/><path class="cls-77" d="M584.15,538.56A15.11,15.11,0,0,1,589,535q8.38-4.49,17.05-8.36l-7.22-15.25q-8.5,4.2-17.32,7.79a15,15,0,0,1-5.9,1.48c-3-.07-6.2-2.88-9.15-3.64-4.91-1.26-10.21.16-14.78,2.36-8,3.83-18.59,8.87-29.14,13.92a70.28,70.28,0,0,0,10.26,4.68.55.55,0,0,1,.24.83c-1.29,1.68-3,3-4.26,4.7,1.33.56,2.7,1,4,1.63a.56.56,0,0,1,.31.7c-1.81,4.7-4.29,9.26-5.26,14.23,3.1.22,6.14-1.1,9.19-1.48,1.86-.22,3.78-.28,5.66-.38a35.45,35.45,0,0,1,5.55.08.54.54,0,0,1,.45.73,37.29,37.29,0,0,0-2.57,9.8l23.76-11c4.61-2.12,9.08-5.29,11.23-9.87,1.29-2.75,1.12-7,3-9.35"/><path class="cls-78" d="M584.08,538.59A15.15,15.15,0,0,1,589,535q5.07-2.72,10.26-5.21a8.29,8.29,0,0,0-2.1-2.3c-1.81-1.32-3.29-.22-5,.81l-8.16,5c-2.72,1.68-5.53,3.44-7.33,6.08-1,1.43-1.62,3.07-2.62,4.5a19.76,19.76,0,0,1-5.3,4.75,201,201,0,0,1-20.43,11.68l-.18.09a41.64,41.64,0,0,0-2,8.37c8.68-4,17.08-7.93,23.7-11,4.61-2.12,9.08-5.29,11.22-9.87,1.3-2.75,1.13-7,3-9.35"/><path class="cls-79" d="M532.84,537.94a.53.53,0,0,1,.24.82c-1.29,1.69-3,3-4.26,4.71,1.33.56,2.7,1,4,1.63a.56.56,0,0,1,.31.7c-.17.44-.34.87-.52,1.31,7.77-4.62,15.48-9.35,24-12.27a22.69,22.69,0,0,1,8.48-1.54,42,42,0,0,0,5,.35c3.72-.26,5.69-4.11,4.38-7.52s-5.92-5-9.16-4.82-6.3,1.76-9.22,3.25Q543.4,531,530.48,537.05c.78.31,1.57.61,2.36.89"/><path class="cls-79" d="M579.82,523.42a5.26,5.26,0,0,0-1.49,1.15,1.66,1.66,0,0,0,1,2.84,5.2,5.2,0,0,0,1.88-.12,61.08,61.08,0,0,0,11.4-3.74,6.47,6.47,0,0,0,3.22-2.23A3.29,3.29,0,0,0,595,517c-1.35-1-2.13-.42-3.4.25-3.94,2.06-8,3.92-11.78,6.19"/><path class="cls-80" d="M627,516.57l-7.07-14.93a2,2,0,0,0-2.64-.95L606,506a2,2,0,0,0-1.12,2.1l-15.52,7.71,7.23,15.26,15.84-7a2,2,0,0,0,2.33.48l11.34-5.33a2,2,0,0,0,.94-2.63"/><path class="cls-81" d="M596.55,531.09l15.83-7a2,2,0,0,0,2.34.48l11.34-5.33a2,2,0,0,0,.94-2.64l-2.18-4.6a1,1,0,0,1-.08.14,7.48,7.48,0,0,1-2.15,2,30.64,30.64,0,0,1-5.14,2.76,5,5,0,0,1-6.64-1.24,30.69,30.69,0,0,1-5.25-6.75,35.25,35.25,0,0,0,1.86,4.23,6.32,6.32,0,0,1,.5,4.48,7.5,7.5,0,0,1-3,3.34,55.11,55.11,0,0,1-10.45,5.7Z"/><path class="cls-82" d="M617.7,501.55a1,1,0,0,0,.16.86c1.59,3,3.22,6,4.89,9a.55.55,0,0,0,.29.29.35.35,0,0,0,.38-.33,1,1,0,0,0-.13-.54c-.95-2.06-1.94-4.09-3-6.11a17.39,17.39,0,0,1-1-2.36c-.16-.46-1.15-1.89-1.62-.84"/><path class="cls-83" d="M627,516.57l-.37-.8c-.78.46-1.5,1.06-2.34,1.51a69.71,69.71,0,0,1-6.66,3.15,6.27,6.27,0,0,1-2.3.6,5.14,5.14,0,0,1-3.21-1.37,11.33,11.33,0,0,1-2.93-3.69c.54,1.26,1.09,2.7.53,4a4.77,4.77,0,0,1-1.87,1.91,82.91,82.91,0,0,1-12.52,6.67l1.22,2.58,15.84-7a2,2,0,0,0,2.33.48l11.34-5.33a2,2,0,0,0,.94-2.63"/><path class="cls-84" d="M581.2,539.18v.55a1,1,0,0,0,0-.55"/><path class="cls-85" d="M574.63,553.16a17.84,17.84,0,0,0,3.26-2.87c2.43-2.89,3.26-6.79,3.31-10.56a1.26,1.26,0,0,1-.34.69l0-.07a11.72,11.72,0,0,1-3.08,6.61c-3.9,4.65-9.37,7.68-14.7,10.62q-6.9,3.78-13.81,7.59c8.56-3.85,17.78-6.53,25.39-12"/><g class="cls-86"><g class="cls-87"><path class="cls-29" d="M566.23,523.37a15,15,0,0,0-5,1.38,165.91,165.91,0,0,0-16.79,8.07c-.42.23-.88.54-.89,1a.93.93,0,0,0,.84.85,2.62,2.62,0,0,0,1.29-.23c5.38-2,10.23-5.23,15.58-7.31a11.23,11.23,0,0,1,5.33-1,35,35,0,0,1,3.6.89c.75.16,1.44,0,1.46-.91s-.55-.93-1.11-1.29a7.07,7.07,0,0,0-4.31-1.46"/></g></g><path class="cls-85" d="M525.54,534.8q2.67-1.5,5.45-2.83c3.08-1.49,6.23-2.84,9.38-4.19l12.75-5.49a44.7,44.7,0,0,1,8.09-2.86,14.77,14.77,0,0,1,8.46.42c-4.17-2.68-7.82-2.53-12.32-.79a196.45,196.45,0,0,0-31.87,15.71l.06,0"/><path class="cls-79" d="M611.27,503.53l9.34,18.15,7.85-3.52a2.12,2.12,0,0,0,1-2.9L622,500.56a2.13,2.13,0,0,0-2.84-.93Z"/><path class="cls-80" d="M613.87,499.91a19,19,0,0,0-1.06,3.28,18.63,18.63,0,0,0,2.68.22,4.53,4.53,0,0,0-1.18,1.49,38.86,38.86,0,0,1,6.89,2.72,11.81,11.81,0,0,0-5.32,1.9,6,6,0,0,1,3.1,2.75,7.29,7.29,0,0,0-2,0,5.94,5.94,0,0,1,1.93,2.75.67.67,0,0,1,0,.46.62.62,0,0,1-.3.25,3.09,3.09,0,0,1-3.44-1.16c-.84-1-1.3-2.25-2.05-3.31s-1.49-1.69-2.14-2.6a8,8,0,0,1-1.07-3.1c-.35-1.39.15-1.44,1.22-2.43a11.28,11.28,0,0,0,2.7-3.22"/><path class="cls-81" d="M621,513.63c-.32,1.16-.65,2.32-1,3.49a14.23,14.23,0,0,1,4.41.34,6.34,6.34,0,0,0-2,1.3,18.47,18.47,0,0,1,7.31,1.36,32.66,32.66,0,0,0-9.12,1.75.9.9,0,0,1-1.17-.26c-.77-.76-2.86-3.07-2.47-4.29.2-.62,1.55-1.15,2-1.56a12.27,12.27,0,0,0,2-2.13"/><path class="cls-88" d="M550.58,616.45c-.42,4.28-2,8.35-3.06,12.51s-1.73,8.64-.31,12.72,4.79,7.36,8.14,10.23c.69.58,1.45,1.36,1.24,2.23-.24,1.08-1.69,1.29-2.79,1.14a20.36,20.36,0,0,1-11.23-5.85,28.55,28.55,0,0,1-8.32-16,28.2,28.2,0,0,1,3.09-17.71c-1.31,2.11-2.69,4.28-4.77,5.66a11.44,11.44,0,0,1-4.75,1.69c-4.93.69-9.94-.87-14.42-3.11s-8.59-5.11-13.07-7.33c-.87-.44-1.92-1.1-1.8-2.07.13-1.21,1.8-1.39,3-1.19,7.36,1.29,14.68,5.25,21.88,3.38a14.15,14.15,0,0,0,8.74-6.77,1.48,1.48,0,0,0,.26-.77,1.42,1.42,0,0,0-.38-.81c-1.93-2.28-5.52-1.49-8.5-1.73-4.56-.37-8.37-3.55-11.67-6.73s-6.72-6.62-11.15-7.78c4.24-1.21,8.77.4,12.71,2.43s7.76,4.53,12.12,5.29c4.74.82,10-.45,14.16,1.95,1.14.65,2.64,1.55,3.6.66a2.55,2.55,0,0,0,.61-1.62,8.23,8.23,0,0,0-.88-5.45c-1-1.57-3.38-2.39-4.88-1.26-.46.1-.86-.43-.82-.9a2,2,0,0,1,.76-1.15,7.86,7.86,0,0,1,7.84-1.28.9.9,0,0,1,.49.34,1.08,1.08,0,0,1,0,.69c-.53,2.81.4,5.66,1.08,8.44a15,15,0,0,1,.54,5.45c-.32,2.49-1,2.4.4,4.55a15.68,15.68,0,0,1,2.12,10.18"/><path class="cls-89" d="M526.3,623.28a38.94,38.94,0,0,0,12.67-9.8c.5-.6,1.14-1.27,1.92-1.16a27.92,27.92,0,0,0-2.41,20.53,35.15,35.15,0,0,0,11.32,17.62,8.17,8.17,0,0,0,3.83,2.13,3.75,3.75,0,0,0,2-.27,2.15,2.15,0,0,1,.89,1.91c-.25,1.08-1.69,1.29-2.8,1.14a20.3,20.3,0,0,1-11.23-5.85,28.61,28.61,0,0,1-8.32-16,28.17,28.17,0,0,1,3.1-17.72c-1.32,2.12-2.7,4.3-4.78,5.68a11.56,11.56,0,0,1-4.75,1.68c-.49.07-1,.11-1.48.14"/><path class="cls-89" d="M543.82,602.4a3.51,3.51,0,0,1-2.71-1c-1.83-1.33-3.69-2.77-5.89-3.26-2.78-.62-5.64.35-8.48.38-3.62.06-7.09-1.4-10.43-2.84a2.5,2.5,0,0,0,.86,2.89,7.19,7.19,0,0,0,3,1.23l12.92,3.2a2.71,2.71,0,0,0,1.16.11c.83-.17,1.28-1,1.92-1.56a3,3,0,0,1,3.91.23c-1.51.23-2.32,1.83-3.08,3.15a17.32,17.32,0,0,1-15.21,8.54c-.73,0-1.47-.1-2.2-.2a15.76,15.76,0,0,0,3.79-.49,14.15,14.15,0,0,0,8.74-6.77,1.57,1.57,0,0,0,.26-.77,1.33,1.33,0,0,0-.38-.8c-1.93-2.29-5.52-1.5-8.5-1.74-4.56-.36-8.36-3.55-11.68-6.72s-6.71-6.63-11.14-7.79c4.24-1.2,8.77.41,12.71,2.44s7.76,4.53,12.12,5.28c4.74.82,10-.45,14.16,1.95,1.15.65,2.64,1.55,3.6.66a2.49,2.49,0,0,0,.61-1.62,8.2,8.2,0,0,0-.88-5.44c-1-1.57-3.38-2.4-4.87-1.27-.46.1-.87-.43-.82-.9a1.85,1.85,0,0,1,.75-1.14,7.55,7.55,0,0,1,3.79-1.71c.08,1.2,1.07,1.79,2.07,2.81a7.47,7.47,0,0,1,1.88,4.09,21.17,21.17,0,0,1,0,5.51c-.14,1.43-.55,3.18-1.95,3.51"/><g class="cls-90"><g class="cls-91"><path class="cls-92" d="M549.47,611.6c.32,4.81-1.64,9.42-3.21,14s-2.75,9.61-1,14.09c-2.12-2.63-2.64-6.22-2.31-9.56s1.41-6.55,2.18-9.82,1.25-6.71.35-10c-.21-.76-.5-1.5-.69-2.26a1.74,1.74,0,0,1,.17-1.58c.86-.93,2.6.17,3.17.92a8.14,8.14,0,0,1,1.29,4.21"/></g></g><g class="cls-90"><g class="cls-93"><path class="cls-92" d="M536.44,613.22a17,17,0,0,1-7.35,5.06c-4.57,1.44-9.55.21-14.08-1.39-2.51-.88-5-1.87-7.44-2.86a12.79,12.79,0,0,1-3.68-2c-.29-.26-.58-.64-.42-1s.81-.33,1.25-.17a111.86,111.86,0,0,0,16.19,4.63,18.23,18.23,0,0,0,5.79.4c3.19-.41,6-2.27,8.47-4.31a50.31,50.31,0,0,0,6.94-7c-.82,1.41-1.51,2.86-2.42,4.24s-2.71,2.91-3.25,4.34"/></g></g><g class="cls-90"><g class="cls-94"><path class="cls-29" d="M566.47,486.09a.9.9,0,0,0-.26.51c0,.48.57.71,1,.78,8.09,1.23,16.28-.82,24.21-2.87a9.77,9.77,0,0,0,4.26-1.87,86.23,86.23,0,0,1-15.66,2.2q-3.92.18-7.85,0c-2.26-.1-4.06-.71-5.75,1.24"/></g></g><path class="cls-95" d="M664.31,710.08a.14.14,0,0,1-.07.1l-.12.07A168.45,168.45,0,0,1,647.54,718a.13.13,0,0,1-.12,0l0,0a.13.13,0,0,1,0-.11v0l7.4-32,11.37-30.93,0,0,6.55-8.26a.17.17,0,0,1,.12-.05l3.78.8a4.6,4.6,0,0,1,.68.39s.8,3.13.8,3.17c-.13.69.09,1.39,0,2.06-2.45,13.42-5.75,25.56-9.38,39.8-1.57,6.19-3.06,12-4.34,17.34"/><path class="cls-96" d="M664.12,710.25A166.18,166.18,0,0,1,647.54,718a.13.13,0,0,1-.12,0l0,0s.15.07.15,0c1.52-1.5,3-3.19,4.55-4.69,2.11-2,4.3-4.07,6.2-6a.79.79,0,0,1,.39-.26.68.68,0,0,1,.57.23l.13.12a49.6,49.6,0,0,0,4.74,2.89"/><path class="cls-96" d="M658.63,707.34a.2.2,0,0,1-.11-.25c4.57-16.2,10-33,15.3-49.31l3.14-9.69a.19.19,0,0,1,.25-.13.2.2,0,0,1,.14.26q-1.56,4.81-3.14,9.69c-5.27,16.27-10.72,33.1-15.3,49.29a.2.2,0,0,1-.26.15h0"/><path class="cls-97" d="M647.6,717.9a.15.15,0,0,1-.2.08h0a264,264,0,0,1-30.48-17.32,147.57,147.57,0,0,1-14.73-10.92,3.65,3.65,0,0,1-1.55-2.3,3.75,3.75,0,0,1,.69-2.12c9.61-16.6,18.23-32.31,25.64-46.76l1.17-2.28a.14.14,0,0,1,.18-.07l43.87,15.21a.13.13,0,0,1,.08.08.14.14,0,0,1,0,.11q-1.53,3.87-3,7.76c-7.55,19.34-14.81,39-21.63,58.53"/><path class="cls-98" d="M669.23,659.37a15,15,0,0,1-1.61.36h-.09c-6.38-3.19-13-6.75-19.51-10.19-7-3.7-14.11-7.52-21-11l1.17-2.28a.14.14,0,0,1,.18-.07l43.87,15.21a.11.11,0,0,1,.08.08.14.14,0,0,1,0,.11c-1,2.58-2,5.17-3,7.76"/><path class="cls-99" d="M678.63,646.94c0-.07-.13-.07-.19,0-.74.4-1.55.74-2.33,1.07a14.9,14.9,0,0,0-3.69,2,16.21,16.21,0,0,0-1.4,1.34,14,14,0,0,1-1.42,1.36c-.34.27-.71.51-1.06.75a6.38,6.38,0,0,0-2.2,2,.54.54,0,0,0-.09.41.78.78,0,0,0,.23.32l0,0a2,2,0,0,1,.5,1.22,9.17,9.17,0,0,1,.08,1.28.17.17,0,0,0,0,.1.08.08,0,0,0,0,0,.13.13,0,0,0,.09.1.11.11,0,0,0,.08,0,16.86,16.86,0,0,0,7.29-3.26c.61-.45,1.22-.93,1.81-1.42l1.06-.82c.22-.18.8-.52.87-.81.33-1.45.34-1.58.28-5.71"/><path class="cls-100" d="M678.66,647a.14.14,0,0,0-.07-.1c-6-3.62-15.41-8.71-24-13-2.14-1.07-4.27-2.22-6.32-3.35a98.64,98.64,0,0,0-13.09-6.3.14.14,0,0,0-.14,0,88.82,88.82,0,0,0-10.74,10.77l-.85,1a.13.13,0,0,0,0,.12.15.15,0,0,0,.09.1c7.89,3.82,16.17,8.23,24.17,12.5,6.46,3.44,13.14,7,19.51,10.19h0a.15.15,0,0,0,.19-.05c2.25-3.58,5.19-6.25,8.3-9.07.95-.87,1.93-1.77,2.9-2.69a.13.13,0,0,0,0-.12"/><path class="cls-101" d="M680.27,557.18a35,35,0,0,0-2.34-2.8c-.5-.56-1-1.13-1.5-1.71a69.66,69.66,0,0,0-11.1,4.79c-1.42.71-2.76,1.38-4,1.94-4.53,2.09-9.08,4.34-13.09,6.33l-.63.31c-8.34,4.12-17,8.39-25.82,11.8l-.42.16a24.64,24.64,0,0,0-5.26,2.5c-.14.1-.27.19-.31.31s.09.55.27.8c3.22,4.29,11.41,16.68,11.27,23,.11.4.19.8.26,1.18.44,1.79.11,4.25-1.62,5.54,14.12-2.79,38.41-13,48.32-18,1.77-.87,3.66-1.85,5.49-3a44.17,44.17,0,0,0,6.48-4.83,32,32,0,0,0,.3-15.53,39,39,0,0,0-6.32-12.88"/><path class="cls-102" d="M610.86,600.63a38.28,38.28,0,0,0,6.47,5.9c.28.19.56.4.85.62a11.41,11.41,0,0,0,3,1.76,2.12,2.12,0,0,0,2.49-.73,3.11,3.11,0,0,0,.16-3.49c-2.88-4.3-6.71-8-10.41-11.51-2.16-2.07-4.4-4.22-6.42-6.46L604.49,584c-6.29-7-12.79-14.2-19.19-21.29a6.28,6.28,0,0,1-.7.89c.6.69,1.2,1.3,1.84,1.95.31.32.63.64.94,1,2.6,2.73,5,5.72,7.36,8.6a122.05,122.05,0,0,0,8.48,9.77c.59.59,1.2,1.25,1.92,2.06.9,1,1.88,2,2.84,2.93a46.93,46.93,0,0,1,3.88,4.19c1.64,2.1,3.56,4.09,5.24,5.85l.39.39c.76.79,1.54,1.6,2.29,2.42.57.63,1.33,1.55,1.23,2.29a.66.66,0,0,1-.39.59l-.09,0c-.57.15-1.6-.38-3.21-1.65l-.09-.07c-1-.75-1.91-1.56-2.92-2.47-2-1.81-3.84-3.75-5.38-5.41l-.15-.16c-1-1.1-2-2.23-3-3.32l-1.07-1.19c-1.21-1.32-2.46-2.69-3.63-4.1l-1.73-2.11c-2.25-2.74-4.58-5.58-7-8.29l-9.83-11-1.4.95c7.1,8.76,14.92,17.4,22.49,25.75,2.54,2.8,4.93,5.45,7.29,8.08"/><path class="cls-101" d="M627.19,605.94a14.06,14.06,0,0,0-2.94-5.09,109.32,109.32,0,0,0-11.1-12.09c-2.68-2.61-5.42-5.29-8.71-9.06a.18.18,0,0,1-.09-.06c-.19-.24-.37-.47-.56-.69-1-1.16-2-2.41-3.13-3.8h0a44.39,44.39,0,0,0-4.31-4.58c-1-.91-2.09-1.77-3.14-2.61-2.5-2-5.08-4.08-6.78-6.84l-.39.54-.48.67c6.43,7.11,13,14.35,19.26,21.35l2.47,2.75c2,2.23,4.24,4.37,6.4,6.44,3.72,3.56,7.57,7.24,10.47,11.57a3.53,3.53,0,0,1-.18,4,2.57,2.57,0,0,1-1.4,1,2.66,2.66,0,0,1-1.57-.09,11.67,11.67,0,0,1-3.08-1.83l-.84-.61a38.65,38.65,0,0,1-6.54-6c-2.36-2.63-4.75-5.27-7.29-8.07-7.57-8.37-15.4-17-22.51-25.79l-.17.15a6.87,6.87,0,0,0-.73.73,379.52,379.52,0,0,0,29.31,34,55.75,55.75,0,0,0,9.51,8.12c1.64,1,4.73,2.55,7,1,1.66-1.14,2-3.48,1.54-5.17"/><path class="cls-103" d="M684.08,559.22a53.13,53.13,0,0,0-4.63-6.2c-.84-1-1.69-2-2.47-3.06-1.88-2.47-3.6-4.45-5.59-6.74l-.79-.92-.55-.64c-3.88-4.55-6.1-7-6.61-7.43a11.94,11.94,0,0,1-4.21,2c-.54.14-1.21.32-2.16.62a89.79,89.79,0,0,0-8.62,3.41c-1.79.79-3.65,1.6-5.51,2.32a51.9,51.9,0,0,1-5.12,1.58,44.91,44.91,0,0,0-6.14,2c-1.46.65-2.93,1.37-4.35,2.06-2,1-4.11,2-6.22,2.85s-4.32,1.46-6.46,2.08c-.87.24-1.73.49-2.59.75A110.49,110.49,0,0,0,592.12,562c5.63,5,29.44,26.62,34.64,40.79-1.17-6.57-8.12-17-11-20.9a1.32,1.32,0,0,1-.34-1.23,1.27,1.27,0,0,1,.47-.48,25.61,25.61,0,0,1,5.36-2.56l.41-.16c8.83-3.39,17.45-7.65,25.79-11.78l.63-.31c4-2,8.57-4.24,13.1-6.34,1.21-.55,2.55-1.22,4-1.93,3.71-1.85,7.92-3.94,11.31-4.86h0a.22.22,0,0,1,.22.08c.5.61,1.05,1.21,1.57,1.8a34.7,34.7,0,0,1,2.38,2.84A39.63,39.63,0,0,1,687,570a32.29,32.29,0,0,1-.14,15.1l.51-.48h0c3.93-12.34,1.44-17.43-3.3-25.35"/><path class="cls-29" d="M676.23,546.92l-6.58-7.65-6.47-7.53c-4.69,2.75-10,4.16-15.23,5.51-2.88.76-5.85,1.54-8.68,2.54a107.54,107.54,0,0,0-10.08,4.37c-5,2.35-10.06,4.77-15.51,5.91-.54.12-1.08.22-1.62.32-.94.17-1.9.35-2.83.6h0a34.61,34.61,0,0,0-4.05,1.39,139.52,139.52,0,0,0-18.43,8.43c1.65,2.74,4.23,4.81,6.73,6.81,1.06.84,2.14,1.71,3.15,2.63a42.39,42.39,0,0,1,4.37,4.63l.87,1c.74.88,1.49,1.79,2.26,2.73,3.57,4.16,6.49,7,9.33,9.79a111.08,111.08,0,0,1,11.15,12.13,29,29,0,0,1,1.87,2.61c-5-14.22-29.68-36.52-34.87-41.09a.27.27,0,0,1-.08-.19.25.25,0,0,1,.12-.17,110.46,110.46,0,0,1,20.3-8.27l2.59-.75c2.13-.61,4.33-1.24,6.42-2.06s4.18-1.84,6.19-2.83c1.42-.7,2.89-1.42,4.36-2.07a44,44,0,0,1,6.2-2,51.29,51.29,0,0,0,5.09-1.57c1.85-.71,3.7-1.52,5.49-2.31a89.56,89.56,0,0,1,8.66-3.42c1-.3,1.63-.49,2.17-.63a11.7,11.7,0,0,0,4.2-2c.25-.16.4-.26,7.07,7.58l.54.64.8.91c2,2.3,3.72,4.29,5.6,6.77.78,1,1.63,2,2.46,3a51.56,51.56,0,0,1,4.67,6.25c4.57,7.63,7.21,13,3.58,24.93l.45-.46c1.7-3.06,3.9-9.63-.3-19.45-2.76-6.47-7.43-11.87-11.95-17.1"/><path class="cls-104" d="M688.58,563.85c-2.79-6.53-7.48-12-12-17.21q-3.3-3.82-6.58-7.66l-6.59-7.66a.21.21,0,0,0-.28,0c-4.67,2.78-10.06,4.19-15.27,5.56-2.88.75-5.87,1.53-8.72,2.55A107.21,107.21,0,0,0,629,543.77c-4.92,2.33-10,4.75-15.4,5.88L612,550c-.94.18-1.91.36-2.86.6h0A35.34,35.34,0,0,0,605,552a138.42,138.42,0,0,0-18.68,8.57.15.15,0,0,0-.06.05h0c-.22.28-.4.55-.59.81s-.37.53-.58.81h0l-.11.17a5.83,5.83,0,0,1-.83,1,.22.22,0,0,0,0,.29c.66.76,1.3,1.42,2,2.12l.94,1c2.59,2.72,5,5.7,7.33,8.58a122.45,122.45,0,0,0,8.51,9.79c.59.59,1.19,1.25,1.91,2.05.91,1,1.9,2,2.85,2.95a46,46,0,0,1,3.85,4.15c1.65,2.11,3.58,4.11,5.27,5.88l.39.4c.75.78,1.53,1.59,2.28,2.4s1.17,1.53,1.12,2c0,.2-.1.23-.13.24s-.81.07-2.86-1.56l-.1-.07c-.94-.74-1.89-1.54-2.89-2.45-2-1.8-3.81-3.74-5.35-5.39l-.15-.16c-1-1.09-2.05-2.22-3-3.31L605,591.07c-1.21-1.32-2.45-2.69-3.61-4.09l-1.73-2.11c-2.26-2.74-4.6-5.58-7-8.3l-10-11.15a.23.23,0,0,0-.29,0l-1.75,1.18h0l-.33.29a6.94,6.94,0,0,0-.89.91v0l0,0,0,0V568s0,0,0,0l0,0v0a378.38,378.38,0,0,0,29.46,34.23,56.31,56.31,0,0,0,9.58,8.18,9.4,9.4,0,0,0,5.46,1.7H624c2-.31,4.27-.81,6.72-1.44,14.36-3.76,34.92-12.51,43.83-17,1.78-.88,3.68-1.86,5.53-3a44.07,44.07,0,0,0,8.77-7l0,0v0c1.75-3.12,4-9.85-.26-19.86m-106.1,2,9.83,11c2.42,2.72,4.75,5.55,7,8.29l1.73,2.1c1.17,1.42,2.42,2.79,3.63,4.11l1.08,1.19c1,1.09,2,2.22,3,3.32l.15.16c1.55,1.66,3.39,3.6,5.38,5.41,1,.92,2,1.72,2.92,2.47l.09.07c1.61,1.27,2.64,1.8,3.21,1.65,0,0,.06,0,.08,0a.63.63,0,0,0,.4-.58c.1-.75-.65-1.67-1.23-2.29-.75-.82-1.53-1.64-2.29-2.42l-.38-.4c-1.69-1.76-3.6-3.75-5.25-5.85a44.24,44.24,0,0,0-3.89-4.19c-.94-.94-1.93-1.91-2.83-2.93-.72-.81-1.33-1.47-1.92-2.06a123.82,123.82,0,0,1-8.49-9.76c-2.33-2.89-4.74-5.87-7.34-8.61-.33-.33-.64-.66-.95-1-.63-.65-1.24-1.27-1.84-1.95a5.08,5.08,0,0,0,.69-.89c6.41,7.09,12.91,14.31,19.2,21.29l2.47,2.74c2,2.24,4.26,4.39,6.42,6.46,3.71,3.54,7.53,7.21,10.41,11.5a3.11,3.11,0,0,1-.16,3.49,2.11,2.11,0,0,1-2.49.74,11.36,11.36,0,0,1-3-1.76c-.29-.22-.57-.43-.85-.62a37.91,37.91,0,0,1-6.47-5.9c-2.36-2.64-4.75-5.27-7.29-8.07-7.57-8.36-15.39-17-22.49-25.76Zm36.19,44.26a55.55,55.55,0,0,1-9.52-8.13,379.52,379.52,0,0,1-29.31-34,6,6,0,0,1,.73-.73l.17-.15c7.11,8.78,14.94,17.42,22.51,25.79,2.53,2.8,4.93,5.44,7.29,8.07a38.65,38.65,0,0,0,6.54,6l.84.61a11.67,11.67,0,0,0,3.08,1.83,2.66,2.66,0,0,0,1.57.09,2.57,2.57,0,0,0,1.4-1,3.53,3.53,0,0,0,.18-4c-2.91-4.33-6.75-8-10.47-11.57-2.16-2.07-4.39-4.21-6.4-6.44l-2.47-2.74c-6.31-7-12.83-14.25-19.26-21.36.17-.23.33-.45.48-.67l.39-.54c1.69,2.76,4.28,4.84,6.78,6.84,1,.84,2.13,1.7,3.13,2.61a43.34,43.34,0,0,1,4.32,4.58h0c1.1,1.39,2.14,2.64,3.13,3.79l.56.7a.24.24,0,0,0,.09.06c3.29,3.77,6,6.45,8.71,9.06a112.31,112.31,0,0,1,11.11,12.09,14.09,14.09,0,0,1,2.93,5.09c.43,1.68.12,4-1.55,5.17-2.25,1.54-5.34,0-7-1m61.14-19.69c-1.83,1.13-3.72,2.1-5.49,3-9.9,4.94-34.2,15.2-48.32,18,1.74-1.29,2.06-3.75,1.61-5.54-.06-.39-.15-.78-.25-1.18.14-6.37-8.05-18.76-11.26-23.06-.19-.24-.39-.55-.29-.79a.89.89,0,0,1,.31-.3,24.5,24.5,0,0,1,5.27-2.51l.42-.16c8.84-3.4,17.47-7.67,25.82-11.8l.63-.31c4-2,8.56-4.24,13.09-6.33,1.21-.56,2.56-1.23,4-1.94a69.19,69.19,0,0,1,11.09-4.79c.49.58,1,1.15,1.5,1.71a31.54,31.54,0,0,1,2.34,2.8,39,39,0,0,1,6.32,12.87,32,32,0,0,1-.3,15.54,43.64,43.64,0,0,1-6.48,4.83m7.57-5.85-.5.48A32.42,32.42,0,0,0,687,570a39.28,39.28,0,0,0-6.39-13,32.7,32.7,0,0,0-2.37-2.84c-.53-.59-1.07-1.19-1.57-1.81a.22.22,0,0,0-.22-.07h0c-3.4.92-7.61,3-11.32,4.86-1.42.71-2.76,1.38-4,1.93-4.53,2.1-9.08,4.35-13.1,6.34l-.63.31c-8.34,4.13-17,8.39-25.78,11.78l-.43.17a25.23,25.23,0,0,0-5.35,2.55,1.18,1.18,0,0,0-.46.48,1.3,1.3,0,0,0,.33,1.24c2.89,3.86,9.85,14.32,11,20.89-5.2-14.17-29-35.8-34.64-40.79a110.49,110.49,0,0,1,19.94-8.08l2.59-.76c2.14-.61,4.35-1.24,6.46-2.07s4.2-1.85,6.22-2.84c1.42-.7,2.89-1.42,4.34-2.06a43.76,43.76,0,0,1,6.15-2,49.43,49.43,0,0,0,5.12-1.59c1.86-.71,3.72-1.52,5.51-2.31a85.34,85.34,0,0,1,8.62-3.41c.95-.3,1.62-.48,2.15-.62a11.7,11.7,0,0,0,4.22-2c.52.39,2.73,2.89,6.61,7.44l.55.64.79.92c2,2.29,3.71,4.27,5.59,6.73.78,1,1.64,2.07,2.47,3.07a53.13,53.13,0,0,1,4.63,6.2c4.74,7.92,7.23,13,3.3,25.35h0m1.1-1.09-.45.45c3.63-11.94,1-17.3-3.58-24.94a52.08,52.08,0,0,0-4.67-6.25c-.82-1-1.69-2-2.46-3-1.89-2.47-3.61-4.46-5.61-6.76l-.78-.91-.55-.64c-6.67-7.84-6.82-7.74-7.07-7.58a11.46,11.46,0,0,1-4.2,2c-.54.15-1.21.34-2.17.64a85.22,85.22,0,0,0-8.66,3.43c-1.79.78-3.64,1.59-5.5,2.3a51.37,51.37,0,0,1-5.08,1.58,44,44,0,0,0-6.2,2c-1.47.65-2.93,1.37-4.36,2.07-2,1-4.1,2-6.19,2.83s-4.29,1.45-6.42,2.06c-.87.25-1.73.49-2.59.76a109.75,109.75,0,0,0-20.3,8.26.22.22,0,0,0-.11.16.19.19,0,0,0,.07.19c5.19,4.58,29.89,26.88,34.87,41.11a24.7,24.7,0,0,0-1.88-2.62,110.18,110.18,0,0,0-11.14-12.13c-2.84-2.77-5.77-5.63-9.33-9.78-.77-.95-1.52-1.86-2.26-2.74l-.87-1a43.32,43.32,0,0,0-4.37-4.63c-1-.92-2.09-1.79-3.15-2.63-2.5-2-5.08-4.07-6.73-6.81a140,140,0,0,1,18.42-8.43,38,38,0,0,1,4.05-1.39h0c.93-.24,1.9-.42,2.83-.59l1.63-.32c5.44-1.14,10.55-3.56,15.5-5.91a107.54,107.54,0,0,1,10.08-4.37c2.83-1,5.8-1.78,8.68-2.53,5.18-1.36,10.54-2.77,15.23-5.52,2.16,2.5,4.32,5,6.47,7.53l6.58,7.65c4.52,5.22,9.18,10.63,12,17.1,4.2,9.82,2,16.4.29,19.46"/><path class="cls-29" d="M640.07,548.7a1.86,1.86,0,0,0,.37.53l.15.18c1.3,1.52,2.54,3.11,3.71,4.74l.38.54c.77,1.07,1.55,2.17,2.42,3.16.11.12.2.23.3.36a5.76,5.76,0,0,0,.67.72c.07.06.1.06.32-.06l.21-.1.84-.37,2.5-1.1c2.61-1.16,4.94-2.2,7.1-3.2s4.87-2.25,7.66-3.64c1.23-.61,2.17-1.09,3-1.56-.06-1-4.77-8.36-6.88-11.52-2.9,1.36-21.23,10.22-22.78,11.32"/><path class="cls-104" d="M663.1,537a.22.22,0,0,0-.27-.08c-.23.11-23,11-23.22,11.67a.23.23,0,0,0,0,.18,2.56,2.56,0,0,0,.49.76l.15.17c1.29,1.51,2.53,3.09,3.69,4.71l.38.54a39.31,39.31,0,0,0,2.45,3.2l.29.34a4.86,4.86,0,0,0,.72.78.59.59,0,0,0,.52.13,2.09,2.09,0,0,0,.3-.14l.16-.08.84-.37,2.51-1.1c2.61-1.16,4.94-2.21,7.1-3.2s4.89-2.26,7.67-3.65c1.27-.63,2.22-1.13,3.11-1.61a.35.35,0,0,0,.15-.2c.27-1.13-7-11.94-7-12m6.62,11.91c-.85.46-1.79,1-3,1.56-2.79,1.39-5.56,2.68-7.66,3.64s-4.49,2-7.1,3.2l-2.5,1.1-.84.37-.2.1c-.23.13-.26.13-.33.06a4.72,4.72,0,0,1-.67-.73c-.1-.11-.19-.23-.3-.34-.87-1-1.65-2.1-2.41-3.17l-.39-.54c-1.17-1.63-2.41-3.22-3.71-4.74l-.15-.18a1.73,1.73,0,0,1-.37-.53c1.55-1.1,19.88-10,22.78-11.32,2.11,3.16,6.82,10.53,6.87,11.52"/><path class="cls-104" d="M645.45,551.67a.22.22,0,0,1-.26-.13.22.22,0,0,1,.11-.28c4-1.79,8.07-3.79,12-5.73,2.13-1,4.33-2.14,6.5-3.18a.19.19,0,0,1,.28.1.21.21,0,0,1-.1.29c-2.16,1-4.36,2.13-6.49,3.19-3.91,1.93-8,3.94-12,5.73h0"/><path class="cls-104" d="M647.41,554.38a.22.22,0,0,1-.26-.12.21.21,0,0,1,.11-.28c4-1.79,8.07-3.79,12-5.73,2.13-1,4.33-2.15,6.5-3.19a.21.21,0,0,1,.28.1.21.21,0,0,1-.1.29c-2.16,1-4.36,2.13-6.49,3.19-3.91,1.94-7.95,3.94-12,5.73h0"/><path class="cls-104" d="M649,557a.21.21,0,0,1-.25-.12.22.22,0,0,1,.11-.29c4-1.78,8.07-3.79,12-5.72,2.12-1.06,4.32-2.15,6.49-3.19a.21.21,0,0,1,.29.1.22.22,0,0,1-.1.29c-2.17,1-4.37,2.13-6.49,3.19-3.91,1.93-7.95,3.94-12,5.73h0"/><path class="cls-104" d="M643.83,549.07a.21.21,0,0,1-.25-.12.22.22,0,0,1,.11-.29c4-1.78,8.07-3.79,12-5.72,2.13-1.06,4.33-2.15,6.5-3.19a.21.21,0,0,1,.29.1.22.22,0,0,1-.1.29c-2.17,1-4.37,2.13-6.5,3.18-3.91,1.95-8,3.95-12,5.74h0"/><path class="cls-105" d="M633.49,584c-.76-1.12-1.6-2.21-2.42-3.27-.51-.66-1-1.35-1.55-2a.59.59,0,0,0-.25-.25.69.69,0,0,0-.41.1c-.7.33-1.4.62-2.08.9a18,18,0,0,0-5.41,3A59.86,59.86,0,0,1,628.45,596c.66-.38,1.35-.69,2-1,.29-.12.57-.26.85-.39l1.06-.51a44.38,44.38,0,0,1,4.46-2l.44-.17-.19-.48a39,39,0,0,0-3.61-7.4"/><path class="cls-104" d="M637.5,591.27a39.23,39.23,0,0,0-3.65-7.48c-.76-1.13-1.61-2.23-2.44-3.3-.51-.66-1-1.33-1.54-2a1,1,0,0,0-.47-.4.92.92,0,0,0-.72.12c-.69.32-1.39.61-2.06.89a17.39,17.39,0,0,0-5.68,3.27.21.21,0,0,0,0,.28,59,59,0,0,1,7.22,13.72.2.2,0,0,0,.14.13.17.17,0,0,0,.12,0l.06,0a19.07,19.07,0,0,1,2.21-1.12l.86-.4,1.06-.51a42.2,42.2,0,0,1,4.41-2c.22-.08.45-.16.67-.26a.22.22,0,0,0,.11-.28Zm-.58,1Zm-.07-.2a44.38,44.38,0,0,0-4.46,2l-1.06.51-.85.39a22.38,22.38,0,0,0-2,1,60.63,60.63,0,0,0-7.08-13.42,17.51,17.51,0,0,1,5.4-3.06c.68-.28,1.38-.58,2.08-.9a.62.62,0,0,1,.41-.1.59.59,0,0,1,.25.25c.51.69,1,1.37,1.55,2,.82,1,1.66,2.15,2.42,3.27a38.07,38.07,0,0,1,3.6,7.4l.2.48-.44.17"/><path class="cls-104" d="M635.42,577a.22.22,0,0,1-.14-.41,364.63,364.63,0,0,0,40.34-18.78.21.21,0,0,1,.29.09.21.21,0,0,1-.09.29,365.36,365.36,0,0,1-40.38,18.8h0"/><path class="cls-104" d="M638.06,582.67a.22.22,0,0,1-.14-.41,364.63,364.63,0,0,0,40.34-18.78.21.21,0,0,1,.29.09.23.23,0,0,1-.08.3,368,368,0,0,1-40.38,18.79h0"/><path class="cls-104" d="M641,588.32a.22.22,0,0,1-.13-.42,368.11,368.11,0,0,0,40.34-18.77.21.21,0,0,1,.2.38A367.19,367.19,0,0,1,641,588.31h0"/><path class="cls-104" d="M644.11,594.37A.22.22,0,0,1,644,594a333.62,333.62,0,0,0,38.59-18.32.2.2,0,0,1,.29.09.21.21,0,0,1-.08.29,332,332,0,0,1-38.64,18.34h0"/><path class="cls-104" d="M645.68,600.76a.24.24,0,0,1-.26-.13.23.23,0,0,1,.13-.29,310.44,310.44,0,0,0,37.23-17.28.22.22,0,0,1,.29.09.21.21,0,0,1-.09.29,312.72,312.72,0,0,1-37.27,17.31h0"/><path class="cls-106" d="M516.48,754.06a.13.13,0,0,0-.07.08,23.2,23.2,0,0,0-.3,4.61A31.52,31.52,0,0,1,516,762c-.37,3.91-2.21,7.5-3.92,10.57a30.58,30.58,0,0,1-3.57,5.41c-.31.37-.64.73-1,1.07a15.94,15.94,0,0,0-2,2.41l-.07.12a2.59,2.59,0,0,1-.59.72c-.08.06-.17.1-.27.16l-.3.18a2.36,2.36,0,0,0-.49.51l-1.06,1.34a.12.12,0,0,0,0,.17h0s0,.09.08.1c8.87,2.95,16.36,5.3,23.27,7.45.52.16,1.09.36,1.69.56a36.72,36.72,0,0,0,5,1.41c1.75.3,3.1-.92,4.07-2a31.18,31.18,0,0,0,3.42-4.64h0l.42-.73a1.71,1.71,0,0,0,.13-.23c.13-.23.26-.46.38-.69l.12-.23.45-.89h0c.14-.3.28-.6.41-.9l.11-.24.3-.72a2.6,2.6,0,0,1,.1-.25c.1-.26.19-.52.29-.79h0a32.06,32.06,0,0,0,1.46-5.58c.24-1.44.34-3.26-1-4.43a37.9,37.9,0,0,0-4.21-3c-.53-.34-1-.66-1.49-1-6.18-4.13-13-8.52-21.22-13.81a.11.11,0,0,0-.11,0"/><g class="cls-107"><g class="cls-108"><path class="cls-109" d="M516.59,754.07c8.24,5.3,15,9.67,21.23,13.81l1.48,1a38.26,38.26,0,0,1,4.21,3c1.34,1.18,1.24,3,1,4.45a31.31,31.31,0,0,1-1.46,5.57c-.1.26-.19.53-.29.79,0,.08-.07.16-.11.25s-.19.48-.3.72l-.1.24c-.13.3-.27.6-.41.91l-.45.89-.12.24c-.12.23-.25.45-.38.68l-.12.24-.43.72a31.25,31.25,0,0,1-3.43,4.64,7.81,7.81,0,0,1-1.65,1.47,19.51,19.51,0,0,0-1-12.8c-1.49-3.42-3.21-7-6.06-9.47-3.34-2.91-8.22-6.11-12.81-6.1.73-1.79.43-1.3.62-3.28.1-1.08.1-2.17.1-3.21a21.79,21.79,0,0,1,.3-4.61.1.1,0,0,1,.06-.08.14.14,0,0,1,.11,0"/></g></g><g class="cls-107"><g class="cls-110"><path class="cls-109" d="M517.19,754.46c8,5.12,14.59,9.39,20.62,13.42l1.49,1a36.56,36.56,0,0,1,4.21,2.95c1.34,1.18,1.24,3,1,4.44a31.19,31.19,0,0,1-1.46,5.58h0c-.09.26-.2.53-.29.78,0,.09-.07.18-.11.26-.09.24-.19.48-.29.72a2.56,2.56,0,0,1-.11.24c-.13.3-.27.6-.41.9h0c-.14.3-.29.6-.44.89l-.12.24c-.13.22-.25.45-.37.68l-.14.24-.42.72h0a31.18,31.18,0,0,1-3.42,4.64,8,8,0,0,1-1.64,1.47,3.38,3.38,0,0,1-2.43.54,22.88,22.88,0,0,1-2.92-.75,17.7,17.7,0,0,0-1.37-10.14,24.21,24.21,0,0,0-3.69-5.26c-3.12-3.55-6.8-6.77-11.15-8.53-.5-.2-1-.38-1.51-.54s-1.06-.23-1.15-.9a14,14,0,0,1,2.47-10.28,12.49,12.49,0,0,1,2.74-2.69,9.19,9.19,0,0,1,.93-.6"/></g></g><path class="cls-111" d="M516,753.74c-1.07-.39-2.39-.06-3.89,1a22,22,0,0,0-6.05,6.77c-4,6.57-6,12.7-5.88,18.21a8.43,8.43,0,0,0,.57,3.25,2.78,2.78,0,0,0,1.93,1.82c1.7.3,3.06-1.36,4.06-2.48a39.83,39.83,0,0,0,5.58-8.1,78.07,78.07,0,0,0,3.41-7.16,31.9,31.9,0,0,0,2.1-6.44c.7-3.84.08-6.15-1.83-6.86"/><path class="cls-106" d="M514.33,770.52c-.73,1.51-1.42,2.86-1.89,3.73a41.05,41.05,0,0,1-5.59,8.13l-.18.2c-1,1.1-2.33,2.6-4,2.31a2.85,2.85,0,0,1-2-1.88,8.35,8.35,0,0,1-.58-3.3C500,774.18,502,768,506,761.44a22.24,22.24,0,0,1,6.08-6.8c1.54-1.07,2.89-1.42,4-1,2,.73,2.61,3.09,1.89,7a30.79,30.79,0,0,1-2,6.31l-.06.15c-.47,1.15-1,2.34-1.53,3.44m-10.66-4.36a30.39,30.39,0,0,0-3.35,13.55,8,8,0,0,0,.56,3.21,2.62,2.62,0,0,0,1.84,1.74c1.54.28,2.84-1.17,3.78-2.23l.18-.2a40.64,40.64,0,0,0,5.56-8.09c.8-1.5,2.3-4.41,3.41-7.15l.06-.15a30.71,30.71,0,0,0,2-6.26c.7-3.78.1-6.05-1.76-6.73-1-.38-2.3-.05-3.77,1a21.67,21.67,0,0,0-6,6.73,51.45,51.45,0,0,0-2.51,4.6"/><path class="cls-112" d="M512.43,755.76a13,13,0,0,0-2.59,2.08,28.09,28.09,0,0,0-4.58,6.82,42.19,42.19,0,0,0-3.33,8.31c-.74,2.61-1.28,5-.43,7.73a3.34,3.34,0,0,0,.91,1.6,1.37,1.37,0,0,0,1.62.11,8.46,8.46,0,0,0,2.42-2,33.86,33.86,0,0,0,3.85-5.85c.89-1.58,1.72-3.2,2.51-4.84s1.6-3.49,2.3-5.27c.77-1.95,1.83-4.62,1.59-6.85a2.35,2.35,0,0,0-1.33-1.89,3.15,3.15,0,0,0-2.94.09"/><path class="cls-113" d="M512.91,769.73c-.78,1.64-1.63,3.27-2.51,4.85a33.44,33.44,0,0,1-3.87,5.86,8.59,8.59,0,0,1-2.45,2.08,1.49,1.49,0,0,1-1.74-.13,3.47,3.47,0,0,1-.95-1.65c-.86-2.79-.31-5.18.43-7.8a42.4,42.4,0,0,1,3.34-8.33,28.59,28.59,0,0,1,4.6-6.86,13.42,13.42,0,0,1,2.61-2.09,3.32,3.32,0,0,1,3-.09,2.44,2.44,0,0,1,1.39,2c.24,2.27-.82,5-1.6,6.91-.7,1.77-1.47,3.54-2.3,5.28m-8.35-3.44A43.15,43.15,0,0,0,502,773c-.72,2.59-1.26,5-.42,7.67a3.11,3.11,0,0,0,.88,1.55,1.28,1.28,0,0,0,1.49.1,8.54,8.54,0,0,0,2.38-2,33.73,33.73,0,0,0,3.84-5.84A84.7,84.7,0,0,0,515,764.37c.76-1.94,1.81-4.59,1.58-6.8a2.26,2.26,0,0,0-1.27-1.8,3.07,3.07,0,0,0-2.84.09,13.28,13.28,0,0,0-2.56,2,28.39,28.39,0,0,0-4.56,6.8c-.28.52-.54,1-.8,1.58"/><g class="cls-107"><g class="cls-114"><path class="cls-109" d="M515.42,755.57a2.44,2.44,0,0,1,1.39,2c.24,2.27-.82,5-1.6,6.91-.7,1.77-1.47,3.54-2.3,5.28s-1.63,3.27-2.51,4.85l-.55,1a19.84,19.84,0,0,0,1.48-5.45,15.5,15.5,0,0,0-.56-7.13,7.66,7.66,0,0,0-1.38-2.48,6.63,6.63,0,0,0-1.1-1,17,17,0,0,1,1.47-1.71,13.05,13.05,0,0,1,2.61-2.08,3.29,3.29,0,0,1,3-.1"/></g></g><path class="cls-115" d="M590.74,657.41c5.14-5.95,8.11-13.39,9.63-21,1.73-8.67,1.64-17.86-1.6-26.21a44.47,44.47,0,0,0-21.24-22.79A4.43,4.43,0,0,1,577,590c2.16,1.2,4.7,6,6.53,7.65a3,3,0,0,1,1.31,2.23c-.07.83-.84,1.54-.7,2.36s.93,1.19,1.58,1.64a6.23,6.23,0,0,1,1.77,8.24c-1.43,2.24-4.38,3.61-4.91,6.19a7.51,7.51,0,0,0,0,2.17c.27,3.22.55,6.44.82,9.66a2.83,2.83,0,0,0,.24,1.07c.38.69,1.25,1,1.89,1.45a1.35,1.35,0,0,1,0,2.2h0a3.62,3.62,0,0,0-1.82,2.63c0,1.56,1.86,2.82,1.58,4.34a5.39,5.39,0,0,1-.53,1.24c-1,2.06-.32,4.53-1,6.68a1.36,1.36,0,0,1-.58.82,1.65,1.65,0,0,1-.94.1h0a2.24,2.24,0,0,0-2.4,2.92,7.61,7.61,0,0,1,.3,3.84,7.46,7.46,0,0,0-2.74-.11,2.31,2.31,0,0,0-1.9,1.66c-.11.64.18,1.32,0,1.94-.36,1.06-1.81,1.23-2.86,1.72-.84.41-3.84,2.15-4.31,3.79a3.05,3.05,0,0,0,.68,1.92c1,1,7.11-1.18,8.29-1.6a32.15,32.15,0,0,0,13.54-9.36"/><path class="cls-116" d="M588.63,656.4c4.92-5.77,7.77-13,9.24-20.32,1.68-8.39,1.61-17.28-1.46-25.35A38.45,38.45,0,0,0,577,590a4.47,4.47,0,0,1-.49,2.56c2.06,1.15,3.63,4.49,5.37,6.06a2.88,2.88,0,0,1,1.25,2.16c-.07.8-.81,1.49-.68,2.28s.89,1.15,1.51,1.59a6,6,0,0,1,1.67,8c-1.37,2.17-4.19,3.5-4.7,6a7.84,7.84,0,0,0,0,2.11c.26,3.1.51,6.22.77,9.33a2.57,2.57,0,0,0,.22,1c.36.67,1.2.95,1.8,1.4a1.31,1.31,0,0,1,0,2.13h0a3.53,3.53,0,0,0-1.75,2.55c0,1.5,1.77,2.71,1.5,4.19a4.87,4.87,0,0,1-.51,1.2c-.93,2-.31,4.38-1,6.46a1.33,1.33,0,0,1-.54.8,1.65,1.65,0,0,1-.91.09h0a2.17,2.17,0,0,0-2.31,2.82,7.48,7.48,0,0,1,.28,3.72,6.76,6.76,0,0,0-2.61-.1A2.22,2.22,0,0,0,574,658c-.11.62.16,1.28,0,1.86-.34,1-1.73,1.2-2.73,1.68-.76.37-2.8,1.49-3.24,3a3.74,3.74,0,0,0,.47,2.35c1,.92,6.09-1,7.21-1.42a30.92,30.92,0,0,0,13-9.07"/><path class="cls-117" d="M586.7,655.22c4.52-5.49,7.17-12.33,8.56-19.3,1.59-7.95,1.58-16.36-1.16-24a35.17,35.17,0,0,0-17.52-19.48,13.42,13.42,0,0,1-.81,4.29,28.75,28.75,0,0,1,5.2,3.84,2.72,2.72,0,0,1,1.13,2c-.07.76-.75,1.41-.63,2.16s.8,1.08,1.36,1.49a5.85,5.85,0,0,1,1.47,7.53c-1.27,2.06-3.85,3.34-4.33,5.71a7.78,7.78,0,0,0,0,2q.32,4.41.64,8.83a2.43,2.43,0,0,0,.19,1c.32.63,1.09.89,1.63,1.31a1.28,1.28,0,0,1,0,2h0a3.37,3.37,0,0,0-1.6,2.42c0,1.42,1.59,2.56,1.34,4a5.6,5.6,0,0,1-.47,1.14c-.87,1.89-.32,4.15-1,6.13a1.23,1.23,0,0,1-.51.75,1.51,1.51,0,0,1-.82.1h0a2.07,2.07,0,0,0-2.12,2.69,7.21,7.21,0,0,1,.23,3.51,6.22,6.22,0,0,0-2.39-.08,2.15,2.15,0,0,0-1.66,1.54c-.1.59.14,1.21-.05,1.77-.32,1-1.58,1.15-2.5,1.61s-3.64,4.06-2.56,5.11c.89.86,5.55-1,6.58-1.39a28.74,28.74,0,0,0,11.87-8.68"/><path class="cls-118" d="M583.93,602.12c-.32-.77.5-1.6.36-2.41s-1-1.14-1.79-1.21a4.71,4.71,0,0,1-2.26-.43c-1.13-.75-1.07-2.63-2.24-3.3a2,2,0,0,0-1.67,0,12.1,12.1,0,0,1-.58,2.12,28,28,0,0,1,5.21,3.84,2.74,2.74,0,0,1,1.12,2c-.07.75-.75,1.41-.63,2.16s.8,1.08,1.36,1.49a5.85,5.85,0,0,1,1.47,7.53c-1.26,2.05-3.84,3.34-4.33,5.7a7.37,7.37,0,0,0,0,2c.21,2.95.41,5.89.63,8.83a2.49,2.49,0,0,0,.2,1c.32.63,1.08.89,1.63,1.3a1.29,1.29,0,0,1,0,2h0a3.37,3.37,0,0,0-1.61,2.42c0,1.42,1.6,2.56,1.34,4a5.08,5.08,0,0,1-.47,1.14c-.86,1.89-.32,4.15-1,6.12a1.26,1.26,0,0,1-.5.76,1.44,1.44,0,0,1-.83.09h0a2.06,2.06,0,0,0-2.11,2.69,7.32,7.32,0,0,1,.22,3.51,6.17,6.17,0,0,0-2.38-.08,2.09,2.09,0,0,0-1.66,1.54c-.11.58.13,1.21-.05,1.77-.32,1-1.59,1.14-2.51,1.61a7.35,7.35,0,0,0-2,2.31c.64-.13,1.34-.43,2-.49,1.17-.1,2.54-.07,3.44-.94.67-.65.89-1.65,1.55-2.3a4.55,4.55,0,0,1,1.33-.82l3.63-1.69a1.94,1.94,0,0,0,1-.79c.61-1.29-1.88-2.35-1.52-3.72.24-.93,1.55-1,2.45-.7s1.86.87,2.76.51c1.19-.47,1.29-2.23.61-3.32a24,24,0,0,0-2.68-2.75A1.27,1.27,0,0,1,583,645c-.15-.65.62-1.1,1.25-1.34l6-2.19c.41-.15.88-.36,1-.79.24-1-1.82-1.26-1.88-2.32.48.22,1-.17,1.3-.64s.33-1,.6-1.47c.58-1,1.92-1.41,2.45-2.45s-.2-2.67-1.34-3.34a9.45,9.45,0,0,0-3.85-.84,6,6,0,0,1-3.68-1.27,3.43,3.43,0,0,1,.08-4.87,12.11,12.11,0,0,1,3.2-1.53,7.3,7.3,0,0,0,3.26-3c.78-1.34.92-3.41-.44-4.16a14.36,14.36,0,0,0-2.1-.54c-.68-.24-1.27-1.09-.82-1.66.21-.27.58-.37.81-.62a1.68,1.68,0,0,0,.31-1.14c0-1.5-.08-3.27-1.35-4-.35-.21-.79-.36-.94-.73a2,2,0,0,1,0-.84,2.25,2.25,0,0,0-1.21-2.14c-.61-.3-1.45-.39-1.72-1"/><g class="cls-119"><g class="cls-120"><path class="cls-29" d="M583.71,629.32a13.13,13.13,0,0,1-1.65-2.85c-.78-2.05-.48-4.33-.2-6.5a1.54,1.54,0,0,0-.24-1.33,2.08,2.08,0,0,0-.65,1.42,37.13,37.13,0,0,0-.14,7.38c.06,1.24.07,3.43,1.51,4s2.14-.95,1.37-2.09"/></g></g><g class="cls-119"><g class="cls-121"><path class="cls-29" d="M579,655c.09.13.22.26.37.23s.22-.33.16-.53a10.3,10.3,0,0,0-.46-1.08,3.73,3.73,0,0,1-.25-2,1.76,1.76,0,0,0,0-.56.48.48,0,0,0-.36-.39c-1.51-.15.2,3.89.51,4.34"/></g></g><g class="cls-119"><g class="cls-122"><path class="cls-29" d="M585.45,639.64a1.86,1.86,0,0,1-.94-1.74c.15-.82,1-1.27,1.87-1.46,1.28-.32,2.74-.4,3.61-1.39a18.76,18.76,0,0,0-3.8.57,6.67,6.67,0,0,0-2.28,1,2,2,0,0,0-.75.91,1.83,1.83,0,0,0,.44,1.79,4.45,4.45,0,0,0,1.64,1,14.8,14.8,0,0,0,2.76.81.53.53,0,0,0,.53-.1c-.88-.67-2.14-.72-3.08-1.35"/></g></g><g class="cls-119"><g class="cls-123"><path class="cls-29" d="M582.5,605.35a2.66,2.66,0,0,0,.66.76c1.05.89,2.25,1.73,2.71,3a13.53,13.53,0,0,0,.6,1.93c.08.15.24.3.38.22a.28.28,0,0,0,.12-.18,2.54,2.54,0,0,0-.12-2.17c-.28-.5-.71-.89-1-1.4a9.72,9.72,0,0,1-.41-1.81,3.9,3.9,0,0,0-.58-1.3,1.94,1.94,0,0,0-1.38-.92,1.25,1.25,0,0,0-1,1.86"/></g></g><g class="cls-124"><g class="cls-125"><path class="cls-20" d="M763,744.34c-2.49-4.76-3.13-10.23-3.76-15.56-5.85-49.6-17.65-78.58-34.81-125.5-7.9-21.6-17.63-42.78-31.65-61-23-30-57.73-50.57-94.94-57.49a10.75,10.75,0,0,1,1.59-10.11c3.73-4.58,10.09-6,16-6.47,5.64-.44,11.71-.14,16.32,3.12a20.16,20.16,0,0,0-15.09-17.74,7.57,7.57,0,0,1,4.59-.13c-4.67-9.16-15.93-12.55-26.08-14.47-4.12-.78-8.4-1.47-12.47-.47s-7.92,4.11-8.46,8.25a27.59,27.59,0,0,0-26,9.31,23.88,23.88,0,0,1,19.37,12c2.44,4.35,4.5,13.51,2,19.08a105.84,105.84,0,0,0-13.26,6c-15.2,8.05-31.07,20.63-39.36,34.82a267.59,267.59,0,0,0-28.2,69.41c-11.16,44.2-11.58,90.74-4,135.67,2.59,15.38,6.06,31.44,1.25,46.28-2.11,6.51-5.8,13.35-3.46,19.78,3.16,8.72,14.67,10.25,24,10.33l89.12.78c32.49.28,65.15.55,97.24-4.58,26.86-4.31,63.63-18.41,78.32-35.48,4.29-9.94-3.21-16.19-8.23-25.76"/></g></g><g class="cls-126"><g class="cls-127"><path class="cls-128" d="M759.45,729.51c-5.86-49.6-17.66-78.58-34.82-125.5-7.9-21.6-17.62-42.78-31.64-61a152.29,152.29,0,0,0-42.87-37.82c7.1,6.84,13.79,14.11,18.3,22.81,6,11.63,7.85,25.27,15.09,36.19s19,17.91,26.71,28.41c6.2,8.46,9.4,18.71,12.15,28.83a456.16,456.16,0,0,1,10.17,47.08c1.79,11.11,3.12,22.8-.82,33.35-5.75,15.4-21.25,24.77-36.21,31.71a307.82,307.82,0,0,1-80.12,24.54c41.51,3.24,82-13,123.47-16.67,3.49-.31,7.27-.45,10.18,1.48,6.43,4.28,3.57,14.47-1.39,20.39-18.79,22.45-52.38,23.67-81.72,23.05L517.8,783.24c-7.89-.17-17.67-1.64-20.13-9.1-2.28-6.93,3.56-13.55,7.25-19.87,7.95-13.62,6.25-30.88,1.16-45.79s-13.26-28.66-18-43.69A114.72,114.72,0,0,1,483.23,627C478,662.29,479,698.5,485,733.72c2.59,15.38,6.07,31.44,1.25,46.28-2.1,6.51-5.79,13.35-3.46,19.78,3.17,8.72,14.68,10.25,24,10.33l89.13.78c32.48.28,65.15.55,97.23-4.58C720,802,756.75,787.9,771.44,770.83c4.28-9.94-3.22-16.19-8.23-25.76-2.5-4.76-3.13-10.23-3.76-15.56"/></g></g><g class="cls-126"><g class="cls-129"><path class="cls-130" d="M515.13,569.38c9.85-27.62,31.11-49.53,52.74-69.41a330.83,330.83,0,0,0-7.36,140.33c-3.26-24.09,1-48.55,6.67-72.2s12.72-47.1,15.18-71.28A818.18,818.18,0,0,1,616,602.69a912.67,912.67,0,0,0-22.09-107.2,132.14,132.14,0,0,1,74.84,51.74c-4-14.74-14.38-27.15-26.77-36.11S615.18,496.26,600.8,491a11,11,0,0,1-4.33-2.37,8.26,8.26,0,0,1-1.83-3.55,18.18,18.18,0,0,1,5.87-18.59c6.43-5.27,15.54-5.43,23.87-5.28a52.27,52.27,0,0,0-24.18.37,48.78,48.78,0,0,0,5.45-10.2l-9.37,10.81a28.84,28.84,0,0,0,.57-15.92,147.81,147.81,0,0,0-15.17,39.93c-.58-7-1.21-14.25-4.33-20.59S568,453.92,560.93,454c7.16,3,11.23,10.74,12.75,18.33,1.28,6.4.74,16.06-5.9,19.45a70,70,0,0,0-17.52,12.61,123.77,123.77,0,0,0-27.21,39.28,118.33,118.33,0,0,0-7.92,25.74"/></g></g><g class="cls-131"><g class="cls-132"><path class="cls-29" d="M521,619.42c-4.86,30-4.29,61.23,5.58,89.92,1.95,5.66,4.32,11.32,8.31,15.79,7.13,8,18.41,11,29.15,11.52,13.09.58,26.14-2.06,38.68-5.86,12.9-3.9,25.92-9.41,34.68-19.6s12-26.15,4.27-37.15c-4.67-6.67-12.41-10.49-20.11-13.2a111.91,111.91,0,0,0-33.85-6.24c-6.07-.16-12.17.16-18.18-.69s-12.06-3-16.23-7.42a29.92,29.92,0,0,1-6.12-11c-5.4-15.59-4.9-32.6-2.73-49,1.29-9.76,3.15-19.43,4.63-29.16.57-3.8,5.42-22.67-.91-22.08-5.45.51-9.27,18.73-10.85,23.21-3.3,9.36-6.37,18.8-9,28.35a303.14,303.14,0,0,0-7.28,32.6"/></g></g><g class="cls-90"><g class="cls-133"><path class="cls-29" d="M501.09,578.56c-3.9,11.93-7.6,24-9.5,36.41s-2,25.25,1.33,37.36c1.25,4.6,3.09,9.24,6.58,12.49,1.67,1.56,4.21,2.77,6.17,1.6a5.57,5.57,0,0,0,2.17-3.44c1.28-4.44,1.15-9.14,1-13.75-.64-15.08-1.89-30.17-1.3-45.26a189.64,189.64,0,0,1,16.31-69.4,163.9,163.9,0,0,1,9.4-18.2c-8.58,6.92-14.19,17.79-18.9,27.68-5.31,11.13-9.38,22.8-13.21,34.51"/></g></g><g class="cls-134"><g class="cls-135"><path class="cls-29" d="M604.16,509.48c-1.16,7.76,3.44,15.08,7.8,21.6,13.75,20.51,27.28,41.27,38,63.51s18.53,46.11,20.27,70.72a220.38,220.38,0,0,1-.54,32.9c-.41,5.28-.86,10.92,1.71,15.55,3.41,6.15,11.57,8.64,18.4,6.9s12.37-6.92,16.17-12.84c10.3-16.05,9.31-36.84,4.81-55.33a169,169,0,0,0-15.26-39.85c-8.68-16.19-19.94-30.85-31.52-45.14q-16.59-20.5-34.21-40.16c-2.36-2.62-24.44-25.63-25.6-17.86"/></g></g><g class="cls-136"><g class="cls-137"><path class="cls-138" d="M707.94,738l-10,1.79c3.32-.54,6.7-1.1,10-1.79"/><path class="cls-130" d="M759.51,729a360.28,360.28,0,0,0-9.85-52.11c-.11,2-.22,4-.36,6-1.1,16.09-4,33.62-16.2,44.27-7,6.1-16,9-25.16,10.9l27.69-5c3.09-.56,6.26-1.11,9.35-.53,6.71,1.25,11.31,7.44,14.16,13.61,3.57,7.68,5.43,17,1.38,24.42-2.9,5.33-8.32,8.78-13.74,11.53-29.5,14.94-64,15.48-97.07,15.07-45-.57-90.1-2.31-134.87,2.18-7.91.79-16.75,1.94-24.2-1.6a17.8,17.8,0,0,1-8-7.55,15.5,15.5,0,0,0,.14,9.05c3.17,8.72,14.68,10.25,24,10.33l89.12.78c32.49.28,65.16.55,97.24-4.58,26.87-4.31,63.64-18.41,78.33-35.48,4.28-9.94-3.22-16.19-8.24-25.76-2.49-4.76-3.12-10.23-3.75-15.56"/></g></g><g class="cls-126"><g class="cls-139"><path class="cls-140" d="M567.65,493.72c-8.94,6.88-16,15.83-23,24.68,7.24-10.48,18.16-17.76,28.81-24.77a291.87,291.87,0,0,0-7.44,50.24c-.12-5.9,1.75-11.63,3.54-17.25q5.52-17.34,10.32-34.89c3.79,3.19,6.25,7.64,8.35,12.12a180,180,0,0,1,10.38,29.77,370,370,0,0,0-8.91-43.06c5.56,3,11.76,4.71,17.88,6.36-5.72-1.51-10.89-4.53-16-7.51a2.75,2.75,0,0,1-1-.83,2.57,2.57,0,0,1-.17-1.58q.9-9.18,2.2-18.3c-3.31,4.82-4.06,10.93-6.72,16.12a8.25,8.25,0,0,1-3,3.57,3.7,3.7,0,0,1-4.39-.31c-1-1-1.06-2.51-1.15-3.89a60.68,60.68,0,0,0-2.6-14.39c.1,5.24-.25,10.41-.54,15.63-.23,4.25-3.4,5.81-6.61,8.29"/></g></g><g class="cls-69"><g class="cls-141"><path class="cls-29" d="M578.79,444.29c-1,2.35-.9,5-.73,7.51A112.3,112.3,0,0,0,581.65,474a54.9,54.9,0,0,1-.31-17.16c.6-3.8,1.83-7.7,4.65-10.31,1.44-1.34,3.21-2.26,4.72-3.5a1.54,1.54,0,0,0,.49-.59c.3-.74-.52-1.44-1.26-1.74-4-1.62-9.36-.64-11.15,3.62"/></g></g><g class="cls-69"><g class="cls-142"><path class="cls-29" d="M615.17,456.12a25.24,25.24,0,0,0-9.36,3,21.65,21.65,0,0,1,20.47,2.39c-.66-.48-1.2-1.82-1.82-2.47a8.44,8.44,0,0,0-2.18-1.61,13.13,13.13,0,0,0-7.11-1.34"/></g></g><g class="cls-69"><g class="cls-143"><path class="cls-29" d="M565.9,463.8c3.09,4.29,4.82,9.41,6.07,14.55a27.8,27.8,0,0,0-10.21-21.46,14.9,14.9,0,0,0-4.53-2.62,4.32,4.32,0,0,0-2.38-.24c-2.27.53-.86,1.45.41,1.82a17.82,17.82,0,0,1,4.11,1.84,22.26,22.26,0,0,1,6.53,6.11"/></g></g><path class="cls-144" d="M565.69,485.29a3.12,3.12,0,0,0-1,1.43,2.08,2.08,0,0,0,1,2,6,6,0,0,0,2.32.73c9.86,1.66,20.55,1.43,29.16-3.59,1.68-1,3.43-2.44,3.37-4.35a1.54,1.54,0,0,0-.17-.7c-.44-.76-1.57-.64-2.43-.43a101.9,101.9,0,0,1-17.19,2.65c-4.95.33-11.34-1.44-15.08,2.21"/><path class="cls-144" d="M568.17,485.56c-8-25.77-13.81-52.18-21.76-78s-18.51-53.62-18-81c.29-15.63,12.34-25.51,27.48-25.95,13.7-.39,26.13,6.73,35.19,16.58,19.31,21,23.94,49.85,18.49,77-3,14.95-6.26,29.76-8.55,44.85-2.14,14.18-2.58,28.44-4.48,42.63-.27,2,2.91,2,3.17,0,2.15-16,2.8-32,5.34-48,2.45-15.48,6.55-30.66,8.94-46.14,4-25.78-2.77-53.15-20.66-72.6-14.86-16.16-43.88-26.17-61.18-7.54-8.16,8.8-7.36,20.88-6,32,1.83,15.22,5.5,30.13,9.78,44.82,5,17,10.45,33.84,15,51s8.9,34.3,14.17,51.22c.6,1.94,3.67,1.11,3.06-.85"/><path class="cls-20" d="M598,485.13a10.73,10.73,0,0,1,1.59-10.08c3.72-4.58,10.07-6,16-6.46,5.63-.44,11.69-.14,16.3,3.11A20.13,20.13,0,0,0,616.79,454a7.7,7.7,0,0,1,4.58-.12c-4.67-9.15-15.91-12.53-26-14.45-4.12-.78-8.39-1.46-12.46-.47s-7.9,4.11-8.44,8.24a27.54,27.54,0,0,0-25.92,9.29,23.9,23.9,0,0,1,19.34,11.94c2.43,4.34,4.49,13.49,1.95,19.05"/><g class="cls-90"><g class="cls-145"><path class="cls-29" d="M566.38,486.07a.9.9,0,0,0-.26.51c0,.48.57.71,1,.78,8.1,1.23,16.29-.82,24.21-2.87a9.72,9.72,0,0,0,4.26-1.87,86.88,86.88,0,0,1-15.65,2.2q-3.93.18-7.85,0c-2.27-.11-4.06-.71-5.75,1.24"/></g></g><g class="cls-124"><g class="cls-146"><path class="cls-20" d="M597.7,484.72a10.82,10.82,0,0,1,1.59-10.11c3.74-4.58,10.1-6,16-6.47,5.64-.43,11.71-.12,16.33,3.12a20.17,20.17,0,0,0-15.09-17.74,7.73,7.73,0,0,1,4.59-.12c-4.68-9.17-15.94-12.55-26.08-14.47-4.12-.79-8.4-1.47-12.48-.48s-7.91,4.12-8.45,8.26a27.59,27.59,0,0,0-26,9.31,23.89,23.89,0,0,1,19.38,12c2.43,4.34,4.5,13.51,2,19.08"/></g></g><g class="cls-126"><g class="cls-147"><path class="cls-130" d="M594.54,485a18.19,18.19,0,0,1,5.87-18.59c6.44-5.27,15.54-5.43,23.87-5.29a52.55,52.55,0,0,0-24.18.37,49.22,49.22,0,0,0,5.46-10.19q-4.69,5.4-9.37,10.81a28.93,28.93,0,0,0,.57-15.92,147.84,147.84,0,0,0-15.18,39.93c-.58-7-1.21-14.26-4.33-20.59s-9.33-11.66-16.42-11.62c7.16,3,11.23,10.74,12.75,18.32"/></g></g><g class="cls-126"><g class="cls-148"><path class="cls-140" d="M590.54,488.56a2.65,2.65,0,0,1-.18-1.58q.92-9.17,2.2-18.3c-3.31,4.82-4,10.93-6.72,16.12a8.25,8.25,0,0,1-3,3.57,3.7,3.7,0,0,1-4.38-.3c-1-1-1.07-2.52-1.15-3.9a61.19,61.19,0,0,0-2.6-14.39c.1,5.24-.26,10.41-.54,15.63"/></g></g><g class="cls-69"><g class="cls-149"><path class="cls-29" d="M578.69,444.27c-1,2.34-.89,5-.72,7.51a111.47,111.47,0,0,0,3.59,22.16,54.24,54.24,0,0,1-.31-17.15c.59-3.8,1.82-7.7,4.65-10.31,1.43-1.34,3.2-2.26,4.71-3.5a1.66,1.66,0,0,0,.5-.59c.3-.74-.53-1.44-1.27-1.74-4-1.62-9.35-.64-11.15,3.62"/></g></g><g class="cls-69"><g class="cls-150"><path class="cls-29" d="M615.08,456.1a25.29,25.29,0,0,0-9.37,3,21.67,21.67,0,0,1,20.48,2.39c-.67-.48-1.2-1.83-1.82-2.47a8.44,8.44,0,0,0-2.18-1.61,13.15,13.15,0,0,0-7.11-1.34"/></g></g><g class="cls-69"><g class="cls-151"><path class="cls-29" d="M565.8,463.78c3.1,4.29,4.83,9.41,6.08,14.55a27.81,27.81,0,0,0-10.22-21.46,15,15,0,0,0-4.52-2.62,4.36,4.36,0,0,0-2.39-.24c-2.26.53-.85,1.45.41,1.82a17.64,17.64,0,0,1,4.11,1.84,22.13,22.13,0,0,1,6.53,6.11"/></g></g><path class="cls-144" d="M565.58,485.27a3.18,3.18,0,0,0-1,1.43,2.09,2.09,0,0,0,1,2.05,5.71,5.71,0,0,0,2.3.74c9.72,1.66,20.27,1.45,28.77-3.55,1.65-1,3.38-2.44,3.32-4.35a1.55,1.55,0,0,0-.17-.71c-.44-.76-1.55-.64-2.4-.43a99.38,99.38,0,0,1-17,2.63c-4.89.33-11.2-1.46-14.88,2.19"/><path class="cls-5" d="M576.6,306.15c6.51-2.18,11.48,3.28,13.64,9,3,8.06-15.54,4.79-23.3.85"/><path class="cls-5" d="M560.12,316.48c4.29,7.52,13.8-1.24,17.25-8s9.69-18.07,6.25-20.95c-5.71-4.8-15,12.78-15,12.78"/><path class="cls-5" d="M542.06,316.57c4,8.17,15.74,9.42,23.35-2.83s8.09-18.13,4.58-20.92-13.59,12.05-13.59,12.05"/><path class="cls-5" d="M561.89,297.8a81.63,81.63,0,0,0-5.48,7.07"/><path class="cls-6" d="M561.89,297.8a81.63,81.63,0,0,0-5.48,7.07"/><path class="cls-5" d="M561.86,318.26a24.6,24.6,0,0,0,3.55-4.52c6-9.62,7.56-15.34,6.24-18.69"/><path class="cls-6" d="M561.86,318.26a24.6,24.6,0,0,0,3.55-4.52c6-9.62,7.56-15.34,6.24-18.69"/><path class="cls-5" d="M547.37,317c6.2-3.12,8.31-6.12,9.77-16.56s-1.89-9.57-8,6.28"/><path class="cls-5" d="M543.73,318.48a24.19,24.19,0,0,0,3.64-1.47c6.2-3.12,8.31-6.12,9.77-16.56s-5.92-10.91-12,4.94"/><path class="cls-6" d="M543.73,318.48a24.19,24.19,0,0,0,3.64-1.47c6.2-3.12,8.31-6.12,9.77-16.56s-5.92-10.91-12,4.94"/><path class="cls-5" d="M579.17,304.94s-4.19,9.2-9.41,12.57"/><path class="cls-6" d="M579.17,304.94s-4.19,9.2-9.41,12.57"/></svg>