<?xml version="1.0" encoding="UTF-8"?>
<svg version="1.1" viewBox="0 0 507.74 1010.1" xmlns="http://www.w3.org/2000/svg" xmlns:xlink="http://www.w3.org/1999/xlink">
 <defs>
  <linearGradient id="cg">
   <stop stop-color="#5fbcd3" offset="0"/>
   <stop stop-color="#d2ecf3" offset="1"/>
  </linearGradient>
  <linearGradient id="cf">
   <stop stop-color="#785121" offset="0"/>
   <stop stop-color="#b37e31" offset=".78436"/>
   <stop stop-color="#784421" offset="1"/>
  </linearGradient>
  <linearGradient id="ce">
   <stop stop-color="#808080" offset="0"/>
   <stop stop-color="#d4d4d4" offset="1"/>
  </linearGradient>
  <linearGradient id="cd">
   <stop stop-color="#a00" offset="0"/>
   <stop stop-color="#ff581f" offset=".5"/>
   <stop stop-color="#a00" offset="1"/>
  </linearGradient>
  <linearGradient id="b">
   <stop stop-color="#007400" offset="0"/>
   <stop stop-color="#002400" offset="1"/>
  </linearGradient>
  <linearGradient id="a">
   <stop stop-color="#007400" offset="0"/>
   <stop stop-color="#23ce00" offset="1"/>
  </linearGradient>
  <linearGradient id="by">
   <stop stop-color="#784421" offset="0"/>
   <stop stop-color="#3c2210" offset="1"/>
  </linearGradient>
  <linearGradient id="cc">
   <stop stop-color="#814923" offset="0"/>
   <stop stop-color="#814923" stop-opacity="0" offset="1"/>
  </linearGradient>
  <linearGradient id="bx">
   <stop stop-color="#c87137" offset="0"/>
   <stop stop-color="#824a24" offset="1"/>
  </linearGradient>
  <linearGradient id="cb">
   <stop stop-color="#ffecaf" offset="0"/>
   <stop stop-color="#ffd555" offset="1"/>
  </linearGradient>
  <linearGradient id="ca">
   <stop stop-color="#4d4d4d" offset="0"/>
   <stop offset="1"/>
  </linearGradient>
  <linearGradient id="bw">
   <stop stop-color="#b1f5ff" offset="0"/>
   <stop stop-color="#fff" offset="1"/>
  </linearGradient>
  <linearGradient id="bz">
   <stop stop-color="#848410" offset="0"/>
   <stop stop-color="#51310a" offset="1"/>
  </linearGradient>
  <linearGradient id="c">
   <stop stop-color="#e5e52b" offset="0"/>
   <stop stop-color="#6cb116" offset="1"/>
  </linearGradient>
  <linearGradient id="bv">
   <stop stop-color="#e6e638" offset="0"/>
   <stop stop-color="#ffffde" offset="1"/>
  </linearGradient>
  <linearGradient id="cz" x1="378.16" x2="380.98" y1="344.61" y2="366.33" gradientUnits="userSpaceOnUse" xlink:href="#ca"/>
  <linearGradient id="da" x1="373.13" x2="379.85" y1="347.58" y2="362.05" gradientUnits="userSpaceOnUse" xlink:href="#ca"/>
  <linearGradient id="db" x1="411.79" x2="416.78" y1="223.92" y2="224.72" gradientUnits="userSpaceOnUse" xlink:href="#cc"/>
  <linearGradient id="dc" x1="411.79" x2="417.35" y1="223.92" y2="225.2" gradientUnits="userSpaceOnUse" xlink:href="#cc"/>
  <linearGradient id="dd" x1="815.45" x2="824.95" y1="740.23" y2="718.51" gradientTransform="translate(-235.88 6.0609)" gradientUnits="userSpaceOnUse" xlink:href="#a"/>
  <linearGradient id="de" x1="798.61" x2="799.94" y1="747.95" y2="710.45" gradientTransform="translate(-235.88 6.0609)" gradientUnits="userSpaceOnUse" xlink:href="#a"/>
  <linearGradient id="df" x1="701.55" x2="751.3" y1="725.11" y2="681.43" gradientTransform="translate(-235.88 6.0609)" gradientUnits="userSpaceOnUse" xlink:href="#a"/>
  <linearGradient id="dg" x1="691.12" x2="731.27" y1="488.7" y2="558.4" gradientTransform="translate(-235.88 6.0609)" gradientUnits="userSpaceOnUse" xlink:href="#cd"/>
  <linearGradient id="dh" x1="623.54" x2="672.95" y1="515.9" y2="563.38" gradientTransform="translate(-235.88 6.0609)" gradientUnits="userSpaceOnUse" xlink:href="#cd"/>
  <linearGradient id="di" x1="866.51" x2="860.68" y1="602.66" y2="572.93" gradientTransform="translate(-235.88 6.0609)" gradientUnits="userSpaceOnUse" xlink:href="#a"/>
  <linearGradient id="dj" x1="735.3" x2="721.25" y1="445.04" y2="422.54" gradientTransform="translate(-235.88 6.0609)" gradientUnits="userSpaceOnUse" xlink:href="#a"/>
  <linearGradient id="dk" x1="757.92" x2="729.86" y1="314.96" y2="311.57" gradientTransform="translate(-235.88 6.0609)" gradientUnits="userSpaceOnUse" xlink:href="#a"/>
  <linearGradient id="dl" x1="732.75" x2="725.96" y1="292.2" y2="272.2" gradientTransform="translate(-235.88 6.0609)" gradientUnits="userSpaceOnUse" xlink:href="#a"/>
  <linearGradient id="dm" x1="741.8" x2="712.17" y1="347.84" y2="318.8" gradientTransform="translate(-235.88 6.0609)" gradientUnits="userSpaceOnUse" xlink:href="#b"/>
  <linearGradient id="dn" x1="606.37" x2="605.4" y1="221.23" y2="246.74" gradientTransform="translate(-235.88 6.0609)" gradientUnits="userSpaceOnUse" xlink:href="#cb"/>
  <linearGradient id="do" x1="682.37" x2="684.26" y1="243.4" y2="256.28" gradientTransform="translate(-235.88 6.0609)" gradientUnits="userSpaceOnUse" xlink:href="#cb"/>
  <linearGradient id="dp" x1="627" x2="697.53" y1="266.02" y2="291.02" gradientTransform="translate(-235.88 6.0609)" gradientUnits="userSpaceOnUse" xlink:href="#bx"/>
  <linearGradient id="dq" x1="546.84" x2="583.51" y1="276.83" y2="281.12" gradientTransform="translate(-235.88 6.0609)" gradientUnits="userSpaceOnUse" xlink:href="#by"/>
  <linearGradient id="dr" x1="787.12" x2="776.15" y1="808.26" y2="767.91" gradientTransform="translate(-235.88 6.0609)" gradientUnits="userSpaceOnUse" xlink:href="#b"/>
  <linearGradient id="ds" x1="766.76" x2="746.85" y1="641.68" y2="617.75" gradientTransform="translate(-235.88 6.0609)" gradientUnits="userSpaceOnUse" xlink:href="#b"/>
  <linearGradient id="dt" x1="697.58" x2="707.81" y1="539.11" y2="533.55" gradientTransform="translate(-235.88 6.0609)" gradientUnits="userSpaceOnUse" xlink:href="#b"/>
  <linearGradient id="du" x1="646.7" x2="661.51" y1="617.49" y2="510.92" gradientTransform="translate(-235.88 6.0609)" gradientUnits="userSpaceOnUse" xlink:href="#c"/>
  <linearGradient id="dv" x1="787.46" x2="783.8" y1="616.77" y2="607.84" gradientTransform="translate(-235.88 6.0609)" gradientUnits="userSpaceOnUse" xlink:href="#by"/>
  <linearGradient id="dw" x1="778.37" x2="782.53" y1="608.66" y2="615.63" gradientTransform="translate(-235.88 6.0609)" gradientUnits="userSpaceOnUse" xlink:href="#cg"/>
  <linearGradient id="dx" x1="735.08" x2="730.61" y1="640.55" y2="630.91" gradientTransform="translate(-235.88 6.0609)" gradientUnits="userSpaceOnUse" xlink:href="#by"/>
  <linearGradient id="dy" x1="726.23" x2="729.53" y1="628.12" y2="635.62" gradientTransform="translate(-235.88 6.0609)" gradientUnits="userSpaceOnUse" xlink:href="#cg"/>
  <linearGradient id="dz" x1="744.1" x2="754.4" y1="552.23" y2="547.95" gradientTransform="translate(-235.88 6.0609)" gradientUnits="userSpaceOnUse" xlink:href="#ce" spreadMethod="reflect"/>
  <linearGradient id="ea" x1="753.7" x2="779.02" y1="587.01" y2="574.15" gradientTransform="translate(-235.88 6.0609)" gradientUnits="userSpaceOnUse" xlink:href="#cf"/>
  <linearGradient id="eb" x1="696.87" x2="731.6" y1="607.34" y2="590.91" gradientTransform="translate(-235.88 6.0609)" gradientUnits="userSpaceOnUse" xlink:href="#cf"/>
  <linearGradient id="ec" x1="692.71" x2="705.4" y1="563.36" y2="558.18" gradientTransform="translate(-235.88 6.0609)" gradientUnits="userSpaceOnUse" xlink:href="#ce" spreadMethod="reflect"/>
  <linearGradient id="ed" x1="670.59" x2="677.42" y1="189.16" y2="197.37" gradientTransform="translate(-235.88 6.0609)" gradientUnits="userSpaceOnUse" xlink:href="#bx"/>
  <linearGradient id="ee" x1="717.82" x2="711.55" y1="274.6" y2="255.91" gradientTransform="translate(-235.88 6.0609)" gradientUnits="userSpaceOnUse" xlink:href="#a"/>
  <linearGradient id="ef" x1="700.55" x2="694.43" y1="265.64" y2="253.14" gradientTransform="translate(-235.88 6.0609)" gradientUnits="userSpaceOnUse" xlink:href="#a"/>
  <linearGradient id="eg" x1="671.94" x2="724.67" y1="234.49" y2="226.63" gradientTransform="translate(-235.88 6.0609)" gradientUnits="userSpaceOnUse" xlink:href="#bx"/>
  <linearGradient id="eh" x1="439.1" x2="463.37" y1="551.14" y2="531.32" gradientTransform="matrix(.93417 -.35682 .35682 .93417 -382.57 262.37)" gradientUnits="userSpaceOnUse" xlink:href="#a"/>
  <linearGradient id="ei" x1="514.36" x2="490.26" y1="568.88" y2="581.91" gradientTransform="matrix(.93417 -.35682 .35682 .93417 -382.57 262.37)" gradientUnits="userSpaceOnUse" xlink:href="#b"/>
  <linearGradient id="ej" x1="477.66" x2="482.09" y1="529.66" y2="504.4" gradientTransform="matrix(.93417 -.35682 .35682 .93417 -382.57 262.37)" gradientUnits="userSpaceOnUse" xlink:href="#a"/>
  <linearGradient id="ek" x1="570.82" x2="558.11" y1="550.27" y2="513.78" gradientTransform="matrix(.93417 -.35682 .35682 .93417 -382.57 262.37)" gradientUnits="userSpaceOnUse" xlink:href="#a"/>
  <linearGradient id="el" x1="457.21" x2="453.18" y1="596.9" y2="586.18" gradientTransform="matrix(.93417 -.35682 .35682 .93417 -382.57 262.37)" gradientUnits="userSpaceOnUse" xlink:href="#b"/>
  <linearGradient id="em" x1="440.78" x2="441.9" y1="577.72" y2="565.58" gradientTransform="matrix(.93417 -.35682 .35682 .93417 -382.57 262.37)" gradientUnits="userSpaceOnUse" xlink:href="#b"/>
  <linearGradient id="ch" x1="641.71" x2="610.21" y1="502.67" y2="467.82" gradientTransform="translate(-235.88 6.0609)" gradientUnits="userSpaceOnUse" xlink:href="#c"/>
  <linearGradient id="ci" x1="538.64" x2="538.91" y1="472.9" y2="478.97" gradientTransform="translate(-235.88 6.0609)" gradientUnits="userSpaceOnUse" xlink:href="#bw"/>
  <linearGradient id="cj" x1="472.48" x2="470.16" y1="453.57" y2="458.22" gradientTransform="translate(-235.88 6.0609)" gradientUnits="userSpaceOnUse" xlink:href="#bw"/>
  <linearGradient id="ck" x1="446.01" x2="457.35" y1="415.71" y2="402.14" gradientTransform="translate(-235.88 6.0609)" gradientUnits="userSpaceOnUse" xlink:href="#bz"/>
  <linearGradient id="cl" x1="494.97" x2="489.18" y1="427.79" y2="405.46" gradientTransform="translate(-235.88 6.0609)" gradientUnits="userSpaceOnUse" xlink:href="#bz"/>
  <linearGradient id="cm" x1="563.92" x2="572.96" y1="424.58" y2="478.53" gradientTransform="translate(-235.88 6.0609)" gradientUnits="userSpaceOnUse" xlink:href="#c"/>
  <linearGradient id="cn" x1="674.7" x2="671.13" y1="383.1" y2="369.08" gradientTransform="translate(-235.88 6.0609)" gradientUnits="userSpaceOnUse" xlink:href="#bv"/>
  <linearGradient id="co" x1="484.81" x2="465" y1="426.19" y2="378.71" gradientTransform="translate(-235.88 6.0609)" gradientUnits="userSpaceOnUse" xlink:href="#bv"/>
  <linearGradient id="cp" x1="577.8" x2="586" y1="336.93" y2="339.25" gradientTransform="translate(-235.88 6.0609)" gradientUnits="userSpaceOnUse" xlink:href="#bw"/>
  <linearGradient id="cq" x1="605.21" x2="628.19" y1="332.81" y2="339.96" gradientTransform="translate(-235.88 6.0609)" gradientUnits="userSpaceOnUse" xlink:href="#bw"/>
  <linearGradient id="cr" x1="594.47" x2="590.06" y1="311.67" y2="293.86" gradientTransform="translate(-235.88 6.0609)" gradientUnits="userSpaceOnUse" xlink:href="#bv"/>
  <linearGradient id="cs" x1="619.1" x2="625.16" y1="303.84" y2="285.28" gradientTransform="translate(-235.88 6.0609)" gradientUnits="userSpaceOnUse" xlink:href="#bv"/>
  <linearGradient id="ct" x1="567.61" x2="573.45" y1="364.52" y2="384.73" gradientTransform="translate(-235.88 6.0609)" gradientUnits="userSpaceOnUse" xlink:href="#c"/>
  <linearGradient id="cu" x1="636.81" x2="647.95" y1="307.2" y2="282.96" gradientTransform="translate(-235.88 6.0609)" gradientUnits="userSpaceOnUse" xlink:href="#c"/>
  <linearGradient id="cv" x1="787.12" x2="776.15" y1="808.26" y2="767.91" gradientTransform="matrix(-.96979 -.24394 -.24394 .96979 1194.8 191.53)" gradientUnits="userSpaceOnUse" xlink:href="#b"/>
  <linearGradient id="cw" x1="798.61" x2="799.94" y1="747.95" y2="710.45" gradientTransform="matrix(-.96979 -.24394 -.24394 .96979 1194.8 191.53)" gradientUnits="userSpaceOnUse" xlink:href="#a"/>
  <linearGradient id="cx" x1="815.45" x2="824.95" y1="740.23" y2="718.51" gradientTransform="matrix(-.96979 -.24394 -.24394 .96979 1194.8 191.53)" gradientUnits="userSpaceOnUse" xlink:href="#a"/>
  <linearGradient id="cy" x1="311.48" x2="374" y1="738.42" y2="699.84" gradientTransform="translate(7.8571 -7.1429)" gradientUnits="userSpaceOnUse" xlink:href="#b"/>
 </defs>
 <g transform="translate(-166.11 -13.67)">
  <path d="m223.21 683.93c-0.25427 0.0746-0.51075 0.17293-0.76483 0.27598-5.072 1.6663-7.439 7.3752-10.867 10.375-10.809 1.9826-13.618 15.347-12.922 24.638 1.1977 19.525 6.8964 38.622 13.732 56.889 6.7468 15.114 17.813 31.232 34.877 35.014 13.364 1.7734 26.892-4.4728 36.739-13.16 4.6813-5.316 8.0744-12.58 15.934-13.725 28.798-12.006 56.871-26.141 83.544-42.31 14.029-9.7872 19.271-28.009 16.288-44.367-2.9032-16.847-14.341-33.457-31.163-38.491-12.747-1.4119-24.866 5.1531-35.536 11.171-20.943 13.986-38.712 32.138-56.868 49.37-3.9103-11.765-7.4367-26.896-20.596-31.456-6.377-3.415-14.709-5.6358-21.273-1.826-3.4736-1.4878-7.3102-3.5141-11.125-2.3973z" stroke="#000" stroke-width="2"/>
  <path d="m276.97 723.16s46.919-46.806 64.471-54.36c17.552-7.5538 24.577-9.2652 32.38-4.2841 22.018 14.055 26.655 40.263 18.689 59.297-3.6724 8.7433-13.156 15.026-17.414 17.624-6.1988 3.7806-27.892 14.988-42.195 22.438-14.303 7.4503-40.824 18.088-40.824 18.088l2.0458-7.0349s-9.7936 18.804-19.525 24.182c-9.7309 5.378-22.667 10.686-33.399 5.0405-10.733-5.6458-23.749-19.416-31.266-47.361-7.5171-27.946-9.2966-40.27-6.4678-49.686 2.8288-9.4158 8.0262-9.5815 8.0262-9.5815s-2.6301 6.7958-1.7058 11.54c0.9243 4.7438 5.0067 11.939 5.0067 11.939s-5.6728-15.513 1.0339-26.071 10.363-8.2572 12.073-7.735c1.71 0.52221 4.6099 1.804 4.6099 1.804s-5.7908 6.1849-6.4066 12.659c-0.61571 6.474 2.9466 13.907 2.9466 13.907s-2.3665-10.723 2.0634-19.183c4.4299-8.4607 7.9412-10.708 15.777-8.1844s14.046 5.2825 17.653 11.806c3.6069 6.5234 13.934 38.306 13.934 38.306z" fill="url(#cy)"/>
  <path d="m227.17 781.93c-4.9812-8.1303-17.157-25.491-12.89-40.99 4.2668-15.499 17.174-16.303 25.136-11.354 7.9619 4.9489 19.291 17.742 23.384 32.213 4.0935 14.471 5.4172 27.51 2.4636 33.396-2.9536 5.8859-12.539 8.9729-19.584 5.3854-8.597-4.3779-14.911-12.776-18.51-18.65z" fill="url(#cv)"/>
  <path d="m274.62 739.24c-2.2206-16.858-11.569-39.825-14.424-42.559-3.7984-3.6377-12.055-7.9799-18.394-7.6216-6.2591 0.35376-10.24 8.1007-10.827 11.469-0.58675 3.3679-1.791 10.226-0.84975 15.801 0.94129 5.5751 29.209 25.706 35.547 26.909 6.3376 1.2036 9.3749-0.75982 8.9482-3.9989z" fill="url(#cw)"/>
  <path d="m231.85 689.81s-3.5947-2.5318-6.658-2.0002c-3.0632 0.53151-7.6643 5.6239-9.6762 9.74s-2.0983 10.93-1.5672 14.254c0.5311 3.3236 3.5064 10.647 3.5064 10.647l12.07-2.9531s-1.7677-5.9132-2.7717-10.462c-1.004-4.5492-1.0142-8.1323 0.0158-10.933s5.0804-8.292 5.0804-8.292z" fill="url(#cx)"/>
  <path d="m303.87 619.55s-3.0234 5.8857-8.4231 12.274c-5.3997 6.3879-16.719 16.388-16.719 16.388l-9.5443-16.494s-3.0099 2.0283-9.4383-1.5312-7.7454-12.315-7.7454-12.315l-1.1573 6.5246s3.1284 1.6436 4.6451 4.3758 1.783 5.1987 1.783 5.1987 8.4405-2.1427 13.534 0.57518c5.0931 2.7178 6.8298 6.3798 6.8409 9.4168s0.89098 6.7559-8.115 14.319c-9.006 7.5626-21.845 10.574-28.983 8.1647-7.1381-2.4098-14.531-10.264-14.531-10.264s-7.3695-0.3615-13.811-6.0786-8.0463-9.5647-8.2762-12.113c-0.22982-2.548 0.68878-5.8049 0.68878-5.8049s-11.518-4.672-14.969-13.581c-3.4506-8.9088-4.1106-16.016 0.71748-22.018 4.828-6.0018 13.025-10.566 13.025-10.566s-1.71-6.2284 5.2632-12.619c6.9732-6.3911 7.213-4.7623 10.207-4.8066 2.9937-0.0444 12.977 0.44342 17.454-0.59755 4.4768-1.041 14.913-5.1227 24.25-5.2005 9.3369-0.0778 19.535-1.1537 22.794 0.37312s15.459 10.821 15.459 10.821 6.6736-1.5455 17.773-7.2668c11.1-5.7213 27.287-16.014 35.465-28.887 8.1773-12.872 16.054-37.29 19.852-42.612 3.7976-5.3214 8.617-7.5924 12.929-6.5632 4.3118 1.0292 7.8121 0.93471 10.707 6.137 2.8951 5.2023 5.5299 14.853 6.999 22.702 1.4691 7.8497 3.5958 21.76 2.4648 32.6s-1.6282 14.139-3.6011 16.582c-1.9729 2.4432-17.566 18.064-28.45 26.546s-35.687 23.701-50.283 25.83c-14.596 2.1285-18.803 0.49148-18.803 0.49148z" stroke="#000" stroke-width="5"/>
  <path d="m300.45 575.65c2.6664 3.442 3.9371 9.6855 3.9371 9.6855s-13.533-18.916-23.762-20.171c-10.228-1.2544-31.412 0.33777-40.753 3.906-9.3417 3.5682-22.012-0.57645-26.776 2.9639-4.7646 3.5403-9.3196 10.632-6.158 18.409 3.1616 7.7766 7.448 11.492 17.333 11.348 9.8851-0.14386 34.733-6.0453 34.733-6.0453s-5.2223 4.1766-10.998 4.6257c0 0-0.79559 8.1836 4.3758 14.959 4.7573 6.2328 15.966 11.748 27.494 8.4226 15.798-4.557 15.236-24.17 15.236-24.17s-0.23133 16.91-5.9088 21.564c-5.6775 4.6536-13.09 5.7648-13.09 5.7648l10.023 12.228s13.196-12.495 15.485-21.016c2.2889-8.5205 3.5132-16.825 3.5132-16.825l0.47531 16.258s14.736 3.5469 38.238-8.4888 44.083-30.219 54.752-42.323 2.2019-70.804-8.6483-74.688c-10.85-3.8841-15.845-0.44682-19.666 10.57-3.8204 11.017-9.9841 31.913-26.252 47.876-16.268 15.963-43.582 25.147-43.582 25.147z" fill="#007400"/>
  <path d="m203.84 588.21s0.45685 8.2734 8.7578 13.551c-4.7069-1.1758-9.6107 0.49455-9.6107 0.49455s10.253 1.8957 17.17 1.957c6.9169 0.0613 13.389-2.3189 18.865-0.68398 5.2635 1.5714 7.1574 1.9294 9.4028 9.0465 2.2454 7.1172 2.2924 9.3633-1.2749 13.294-3.5673 3.9308-13.052 10.595-21.666 9.6275-8.6146-0.96724-25.228-4.8267-30.992-13.371-5.7641-8.544-6.1226-13.631-4.8883-18.813 1.7828-7.4852 4.6925-9.58 14.236-15.102z" fill="#007200"/>
  <path d="m206.52 633.14s13.599 7.3264 25.722 4.0338 17.353-11.12 17.353-11.12 3.6445 1.2841 5.2028 6.6147c1.5582 5.3306-0.26497 14.82-9.7341 18.055-9.4692 3.2346-21.212 5.5217-28.161 0.33887-6.9497-5.1828-8.8473-7.8988-10.205-11.203-1.3578-3.3045-0.17681-6.7185-0.17681-6.7185z" fill="url(#em)"/>
  <path d="m228.6 656.15s10.496-1.0463 15.616-2.9063c5.1198-1.86 9.5311-5.0742 11.038-8.1349 1.3737-2.7898 2.2009-9.2515 2.2009-9.2515s12.103-3.0939 16.377 3.5891c4.2731 6.683-0.1955 12.5-3.1767 15.454-2.9812 2.9547-8.0262 8.5137-20.465 9.7286-12.439 1.2149-19.158-3.8648-21.59-8.4794z" fill="url(#el)"/>
  <path d="m301.47 577.21s3.2243 5.2564 5.6001 16.784c2.3758 11.528 3.3867 17.359 10.848 17.077 7.4617-0.28195 48.283-19.389 52.052-26.506 3.7696-7.1169 26.943-31.377 21.843-60.653-4.2417-24.35-18.648-23.314-23.484-9.8179-4.4579 12.438-4.7098 17.749-15.925 30.143-11.216 12.394-23.727 20.687-33.292 25.017-9.5652 4.3294-17.642 7.9552-17.642 7.9552z" fill="url(#ek)"/>
  <path d="m301.88 585.71s-11.972-17.189-19.576-18.34c-7.6034-1.1508-27.775-0.88-38.162 2.0061s-22.861 2.7848-27.912 3.3624c-5.0509 0.57761-9.2685 9.3525-8.3755 15.229 0.893 5.8766 4.1664 9.4922 8.9495 11.044 4.7831 1.5522 19.2 0.37066 27.863-1.7216 8.6625-2.0923 22.129-3.9922 30.691-5.6405 8.5618-1.6483 26.522-5.9402 26.522-5.9402z" fill="url(#ej)"/>
  <path d="m295.42 599.85s-0.28182 1.6922-0.48 2.8595c-8.8e-4 9e-3 0.0122 0.0207 0.0111 0.0291-0.36762 5.1102-1.5957 15.018-5.7436 18.418-5.6775 4.6536-10.23 5.4546-21.512 7.0604 9.5793 5.262 13.039 17.294 13.039 17.294s18.604-18.872 20.893-27.393c2.2443-8.3544 3.4358-16.404 3.4825-16.718 2e-3 -0.0405 0.0229-0.0703 0.0249-0.10984 0.0663-1.2895 0.16089-3.6074 0.16089-3.6074zm-0.46885 2.8887c-0.28183 1.6596-0.54211 3.1031-0.89799 5.0932 0.49323-1.9182 0.75455-3.6922 0.89799-5.0932z" fill="url(#ei)"/>
  <path d="m195.07 603.58c6.8224-0.16602 17.103 2.7382 23.392 2.4386s14.711-2.2738 19.265-0.8594 6.978 1.2533 8.9458 6.9054 2.9207 9.3979-1.2161 13.081c-4.1368 3.6828-6.328 5.9534-11.953 7.2418-5.6249 1.2883-19.297 0.776-26.532-3.151-7.2346-3.927-10.347-5.3188-13.3-11.55-2.9536-6.2313-2.9525-9.4813-2.287-11.743 0.66549-2.2613 2.2262-2.3278 3.685-2.3633z" fill="url(#eh)"/>
  <path d="m349.51 254.47s-45.457 1.1364-54.296 17.678c-8.8388 16.541 9.849 24.244 15.152 27.4 5.3033 3.1567 42.805 15.026 69.322 19.572 26.517 4.5457 84.474 11.49 84.474 11.49s1.7678 10.859 14.016 19.445c12.248 8.5863 20.329 11.743 20.329 11.743l21.087 49.119-77.195 43.401s9.2857 21.429 22.5 48.214c13.214 26.786 23.214 43.036 23.214 43.036s1.4286-14.107 5.3571-24.643 11.964-27.857 21.964-37.143c10-9.2857 32.857-25.893 40.536-31.429 7.6786-5.5357 18.214-16.964 20-25.536 1.7857-8.5714 1.0714-13.393-1.7857-22.143s-30.357-66.429-30.357-66.429 4.2857-10.893 1.6071-28.393-5.1786-31.25-11.786-34.821c-6.6071-3.5714-13.571-2.3214-13.571-2.3214s0.65313-9.5283-7.1756-11.991-14.458-0.94702-14.458-0.94702-0.75761-4.7982-7.7024-5.3033c-6.9448-0.50507-7.6393 0.25254-7.6393 0.25254s0.31567-6.0609-0.0631-11.049c-0.37881-4.9876-1.8309-8.2075-3.5987-9.2808s-3.9775-1.0102-3.9775-1.0102-2.1466-13.195-11.869-21.845-13.195-8.7757-13.195-8.7757 2.1466-1.4521 2.0834-3.4724c-0.0631-2.0203-3.3461-6.566-15.531-7.2605-12.185-0.69448-16.226 1.894-17.362 2.9042-1.1364 1.0102-0.94702 1.7678-0.94702 1.7678s-8.5232 0.18941-19.319 5.3664c-10.796 5.177-18.751 12.185-18.751 12.185s-3.3461-1.7046-6.3766 0.88389c-3.0305 2.5885-8.46 8.7757-9.7227 12.564s-1.0102 5.9978-1.0102 5.9978-5.2402 5.8084-7.8918 10.922c-2.6516 5.1139-6.0609 9.849-6.0609 9.849z" stroke="#000" stroke-width="5"/>
  <path d="m441.25 447.84c-0.24536 3e-3 -0.51116-2e-3 -0.8125 0.0312-2.4107 0.26786-62.641 35.771-64.156 36.781-1.5152 1.0102-5.815 5.4218-5.5625 10.094s9.7188 24.875 9.7188 24.875c-5.7143 23.75-11.161 34.237-16.25 45.219-4.866 10.5-24.107 46.781-28.125 59.281-4.0179 12.5-8.4107 26.696-7.875 36.25 0.53572 9.5536 1.0848 26.991 12.781 41.188s27.223 29.808 45.438 39.719c18.214 9.9107 49.375 11.531 49.375 11.531s11.442 10.536 22.781 20.625 37.312 28.562 37.312 28.562 2.5804 7.2366 4.8125 11.969c2.2321 4.7321 17.879 23.839 36.719 21.25 18.839-2.5893 34.094-20.103 48.469-44.656s16.781-37.853 14.906-47.406c-1.875-9.5536-6.5-8.6562-6.5-8.6562s-4.0312-8.8482-7.7812-12.062c-3.75-3.2143-11.344-1.1562-11.344-1.1562l-4.0938-3.4062s14.714-19.884 19-26.312c4.2857-6.4286 10.446-20.004 18.125-33.219 7.6786-13.214 7.7946-12.79 17.438-22.344 9.6429-9.5536 41.058-24.263 43.469-26.406 2.4107-2.1428 2.6741-8.8393 1.7812-13.125-0.89286-4.2857-1.6116-8.2232-6.9688-10.188-5.3571-1.9643-35.259 0.34822-44.812 2.9375-9.5536 2.5893-44.643 19.201-46.25 19.469-1.6071 0.26785-3.3928-0.53125-4.375-1.7812-0.98214-1.25-4.1875-3.125-4.1875-3.125l-28.875-44.031-5.4062-1.0938-8.4375-10.969s-3.1116-1.3482-9.0938-0.5c-5.9821 0.84821-9.1875 5.875-9.1875 5.875l2.6875 9.4688-1.4375 0.71875s-4.2678-4.6384-14.625-19.281c-10.357-14.643-44.125-90.536-45.375-93.125-1.0938-2.2656-1.5637-3.0244-3.2812-3zm92.125 285.12-6.9688 10.469-4.7188-7.5938 11.688-2.875z" stroke="#000" stroke-linejoin="round" stroke-width="5"/>
  <path d="m378.87 257.75s-2.4622-4.23-3.283-10.102c-0.82075-5.8715-1.0102-15.72-0.18941-19.635 0.82075-3.9143 4.2932-11.301 3.5987-11.996s-2.6516-0.63134-4.4826 1.4521-7.3743 6.5481-8.3338 13.132c-0.66142 4.5388-1.2627 14.458-1.2627 14.458s-1.389-3.7881-0.94701-8.9651c0 0-4.672 4.9245-6.8817 9.5333s-5.177 9.4702-5.177 9.4702 9.7441 0.14815 15.089 0.82075c4.6298 0.5826 8.5628 1.1118 11.869 1.8309z" fill="#ffd555"/>
  <path d="m381.33 258.19 8.5863 1.7678s9.4702-7.3867 22.286-10.796c12.816-3.4093 23.865-3.9775 29.231-3.9143 5.3664 0.0631 9.6596 0.88389 14.016 0 4.3563-0.88388 11.238-2.0203 15.089-3.4724 3.8512-1.4521 4.672-2.2728 4.672-2.2728s-2.3991-16.794-11.932-25.885c-9.5333-9.0914-16.478-9.9121-16.478-9.9121s-7.0711 2.0834-13.069 1.389-9.7858-1.7678-11.932-3.283c-2.1466-1.5152-2.9042-3.5355-2.9042-3.5355s-9.9579 2.425-18.266 5.8345c-8.8478 3.6312-18.668 11.338-18.668 11.338-1.4521 3.4724-5.0508 8.9651-5.177 19.887-0.12626 10.922 1.0733 16.541 4.5457 22.855z" fill="url(#eg)"/>
  <path d="m441.69 276.46 10.179 4.8214s14.286-9.5536 24.464-13.482c10.179-3.9286 19.464-7.5 19.464-7.5s-0.17857-3.3036-4.4643-3.8393c-4.2857-0.53571-8.125-1.25-20.089 3.3929s-29.554 16.607-29.554 16.607z" fill="url(#ef)"/>
  <path d="m453.65 281.99 12.5 6.6071s14.643-5.8036 27.411-9.7321c12.768-3.9286 24.286-5.0893 24.286-5.0893s-0.44643-8.6607-6.5179-10.625c-6.0714-1.9643-10.268-1.875-14.554-0.80357-4.2857 1.0714-12.411 3.3929-23.036 8.3929s-20.089 11.25-20.089 11.25z" fill="url(#ee)"/>
  <path d="m514.01 302.71s-16.161 4.9107-27.411 7.4107-15.714 2.5-19.286 0.17857-8.0357-5.3571-7.9464-8.8393c0.0893-3.4821 2.5893-8.5714 7.7679-10.714 5.1786-2.1429 14.643-5.8929 25.268-9.2857s30.089-7.3214 35.357-5.9821c5.2678 1.3393 11.071 9.4643 12.768 19.107 1.6964 9.6429 5.2679 27.857 2.5 36.429-2.7678 8.5714-5.2678 18.125-5.2678 18.125s4.375-8.0357 4.375-7.6786c0 0.35714 15.47 28.798 21.784 44.96 6.3135 16.162 13.637 29.8 9.0914 41.921-4.5457 12.122-25.001 27.779-36.366 35.103-11.364 7.3236-24.749 17.93-31.315 28.537s-13.016 22.604-15.159 30.639-3.4515 16.509-3.4515 16.509-14.159-23.846-22.017-41.881c-7.8571-18.036-18.204-42.627-18.204-42.627l20.19-11.018 57.679-32.679-2.5-0.71428-20.357-48.75 6.25-1.7857s-14.375 0.0893-28.304-12.679c-13.929-12.768-13.839-20.893-13.929-24.018-0.0893-3.125 0.53572-9.1964 0.53572-9.1964l33.75 19.286s0.35714 6.3393 2.9464 9.2857c2.5893 2.9464 6.2946 5.625 14.732 7.0536 0 0-12.143-5.1786-14.286-10-2.1428-4.8214-3.2143-13.661-2.0536-18.661s2.0536-11.25 5.0893-13.304c3.0357-2.0536 7.7679-4.7322 7.7679-4.7322z" fill="#007200"/>
  <path d="m437.18 193.78c-7.483-0.43654-16.652 1.4286-16.607 3.6607 0.0446 2.2322 8.9732 5.7589 13.705 5.8482 4.7322 0.0893 15.912-0.76215 16.339-4.1071 0.34755-2.7177-8.1081-5.0909-13.438-5.4018z" fill="url(#ed)"/>
  <path d="m376.6 487.81s17.362 29.926 30.115 44.952 25.38 27.779 31.315 31.567c5.9346 3.7881 14.773 5.4296 14.773 5.4296l1.894 4.5457-6.6923 5.5558 0.37881 2.5254s-32.072-14.647-52.149-44.447-23.486-41.795-23.36-44.447 3.7249-5.6821 3.7249-5.6821z" fill="#a00"/>
  <path d="m441.94 451.07-3.9143 25.38s23.739 46.341 36.618 66.796c12.879 20.456 28.284 43.815 28.284 43.815l2.9042-2.0203-6.2503-18.151 2.8411-1.6731s-18.309-22.097-33.461-53.538-27.022-60.609-27.022-60.609z" fill="#a00"/>
  <path d="m454.5 566.23 3.0304 7.2605s5.2402-3.1567 9.3439-4.1669c4.1038-1.0102 9.7859-1.1996 9.7859-1.1996l-4.0406-9.4702s-6.566-0.63135-10.48 1.5152c-3.9143 2.1466-7.6393 6.0609-7.6393 6.0609z" fill="url(#ec)"/>
  <path d="m450.27 581s8.7126-6.8185 16.541-9.2176c7.8287-2.3991 17.109-1.7678 17.109-1.7678l28.221 54.169s-11.146 0.42248-23.36 4.5457c-11.691 3.9466-18.056 9.849-22.476 17.425z" fill="url(#eb)"/>
  <path d="m497.53 591.95 7.6086 14.569 13.885-7.3344s2.7148-4.7982 0.50508-9.1545c-2.2097-4.3563-8.6494-6.124-8.6494-6.124-7.513 5.7452-13.349 8.0442-13.349 8.0442z" fill="#666"/>
  <path d="m502.11 567.55 5.7452 16.478 2.7779-2.3991s7.6393 1.0102 10.607 8.0181c2.9673 7.0079-0.88389 11.112-0.88389 11.112l-7.513 3.7881 7.8918 20.14s8.7757-10.102 21.339-15.531c12.564-5.4296 19.635-4.9245 19.635-4.9245l-27.022-43.121s-12.059-3.5987-19.067-0.63135c-7.0079 2.9673-13.511 7.0711-13.511 7.0711z" fill="url(#ea)"/>
  <path d="m508.1 562.12c-0.69448-2.3991-2.2097-7.4499-2.2097-7.4499s2.841-4.4826 6.9448-5.4927c4.1037-1.0102 7.513 0.0631 7.513 0.0631l6.3766 8.5863s-5.9978-1.1364-10.038 0.37881c-2.985 1.017-5.8944 2.3191-8.5863 3.9144z" fill="url(#dz)"/>
  <path d="m472.13 642.8s5.2678-6.7857 13.661-10.357 21.429-5.625 21.429-5.625c-0.0893 2.4107-0.3404 9.5752-12.5 14.375-10.179 4.0179-17.768 3.0357-22.589 1.6071z" fill="url(#dy)"/>
  <path d="m509.01 626.19s2.3257-0.39345 3.75-0.26786c1.64 0.14461 3.0155 0.69982 3.2143 3.75 0.2608 4.0026-7.8793 13.533-20.089 18.214-11.456 4.3926-25.268 5.1786-27.589 2.6786s1.875-6.1607 1.875-6.1607 6.7857 2.3214 13.393 1.4286c6.6071-0.89286 13.604-2.9931 18.304-6.5179 5-3.75 5.9822-5.8929 6.6072-7.8571 0.625-1.9643 0.53571-5.2679 0.53571-5.2679z" fill="url(#dx)"/>
  <path d="m524.99 623.51c2.2321-2.8571 8.5714-8.3036 15.089-11.339 6.5179-3.0357 15.982-5.7143 15.982-5.7143s1.4188 8.2694-10.446 14.643c-12.065 6.481-20.625 2.4107-20.625 2.4107z" fill="url(#dw)"/>
  <path d="m523.2 624.81s4.3304 1.9196 8.125 1.7411c3.7946-0.17857 9.4196-0.9375 14.286-3.6607 4.8661-2.7232 9.2411-6.1161 11.161-10.312 1.9196-4.1964 1.3393-6.9643 1.3393-6.9643s4.5982-0.80357 6.4286 1.2054 1.1291 4.5638-0.98214 7.2321c-3.2143 4.0625-11.696 10.759-18.75 13.661-7.0536 2.9018-14.821 4.7768-19.018 3.5268s-4.2857-2.8571-4.1964-3.8839 1.6071-2.5446 1.6071-2.5446z" fill="url(#dv)"/>
  <path d="m435.74 479.59s-16.15 4.5557-22.969 8.3438c-14.526 3.2094-18.213 14.559-19.688 21.969 0 0 10.606 16.161 18.688 25 8.0812 1.7678 23.969 1.4062 23.969 1.4062s-11.596 3.3902-20.688 1.875c0 0 10.905 12.213 16.531 17.438 7.0711 6.566 15.219 10.031 15.219 10.031s-1.9764-21.019-1.2188-34.656c0.75761-13.637 3.6875-27.031 3.6875-27.031zm-53.156 41.438c-4.0406 19.698-11.856 36.364-19.938 53.031-8.0812 16.668-33.078 57.331-31.562 89.656 1.5152 32.325 21.196 48.986 42.156 65.906 20.961 16.92 58.625 20.719 58.625 20.719s-10.547-9.006-14.335-13.299c-3.7881-4.2932-7.2163-7.0647-9.2366-25.5-2.0203-18.435 16.733-47.038 35.044-50.351 13.208-2.3902 22.202 1.2481 36.596 14.38 14.395 13.132 40.556 57.833 40.556 57.833l13.625-2.7812s2.7744-3.2795 6.5625-6.5625 8.1875-5 8.1875-5-31.426-13.176-48.094-29.844-26.25-34.344-26.25-34.344-7.3209 0.99587-9.5938-4.8125c-2.2728-5.8084-16.938-65.156-16.938-65.156-21.718-10.48-32.583-21.471-42.938-30.562-10.354-9.0914-22.469-33.312-22.469-33.312z" fill="url(#du)"/>
  <path d="m354.18 630.88s16.131 9.9867 43.184 10.985c26.244 0.96879 51.77-3.5355 51.77-3.5355s-25.147 8.3077-55.18 6.1872c-20.367-1.438-39.775-13.637-39.775-13.637z"/>
  <path d="m375.4 574.31s13.763 9.5964 23.991 9.7227c10.228 0.12627 29.673-2.1466 29.673-2.1466s-18.309 4.7982-30.81 4.0406c-12.501-0.75762-22.855-11.617-22.855-11.617z"/>
  <path d="m351.91 676.08s18.056 14.647 31.694 15.279c13.637 0.63135 25.001 1.2627 25.001 1.2627l2.5254-3.1567s-14.268 1.2627-29.294-1.0102c-15.026-2.2728-29.926-12.374-29.926-12.374z"/>
  <path d="m448.82 566.35 3.6708 0.97318-0.44194-1.7786s4.0992-5.7606 11.17-8.065 11.333-0.31567 11.333-0.31567l4.2724 10.665c3.3929-0.17857 6.0185 0.0361 6.0185 0.0361l11.775 22.16 4.6088-2.2728s-16.859-25.761-29.895-46.743-20.446-34.643-20.446-34.643-3.4821 11.607-3.5714 31.429c-0.0893 19.821 1.5063 28.554 1.5063 28.554z" fill="url(#dt)"/>
  <path d="m477.49 654.76s7.5893 14.911 22.768 29.911c15.179 15 33.661 24.821 51.518 33.125 0 0 11.25-3.8393 16.964-0.98214 0 0 8.3036-9.2857 18.661-25.714 10.357-16.429 17.679-38.393 32.679-53.214s43.214-25.536 46.786-29.464 1.9643-18.214-2.3214-19.464-36.429-0.53572-46.25 3.0357-42.321 18.75-45 19.107c-2.6786 0.35715-4.4643-1.4286-4.4643-1.4286s-5.9821 11.786-21.161 18.571-20.268 5.5357-22.946 4.5536-4.4643-2.1429-5.1786-4.0179-8.3929-23.214-8.3929-23.214l-5.3571 2.8571 8.4821 16.071s1.9643 0.26786 2.9464 2.5c0.98214 2.2321 0.8674 4.6853-0.98215 7.8571-1.5735 2.6985-7.7679 10.804-19.018 14.732s-19.732 5.1786-19.732 5.1786z" fill="url(#ds)"/>
  <path d="m524.52 745.53s-34.084-56.837-49.263-68.445c-15.179-11.607-21.574-14.981-30.357-12.054-24.781 8.2589-35.671 32.544-32.589 52.946 1.4286 9.375 9.093 17.782 12.589 21.339 5.0893 5.1786 23.393 21.339 35.446 32.054s35.179 27.5 35.179 27.5l-0.26785-7.3214s4.9107 20.625 13.036 28.214c8.125 7.5893 19.375 15.893 31.161 13.036 11.786-2.8571 27.768-13.036 41.875-38.304s18.839-36.786 18.393-46.607-5.4464-11.25-5.4464-11.25 0.89286 7.2321-1.1607 11.607-7.7679 10.357-7.7679 10.357 9.2857-13.661 5.3571-25.536-8.0357-10.536-9.8214-10.446c-1.7857 0.0893-4.9107 0.625-4.9107 0.625s4.1071 7.4107 3.125 13.839c-0.98214 6.4286-6.25 12.768-6.25 12.768s4.9107-9.8214 2.6786-19.107c-2.2321-9.2857-5.0893-12.321-13.304-11.786-8.2143 0.53571-14.911 1.6964-20 7.1428-5.0893 5.4464-22.857 33.75-22.857 33.75z" fill="#007400"/>
  <path d="m558.47 814.67c6.814-6.6696 22.857-20.536 22.5-36.607-0.35714-16.071-12.679-20-21.607-17.143s-23.036 12.5-30.536 25.536-11.964 25.357-10.536 31.786 9.9714 11.761 17.679 10c9.4052-2.1485 17.577-8.753 22.5-13.571z" fill="url(#dr)"/>
  <path d="m393.07 260.15s19.319 4.5457 28.032 7.955c8.7126 3.4093 18.94 7.4499 18.94 7.4499s14.521-10.859 23.739-14.773 17.425-6.1872 17.425-6.1872 0.50508-5.8084 0-9.4702c-0.50507-3.6618-0.75761-7.5761-2.1466-8.46-1.389-0.88389-3.0305-0.88389-3.0305-0.88389l0.75762 3.0305s0.63134-0.50508 0.88388 0.50508c0.25254 1.0102-1.894 2.9042-5.6821 4.0406s-13.637 4.4194-25.254 3.9143c-11.617-0.50508-25.38 0.75761-36.744 4.672s-16.92 8.2075-16.92 8.2075z" fill="#ffd555"/>
  <path d="m367.58 279.05-7.8571 10.536s-3.1481-0.19157-6.25 1.6071c-6.9329 4.0201-10.536 16.607-10.536 16.607-22.768-5.1786-39.589-12.108-44.554-19.464-4.236-6.2768-4.9107-9.1964-2.3214-11.339 2.5893-2.1429 28.839-4.7321 39.375-3.5714s32.143 5.625 32.143 5.625z" fill="url(#dq)"/>
  <path d="m440.71 224.31c-2.7614 0-5 2.6139-5 5.8438s2.2386 5.8438 5 5.8438c0.76205 0 1.4786-0.17463 2.125-0.53125-2.4081-0.035-4.3438-2.0868-4.3438-4.625 0-2.5601 1.9695-4.6562 4.4062-4.6562 0.59904 0 1.1667 0.14779 1.6875 0.375-0.91594-1.349-2.2878-2.25-3.875-2.25z"/>
  <path transform="matrix(.88244 0 0 .79262 75.103 53.347)" d="m421.79 223.92a5 5.8482 0 1 1 -10 0 5 5.8482 0 1 1 10 0z" fill="url(#db)"/>
  <path d="m458.12 225.94c-2.7614 0-5 2.6139-5 5.8438s2.2386 5.8438 5 5.8438c0.76205 0 1.4786-0.20588 2.125-0.5625-2.4081-0.035-4.3438-2.0868-4.3438-4.625 0-2.5601 1.9695-4.625 4.4062-4.625 0.6092 0 1.1909 0.10919 1.7188 0.34375-0.91582-1.3522-2.3168-2.2188-3.9062-2.2188z"/>
  <path transform="matrix(.88244 0 0 .79262 92.514 54.954)" d="m421.79 223.92a5 5.8482 0 1 1 -10 0 5 5.8482 0 1 1 10 0z" fill="url(#dc)"/>
  <path d="m349.69 256.87c-9.3436-0.0293-17.661 0.88393-24.625 2.625-18.571 4.6429-28.906 15.188-28.906 15.188s22.862-5.0045 48.844-1.9688 44.094 11.812 44.094 11.812 7.6295-6.808 17.094-5.4688c9.4643 1.3393 13.125 14.719 13.125 14.719s10.58 2.5893 21.562 6.875 22.938 9.9062 22.938 9.9062-5.5268-4.2232-6.6875-9 7.0625-11.875 7.0625-11.875-28.232-15.027-60.375-24.312c-20.089-5.8036-38.552-8.4512-54.125-8.5zm153.12 51.562s-16.292 4.6799-21.406 5.4375c-5.1139 0.75764-10.625-0.0625-10.625-0.0625l28.156 16.406s-0.37881-4.5992 0-10.281c0.37881-5.6821 3.875-11.5 3.875-11.5z" fill="url(#dp)"/>
  <path d="m478.74 241.81c-6.6861 5.4455-16.294 5.9767-24.562 7.3125-17.527-0.0976-35.679 0.0167-51.746 8.0252-4.5718 1.5352-4.7692 2.9584 0.62249 3.4314 12.673 2.919 24.668 7.8946 36.717 12.7 11.881-9.1242 25.072-16.313 39.531-20.25 0.29742-3.7935 0.0975-7.6822-0.5625-11.219z" fill="url(#do)"/>
  <path d="m376.34 218.44c-5.5931 4.7422-9.4088 11.407-8.8438 18.938-0.54501 3.1832-0.31377 15.431-2.5779 12.288-1.3756-2.5668-2.6007-5.3067-2.8284-8.1939-2.8977 3.5376-4.358 7.9143-6.75 11.719 6.5747-0.13823 14.178 1.2171 20.062 1.6562-3.038-9.4947-3.4948-20.271-1.2188-30 0.6671-1.9768 1.9355-4.9085 2.1562-6.4062z" fill="url(#dn)"/>
  <path d="m466.06 313.78s-0.62055 6.0625-0.53125 9.1875 9e-3 11.263 13.938 24.031c13.147 12.051 26.521 12.658 28 12.688 7.7991-2.1749 17.312-7.75 17.312-7.75s-3.6844-1.2804-7.5-2.625c0.0185 8e-3 0.21875 0.0937 0.21875 0.0937-8.4375-1.4286-12.161-4.1161-14.75-7.0625-2.5893-2.9464-2.9375-9.2812-2.9375-9.2812l-33.75-19.281z" fill="url(#dm)"/>
  <path d="m525.15 275.22c-7.3999-0.0989-23.453 3.2813-32.75 6.25-10.625 3.3929-20.103 7.1384-25.281 9.2812-5.1786 2.1429-7.6607 7.2366-7.75 10.719-0.0893 3.4822 4.3661 6.5223 7.9375 8.8438s8.0312 2.3125 19.281-0.1875 27.406-7.4062 27.406-7.4062-0.3088 0.16764-0.34375 0.1875l1.5312-0.65625 25.969-4.0938c-0.20861-1.1727-0.44791-2.5559-0.625-3.5625-1.6964-9.6428-7.5134-17.786-12.781-19.125-0.65848-0.16741-1.5366-0.23588-2.5938-0.25z" fill="url(#dl)"/>
  <path d="m519.65 303.24c-4.5266 0.62386-12.857 3.2143-15.446 14.375-2.5893 11.161-1.0714 19.821 2.1429 22.411 3.2143 2.5893 7.0536 6.4286 11.964 8.2143 4.9107 1.7857 15 0.17857 17.232-2.5893 2.2321-2.7679 5.3571-12.768 5.8036-18.929s0.26785-18.571-4.1964-21.607c-4.4643-3.0357-11.73-2.6702-17.5-1.875z" fill="url(#dk)"/>
  <path d="m474.65 500.03s-15-35.536-3.2143-50c11.786-14.464 19.464-18.036 28.393-23.036s26.786-15.536 26.786-15.536 16.964 4.6429 20.536 16.25c3.5714 11.607-1.7857 20.179-16.429 28.214-14.643 8.0357-56.071 44.107-56.071 44.107z" fill="url(#dj)"/>
  <path d="m569.65 614.49c7.3813-1.0704 45.536-20 52.5-21.25 6.9643-1.25 40.893-3.3929 42.321-2.3214s3.3928 8.2143 2.8571 11.25-1.6071 5.1786-5.5357 6.9643-37.857 18.571-43.393 26.429c-5.5357 7.8571-10.179 9.2857-14.821 18.75-4.6429 9.4643-10.714 21.786-17.679 33.036-6.9643 11.25-20.179 25.893-20.179 25.893l-43.75-56.964s34.163-27.383 47.679-41.786z" fill="url(#di)"/>
  <path d="m376.06 491.25c-3.153 4.5155 1.8236 9.9157 3.1487 14.34 12.532 24.164 27.67 47.856 50.629 63.278 5.1882 3.7506 10.502 7.0561 16.128 10.069 3.5658-2.0004 9.6723-7.599 2.2188-8.2188-15.856-3.8082-25.629-18.204-36.51-29.183-14.064-15.011-24.835-33.351-35.615-50.286z" fill="url(#dh)"/>
  <path d="m440.09 476.09c16.999 33.38 35.129 66.212 56.309 97.302 1.9827 2.4862 8.96 15.233 5.727 7.0119-0.26087-5.0015-7.5156-12.586-2.6993-15.716-25.088-31.678-40.706-69.395-56.618-106.29-0.90625 5.8958-1.8125 11.792-2.7188 17.688z" fill="url(#dg)"/>
  <path d="m523.5 747.8-13.006 36.239s-93.565-68.817-92.808-82.201 14.142-29.8 25.759-32.577 25.254 3.283 32.83 13.385c7.5761 10.102 47.225 65.155 47.225 65.155z" fill="url(#df)"/>
  <path d="m522.87 761.69c6.2658-15.807 20.934-35.799 24.37-37.754 4.5711-2.6012 13.637-4.7982 19.698-2.9042 5.9837 1.8699 7.955 10.354 7.7024 13.763-0.25254 3.4093-0.75761 10.354-3.0305 15.531-2.2728 5.177-34.598 17.804-41.037 17.425-6.4397-0.37881-8.9063-3.0238-7.7024-6.0609z" fill="url(#de)"/>
  <path d="m576.41 724.19s4.1037-1.5784 6.9448-0.31568c2.841 1.2627 6.0609 7.3236 7.0079 11.806s-0.63134 11.112-1.9572 14.205c-1.3258 3.0936-5.9978 9.4702-5.9978 9.4702l-10.985-5.8084s3.1567-5.3033 5.2402-9.4702 2.9673-7.6393 2.6516-10.607c-0.31567-2.9673-2.9042-9.2808-2.9042-9.2808z" fill="url(#dd)"/>
  <path d="m328.36 367.79s-5.5558 2.3991-8.0812 6.8185-2.1466 12.753-2.1466 12.753-11.358 0.69982-19.929-2.2466-30.625-15.893-47.857-16.429c-17.232-0.53572-28.304-1.6964-42.143 9.5536s-15.982 25.804-16.875 33.304c-0.89285 7.5-2.3214 17.946 4.1072 28.214s10.357 13.929 16.518 15.446c6.1607 1.5178 15.357 0.80357 15.357 0.80357s1.4286 15.268 8.3036 17.321c6.875 2.0536 10.357-8.3036 10.357-8.3036s16.786 10 26.964 11.964c10.179 1.9643 19.018 1.6964 19.018 1.6964s2.2322 12.054 10.268 12.232c8.0357 0.17857 10.357-13.839 10.357-13.839s15.982-2.0536 26.161-4.5536 24.196-8.2143 24.196-8.2143 9.6192 15.858 12.965 21.919c3.3461 6.0609 11.49 22.539 24.181 27.211 10.209 3.7584 19.003 1.3258 21.592 0.0631 2.5885-1.2627 9.1545-8.0812 13.006-15.279 3.8512-7.1973 7.6393-14.205 13.448-25.822 5.8084-11.617 15.91-26.264 22.476-36.366s18.056-33.84 11.996-49.75c-6.0609-15.91-11.364-18.94-14.9-21.087-3.5355-2.1466-5.0508-3.1567-5.0508-3.1567s-1.8309-11.806-0.50508-24.496c1.3119-12.557 2.9042-24.622 2.9042-24.622-35.608-14.9-95.207-24.622-106.07-23.107s-14.355 11.68-16.541 18.814c-4.7982 15.657-8.6494 36.302-14.079 59.157z" stroke="#000" stroke-width="5"/>
  <path d="m369.8 279.51s5.8463 1.2142 8.4979 2.3837 9.4724 3.8223 9.4724 3.8223l-8.5863 13.149s8.46-11.916 14.71-15.393c6.2503-3.4768 9.9121-3.5401 12.564-2.7815 2.6516 0.7586 7.0711 4.0458 9.1545 9.2295s4.23 12.643 4.8614 17.068c0.63135 4.4251 1.1364 8.9134 1.1364 8.9134s0.44194-12.39-1.7046-20.671c0 0 21.466 7.0802 24.812 8.9134s19.13 8.5341 19.13 8.5341-2.9673 11.632-3.8512 26.298c-0.88388 14.666 0 22.505 0 22.505l-8.2075 0.63216s11.112 0.37929 17.93 7.8387c6.8185 7.4594 10.859 16.436 11.49 23.643 0.63135 7.2065-4.0406 26.424-11.364 38.941-7.3236 12.517-19.824 29.079-24.496 39.067s-15.91 36.286-26.011 40.458-22.35-0.5057-25.759-4.4251c-3.4093-3.9194-7.8287-7.9652-13.89-18.712-6.0609-10.747-13.763-25.413-13.763-25.413l4.4194-2.1493s9.7227 19.976 13.132 25.539 8.2075 15.172 12.501 16.436 10.102 2.2758 14.773 0c4.672-2.2758 13.637-12.011 15.657-20.735 2.0203-8.7237 5.4296-17.574 7.4499-28.573 2.0203-11 9.5964-60.308 9.5964-60.308 5.8084-0.12627 14.647 0.63377 19.572 3.4117-2.1466-4.2932-11.617-10.112-23.486-7.963-11.869 2.1493-21.845 10.241-21.845 10.241s14.521-5.6876 18.814-4.93c0 0-5.5558 15.044-16.036 26.803-10.48 11.758-34.188 29.965-46.72 35.78-18.378 8.5285-32.531 12.89-44.022 15.292-11.49 2.4022-36.653 6.525-54.348 2.7355-21.097-4.5182-58.282-31.467-58.282-31.467s2.5221 7.0644 11.004 10.283c-5.0893 0.26818-15.973 1.0099-22.032-4.5576-10.345-9.506-14.656-18.736-11.942-40.228 2.436-19.295 16.979-37.862 40.915-38.708 36.676-1.297 52.604 17.371 72.611 18.686 16.682 1.0964 37.955-3.6104 42.433-12.693 3.9533-8.0182 8.3378-17.729 10.022-30.573 1.3767-10.499 5.2064-33.718-3.1706-35.259-10.701-1.9686-13.874 21.197-16.313 35.505-2.4392 14.307-0.71837 22.467-0.71837 22.467s-1.9422 0.0911-4.4422 1.8792c8.3659-0.69724 12.518 5.6385 12.518 5.6385-5.9821 9.387-27.206 10.547-27.206 10.547s-3.4766-12.493 9.4698-17.321c5.8036-19.4 6.2482-32.91 10.273-46.734 4.0252-13.824 7.1243-27.122 16.88-30.731 5.402-1.9983 7.7287 4.5822 11.523 12.405 0 0-0.4354-12.158-6.864-14.214z" fill="url(#cu)"/>
  <path d="m359.3 291.47c-0.58802-4e-3 -1.231 0.094-1.9062 0.34375-9.7562 3.609-12.85 16.926-16.875 30.75-4.0252 13.824-4.4777 27.319-10.281 46.719-12.946 4.8276-9.4688 17.312-9.4688 17.312s21.237-1.1442 27.219-10.531c0 0-4.1653-6.3535-12.531-5.6562 2.5-1.7881 4.4375-1.875 4.4375-1.875s-1.7204-8.1613 0.71875-22.469c2.4392-14.307 5.6115-37.469 16.312-35.5 4.6356 0.8528 5.5437 8.3558 5.1875 16.656 1.9451-8.6299 4.954-21.197 5.3438-26.031-2.5624-5.411-4.6887-9.6954-8.1562-9.7188z" fill="url(#ct)"/>
  <path d="m376.78 305.1c3.219-8.9 10.607-18.814 18.056-22.223 7.0498-3.2262 12.269-3.3912 15.531-0.63134 4.9245 4.1669 7.8287 9.4702 9.7227 22.855 1.894 13.385 2.0203 27.022 2.1466 27.905 0.12627 0.88389-34.598 16.92-42.679 5.0508-8.0812-11.869-6.8606-21.668-2.7779-32.956z" fill="url(#cs)"/>
  <path d="m395.6 388.94-0.12627 3.7881s4.9245-6.4397 10.733-9.849c5.8084-3.4093 20.329-8.2075 20.329-8.2075l-14.268 2.5254s4.5457-18.056 3.5355-35.86-1.389-39.901-18.435-40.659c-15.786-0.70161-27.527 22.35-29.168 41.164s2.9042 38.891 5.5558 41.416c2.6516 2.5254 8.8388 3.9144 12.248 4.4194 3.4093 0.50508 9.5964 1.2627 9.5964 1.2627z"/>
  <path d="m339.85 326.19c3.0305-9.7227 5.2357-20.961 9.15-27.4 3.2582-5.3603 7.6229-8.0093 10.607-7.4499 4.0406 0.75761 9.1799 10.259 9.2176 15.657 0.18937 27.085-6.0057 18.119-6.4713 11.206-0.23676-3.5153-2.1781-7.6077-6.2819-7.7971-4.1385-0.19101-8.7789 2.9342-11.88 15.956-0.70564 2.9635-4.3415-0.17242-4.3415-0.17242z" fill="url(#cr)"/>
  <path d="m396.61 387.43c4.2932-5.2402 12.248-8.3338 12.248-8.3338s5.6821-16.162 4.5457-36.744-2.0203-32.577-8.8388-36.744-12.501-2.3991-16.415 0.25254c-3.9143 2.6516-15.279 14.521-17.425 36.492-2.1466 21.971 2.9042 37.376 5.8084 40.154 2.9042 2.7779 20.077 4.9245 20.077 4.9245z" fill="#fff"/>
  <path d="m395.49 305.19c-10.289 1.3954-15.843 12.513-19.059 21.178-6.1179 16.487-6.1974 35.87 0.12139 52.415 2.1148 5.5373 13.706 4.8094 19.366 6.3795 3.6968-2.6151 5.0627-4.8958 8.4464-6.1607 5.4947-2.0541 4.9072-9.4445 5.8446-14.456 3.0244-16.169 1.2379-33.261-1.8134-49.387-1.1596-6.1285-6.6882-10.812-12.906-9.9688z" fill="url(#cq)"/>
  <path d="m341.49 369.06c4.4194 1.389 7.4499 5.2402 7.4499 5.2402s7.4499-13.069 9.2808-27.716 3.4093-30.115-0.82075-33.272c-4.23-3.1567-8.46 4.8614-9.849 9.3439-1.389 4.4826-5.0333 18.507-5.9978 27.779-0.6525 6.2731-0.69655 14.076-0.0631 18.625z" fill="#fff"/>
  <path d="m372.49 460.29s6.6923 15.152 11.238 22.728c4.5457 7.5761 6.4397 12.627 10.607 16.668 0.88388-9.2176 2.3991-29.168 6.9448-35.482 7.0844-9.8394 13.763-9.0914 13.763-9.0914s4.672-5.3033 8.7126-7.3236 8.9651-3.1567 8.9651-3.1567l7.5762-48.109s-7.0711 14.521-13.385 22.097c-6.3134 7.5762-25.633 24.37-35.103 30.683-9.4702 6.3134-19.319 10.985-19.319 10.985z" fill="#a00"/>
  <path d="m413.28 458.01c-2.1466 0.75761-8.46 2.7779-11.617 9.9753s-5.3033 32.325-5.3033 32.325 5.9346 4.4194 12.122 1.5152 12.753-10.48 14.395-16.036c1.6415-5.5558 9.5964-38.765 9.5964-38.765s-11.743 2.3991-17.425 12.122c-5.6821 9.7227-6.566 20.961-6.566 20.961s-1.2627-12.374 4.7982-22.097z" fill="#f00"/>
  <path transform="translate(20.832 5.3033)" d="m388.15 345.7a10.859 21.15 0 1 1 -21.718 0 10.859 21.15 0 1 1 21.718 0z"/>
  <path transform="matrix(.82214 0 0 .82214 87.936 66.788)" d="m388.15 345.7a10.859 21.15 0 1 1 -21.718 0 10.859 21.15 0 1 1 21.718 0z" fill="url(#cz)"/>
  <path transform="matrix(.49978 0 0 .49978 208.05 171.79)" d="m388.15 345.7a10.859 21.15 0 1 1 -21.718 0 10.859 21.15 0 1 1 21.718 0z" fill="#fff"/>
  <path d="m355.21 314.62c-4.0753-0.0954-8.2086 13.466-9.9881 21.27-2.3984 10.518-5.0492 22.484-1.7976 32.592 0.80359 2.4979 5.0895 4.769 6.817 0.40178 6.2455-15.789 8.6291-31.676 7.5893-48.496-0.0949-1.5354-0.0854-5.7085-2.6205-5.7679z" fill="url(#cp)"/>
  <path transform="matrix(.50121 .038162 -.051027 .67016 180.13 104.74)" d="m388.15 345.7a10.859 21.15 0 1 1 -21.718 0 10.859 21.15 0 1 1 21.718 0z"/>
  <path transform="matrix(.41206 .031375 -.041951 .55097 210.63 148.51)" d="m388.15 345.7a10.859 21.15 0 1 1 -21.718 0 10.859 21.15 0 1 1 21.718 0z" fill="url(#da)"/>
  <path transform="matrix(.25049 .019073 -.025502 .33493 265.47 223.46)" d="m388.15 345.7a10.859 21.15 0 1 1 -21.718 0 10.859 21.15 0 1 1 21.718 0z" fill="#fff"/>
  <path d="m348.24 382.38c-9.0005 6.0807-33.84 13.89-54.296 5.8084s-46.214-19.193-62.124-15.405-35.103 17.425-36.365 41.669 17.678 23.739 23.991 27.779c6.3135 4.0406 37.376 25.254 57.831 29.547 20.456 4.2932 72.342-11.413 85.358-32.577 9.7459-15.848 2.4647-68.211-14.395-56.821z" fill="url(#co)"/>
  <path d="m387.13 412.68c3.0831-10.91 7.3236-20.961 19.445-27.905s16.582-8.4854 42.931-17.173c11.218-3.6986 22.223 5.0508 26.39 14.773 4.1669 9.7227 4.2932 11.996 0.88388 23.486-3.4093 11.49-9.9752 21.466-16.668 17.93-6.6923-3.5355 8.7126-25.633 1.894-30.431-6.8185-4.7982-13.385-7.4499-21.845-5.9346-8.46 1.5152-19.951 5.177-22.855 10.354-2.9042 5.177-4.672 15.531-11.112 21.592-6.4397 6.0609-12.627 13.385-18.183 8.5863-5.5558-4.7982-2.2711-10.369-0.88388-15.279z" fill="url(#cn)"/>
  <path d="m219.65 441.99s33.036 23.214 49.107 26.964 39.107 5.8929 69.821-3.0357 57.857-25.179 74.464-42.143 21.25-27.5 21.25-27.5-75.183 14.478-101.79 21.786c-30.366 8.3414-94.093 10.316-112.86 23.929z" fill="url(#cm)"/>
  <path d="m248.11 403.42s9.5536-5.1786 16.429 4.375 9.375 19.107 7.5 24.911c-1.875 5.8036-8.3036 8.4821-11.518 7.9464-3.2143-0.53571-8.2237-5.3344-10.089-13.661-1.5542-6.9367-2.1033-18.612 4.1071-23.036-1.8903-0.7474-4.8389-0.56372-6.4286-0.53572z"/>
  <path d="m228.65 394.32c-6.0714 0.35714-11.071 2.3214-17.5 11.25-6.7283 9.3449-6.0714 15.714-5.3571 18.929 0.71428 3.2143 2.5893 5.625 6.5179 5.4464 3.9286-0.17857 8.0357-4.1964 9.9107-7.3214s4.2857-15.089 3.8393-18.839c-0.44643-3.75-3.2143-6.5178-3.2143-6.5178s2.0536-1.6964 5.8036-2.9464z"/>
  <path d="m256.69 404.49s2.3893 0.19747 4.2857 2.3214c2.2321 2.5 6.3393 9.6429 7.6786 14.196 1.3393 4.5536 0.80357 11.696-1.6071 14.018-2.4107 2.3214-5.0429 3.5643-7.3214 2.3214-2.9464-1.6071-5.2678-2.6786-7.2321-9.1964s-1.3383-14.628-0.0893-18.125c1.3393-3.75 4.2857-5.5357 4.2857-5.5357z" fill="url(#cl)"/>
  <path d="m221.06 398.24s2.5893 2.2321 2.8571 5.2679c0.26786 3.0357-0.44643 11.696-2.6786 16.429-2.2322 4.7321-5.7143 7.4107-9.1072 7.5-3.3928 0.0893-4.7321-3.125-5-5.5357-0.26785-2.4107 0.71429-8.0357 3.125-11.964 2.4107-3.9286 5-7.1429 7.0536-9.1964 2.0536-2.0536 3.75-2.5 3.75-2.5z" fill="url(#ck)"/>
  <path d="m229.99 455.03 13.929 8.3036s-1.0714 8.3928-6.6071 8.0357c-5.5357-0.35714-7.3214-16.339-7.3214-16.339z" fill="url(#cj)"/>
  <path d="m294.36 478.6 15.089-0.98214s-2.5 11.429-7.3214 11.607c-4.8214 0.17857-7.7679-10.625-7.7679-10.625z" fill="url(#ci)"/>
  <path d="m370.34 461.34-4.4062 2.1562s7.6891 14.66 13.75 25.406c6.0609 10.747 10.497 14.799 13.906 18.719 3.4093 3.9194 15.648 8.6097 25.75 4.4375 3.8336-1.5834 7.8226-6.363 11.562-12.219l-9.4062-7.0312c-3.4881 4.992-7.9106 9.1482-10.75 10.531-4.672 2.2758-10.457 1.2643-14.75 0s-9.0907-10.875-12.5-16.438-13.156-25.562-13.156-25.562z" fill="url(#ch)"/>
 </g>
</svg>
